#VRML V2.0 utf8
WorldInfo { title "module" }
Transform { translation 0.000000 3.290002 2.249999  children [ Shape { appearance Appearance { material Material { diffuseColor 0.050000 0.420000 0.160000 specularColor 0.180000 0.180000 0.200000 shininess 0.400000 ambientIntensity 0.300000 } } geometry Box { size 27.900000 1.599999 52.499999 } } ] }
Transform { translation -7.500000 4.130000 26.800001  children [ Shape { appearance Appearance { material Material { diffuseColor 0.720000 0.440000 0.160000 specularColor 0.050000 0.050000 0.050000 shininess 0.150000 ambientIntensity 0.250000 } } geometry Box { size 19.000000 0.080000 1.000001 } } ] }
Transform { translation -7.500000 4.130000 25.600001  children [ Shape { appearance Appearance { material Material { diffuseColor 0.720000 0.440000 0.160000 specularColor 0.050000 0.050000 0.050000 shininess 0.150000 ambientIntensity 0.250000 } } geometry Box { size 19.000000 0.080000 0.599999 } } ] }
Transform { translation -7.500000 4.130000 24.600000  children [ Shape { appearance Appearance { material Material { diffuseColor 0.720000 0.440000 0.160000 specularColor 0.050000 0.050000 0.050000 shininess 0.150000 ambientIntensity 0.250000 } } geometry Box { size 19.000000 0.080000 0.399999 } } ] }
Transform { translation 0.000000 5.295002 11.900000  children [ Shape { appearance Appearance { material Material { diffuseColor 0.750000 0.760000 0.780000 specularColor 0.750000 0.750000 0.780000 shininess 0.750000 ambientIntensity 0.350000 } } geometry Box { size 15.499999 2.410000 24.200000 } } ] }
Transform { translation 0.000000 6.540001 11.900000  children [ Shape { appearance Appearance { material Material { diffuseColor 0.600000 0.620000 0.660000 specularColor 0.750000 0.750000 0.780000 shininess 0.750000 ambientIntensity 0.350000 } } geometry Box { size 14.299999 0.080000 23.000000 } } ] }
Transform { translation 0.000000 4.495001 -11.000000  children [ Shape { appearance Appearance { material Material { diffuseColor 0.050000 0.050000 0.060000 specularColor 0.080000 0.080000 0.090000 shininess 0.250000 ambientIntensity 0.250000 } } geometry Box { size 24.000000 0.810001 17.500001 } } ] }
Transform { translation 0.000000 5.150001 -11.000000  children [ Shape { appearance Appearance { material Material { diffuseColor 0.120000 0.120000 0.140000 specularColor 0.050000 0.050000 0.050000 shininess 0.150000 ambientIntensity 0.250000 } } geometry Box { size 6.500000 0.499999 6.500000 } } ] }
Transform { translation 0.000000 3.795002 -26.299999  children [ Shape { appearance Appearance { material Material { diffuseColor 0.750000 0.760000 0.780000 specularColor 0.750000 0.750000 0.780000 shininess 0.750000 ambientIntensity 0.350000 } } geometry Box { size 7.600000 2.610000 4.399999 } } ] }
Transform { translation 0.000000 5.250001 -26.299999  children [ Shape { appearance Appearance { material Material { diffuseColor 0.050000 0.050000 0.060000 specularColor 0.050000 0.050000 0.050000 shininess 0.150000 ambientIntensity 0.250000 } } geometry Box { size 6.200000 0.299999 3.200001 } } ] }
Transform { translation -9.299999 5.045002 -22.300000  children [ Shape { appearance Appearance { material Material { diffuseColor 0.100000 0.100000 0.110000 specularColor 0.080000 0.080000 0.090000 shininess 0.250000 ambientIntensity 0.250000 } } geometry Box { size 3.600000 1.910001 3.600000 } } ] }
Transform { translation 9.299999 5.045002 -22.300000  children [ Shape { appearance Appearance { material Material { diffuseColor 0.100000 0.100000 0.110000 specularColor 0.080000 0.080000 0.090000 shininess 0.250000 ambientIntensity 0.250000 } } geometry Box { size 3.600000 1.910001 3.600000 } } ] }
Transform { translation 0.000000 1.145000 24.860000  children [ Shape { appearance Appearance { material Material { diffuseColor 0.080000 0.070000 0.070000 specularColor 0.080000 0.080000 0.090000 shininess 0.250000 ambientIntensity 0.250000 } } geometry Box { size 46.500001 2.290001 2.540000 } } ] }
Transform { translation 0.000000 2.380001 24.860000  children [ Shape { appearance Appearance { material Material { diffuseColor 0.800000 0.650000 0.200000 specularColor 0.750000 0.750000 0.780000 shininess 0.750000 ambientIntensity 0.350000 } } geometry Box { size 45.900000 0.259999 0.680001 } } ] }
Transform { translation 0.000000 1.145000 -20.860000  children [ Shape { appearance Appearance { material Material { diffuseColor 0.080000 0.070000 0.070000 specularColor 0.080000 0.080000 0.090000 shininess 0.250000 ambientIntensity 0.250000 } } geometry Box { size 46.500001 2.290001 2.540000 } } ] }
Transform { translation 0.000000 2.380001 -20.860000  children [ Shape { appearance Appearance { material Material { diffuseColor 0.800000 0.650000 0.200000 specularColor 0.750000 0.750000 0.780000 shininess 0.750000 ambientIntensity 0.350000 } } geometry Box { size 45.900000 0.259999 0.680001 } } ] }
