#VRML V2.0 utf8
WorldInfo { title "module" }
Transform { translation 0.000000 3.290002 0.635000  children [ Shape { appearance Appearance { material Material { diffuseColor 0.280000 0.060000 0.420000 specularColor 0.180000 0.180000 0.200000 shininess 0.400000 ambientIntensity 0.300000 } } geometry Box { size 21.000001 1.599999 17.800000 } } ] }
Transform { translation 0.000000 4.670002 3.235000  children [ Shape { appearance Appearance { material Material { diffuseColor 0.880000 0.880000 0.860000 specularColor 0.150000 0.150000 0.150000 shininess 0.350000 ambientIntensity 0.250000 } } geometry Box { size 9.000000 1.160000 6.000001 } } ] }
Transform { translation 0.000000 5.410000 3.235000  children [ Shape { appearance Appearance { material Material { diffuseColor 0.750000 0.760000 0.780000 specularColor 0.750000 0.750000 0.780000 shininess 0.750000 ambientIntensity 0.350000 } } geometry Box { size 6.199998 6.199998 6.519997 } } ] }
Transform { translation 0.000000 5.600000 3.235000  children [ Shape { appearance Appearance { material Material { diffuseColor 0.150000 0.020000 0.020000 specularColor 0.500000 0.500000 0.500000 shininess 0.900000 ambientIntensity 0.250000 } } geometry Box { size 4.400001 4.400001 4.600001 } } ] }
Transform { translation 0.000000 1.145000 -8.265000  children [ Shape { appearance Appearance { material Material { diffuseColor 0.080000 0.070000 0.070000 specularColor 0.080000 0.080000 0.090000 shininess 0.250000 ambientIntensity 0.250000 } } geometry Box { size 10.499999 2.290001 2.540000 } } ] }
Transform { translation 0.000000 2.380001 -8.265000  children [ Shape { appearance Appearance { material Material { diffuseColor 0.800000 0.650000 0.200000 specularColor 0.750000 0.750000 0.780000 shininess 0.750000 ambientIntensity 0.350000 } } geometry Box { size 9.900001 0.259999 0.680001 } } ] }
