#VRML V2.0 utf8
WorldInfo { title "module" }
Transform { translation 0.000000 4.399999 -0.134999  children [ Shape { appearance Appearance { material Material { diffuseColor 0.050000 0.100000 0.380000 specularColor 0.180000 0.180000 0.200000 shininess 0.400000 ambientIntensity 0.300000 } } geometry Box { size 25.999999 1.599999 21.000001 } } ] }
Transform { translation 0.000000 5.599999 -0.635001  children [ Shape { appearance Appearance { material Material { diffuseColor 0.750000 0.760000 0.780000 specularColor 0.750000 0.750000 0.780000 shininess 0.750000 ambientIntensity 0.350000 } } geometry Box { size 11.199998 11.199998 11.999999 } } ] }
Transform { translation 0.000000 8.109999 -0.635001  children [ Shape { appearance Appearance { material Material { diffuseColor 0.750000 0.760000 0.780000 specularColor 0.750000 0.750000 0.780000 shininess 0.750000 ambientIntensity 0.350000 } } geometry Box { size 9.300002 9.300002 13.600001 } } ] }
Transform { translation 0.000000 10.259997 -0.635001  children [ Shape { appearance Appearance { material Material { diffuseColor 0.750000 0.760000 0.780000 specularColor 0.750000 0.750000 0.780000 shininess 0.750000 ambientIntensity 0.350000 } } geometry Sphere { radius 1.830709 } } ] } Transform { translation 0.000000 4.997006 3.612205 children [ Shape { appearance Appearance { material Material { diffuseColor 0.050000 0.050000 0.060000 specularColor 0.080000 0.080000 0.090000 shininess 0.250000 ambientIntensity 0.250000 } } geometry Box { size 2.200001 0.349999 2.200001 } } ] }
Transform { translation 0.000000 2.254997 9.365000  children [ Shape { appearance Appearance { material Material { diffuseColor 0.080000 0.070000 0.070000 specularColor 0.080000 0.080000 0.090000 shininess 0.250000 ambientIntensity 0.250000 } } geometry Box { size 5.599999 2.290001 2.540000 } } ] }
Transform { translation 0.000000 3.489998 9.365000  children [ Shape { appearance Appearance { material Material { diffuseColor 0.800000 0.650000 0.200000 specularColor 0.750000 0.750000 0.780000 shininess 0.750000 ambientIntensity 0.350000 } } geometry Box { size 5.000000 0.259999 0.680001 } } ] }
