#VRML V2.0 utf8
WorldInfo { title "module" }
Transform { translation 0.000000 3.290002 0.635001  children [ Shape { appearance Appearance { material Material { diffuseColor 0.050000 0.100000 0.380000 specularColor 0.180000 0.180000 0.200000 shininess 0.400000 ambientIntensity 0.300000 } } geometry Box { size 59.999999 1.599999 39.999999 } } ] }
Transform { translation 0.000000 4.200000 14.985000  children [ Shape { appearance Appearance { material Material { diffuseColor 0.720000 0.440000 0.160000 specularColor 0.750000 0.750000 0.780000 shininess 0.750000 ambientIntensity 0.350000 } } geometry Box { size 45.999999 0.220000 1.300000 } } ] }
Transform { translation 0.000000 4.200000 -13.715001  children [ Shape { appearance Appearance { material Material { diffuseColor 0.720000 0.440000 0.160000 specularColor 0.750000 0.750000 0.780000 shininess 0.750000 ambientIntensity 0.350000 } } geometry Box { size 45.999999 0.220000 1.300000 } } ] }
Transform { translation -22.350001 4.200000 0.635001  children [ Shape { appearance Appearance { material Material { diffuseColor 0.720000 0.440000 0.160000 specularColor 0.750000 0.750000 0.780000 shininess 0.750000 ambientIntensity 0.350000 } } geometry Box { size 1.300000 0.220000 27.400001 } } ] }
Transform { translation 22.350001 4.200000 0.635001  children [ Shape { appearance Appearance { material Material { diffuseColor 0.720000 0.440000 0.160000 specularColor 0.750000 0.750000 0.780000 shininess 0.750000 ambientIntensity 0.350000 } } geometry Box { size 1.300000 0.220000 27.400001 } } ] }
Transform { translation 0.000000 4.200000 13.185001  children [ Shape { appearance Appearance { material Material { diffuseColor 0.720000 0.440000 0.160000 specularColor 0.750000 0.750000 0.780000 shininess 0.750000 ambientIntensity 0.350000 } } geometry Box { size 42.399999 0.220000 1.300000 } } ] }
Transform { translation 0.000000 4.200000 -11.915000  children [ Shape { appearance Appearance { material Material { diffuseColor 0.720000 0.440000 0.160000 specularColor 0.750000 0.750000 0.780000 shininess 0.750000 ambientIntensity 0.350000 } } geometry Box { size 42.399999 0.220000 1.300000 } } ] }
Transform { translation -20.550000 4.200000 0.635001  children [ Shape { appearance Appearance { material Material { diffuseColor 0.720000 0.440000 0.160000 specularColor 0.750000 0.750000 0.780000 shininess 0.750000 ambientIntensity 0.350000 } } geometry Box { size 1.300000 0.220000 23.800001 } } ] }
Transform { translation 20.550000 4.200000 0.635001  children [ Shape { appearance Appearance { material Material { diffuseColor 0.720000 0.440000 0.160000 specularColor 0.750000 0.750000 0.780000 shininess 0.750000 ambientIntensity 0.350000 } } geometry Box { size 1.300000 0.220000 23.800001 } } ] }
Transform { translation 0.000000 4.200000 11.384999  children [ Shape { appearance Appearance { material Material { diffuseColor 0.720000 0.440000 0.160000 specularColor 0.750000 0.750000 0.780000 shininess 0.750000 ambientIntensity 0.350000 } } geometry Box { size 38.800001 0.220000 1.300000 } } ] }
Transform { translation 0.000000 4.200000 -10.115001  children [ Shape { appearance Appearance { material Material { diffuseColor 0.720000 0.440000 0.160000 specularColor 0.750000 0.750000 0.780000 shininess 0.750000 ambientIntensity 0.350000 } } geometry Box { size 38.800001 0.220000 1.300000 } } ] }
Transform { translation -18.750001 4.200000 0.635001  children [ Shape { appearance Appearance { material Material { diffuseColor 0.720000 0.440000 0.160000 specularColor 0.750000 0.750000 0.780000 shininess 0.750000 ambientIntensity 0.350000 } } geometry Box { size 1.300000 0.220000 20.200000 } } ] }
Transform { translation 18.750001 4.200000 0.635001  children [ Shape { appearance Appearance { material Material { diffuseColor 0.720000 0.440000 0.160000 specularColor 0.750000 0.750000 0.780000 shininess 0.750000 ambientIntensity 0.350000 } } geometry Box { size 1.300000 0.220000 20.200000 } } ] }
Transform { translation 7.999999 4.420002 -10.365000  children [ Shape { appearance Appearance { material Material { diffuseColor 0.050000 0.050000 0.060000 specularColor 0.080000 0.080000 0.090000 shininess 0.250000 ambientIntensity 0.250000 } } geometry Box { size 6.000001 0.660001 6.000001 } } ] }
Transform { translation 7.999999 4.770002 -10.365000  children [ Shape { appearance Appearance { material Material { diffuseColor 0.800000 0.650000 0.200000 specularColor 0.750000 0.750000 0.780000 shininess 0.750000 ambientIntensity 0.350000 } } geometry Box { size 5.000000 0.040000 5.000000 } } ] }
Transform { translation -24.000000 4.320000 13.635000  children [ Shape { appearance Appearance { material Material { diffuseColor 0.050000 0.050000 0.060000 specularColor 0.080000 0.080000 0.090000 shininess 0.250000 ambientIntensity 0.250000 } } geometry Box { size 9.000000 0.459999 5.000000 } } ] }
Transform { translation 0.000000 1.145000 -19.365000  children [ Shape { appearance Appearance { material Material { diffuseColor 0.080000 0.070000 0.070000 specularColor 0.080000 0.080000 0.090000 shininess 0.250000 ambientIntensity 0.250000 } } geometry Box { size 18.500001 2.290001 2.540000 } } ] }
Transform { translation 0.000000 2.380001 -19.365000  children [ Shape { appearance Appearance { material Material { diffuseColor 0.800000 0.650000 0.200000 specularColor 0.750000 0.750000 0.780000 shininess 0.750000 ambientIntensity 0.350000 } } geometry Box { size 17.900000 0.259999 0.680001 } } ] }
