#VRML V2.0 utf8
WorldInfo { title "module" }
Transform { translation 0.750000 0.799999 -0.000000  children [ Shape { appearance Appearance { material Material { diffuseColor 0.050000 0.420000 0.160000 specularColor 0.180000 0.180000 0.200000 shininess 0.400000 ambientIntensity 0.300000 } } geometry Box { size 37.000000 1.599999 21.999999 } } ] }
Transform { translation -16.750000 5.000001 4.000000  children [ Shape { appearance Appearance { material Material { diffuseColor 0.120000 0.200000 0.620000 specularColor 0.200000 0.200000 0.250000 shininess 0.300000 ambientIntensity 0.250000 } } geometry Box { size 6.000001 10.000000 6.400000 } } ] }
Transform { translation -16.750000 10.175000 4.000000  children [ Shape { appearance Appearance { material Material { diffuseColor 0.600000 0.620000 0.660000 specularColor 0.750000 0.750000 0.780000 shininess 0.750000 ambientIntensity 0.350000 } } geometry Box { size 3.199999 3.199999 3.549998 } } ] }
Transform { translation -16.750000 10.424999 4.000000  children [ Shape { appearance Appearance { material Material { diffuseColor 0.050000 0.050000 0.060000 specularColor 0.050000 0.050000 0.050000 shininess 0.150000 ambientIntensity 0.250000 } } geometry Box { size 1.200000 0.150000 2.600000 } } ] }
Transform { translation -16.750000 5.000001 -4.000000  children [ Shape { appearance Appearance { material Material { diffuseColor 0.120000 0.200000 0.620000 specularColor 0.200000 0.200000 0.250000 shininess 0.300000 ambientIntensity 0.250000 } } geometry Box { size 6.000001 10.000000 6.400000 } } ] }
Transform { translation -16.750000 10.175000 -4.000000  children [ Shape { appearance Appearance { material Material { diffuseColor 0.600000 0.620000 0.660000 specularColor 0.750000 0.750000 0.780000 shininess 0.750000 ambientIntensity 0.350000 } } geometry Box { size 3.199999 3.199999 3.549998 } } ] }
Transform { translation -16.750000 10.424999 -4.000000  children [ Shape { appearance Appearance { material Material { diffuseColor 0.050000 0.050000 0.060000 specularColor 0.050000 0.050000 0.050000 shininess 0.150000 ambientIntensity 0.250000 } } geometry Box { size 1.200000 0.150000 2.600000 } } ] }
Transform { translation 4.750000 2.049999 2.999999  children [ Shape { appearance Appearance { material Material { diffuseColor 0.050000 0.050000 0.060000 specularColor 0.080000 0.080000 0.090000 shininess 0.250000 ambientIntensity 0.250000 } } geometry Box { size 9.000000 0.900001 9.000000 } } ] }
Transform { translation 15.750001 3.599999 -2.999999  children [ Shape { appearance Appearance { material Material { diffuseColor 0.100000 0.100000 0.110000 specularColor 0.080000 0.080000 0.090000 shininess 0.250000 ambientIntensity 0.250000 } } geometry Box { size 7.999999 4.000000 7.999999 } } ] }
Transform { translation -5.250000 1.800000 -6.000001  children [ Shape { appearance Appearance { material Material { diffuseColor 0.750000 0.050000 0.050000 specularColor 0.400000 0.400000 0.400000 shininess 0.700000 ambientIntensity 0.250000 } } geometry Box { size 3.500001 0.399999 2.500000 } } ] }
Transform { translation 13.750000 3.100000 6.000001  children [ Shape { appearance Appearance { material Material { diffuseColor 0.920000 0.880000 0.620000 specularColor 0.080000 0.080000 0.090000 shininess 0.250000 ambientIntensity 0.250000 } } geometry Box { size 7.999999 2.999999 4.600001 } } ] }
Transform { translation 17.650000 2.700001 6.000001  children [ Shape { appearance Appearance { material Material { diffuseColor 0.800000 0.650000 0.200000 specularColor 0.750000 0.750000 0.780000 shininess 0.750000 ambientIntensity 0.350000 } } geometry Box { size 1.200000 2.200001 1.100000 } } ] }
Transform { translation 15.249999 2.700001 6.000001  children [ Shape { appearance Appearance { material Material { diffuseColor 0.800000 0.650000 0.200000 specularColor 0.750000 0.750000 0.780000 shininess 0.750000 ambientIntensity 0.350000 } } geometry Box { size 1.200000 2.200001 1.100000 } } ] }
Transform { translation 12.850002 2.700001 6.000001  children [ Shape { appearance Appearance { material Material { diffuseColor 0.800000 0.650000 0.200000 specularColor 0.750000 0.750000 0.780000 shininess 0.750000 ambientIntensity 0.350000 } } geometry Box { size 1.200000 2.200001 1.100000 } } ] }
