#VRML V2.0 utf8
WorldInfo { title "module" }
Transform { translation 0.000000 3.290002 0.000000  children [ Shape { appearance Appearance { material Material { diffuseColor 0.050000 0.420000 0.160000 specularColor 0.180000 0.180000 0.200000 shininess 0.400000 ambientIntensity 0.300000 } } geometry Box { size 71.000000 1.599999 45.999999 } } ] }
Transform { translation 0.000000 4.220000 1.200000  children [ Shape { appearance Appearance { material Material { diffuseColor 0.010000 0.010000 0.020000 specularColor 0.600000 0.600000 0.650000 shininess 0.850000 ambientIntensity 0.250000 } } geometry Box { size 50.600000 0.259999 38.699999 } } ] }
Transform { translation 0.000000 4.380000 1.899999  children [ Shape { appearance Appearance { material Material { diffuseColor 0.030000 0.050000 0.200000 specularColor 0.050000 0.050000 0.050000 shininess 0.150000 ambientIntensity 0.250000 } } geometry Box { size 47.000000 0.060000 34.599999 } } ] }
Transform { translation 0.000000 4.430002 1.899999  children [ Shape { appearance Appearance { material Material { diffuseColor 0.050000 0.090000 0.280000 specularColor 0.050000 0.050000 0.050000 shininess 0.150000 ambientIntensity 0.250000 } } geometry Box { size 43.499999 0.040000 31.500000 } } ] }
Transform { translation -33.399999 4.970001 1.000001  children [ Shape { appearance Appearance { material Material { diffuseColor 0.050000 0.050000 0.060000 specularColor 0.080000 0.080000 0.090000 shininess 0.250000 ambientIntensity 0.250000 } } geometry Box { size 2.200001 1.759999 25.999999 } } ] }
Transform { translation 0.000000 1.145000 -20.000001  children [ Shape { appearance Appearance { material Material { diffuseColor 0.080000 0.070000 0.070000 specularColor 0.080000 0.080000 0.090000 shininess 0.250000 ambientIntensity 0.250000 } } geometry Box { size 34.500000 2.290001 2.540000 } } ] }
Transform { translation 0.000000 2.380001 -20.000001  children [ Shape { appearance Appearance { material Material { diffuseColor 0.800000 0.650000 0.200000 specularColor 0.750000 0.750000 0.780000 shininess 0.750000 ambientIntensity 0.350000 } } geometry Box { size 33.900001 0.259999 0.680001 } } ] }
