#VRML V2.0 utf8
WorldInfo { title "module" }
Transform { translation 0.000000 0.799999 -0.000000  children [ Shape { appearance Appearance { material Material { diffuseColor 0.040000 0.080000 0.340000 specularColor 0.180000 0.180000 0.200000 shininess 0.400000 ambientIntensity 0.300000 } } geometry Box { size 26.500000 1.599999 16.999999 } } ] }
Transform { translation -11.400000 1.275000 -0.000000  children [ Shape { appearance Appearance { material Material { diffuseColor 0.750000 0.760000 0.780000 specularColor 0.750000 0.750000 0.780000 shininess 0.750000 ambientIntensity 0.350000 } } geometry Box { size 3.700000 2.550000 4.000000 } } ] }
Transform { translation 2.999999 1.900000 -2.000001  children [ Shape { appearance Appearance { material Material { diffuseColor 0.050000 0.050000 0.060000 specularColor 0.080000 0.080000 0.090000 shininess 0.250000 ambientIntensity 0.250000 } } geometry Box { size 4.500001 0.599999 4.500001 } } ] }
Transform { translation 2.999999 2.219999 -2.000001  children [ Shape { appearance Appearance { material Material { diffuseColor 0.050000 0.050000 0.060000 specularColor 0.050000 0.050000 0.050000 shininess 0.150000 ambientIntensity 0.250000 } } geometry Box { size 3.600000 0.040000 3.600000 } } ] }
Transform { translation 7.999999 1.850000 4.000000  children [ Shape { appearance Appearance { material Material { diffuseColor 0.100000 0.100000 0.120000 specularColor 0.080000 0.080000 0.090000 shininess 0.250000 ambientIntensity 0.250000 } } geometry Box { size 3.200001 0.499999 4.500001 } } ] }
Transform { translation 11.000001 1.775001 -5.000000  children [ Shape { appearance Appearance { material Material { diffuseColor 0.750000 0.050000 0.050000 specularColor 0.400000 0.400000 0.400000 shininess 0.700000 ambientIntensity 0.250000 } } geometry Box { size 1.799999 0.349999 1.200000 } } ] }
Transform { translation -4.000000 0.849999 6.000001  children [ Shape { appearance Appearance { material Material { diffuseColor 0.150000 0.150000 0.160000 specularColor 0.080000 0.080000 0.090000 shininess 0.250000 ambientIntensity 0.250000 } } geometry Box { size 5.000000 1.699999 4.000000 } } ] }
Transform { translation 9.000000 1.500000 5.499999  children [ Shape { appearance Appearance { material Material { diffuseColor 0.920000 0.880000 0.620000 specularColor 0.080000 0.080000 0.090000 shininess 0.250000 ambientIntensity 0.250000 } } geometry Box { size 7.000001 2.999999 4.199999 } } ] }
Transform { translation 11.600000 2.674999 5.499999  children [ Shape { appearance Appearance { material Material { diffuseColor 0.800000 0.650000 0.200000 specularColor 0.750000 0.750000 0.780000 shininess 0.750000 ambientIntensity 0.350000 } } geometry Box { size 1.100000 0.950001 1.000001 } } ] }
Transform { translation 9.000000 2.674999 5.499999  children [ Shape { appearance Appearance { material Material { diffuseColor 0.800000 0.650000 0.200000 specularColor 0.750000 0.750000 0.780000 shininess 0.750000 ambientIntensity 0.350000 } } geometry Box { size 1.100000 0.950001 1.000001 } } ] }
Transform { translation 6.400000 2.674999 5.499999  children [ Shape { appearance Appearance { material Material { diffuseColor 0.800000 0.650000 0.200000 specularColor 0.750000 0.750000 0.780000 shininess 0.750000 ambientIntensity 0.350000 } } geometry Box { size 1.100000 0.950001 1.000001 } } ] }
