#VRML V2.0 utf8
WorldInfo { title "module" }
Transform { translation 0.000000 -0.098425 1.314961  children [ Shape { appearance Appearance { material Material { diffuseColor 0.050000 0.420000 0.160000 specularColor 0.180000 0.180000 0.200000 shininess 0.400000 ambientIntensity 0.300000 } } geometry Box { size 10.984252 20.669291 0.629921 } } ] }
Transform { translation -2.952756 -9.763780 1.645669  children [ Shape { appearance Appearance { material Material { diffuseColor 0.720000 0.440000 0.160000 specularColor 0.050000 0.050000 0.050000 shininess 0.150000 ambientIntensity 0.250000 } } geometry Box { size 7.480315 0.393701 0.031496 } } ] }
Transform { translation -2.952756 -9.291339 1.645669  children [ Shape { appearance Appearance { material Material { diffuseColor 0.720000 0.440000 0.160000 specularColor 0.050000 0.050000 0.050000 shininess 0.150000 ambientIntensity 0.250000 } } geometry Box { size 7.480315 0.236220 0.031496 } } ] }
Transform { translation -2.952756 -8.897638 1.645669  children [ Shape { appearance Appearance { material Material { diffuseColor 0.720000 0.440000 0.160000 specularColor 0.050000 0.050000 0.050000 shininess 0.150000 ambientIntensity 0.250000 } } geometry Box { size 7.480315 0.157480 0.031496 } } ] }
Transform { translation 0.000000 -3.897638 2.104331  children [ Shape { appearance Appearance { material Material { diffuseColor 0.750000 0.760000 0.780000 specularColor 0.750000 0.750000 0.780000 shininess 0.750000 ambientIntensity 0.350000 } } geometry Box { size 6.102362 9.527559 0.948819 } } ] }
Transform { translation 0.000000 -3.897638 2.594488  children [ Shape { appearance Appearance { material Material { diffuseColor 0.600000 0.620000 0.660000 specularColor 0.750000 0.750000 0.780000 shininess 0.750000 ambientIntensity 0.350000 } } geometry Box { size 5.629921 9.055118 0.031496 } } ] }
Transform { translation 0.000000 5.118110 1.789370  children [ Shape { appearance Appearance { material Material { diffuseColor 0.050000 0.050000 0.060000 specularColor 0.080000 0.080000 0.090000 shininess 0.250000 ambientIntensity 0.250000 } } geometry Box { size 9.448819 6.889764 0.318898 } } ] }
Transform { translation 0.000000 5.118110 2.047244  children [ Shape { appearance Appearance { material Material { diffuseColor 0.120000 0.120000 0.140000 specularColor 0.050000 0.050000 0.050000 shininess 0.150000 ambientIntensity 0.250000 } } geometry Box { size 2.559055 2.559055 0.196850 } } ] }
Transform { translation 0.000000 11.141732 1.513780  children [ Shape { appearance Appearance { material Material { diffuseColor 0.750000 0.760000 0.780000 specularColor 0.750000 0.750000 0.780000 shininess 0.750000 ambientIntensity 0.350000 } } geometry Box { size 2.992126 1.732283 1.027559 } } ] }
Transform { translation 0.000000 11.141732 2.086614  children [ Shape { appearance Appearance { material Material { diffuseColor 0.050000 0.050000 0.060000 specularColor 0.050000 0.050000 0.050000 shininess 0.150000 ambientIntensity 0.250000 } } geometry Box { size 2.440945 1.259843 0.118110 } } ] }
Transform { translation -3.661417 9.566929 2.005906  children [ Shape { appearance Appearance { material Material { diffuseColor 0.100000 0.100000 0.110000 specularColor 0.080000 0.080000 0.090000 shininess 0.250000 ambientIntensity 0.250000 } } geometry Box { size 1.417323 1.417323 0.751969 } } ] }
Transform { translation 3.661417 9.566929 2.005906  children [ Shape { appearance Appearance { material Material { diffuseColor 0.100000 0.100000 0.110000 specularColor 0.080000 0.080000 0.090000 shininess 0.250000 ambientIntensity 0.250000 } } geometry Box { size 1.417323 1.417323 0.751969 } } ] }
Transform { translation 0.000000 -9.000000 0.470472  children [ Shape { appearance Appearance { material Material { diffuseColor 0.080000 0.070000 0.070000 specularColor 0.080000 0.080000 0.090000 shininess 0.250000 ambientIntensity 0.250000 } } geometry Box { size 18.307087 1.000000 0.901575 } } ] }
Transform { translation 0.000000 -9.000000 0.956693  children [ Shape { appearance Appearance { material Material { diffuseColor 0.800000 0.650000 0.200000 specularColor 0.750000 0.750000 0.780000 shininess 0.750000 ambientIntensity 0.350000 } } geometry Box { size 18.070866 0.267717 0.102362 } } ] }
Transform { translation 0.000000 9.000000 0.470472  children [ Shape { appearance Appearance { material Material { diffuseColor 0.080000 0.070000 0.070000 specularColor 0.080000 0.080000 0.090000 shininess 0.250000 ambientIntensity 0.250000 } } geometry Box { size 18.307087 1.000000 0.901575 } } ] }
Transform { translation 0.000000 9.000000 0.956693  children [ Shape { appearance Appearance { material Material { diffuseColor 0.800000 0.650000 0.200000 specularColor 0.750000 0.750000 0.780000 shininess 0.750000 ambientIntensity 0.350000 } } geometry Box { size 18.070866 0.267717 0.102362 } } ] }
