#VRML V2.0 utf8
WorldInfo { title "module" }
Transform { translation 0.000000 -3.503937 1.314961  children [ Shape { appearance Appearance { material Material { diffuseColor 0.280000 0.060000 0.420000 specularColor 0.180000 0.180000 0.200000 shininess 0.400000 ambientIntensity 0.300000 } } geometry Box { size 8.267717 7.007874 0.629921 } } ] }
Transform { translation 0.000000 -4.527559 1.858268  children [ Shape { appearance Appearance { material Material { diffuseColor 0.880000 0.880000 0.860000 specularColor 0.150000 0.150000 0.150000 shininess 0.350000 ambientIntensity 0.250000 } } geometry Box { size 3.543307 2.362205 0.456693 } } ] }
Transform { translation 0.000000 -4.527559 2.149606 rotation 1 0 0 1.5708 children [ Shape { appearance Appearance { material Material { diffuseColor 0.750000 0.760000 0.780000 specularColor 0.750000 0.750000 0.780000 shininess 0.750000 ambientIntensity 0.350000 } } geometry Cylinder { radius 1.220472 height 0.125984 } } ] }
Transform { translation 0.000000 -4.527559 2.224409 rotation 1 0 0 1.5708 children [ Shape { appearance Appearance { material Material { diffuseColor 0.150000 0.020000 0.020000 specularColor 0.500000 0.500000 0.500000 shininess 0.900000 ambientIntensity 0.250000 } } geometry Cylinder { radius 0.866142 height 0.078740 } } ] }
Transform { translation 0.000000 0.000000 0.470472  children [ Shape { appearance Appearance { material Material { diffuseColor 0.080000 0.070000 0.070000 specularColor 0.080000 0.080000 0.090000 shininess 0.250000 ambientIntensity 0.250000 } } geometry Box { size 4.133858 1.000000 0.901575 } } ] }
Transform { translation 0.000000 0.000000 0.956693  children [ Shape { appearance Appearance { material Material { diffuseColor 0.800000 0.650000 0.200000 specularColor 0.750000 0.750000 0.780000 shininess 0.750000 ambientIntensity 0.350000 } } geometry Box { size 3.897638 0.267717 0.102362 } } ] }
