#VRML V2.0 utf8
WorldInfo { title "module" }
Transform { translation 0.000000 3.740157 1.314961  children [ Shape { appearance Appearance { material Material { diffuseColor 0.050000 0.100000 0.380000 specularColor 0.180000 0.180000 0.200000 shininess 0.400000 ambientIntensity 0.300000 } } geometry Box { size 10.236220 8.267717 0.629921 } } ] }
Transform { translation 0.000000 3.937008 1.787402 rotation 1 0 0 1.5708 children [ Shape { appearance Appearance { material Material { diffuseColor 0.750000 0.760000 0.780000 specularColor 0.750000 0.750000 0.780000 shininess 0.750000 ambientIntensity 0.350000 } } geometry Cylinder { radius 2.204724 height 0.314961 } } ] }
Transform { translation 0.000000 3.937008 2.775591 rotation 1 0 0 1.5708 children [ Shape { appearance Appearance { material Material { diffuseColor 0.750000 0.760000 0.780000 specularColor 0.750000 0.750000 0.780000 shininess 0.750000 ambientIntensity 0.350000 } } geometry Cylinder { radius 1.830709 height 1.692913 } } ] }
Transform { translation 0.000000 3.937008 3.622047  children [ Shape { appearance Appearance { material Material { diffuseColor 0.750000 0.760000 0.780000 specularColor 0.750000 0.750000 0.780000 shininess 0.750000 ambientIntensity 0.350000 } } geometry Sphere { radius 1.830709 } } ] }
Transform { translation 0.000000 3.937008 3.612205  children [ Shape { appearance Appearance { material Material { diffuseColor 0.050000 0.050000 0.060000 specularColor 0.080000 0.080000 0.090000 shininess 0.250000 ambientIntensity 0.250000 } } geometry Box { size 0.866142 0.866142 0.137795 } } ] }
Transform { translation 0.000000 0.000000 0.470472  children [ Shape { appearance Appearance { material Material { diffuseColor 0.080000 0.070000 0.070000 specularColor 0.080000 0.080000 0.090000 shininess 0.250000 ambientIntensity 0.250000 } } geometry Box { size 2.204724 1.000000 0.901575 } } ] }
Transform { translation 0.000000 0.000000 0.956693  children [ Shape { appearance Appearance { material Material { diffuseColor 0.800000 0.650000 0.200000 specularColor 0.750000 0.750000 0.780000 shininess 0.750000 ambientIntensity 0.350000 } } geometry Box { size 1.968504 0.267717 0.102362 } } ] }
