#VRML V2.0 utf8
WorldInfo { title "module" }
Transform { translation 0.000000 -7.874016 1.314961  children [ Shape { appearance Appearance { material Material { diffuseColor 0.050000 0.100000 0.380000 specularColor 0.180000 0.180000 0.200000 shininess 0.400000 ambientIntensity 0.300000 } } geometry Box { size 23.622047 15.748031 0.629921 } } ] }
Transform { translation 0.000000 -13.523622 1.673228  children [ Shape { appearance Appearance { material Material { diffuseColor 0.720000 0.440000 0.160000 specularColor 0.750000 0.750000 0.780000 shininess 0.750000 ambientIntensity 0.350000 } } geometry Box { size 18.110236 0.511811 0.086614 } } ] }
Transform { translation 0.000000 -2.224409 1.673228  children [ Shape { appearance Appearance { material Material { diffuseColor 0.720000 0.440000 0.160000 specularColor 0.750000 0.750000 0.780000 shininess 0.750000 ambientIntensity 0.350000 } } geometry Box { size 18.110236 0.511811 0.086614 } } ] }
Transform { translation -8.799213 -7.874016 1.673228  children [ Shape { appearance Appearance { material Material { diffuseColor 0.720000 0.440000 0.160000 specularColor 0.750000 0.750000 0.780000 shininess 0.750000 ambientIntensity 0.350000 } } geometry Box { size 0.511811 10.787402 0.086614 } } ] }
Transform { translation 8.799213 -7.874016 1.673228  children [ Shape { appearance Appearance { material Material { diffuseColor 0.720000 0.440000 0.160000 specularColor 0.750000 0.750000 0.780000 shininess 0.750000 ambientIntensity 0.350000 } } geometry Box { size 0.511811 10.787402 0.086614 } } ] }
Transform { translation 0.000000 -12.814961 1.673228  children [ Shape { appearance Appearance { material Material { diffuseColor 0.720000 0.440000 0.160000 specularColor 0.750000 0.750000 0.780000 shininess 0.750000 ambientIntensity 0.350000 } } geometry Box { size 16.692913 0.511811 0.086614 } } ] }
Transform { translation 0.000000 -2.933071 1.673228  children [ Shape { appearance Appearance { material Material { diffuseColor 0.720000 0.440000 0.160000 specularColor 0.750000 0.750000 0.780000 shininess 0.750000 ambientIntensity 0.350000 } } geometry Box { size 16.692913 0.511811 0.086614 } } ] }
Transform { translation -8.090551 -7.874016 1.673228  children [ Shape { appearance Appearance { material Material { diffuseColor 0.720000 0.440000 0.160000 specularColor 0.750000 0.750000 0.780000 shininess 0.750000 ambientIntensity 0.350000 } } geometry Box { size 0.511811 9.370079 0.086614 } } ] }
Transform { translation 8.090551 -7.874016 1.673228  children [ Shape { appearance Appearance { material Material { diffuseColor 0.720000 0.440000 0.160000 specularColor 0.750000 0.750000 0.780000 shininess 0.750000 ambientIntensity 0.350000 } } geometry Box { size 0.511811 9.370079 0.086614 } } ] }
Transform { translation 0.000000 -12.106299 1.673228  children [ Shape { appearance Appearance { material Material { diffuseColor 0.720000 0.440000 0.160000 specularColor 0.750000 0.750000 0.780000 shininess 0.750000 ambientIntensity 0.350000 } } geometry Box { size 15.275591 0.511811 0.086614 } } ] }
Transform { translation 0.000000 -3.641732 1.673228  children [ Shape { appearance Appearance { material Material { diffuseColor 0.720000 0.440000 0.160000 specularColor 0.750000 0.750000 0.780000 shininess 0.750000 ambientIntensity 0.350000 } } geometry Box { size 15.275591 0.511811 0.086614 } } ] }
Transform { translation -7.381890 -7.874016 1.673228  children [ Shape { appearance Appearance { material Material { diffuseColor 0.720000 0.440000 0.160000 specularColor 0.750000 0.750000 0.780000 shininess 0.750000 ambientIntensity 0.350000 } } geometry Box { size 0.511811 7.952756 0.086614 } } ] }
Transform { translation 7.381890 -7.874016 1.673228  children [ Shape { appearance Appearance { material Material { diffuseColor 0.720000 0.440000 0.160000 specularColor 0.750000 0.750000 0.780000 shininess 0.750000 ambientIntensity 0.350000 } } geometry Box { size 0.511811 7.952756 0.086614 } } ] }
Transform { translation 3.149606 -3.543307 1.759843  children [ Shape { appearance Appearance { material Material { diffuseColor 0.050000 0.050000 0.060000 specularColor 0.080000 0.080000 0.090000 shininess 0.250000 ambientIntensity 0.250000 } } geometry Box { size 2.362205 2.362205 0.259843 } } ] }
Transform { translation 3.149606 -3.543307 1.897638  children [ Shape { appearance Appearance { material Material { diffuseColor 0.800000 0.650000 0.200000 specularColor 0.750000 0.750000 0.780000 shininess 0.750000 ambientIntensity 0.350000 } } geometry Box { size 1.968504 1.968504 0.015748 } } ] }
Transform { translation -9.448819 -12.992126 1.720472  children [ Shape { appearance Appearance { material Material { diffuseColor 0.050000 0.050000 0.060000 specularColor 0.080000 0.080000 0.090000 shininess 0.250000 ambientIntensity 0.250000 } } geometry Box { size 3.543307 1.968504 0.181102 } } ] }
Transform { translation 0.000000 0.000000 0.470472  children [ Shape { appearance Appearance { material Material { diffuseColor 0.080000 0.070000 0.070000 specularColor 0.080000 0.080000 0.090000 shininess 0.250000 ambientIntensity 0.250000 } } geometry Box { size 7.283465 1.000000 0.901575 } } ] }
Transform { translation 0.000000 0.000000 0.956693  children [ Shape { appearance Appearance { material Material { diffuseColor 0.800000 0.650000 0.200000 specularColor 0.750000 0.750000 0.780000 shininess 0.750000 ambientIntensity 0.350000 } } geometry Box { size 7.047244 0.267717 0.102362 } } ] }
