#VRML V2.0 utf8
WorldInfo { title "module" }
Transform { translation 0.000000 0.000000 0.629921  children [ Shape { appearance Appearance { material Material { diffuseColor 0.050000 0.420000 0.160000 specularColor 0.180000 0.180000 0.200000 shininess 0.400000 ambientIntensity 0.300000 } } geometry Box { size 14.566929 8.661417 0.629921 } } ] }
Transform { translation -6.889764 -1.574803 2.283465  children [ Shape { appearance Appearance { material Material { diffuseColor 0.120000 0.200000 0.620000 specularColor 0.200000 0.200000 0.250000 shininess 0.300000 ambientIntensity 0.250000 } } geometry Box { size 2.362205 2.519685 3.937008 } } ] }
Transform { translation -6.889764 -1.574803 4.320866 rotation 1 0 0 1.5708 children [ Shape { appearance Appearance { material Material { diffuseColor 0.600000 0.620000 0.660000 specularColor 0.750000 0.750000 0.780000 shininess 0.750000 ambientIntensity 0.350000 } } geometry Cylinder { radius 0.629921 height 0.137795 } } ] }
Transform { translation -6.889764 -1.574803 4.419291  children [ Shape { appearance Appearance { material Material { diffuseColor 0.050000 0.050000 0.060000 specularColor 0.050000 0.050000 0.050000 shininess 0.150000 ambientIntensity 0.250000 } } geometry Box { size 0.472441 1.023622 0.059055 } } ] }
Transform { translation -6.889764 1.574803 2.283465  children [ Shape { appearance Appearance { material Material { diffuseColor 0.120000 0.200000 0.620000 specularColor 0.200000 0.200000 0.250000 shininess 0.300000 ambientIntensity 0.250000 } } geometry Box { size 2.362205 2.519685 3.937008 } } ] }
Transform { translation -6.889764 1.574803 4.320866 rotation 1 0 0 1.5708 children [ Shape { appearance Appearance { material Material { diffuseColor 0.600000 0.620000 0.660000 specularColor 0.750000 0.750000 0.780000 shininess 0.750000 ambientIntensity 0.350000 } } geometry Cylinder { radius 0.629921 height 0.137795 } } ] }
Transform { translation -6.889764 1.574803 4.419291  children [ Shape { appearance Appearance { material Material { diffuseColor 0.050000 0.050000 0.060000 specularColor 0.050000 0.050000 0.050000 shininess 0.150000 ambientIntensity 0.250000 } } geometry Box { size 0.472441 1.023622 0.059055 } } ] }
Transform { translation 1.574803 -1.181102 1.122047  children [ Shape { appearance Appearance { material Material { diffuseColor 0.050000 0.050000 0.060000 specularColor 0.080000 0.080000 0.090000 shininess 0.250000 ambientIntensity 0.250000 } } geometry Box { size 3.543307 3.543307 0.354331 } } ] }
Transform { translation 5.905512 1.181102 1.732283  children [ Shape { appearance Appearance { material Material { diffuseColor 0.100000 0.100000 0.110000 specularColor 0.080000 0.080000 0.090000 shininess 0.250000 ambientIntensity 0.250000 } } geometry Box { size 3.149606 3.149606 1.574803 } } ] }
Transform { translation -2.362205 2.362205 1.023622  children [ Shape { appearance Appearance { material Material { diffuseColor 0.750000 0.050000 0.050000 specularColor 0.400000 0.400000 0.400000 shininess 0.700000 ambientIntensity 0.250000 } } geometry Box { size 1.377953 0.984252 0.157480 } } ] }
Transform { translation 5.118110 -2.362205 1.535433  children [ Shape { appearance Appearance { material Material { diffuseColor 0.920000 0.880000 0.620000 specularColor 0.080000 0.080000 0.090000 shininess 0.250000 ambientIntensity 0.250000 } } geometry Box { size 3.149606 1.811024 1.181102 } } ] }
Transform { translation 6.653543 -2.362205 1.377953  children [ Shape { appearance Appearance { material Material { diffuseColor 0.800000 0.650000 0.200000 specularColor 0.750000 0.750000 0.780000 shininess 0.750000 ambientIntensity 0.350000 } } geometry Box { size 0.472441 0.433071 0.866142 } } ] }
Transform { translation 5.708661 -2.362205 1.377953  children [ Shape { appearance Appearance { material Material { diffuseColor 0.800000 0.650000 0.200000 specularColor 0.750000 0.750000 0.780000 shininess 0.750000 ambientIntensity 0.350000 } } geometry Box { size 0.472441 0.433071 0.866142 } } ] }
Transform { translation 4.763780 -2.362205 1.377953  children [ Shape { appearance Appearance { material Material { diffuseColor 0.800000 0.650000 0.200000 specularColor 0.750000 0.750000 0.780000 shininess 0.750000 ambientIntensity 0.350000 } } geometry Box { size 0.472441 0.433071 0.866142 } } ] }
