#VRML V2.0 utf8
WorldInfo { title "module" }
Transform { translation 0.000000 -7.874016 1.314961  children [ Shape { appearance Appearance { material Material { diffuseColor 0.050000 0.420000 0.160000 specularColor 0.180000 0.180000 0.200000 shininess 0.400000 ambientIntensity 0.300000 } } geometry Box { size 27.952756 18.110236 0.629921 } } ] }
Transform { translation 0.000000 -8.346457 1.681102  children [ Shape { appearance Appearance { material Material { diffuseColor 0.010000 0.010000 0.020000 specularColor 0.600000 0.600000 0.650000 shininess 0.850000 ambientIntensity 0.250000 } } geometry Box { size 19.921260 15.236220 0.102362 } } ] }
Transform { translation 0.000000 -8.622047 1.744094  children [ Shape { appearance Appearance { material Material { diffuseColor 0.030000 0.050000 0.200000 specularColor 0.050000 0.050000 0.050000 shininess 0.150000 ambientIntensity 0.250000 } } geometry Box { size 18.503937 13.622047 0.023622 } } ] }
Transform { translation 0.000000 -8.622047 1.763780  children [ Shape { appearance Appearance { material Material { diffuseColor 0.050000 0.090000 0.280000 specularColor 0.050000 0.050000 0.050000 shininess 0.150000 ambientIntensity 0.250000 } } geometry Box { size 17.125984 12.401575 0.015748 } } ] }
Transform { translation -13.149606 -8.267717 1.976378  children [ Shape { appearance Appearance { material Material { diffuseColor 0.050000 0.050000 0.060000 specularColor 0.080000 0.080000 0.090000 shininess 0.250000 ambientIntensity 0.250000 } } geometry Box { size 0.866142 10.236220 0.692913 } } ] }
Transform { translation 0.000000 0.000000 0.470472  children [ Shape { appearance Appearance { material Material { diffuseColor 0.080000 0.070000 0.070000 specularColor 0.080000 0.080000 0.090000 shininess 0.250000 ambientIntensity 0.250000 } } geometry Box { size 13.582677 1.000000 0.901575 } } ] }
Transform { translation 0.000000 0.000000 0.956693  children [ Shape { appearance Appearance { material Material { diffuseColor 0.800000 0.650000 0.200000 specularColor 0.750000 0.750000 0.780000 shininess 0.750000 ambientIntensity 0.350000 } } geometry Box { size 13.346457 0.267717 0.102362 } } ] }
