#VRML V2.0 utf8
WorldInfo { title "module" }
Transform { translation 0.000000 0.000000 0.629921  children [ Shape { appearance Appearance { material Material { diffuseColor 0.040000 0.080000 0.340000 specularColor 0.180000 0.180000 0.200000 shininess 0.400000 ambientIntensity 0.300000 } } geometry Box { size 10.433071 6.692913 0.629921 } } ] }
Transform { translation -4.488189 0.000000 0.816929  children [ Shape { appearance Appearance { material Material { diffuseColor 0.750000 0.760000 0.780000 specularColor 0.750000 0.750000 0.780000 shininess 0.750000 ambientIntensity 0.350000 } } geometry Box { size 1.456693 1.574803 1.003937 } } ] }
Transform { translation 1.181102 0.787402 1.062992  children [ Shape { appearance Appearance { material Material { diffuseColor 0.050000 0.050000 0.060000 specularColor 0.080000 0.080000 0.090000 shininess 0.250000 ambientIntensity 0.250000 } } geometry Box { size 1.771654 1.771654 0.236220 } } ] }
Transform { translation 1.181102 0.787402 1.188976  children [ Shape { appearance Appearance { material Material { diffuseColor 0.050000 0.050000 0.060000 specularColor 0.050000 0.050000 0.050000 shininess 0.150000 ambientIntensity 0.250000 } } geometry Box { size 1.417323 1.417323 0.015748 } } ] }
Transform { translation 3.149606 -1.574803 1.043307  children [ Shape { appearance Appearance { material Material { diffuseColor 0.100000 0.100000 0.120000 specularColor 0.080000 0.080000 0.090000 shininess 0.250000 ambientIntensity 0.250000 } } geometry Box { size 1.259843 1.771654 0.196850 } } ] }
Transform { translation 4.330709 1.968504 1.013780  children [ Shape { appearance Appearance { material Material { diffuseColor 0.750000 0.050000 0.050000 specularColor 0.400000 0.400000 0.400000 shininess 0.700000 ambientIntensity 0.250000 } } geometry Box { size 0.708661 0.472441 0.137795 } } ] }
Transform { translation -1.574803 -2.362205 0.649606  children [ Shape { appearance Appearance { material Material { diffuseColor 0.150000 0.150000 0.160000 specularColor 0.080000 0.080000 0.090000 shininess 0.250000 ambientIntensity 0.250000 } } geometry Box { size 1.968504 1.574803 0.669291 } } ] }
Transform { translation 3.543307 -2.165354 0.905512  children [ Shape { appearance Appearance { material Material { diffuseColor 0.920000 0.880000 0.620000 specularColor 0.080000 0.080000 0.090000 shininess 0.250000 ambientIntensity 0.250000 } } geometry Box { size 2.755906 1.653543 1.181102 } } ] }
Transform { translation 4.566929 -2.165354 1.368110  children [ Shape { appearance Appearance { material Material { diffuseColor 0.800000 0.650000 0.200000 specularColor 0.750000 0.750000 0.780000 shininess 0.750000 ambientIntensity 0.350000 } } geometry Box { size 0.433071 0.393701 0.374016 } } ] }
Transform { translation 3.543307 -2.165354 1.368110  children [ Shape { appearance Appearance { material Material { diffuseColor 0.800000 0.650000 0.200000 specularColor 0.750000 0.750000 0.780000 shininess 0.750000 ambientIntensity 0.350000 } } geometry Box { size 0.433071 0.393701 0.374016 } } ] }
Transform { translation 2.519685 -2.165354 1.368110  children [ Shape { appearance Appearance { material Material { diffuseColor 0.800000 0.650000 0.200000 specularColor 0.750000 0.750000 0.780000 shininess 0.750000 ambientIntensity 0.350000 } } geometry Box { size 0.433071 0.393701 0.374016 } } ] }
