M48
; DRILL file KiCad 10.0.5-10.0.5~ubuntu26.04.1 date 2026-08-21T16:15:36
; FORMAT={-:-/ absolute / metric / decimal}
; #@! TF.CreationDate,2026-08-21T16:15:36+01:00
; #@! TF.GenerationSoftware,Kicad,Pcbnew,10.0.5-10.0.5~ubuntu26.04.1
; #@! TF.FileFunction,MixedPlating,1,2
FMAT,2
METRIC
; #@! TA.AperFunction,Plated,PTH,ViaDrill
T1C0.600
; #@! TA.AperFunction,Plated,PTH,ComponentDrill
T2C1.000
; #@! TA.AperFunction,Plated,PTH,ComponentDrill
T3C1.200
; #@! TA.AperFunction,Plated,PTH,ComponentDrill
T4C1.300
; #@! TA.AperFunction,Plated,PTH,ComponentDrill
T5C1.400
; #@! TA.AperFunction,Plated,PTH,ComponentDrill
T6C1.700
; #@! TA.AperFunction,Plated,PTH,ComponentDrill
T7C3.200
; #@! TA.AperFunction,NonPlated,NPTH,ComponentDrill
T8C3.200
%
G90
G05
T1
X26.67Y-34.925
X55.88Y-55.245
X55.88Y-77.47
X57.15Y-24.765
X73.66Y-27.94
X73.66Y-55.245
X73.66Y-77.47
X75.565Y-33.02
X76.835Y-30.48
X78.105Y-34.925
X78.105Y-37.465
X78.105Y-45.085
X105.41Y-93.345
X106.68Y-95.885
X109.22Y-41.91
X124.46Y-43.18
X127.0Y-37.465
T2
X11.11Y-82.0
X13.65Y-82.0
X16.19Y-82.0
X18.73Y-82.0
X21.27Y-82.0
X23.81Y-82.0
X26.35Y-82.0
X28.89Y-82.0
X36.19Y-84.0
X38.73Y-74.0
X38.73Y-84.0
X41.27Y-74.0
X41.27Y-84.0
X43.81Y-84.0
X45.73Y-74.0
X48.27Y-74.0
X53.3Y-32.14
X53.3Y-34.68
X53.3Y-37.22
X53.3Y-39.76
X53.3Y-42.3
X53.3Y-44.84
X53.3Y-47.38
X53.3Y-49.92
X53.3Y-52.46
X53.3Y-55.0
X53.3Y-57.54
X53.3Y-60.08
X53.3Y-62.62
X53.3Y-65.16
X53.3Y-67.7
X53.3Y-70.24
X53.3Y-72.78
X53.3Y-75.32
X53.3Y-77.86
X56.19Y-93.0
X63.81Y-93.0
X78.7Y-32.14
X78.7Y-34.68
X78.7Y-37.22
X78.7Y-39.76
X78.7Y-42.3
X78.7Y-44.84
X78.7Y-47.38
X78.7Y-49.92
X78.7Y-52.46
X78.7Y-55.0
X78.7Y-57.54
X78.7Y-60.08
X78.7Y-62.62
X78.7Y-65.16
X78.7Y-67.7
X78.7Y-70.24
X78.7Y-72.78
X78.7Y-75.32
X78.7Y-77.86
X106.99Y-46.0
X109.53Y-46.0
X111.26Y-100.0
X112.07Y-46.0
X113.8Y-100.0
X114.61Y-46.0
X116.34Y-100.0
X117.15Y-46.0
X118.88Y-100.0
X119.69Y-46.0
X121.42Y-100.0
X122.23Y-46.0
X123.96Y-100.0
X124.77Y-46.0
X126.5Y-100.0
X127.31Y-46.0
X129.04Y-100.0
X129.85Y-46.0
X132.39Y-46.0
X134.93Y-46.0
X137.47Y-46.0
X140.01Y-46.0
T3
X40.46Y-64.54
X43.0Y-64.54
X45.54Y-64.54
T4
X11.0Y-40.0
X11.0Y-45.0
X19.0Y-39.0
X29.5Y-39.0
X37.5Y-40.0
X37.5Y-45.0
T5
X14.0Y-27.0
X19.08Y-27.0
X24.16Y-27.0
X29.24Y-27.0
T6
X7.0Y-13.0
X7.0Y-21.0
X7.46Y-62.0
X12.54Y-62.0
T7
X43.0Y-57.0
T8
X4.0Y-4.0
X4.0Y-100.0
X156.0Y-52.0
X156.0Y-100.0
M30
