%TF.GenerationSoftware,KiCad,Pcbnew,10.0.5-10.0.5~ubuntu26.04.1*%
%TF.CreationDate,2026-08-21T16:13:44+01:00*%
%TF.ProjectId,PCB_MERA_2,5043425f-4d45-4524-915f-322e6b696361,2*%
%TF.SameCoordinates,Original*%
%TF.FileFunction,Legend,Top*%
%TF.FilePolarity,Positive*%
%FSLAX46Y46*%
G04 Gerber Fmt 4.6, Leading zero omitted, Abs format (unit mm)*
G04 Created by KiCad (PCBNEW 10.0.5-10.0.5~ubuntu26.04.1) date 2026-08-21 16:13:44*
%MOMM*%
%LPD*%
G01*
G04 APERTURE LIST*
%ADD10C,0.400000*%
%ADD11C,0.200000*%
%ADD12C,0.150000*%
%ADD13C,0.120000*%
G04 APERTURE END LIST*
D10*
X56333332Y-12904438D02*
X56333332Y-10904438D01*
X56333332Y-10904438D02*
X56999999Y-12333009D01*
X56999999Y-12333009D02*
X57666665Y-10904438D01*
X57666665Y-10904438D02*
X57666665Y-12904438D01*
X58619046Y-11856819D02*
X59285713Y-11856819D01*
X59571427Y-12904438D02*
X58619046Y-12904438D01*
X58619046Y-12904438D02*
X58619046Y-10904438D01*
X58619046Y-10904438D02*
X59571427Y-10904438D01*
X61571427Y-12904438D02*
X60904760Y-11952057D01*
X60428570Y-12904438D02*
X60428570Y-10904438D01*
X60428570Y-10904438D02*
X61190475Y-10904438D01*
X61190475Y-10904438D02*
X61380951Y-10999676D01*
X61380951Y-10999676D02*
X61476189Y-11094914D01*
X61476189Y-11094914D02*
X61571427Y-11285390D01*
X61571427Y-11285390D02*
X61571427Y-11571104D01*
X61571427Y-11571104D02*
X61476189Y-11761580D01*
X61476189Y-11761580D02*
X61380951Y-11856819D01*
X61380951Y-11856819D02*
X61190475Y-11952057D01*
X61190475Y-11952057D02*
X60428570Y-11952057D01*
X62333332Y-12333009D02*
X63285713Y-12333009D01*
X62142856Y-12904438D02*
X62809522Y-10904438D01*
X62809522Y-10904438D02*
X63476189Y-12904438D01*
X65666666Y-12904438D02*
X65666666Y-10904438D01*
X65666666Y-10904438D02*
X66428571Y-10904438D01*
X66428571Y-10904438D02*
X66619047Y-10999676D01*
X66619047Y-10999676D02*
X66714285Y-11094914D01*
X66714285Y-11094914D02*
X66809523Y-11285390D01*
X66809523Y-11285390D02*
X66809523Y-11571104D01*
X66809523Y-11571104D02*
X66714285Y-11761580D01*
X66714285Y-11761580D02*
X66619047Y-11856819D01*
X66619047Y-11856819D02*
X66428571Y-11952057D01*
X66428571Y-11952057D02*
X65666666Y-11952057D01*
X68809523Y-12713961D02*
X68714285Y-12809200D01*
X68714285Y-12809200D02*
X68428571Y-12904438D01*
X68428571Y-12904438D02*
X68238095Y-12904438D01*
X68238095Y-12904438D02*
X67952380Y-12809200D01*
X67952380Y-12809200D02*
X67761904Y-12618723D01*
X67761904Y-12618723D02*
X67666666Y-12428247D01*
X67666666Y-12428247D02*
X67571428Y-12047295D01*
X67571428Y-12047295D02*
X67571428Y-11761580D01*
X67571428Y-11761580D02*
X67666666Y-11380628D01*
X67666666Y-11380628D02*
X67761904Y-11190152D01*
X67761904Y-11190152D02*
X67952380Y-10999676D01*
X67952380Y-10999676D02*
X68238095Y-10904438D01*
X68238095Y-10904438D02*
X68428571Y-10904438D01*
X68428571Y-10904438D02*
X68714285Y-10999676D01*
X68714285Y-10999676D02*
X68809523Y-11094914D01*
X70333333Y-11856819D02*
X70619047Y-11952057D01*
X70619047Y-11952057D02*
X70714285Y-12047295D01*
X70714285Y-12047295D02*
X70809523Y-12237771D01*
X70809523Y-12237771D02*
X70809523Y-12523485D01*
X70809523Y-12523485D02*
X70714285Y-12713961D01*
X70714285Y-12713961D02*
X70619047Y-12809200D01*
X70619047Y-12809200D02*
X70428571Y-12904438D01*
X70428571Y-12904438D02*
X69666666Y-12904438D01*
X69666666Y-12904438D02*
X69666666Y-10904438D01*
X69666666Y-10904438D02*
X70333333Y-10904438D01*
X70333333Y-10904438D02*
X70523809Y-10999676D01*
X70523809Y-10999676D02*
X70619047Y-11094914D01*
X70619047Y-11094914D02*
X70714285Y-11285390D01*
X70714285Y-11285390D02*
X70714285Y-11475866D01*
X70714285Y-11475866D02*
X70619047Y-11666342D01*
X70619047Y-11666342D02*
X70523809Y-11761580D01*
X70523809Y-11761580D02*
X70333333Y-11856819D01*
X70333333Y-11856819D02*
X69666666Y-11856819D01*
X73000000Y-11571104D02*
X73476190Y-12904438D01*
X73476190Y-12904438D02*
X73952381Y-11571104D01*
X74619048Y-11094914D02*
X74714286Y-10999676D01*
X74714286Y-10999676D02*
X74904762Y-10904438D01*
X74904762Y-10904438D02*
X75380953Y-10904438D01*
X75380953Y-10904438D02*
X75571429Y-10999676D01*
X75571429Y-10999676D02*
X75666667Y-11094914D01*
X75666667Y-11094914D02*
X75761905Y-11285390D01*
X75761905Y-11285390D02*
X75761905Y-11475866D01*
X75761905Y-11475866D02*
X75666667Y-11761580D01*
X75666667Y-11761580D02*
X74523810Y-12904438D01*
X74523810Y-12904438D02*
X75761905Y-12904438D01*
D11*
X54547617Y-15404600D02*
X54642855Y-15452219D01*
X54642855Y-15452219D02*
X54833331Y-15452219D01*
X54833331Y-15452219D02*
X54928569Y-15404600D01*
X54928569Y-15404600D02*
X54976188Y-15309361D01*
X54976188Y-15309361D02*
X54976188Y-15261742D01*
X54976188Y-15261742D02*
X54928569Y-15166504D01*
X54928569Y-15166504D02*
X54833331Y-15118885D01*
X54833331Y-15118885D02*
X54690474Y-15118885D01*
X54690474Y-15118885D02*
X54595236Y-15071266D01*
X54595236Y-15071266D02*
X54547617Y-14976028D01*
X54547617Y-14976028D02*
X54547617Y-14928409D01*
X54547617Y-14928409D02*
X54595236Y-14833171D01*
X54595236Y-14833171D02*
X54690474Y-14785552D01*
X54690474Y-14785552D02*
X54833331Y-14785552D01*
X54833331Y-14785552D02*
X54928569Y-14833171D01*
X55833331Y-15452219D02*
X55833331Y-14928409D01*
X55833331Y-14928409D02*
X55785712Y-14833171D01*
X55785712Y-14833171D02*
X55690474Y-14785552D01*
X55690474Y-14785552D02*
X55499998Y-14785552D01*
X55499998Y-14785552D02*
X55404760Y-14833171D01*
X55833331Y-15404600D02*
X55738093Y-15452219D01*
X55738093Y-15452219D02*
X55499998Y-15452219D01*
X55499998Y-15452219D02*
X55404760Y-15404600D01*
X55404760Y-15404600D02*
X55357141Y-15309361D01*
X55357141Y-15309361D02*
X55357141Y-15214123D01*
X55357141Y-15214123D02*
X55404760Y-15118885D01*
X55404760Y-15118885D02*
X55499998Y-15071266D01*
X55499998Y-15071266D02*
X55738093Y-15071266D01*
X55738093Y-15071266D02*
X55833331Y-15023647D01*
X56309522Y-14785552D02*
X56309522Y-15452219D01*
X56309522Y-14880790D02*
X56357141Y-14833171D01*
X56357141Y-14833171D02*
X56452379Y-14785552D01*
X56452379Y-14785552D02*
X56595236Y-14785552D01*
X56595236Y-14785552D02*
X56690474Y-14833171D01*
X56690474Y-14833171D02*
X56738093Y-14928409D01*
X56738093Y-14928409D02*
X56738093Y-15452219D01*
X57071427Y-14785552D02*
X57452379Y-14785552D01*
X57214284Y-14452219D02*
X57214284Y-15309361D01*
X57214284Y-15309361D02*
X57261903Y-15404600D01*
X57261903Y-15404600D02*
X57357141Y-15452219D01*
X57357141Y-15452219D02*
X57452379Y-15452219D01*
X58166665Y-15404600D02*
X58071427Y-15452219D01*
X58071427Y-15452219D02*
X57880951Y-15452219D01*
X57880951Y-15452219D02*
X57785713Y-15404600D01*
X57785713Y-15404600D02*
X57738094Y-15309361D01*
X57738094Y-15309361D02*
X57738094Y-14928409D01*
X57738094Y-14928409D02*
X57785713Y-14833171D01*
X57785713Y-14833171D02*
X57880951Y-14785552D01*
X57880951Y-14785552D02*
X58071427Y-14785552D01*
X58071427Y-14785552D02*
X58166665Y-14833171D01*
X58166665Y-14833171D02*
X58214284Y-14928409D01*
X58214284Y-14928409D02*
X58214284Y-15023647D01*
X58214284Y-15023647D02*
X57738094Y-15118885D01*
X59404761Y-15071266D02*
X60166666Y-15071266D01*
X59785713Y-15452219D02*
X59785713Y-14690314D01*
X61357142Y-15404600D02*
X61452380Y-15452219D01*
X61452380Y-15452219D02*
X61642856Y-15452219D01*
X61642856Y-15452219D02*
X61738094Y-15404600D01*
X61738094Y-15404600D02*
X61785713Y-15309361D01*
X61785713Y-15309361D02*
X61785713Y-15261742D01*
X61785713Y-15261742D02*
X61738094Y-15166504D01*
X61738094Y-15166504D02*
X61642856Y-15118885D01*
X61642856Y-15118885D02*
X61499999Y-15118885D01*
X61499999Y-15118885D02*
X61404761Y-15071266D01*
X61404761Y-15071266D02*
X61357142Y-14976028D01*
X61357142Y-14976028D02*
X61357142Y-14928409D01*
X61357142Y-14928409D02*
X61404761Y-14833171D01*
X61404761Y-14833171D02*
X61499999Y-14785552D01*
X61499999Y-14785552D02*
X61642856Y-14785552D01*
X61642856Y-14785552D02*
X61738094Y-14833171D01*
X62357142Y-15452219D02*
X62261904Y-15404600D01*
X62261904Y-15404600D02*
X62214285Y-15356980D01*
X62214285Y-15356980D02*
X62166666Y-15261742D01*
X62166666Y-15261742D02*
X62166666Y-14976028D01*
X62166666Y-14976028D02*
X62214285Y-14880790D01*
X62214285Y-14880790D02*
X62261904Y-14833171D01*
X62261904Y-14833171D02*
X62357142Y-14785552D01*
X62357142Y-14785552D02*
X62499999Y-14785552D01*
X62499999Y-14785552D02*
X62595237Y-14833171D01*
X62595237Y-14833171D02*
X62642856Y-14880790D01*
X62642856Y-14880790D02*
X62690475Y-14976028D01*
X62690475Y-14976028D02*
X62690475Y-15261742D01*
X62690475Y-15261742D02*
X62642856Y-15356980D01*
X62642856Y-15356980D02*
X62595237Y-15404600D01*
X62595237Y-15404600D02*
X62499999Y-15452219D01*
X62499999Y-15452219D02*
X62357142Y-15452219D01*
X63261904Y-15452219D02*
X63166666Y-15404600D01*
X63166666Y-15404600D02*
X63119047Y-15309361D01*
X63119047Y-15309361D02*
X63119047Y-14452219D01*
X64071428Y-15452219D02*
X64071428Y-14928409D01*
X64071428Y-14928409D02*
X64023809Y-14833171D01*
X64023809Y-14833171D02*
X63928571Y-14785552D01*
X63928571Y-14785552D02*
X63738095Y-14785552D01*
X63738095Y-14785552D02*
X63642857Y-14833171D01*
X64071428Y-15404600D02*
X63976190Y-15452219D01*
X63976190Y-15452219D02*
X63738095Y-15452219D01*
X63738095Y-15452219D02*
X63642857Y-15404600D01*
X63642857Y-15404600D02*
X63595238Y-15309361D01*
X63595238Y-15309361D02*
X63595238Y-15214123D01*
X63595238Y-15214123D02*
X63642857Y-15118885D01*
X63642857Y-15118885D02*
X63738095Y-15071266D01*
X63738095Y-15071266D02*
X63976190Y-15071266D01*
X63976190Y-15071266D02*
X64071428Y-15023647D01*
X64547619Y-15452219D02*
X64547619Y-14785552D01*
X64547619Y-14452219D02*
X64500000Y-14499838D01*
X64500000Y-14499838D02*
X64547619Y-14547457D01*
X64547619Y-14547457D02*
X64595238Y-14499838D01*
X64595238Y-14499838D02*
X64547619Y-14452219D01*
X64547619Y-14452219D02*
X64547619Y-14547457D01*
X65023809Y-15452219D02*
X65023809Y-14785552D01*
X65023809Y-14976028D02*
X65071428Y-14880790D01*
X65071428Y-14880790D02*
X65119047Y-14833171D01*
X65119047Y-14833171D02*
X65214285Y-14785552D01*
X65214285Y-14785552D02*
X65309523Y-14785552D01*
X66023809Y-15404600D02*
X65928571Y-15452219D01*
X65928571Y-15452219D02*
X65738095Y-15452219D01*
X65738095Y-15452219D02*
X65642857Y-15404600D01*
X65642857Y-15404600D02*
X65595238Y-15309361D01*
X65595238Y-15309361D02*
X65595238Y-14928409D01*
X65595238Y-14928409D02*
X65642857Y-14833171D01*
X65642857Y-14833171D02*
X65738095Y-14785552D01*
X65738095Y-14785552D02*
X65928571Y-14785552D01*
X65928571Y-14785552D02*
X66023809Y-14833171D01*
X66023809Y-14833171D02*
X66071428Y-14928409D01*
X66071428Y-14928409D02*
X66071428Y-15023647D01*
X66071428Y-15023647D02*
X65595238Y-15118885D01*
X67261905Y-15452219D02*
X67261905Y-14452219D01*
X67261905Y-14452219D02*
X67595238Y-15166504D01*
X67595238Y-15166504D02*
X67928571Y-14452219D01*
X67928571Y-14452219D02*
X67928571Y-15452219D01*
X68404762Y-15452219D02*
X68404762Y-14452219D01*
X68404762Y-14452219D02*
X68785714Y-14452219D01*
X68785714Y-14452219D02*
X68880952Y-14499838D01*
X68880952Y-14499838D02*
X68928571Y-14547457D01*
X68928571Y-14547457D02*
X68976190Y-14642695D01*
X68976190Y-14642695D02*
X68976190Y-14785552D01*
X68976190Y-14785552D02*
X68928571Y-14880790D01*
X68928571Y-14880790D02*
X68880952Y-14928409D01*
X68880952Y-14928409D02*
X68785714Y-14976028D01*
X68785714Y-14976028D02*
X68404762Y-14976028D01*
X69404762Y-15452219D02*
X69404762Y-14452219D01*
X69404762Y-14452219D02*
X69785714Y-14452219D01*
X69785714Y-14452219D02*
X69880952Y-14499838D01*
X69880952Y-14499838D02*
X69928571Y-14547457D01*
X69928571Y-14547457D02*
X69976190Y-14642695D01*
X69976190Y-14642695D02*
X69976190Y-14785552D01*
X69976190Y-14785552D02*
X69928571Y-14880790D01*
X69928571Y-14880790D02*
X69880952Y-14928409D01*
X69880952Y-14928409D02*
X69785714Y-14976028D01*
X69785714Y-14976028D02*
X69404762Y-14976028D01*
X70261905Y-14452219D02*
X70833333Y-14452219D01*
X70547619Y-15452219D02*
X70547619Y-14452219D01*
X71928572Y-15071266D02*
X72690477Y-15071266D01*
X73928572Y-15452219D02*
X73928572Y-14785552D01*
X73928572Y-14976028D02*
X73976191Y-14880790D01*
X73976191Y-14880790D02*
X74023810Y-14833171D01*
X74023810Y-14833171D02*
X74119048Y-14785552D01*
X74119048Y-14785552D02*
X74214286Y-14785552D01*
X74928572Y-15404600D02*
X74833334Y-15452219D01*
X74833334Y-15452219D02*
X74642858Y-15452219D01*
X74642858Y-15452219D02*
X74547620Y-15404600D01*
X74547620Y-15404600D02*
X74500001Y-15309361D01*
X74500001Y-15309361D02*
X74500001Y-14928409D01*
X74500001Y-14928409D02*
X74547620Y-14833171D01*
X74547620Y-14833171D02*
X74642858Y-14785552D01*
X74642858Y-14785552D02*
X74833334Y-14785552D01*
X74833334Y-14785552D02*
X74928572Y-14833171D01*
X74928572Y-14833171D02*
X74976191Y-14928409D01*
X74976191Y-14928409D02*
X74976191Y-15023647D01*
X74976191Y-15023647D02*
X74500001Y-15118885D01*
X75309525Y-14785552D02*
X75547620Y-15452219D01*
X75547620Y-15452219D02*
X75785715Y-14785552D01*
X76880954Y-14547457D02*
X76928573Y-14499838D01*
X76928573Y-14499838D02*
X77023811Y-14452219D01*
X77023811Y-14452219D02*
X77261906Y-14452219D01*
X77261906Y-14452219D02*
X77357144Y-14499838D01*
X77357144Y-14499838D02*
X77404763Y-14547457D01*
X77404763Y-14547457D02*
X77452382Y-14642695D01*
X77452382Y-14642695D02*
X77452382Y-14737933D01*
X77452382Y-14737933D02*
X77404763Y-14880790D01*
X77404763Y-14880790D02*
X76833335Y-15452219D01*
X76833335Y-15452219D02*
X77452382Y-15452219D01*
D12*
X65238095Y-23954819D02*
X65238095Y-24764342D01*
X65238095Y-24764342D02*
X65285714Y-24859580D01*
X65285714Y-24859580D02*
X65333333Y-24907200D01*
X65333333Y-24907200D02*
X65428571Y-24954819D01*
X65428571Y-24954819D02*
X65619047Y-24954819D01*
X65619047Y-24954819D02*
X65714285Y-24907200D01*
X65714285Y-24907200D02*
X65761904Y-24859580D01*
X65761904Y-24859580D02*
X65809523Y-24764342D01*
X65809523Y-24764342D02*
X65809523Y-23954819D01*
X66809523Y-24954819D02*
X66238095Y-24954819D01*
X66523809Y-24954819D02*
X66523809Y-23954819D01*
X66523809Y-23954819D02*
X66428571Y-24097676D01*
X66428571Y-24097676D02*
X66333333Y-24192914D01*
X66333333Y-24192914D02*
X66238095Y-24240533D01*
D13*
X63542857Y-23635283D02*
X63923810Y-23635283D01*
X63466667Y-23863855D02*
X63733334Y-23063855D01*
X63733334Y-23063855D02*
X64000000Y-23863855D01*
X64266667Y-23863855D02*
X64266667Y-23063855D01*
X64266667Y-23063855D02*
X64723810Y-23863855D01*
X64723810Y-23863855D02*
X64723810Y-23063855D01*
X64990476Y-23063855D02*
X65447619Y-23063855D01*
X65219047Y-23863855D02*
X65219047Y-23063855D01*
X65714286Y-23444807D02*
X65980952Y-23444807D01*
X66095238Y-23863855D02*
X65714286Y-23863855D01*
X65714286Y-23863855D02*
X65714286Y-23063855D01*
X65714286Y-23063855D02*
X66095238Y-23063855D01*
X66438096Y-23863855D02*
X66438096Y-23063855D01*
X66438096Y-23063855D02*
X66895239Y-23863855D01*
X66895239Y-23863855D02*
X66895239Y-23063855D01*
X67276191Y-23863855D02*
X67276191Y-23063855D01*
X67276191Y-23063855D02*
X67733334Y-23863855D01*
X67733334Y-23863855D02*
X67733334Y-23063855D01*
X68076190Y-23635283D02*
X68457143Y-23635283D01*
X68000000Y-23863855D02*
X68266667Y-23063855D01*
X68266667Y-23063855D02*
X68533333Y-23863855D01*
X50471331Y-32882857D02*
X50471331Y-32511429D01*
X50471331Y-32511429D02*
X50699902Y-32711429D01*
X50699902Y-32711429D02*
X50699902Y-32625714D01*
X50699902Y-32625714D02*
X50728474Y-32568572D01*
X50728474Y-32568572D02*
X50757045Y-32540000D01*
X50757045Y-32540000D02*
X50814188Y-32511429D01*
X50814188Y-32511429D02*
X50957045Y-32511429D01*
X50957045Y-32511429D02*
X51014188Y-32540000D01*
X51014188Y-32540000D02*
X51042760Y-32568572D01*
X51042760Y-32568572D02*
X51071331Y-32625714D01*
X51071331Y-32625714D02*
X51071331Y-32797143D01*
X51071331Y-32797143D02*
X51042760Y-32854286D01*
X51042760Y-32854286D02*
X51014188Y-32882857D01*
X50471331Y-32340000D02*
X51071331Y-32140000D01*
X51071331Y-32140000D02*
X50471331Y-31940000D01*
X50471331Y-31797142D02*
X50471331Y-31425714D01*
X50471331Y-31425714D02*
X50699902Y-31625714D01*
X50699902Y-31625714D02*
X50699902Y-31539999D01*
X50699902Y-31539999D02*
X50728474Y-31482857D01*
X50728474Y-31482857D02*
X50757045Y-31454285D01*
X50757045Y-31454285D02*
X50814188Y-31425714D01*
X50814188Y-31425714D02*
X50957045Y-31425714D01*
X50957045Y-31425714D02*
X51014188Y-31454285D01*
X51014188Y-31454285D02*
X51042760Y-31482857D01*
X51042760Y-31482857D02*
X51071331Y-31539999D01*
X51071331Y-31539999D02*
X51071331Y-31711428D01*
X51071331Y-31711428D02*
X51042760Y-31768571D01*
X51042760Y-31768571D02*
X51014188Y-31797142D01*
X50757045Y-35122856D02*
X50757045Y-34922856D01*
X51071331Y-34837142D02*
X51071331Y-35122856D01*
X51071331Y-35122856D02*
X50471331Y-35122856D01*
X50471331Y-35122856D02*
X50471331Y-34837142D01*
X51071331Y-34579999D02*
X50471331Y-34579999D01*
X50471331Y-34579999D02*
X51071331Y-34237142D01*
X51071331Y-34237142D02*
X50471331Y-34237142D01*
X50471331Y-37720000D02*
X51071331Y-37520000D01*
X51071331Y-37520000D02*
X50471331Y-37320000D01*
X51071331Y-37119999D02*
X50471331Y-37119999D01*
X50471331Y-37119999D02*
X50471331Y-36891428D01*
X50471331Y-36891428D02*
X50499902Y-36834285D01*
X50499902Y-36834285D02*
X50528474Y-36805714D01*
X50528474Y-36805714D02*
X50585617Y-36777142D01*
X50585617Y-36777142D02*
X50671331Y-36777142D01*
X50671331Y-36777142D02*
X50728474Y-36805714D01*
X50728474Y-36805714D02*
X50757045Y-36834285D01*
X50757045Y-36834285D02*
X50785617Y-36891428D01*
X50785617Y-36891428D02*
X50785617Y-37119999D01*
X50471331Y-40274285D02*
X51071331Y-40074285D01*
X51071331Y-40074285D02*
X50471331Y-39874285D01*
X51071331Y-39674284D02*
X50471331Y-39674284D01*
X50471331Y-39674284D02*
X51071331Y-39331427D01*
X51071331Y-39331427D02*
X50471331Y-39331427D01*
X51071331Y-43028571D02*
X50471331Y-43028571D01*
X50471331Y-43028571D02*
X50471331Y-42885714D01*
X50471331Y-42885714D02*
X50499902Y-42800000D01*
X50499902Y-42800000D02*
X50557045Y-42742857D01*
X50557045Y-42742857D02*
X50614188Y-42714286D01*
X50614188Y-42714286D02*
X50728474Y-42685714D01*
X50728474Y-42685714D02*
X50814188Y-42685714D01*
X50814188Y-42685714D02*
X50928474Y-42714286D01*
X50928474Y-42714286D02*
X50985617Y-42742857D01*
X50985617Y-42742857D02*
X51042760Y-42800000D01*
X51042760Y-42800000D02*
X51071331Y-42885714D01*
X51071331Y-42885714D02*
X51071331Y-43028571D01*
X50471331Y-42485714D02*
X50471331Y-42114286D01*
X50471331Y-42114286D02*
X50699902Y-42314286D01*
X50699902Y-42314286D02*
X50699902Y-42228571D01*
X50699902Y-42228571D02*
X50728474Y-42171429D01*
X50728474Y-42171429D02*
X50757045Y-42142857D01*
X50757045Y-42142857D02*
X50814188Y-42114286D01*
X50814188Y-42114286D02*
X50957045Y-42114286D01*
X50957045Y-42114286D02*
X51014188Y-42142857D01*
X51014188Y-42142857D02*
X51042760Y-42171429D01*
X51042760Y-42171429D02*
X51071331Y-42228571D01*
X51071331Y-42228571D02*
X51071331Y-42400000D01*
X51071331Y-42400000D02*
X51042760Y-42457143D01*
X51042760Y-42457143D02*
X51014188Y-42485714D01*
X50671331Y-41600000D02*
X51071331Y-41600000D01*
X50442760Y-41742857D02*
X50871331Y-41885714D01*
X50871331Y-41885714D02*
X50871331Y-41514285D01*
X51071331Y-45568571D02*
X50471331Y-45568571D01*
X50471331Y-45568571D02*
X50471331Y-45425714D01*
X50471331Y-45425714D02*
X50499902Y-45340000D01*
X50499902Y-45340000D02*
X50557045Y-45282857D01*
X50557045Y-45282857D02*
X50614188Y-45254286D01*
X50614188Y-45254286D02*
X50728474Y-45225714D01*
X50728474Y-45225714D02*
X50814188Y-45225714D01*
X50814188Y-45225714D02*
X50928474Y-45254286D01*
X50928474Y-45254286D02*
X50985617Y-45282857D01*
X50985617Y-45282857D02*
X51042760Y-45340000D01*
X51042760Y-45340000D02*
X51071331Y-45425714D01*
X51071331Y-45425714D02*
X51071331Y-45568571D01*
X50471331Y-45025714D02*
X50471331Y-44654286D01*
X50471331Y-44654286D02*
X50699902Y-44854286D01*
X50699902Y-44854286D02*
X50699902Y-44768571D01*
X50699902Y-44768571D02*
X50728474Y-44711429D01*
X50728474Y-44711429D02*
X50757045Y-44682857D01*
X50757045Y-44682857D02*
X50814188Y-44654286D01*
X50814188Y-44654286D02*
X50957045Y-44654286D01*
X50957045Y-44654286D02*
X51014188Y-44682857D01*
X51014188Y-44682857D02*
X51042760Y-44711429D01*
X51042760Y-44711429D02*
X51071331Y-44768571D01*
X51071331Y-44768571D02*
X51071331Y-44940000D01*
X51071331Y-44940000D02*
X51042760Y-44997143D01*
X51042760Y-44997143D02*
X51014188Y-45025714D01*
X50471331Y-44111428D02*
X50471331Y-44397142D01*
X50471331Y-44397142D02*
X50757045Y-44425714D01*
X50757045Y-44425714D02*
X50728474Y-44397142D01*
X50728474Y-44397142D02*
X50699902Y-44340000D01*
X50699902Y-44340000D02*
X50699902Y-44197142D01*
X50699902Y-44197142D02*
X50728474Y-44140000D01*
X50728474Y-44140000D02*
X50757045Y-44111428D01*
X50757045Y-44111428D02*
X50814188Y-44082857D01*
X50814188Y-44082857D02*
X50957045Y-44082857D01*
X50957045Y-44082857D02*
X51014188Y-44111428D01*
X51014188Y-44111428D02*
X51042760Y-44140000D01*
X51042760Y-44140000D02*
X51071331Y-44197142D01*
X51071331Y-44197142D02*
X51071331Y-44340000D01*
X51071331Y-44340000D02*
X51042760Y-44397142D01*
X51042760Y-44397142D02*
X51014188Y-44425714D01*
X51071331Y-48108571D02*
X50471331Y-48108571D01*
X50471331Y-48108571D02*
X50471331Y-47965714D01*
X50471331Y-47965714D02*
X50499902Y-47880000D01*
X50499902Y-47880000D02*
X50557045Y-47822857D01*
X50557045Y-47822857D02*
X50614188Y-47794286D01*
X50614188Y-47794286D02*
X50728474Y-47765714D01*
X50728474Y-47765714D02*
X50814188Y-47765714D01*
X50814188Y-47765714D02*
X50928474Y-47794286D01*
X50928474Y-47794286D02*
X50985617Y-47822857D01*
X50985617Y-47822857D02*
X51042760Y-47880000D01*
X51042760Y-47880000D02*
X51071331Y-47965714D01*
X51071331Y-47965714D02*
X51071331Y-48108571D01*
X50471331Y-47565714D02*
X50471331Y-47194286D01*
X50471331Y-47194286D02*
X50699902Y-47394286D01*
X50699902Y-47394286D02*
X50699902Y-47308571D01*
X50699902Y-47308571D02*
X50728474Y-47251429D01*
X50728474Y-47251429D02*
X50757045Y-47222857D01*
X50757045Y-47222857D02*
X50814188Y-47194286D01*
X50814188Y-47194286D02*
X50957045Y-47194286D01*
X50957045Y-47194286D02*
X51014188Y-47222857D01*
X51014188Y-47222857D02*
X51042760Y-47251429D01*
X51042760Y-47251429D02*
X51071331Y-47308571D01*
X51071331Y-47308571D02*
X51071331Y-47480000D01*
X51071331Y-47480000D02*
X51042760Y-47537143D01*
X51042760Y-47537143D02*
X51014188Y-47565714D01*
X50528474Y-46965714D02*
X50499902Y-46937142D01*
X50499902Y-46937142D02*
X50471331Y-46880000D01*
X50471331Y-46880000D02*
X50471331Y-46737142D01*
X50471331Y-46737142D02*
X50499902Y-46680000D01*
X50499902Y-46680000D02*
X50528474Y-46651428D01*
X50528474Y-46651428D02*
X50585617Y-46622857D01*
X50585617Y-46622857D02*
X50642760Y-46622857D01*
X50642760Y-46622857D02*
X50728474Y-46651428D01*
X50728474Y-46651428D02*
X51071331Y-46994285D01*
X51071331Y-46994285D02*
X51071331Y-46622857D01*
X51071331Y-50648571D02*
X50471331Y-50648571D01*
X50471331Y-50648571D02*
X50471331Y-50505714D01*
X50471331Y-50505714D02*
X50499902Y-50420000D01*
X50499902Y-50420000D02*
X50557045Y-50362857D01*
X50557045Y-50362857D02*
X50614188Y-50334286D01*
X50614188Y-50334286D02*
X50728474Y-50305714D01*
X50728474Y-50305714D02*
X50814188Y-50305714D01*
X50814188Y-50305714D02*
X50928474Y-50334286D01*
X50928474Y-50334286D02*
X50985617Y-50362857D01*
X50985617Y-50362857D02*
X51042760Y-50420000D01*
X51042760Y-50420000D02*
X51071331Y-50505714D01*
X51071331Y-50505714D02*
X51071331Y-50648571D01*
X50471331Y-50105714D02*
X50471331Y-49734286D01*
X50471331Y-49734286D02*
X50699902Y-49934286D01*
X50699902Y-49934286D02*
X50699902Y-49848571D01*
X50699902Y-49848571D02*
X50728474Y-49791429D01*
X50728474Y-49791429D02*
X50757045Y-49762857D01*
X50757045Y-49762857D02*
X50814188Y-49734286D01*
X50814188Y-49734286D02*
X50957045Y-49734286D01*
X50957045Y-49734286D02*
X51014188Y-49762857D01*
X51014188Y-49762857D02*
X51042760Y-49791429D01*
X51042760Y-49791429D02*
X51071331Y-49848571D01*
X51071331Y-49848571D02*
X51071331Y-50020000D01*
X51071331Y-50020000D02*
X51042760Y-50077143D01*
X51042760Y-50077143D02*
X51014188Y-50105714D01*
X50471331Y-49534285D02*
X50471331Y-49162857D01*
X50471331Y-49162857D02*
X50699902Y-49362857D01*
X50699902Y-49362857D02*
X50699902Y-49277142D01*
X50699902Y-49277142D02*
X50728474Y-49220000D01*
X50728474Y-49220000D02*
X50757045Y-49191428D01*
X50757045Y-49191428D02*
X50814188Y-49162857D01*
X50814188Y-49162857D02*
X50957045Y-49162857D01*
X50957045Y-49162857D02*
X51014188Y-49191428D01*
X51014188Y-49191428D02*
X51042760Y-49220000D01*
X51042760Y-49220000D02*
X51071331Y-49277142D01*
X51071331Y-49277142D02*
X51071331Y-49448571D01*
X51071331Y-49448571D02*
X51042760Y-49505714D01*
X51042760Y-49505714D02*
X51014188Y-49534285D01*
X51071331Y-53188571D02*
X50471331Y-53188571D01*
X50471331Y-53188571D02*
X50471331Y-53045714D01*
X50471331Y-53045714D02*
X50499902Y-52960000D01*
X50499902Y-52960000D02*
X50557045Y-52902857D01*
X50557045Y-52902857D02*
X50614188Y-52874286D01*
X50614188Y-52874286D02*
X50728474Y-52845714D01*
X50728474Y-52845714D02*
X50814188Y-52845714D01*
X50814188Y-52845714D02*
X50928474Y-52874286D01*
X50928474Y-52874286D02*
X50985617Y-52902857D01*
X50985617Y-52902857D02*
X51042760Y-52960000D01*
X51042760Y-52960000D02*
X51071331Y-53045714D01*
X51071331Y-53045714D02*
X51071331Y-53188571D01*
X50528474Y-52617143D02*
X50499902Y-52588571D01*
X50499902Y-52588571D02*
X50471331Y-52531429D01*
X50471331Y-52531429D02*
X50471331Y-52388571D01*
X50471331Y-52388571D02*
X50499902Y-52331429D01*
X50499902Y-52331429D02*
X50528474Y-52302857D01*
X50528474Y-52302857D02*
X50585617Y-52274286D01*
X50585617Y-52274286D02*
X50642760Y-52274286D01*
X50642760Y-52274286D02*
X50728474Y-52302857D01*
X50728474Y-52302857D02*
X51071331Y-52645714D01*
X51071331Y-52645714D02*
X51071331Y-52274286D01*
X50471331Y-51731428D02*
X50471331Y-52017142D01*
X50471331Y-52017142D02*
X50757045Y-52045714D01*
X50757045Y-52045714D02*
X50728474Y-52017142D01*
X50728474Y-52017142D02*
X50699902Y-51960000D01*
X50699902Y-51960000D02*
X50699902Y-51817142D01*
X50699902Y-51817142D02*
X50728474Y-51760000D01*
X50728474Y-51760000D02*
X50757045Y-51731428D01*
X50757045Y-51731428D02*
X50814188Y-51702857D01*
X50814188Y-51702857D02*
X50957045Y-51702857D01*
X50957045Y-51702857D02*
X51014188Y-51731428D01*
X51014188Y-51731428D02*
X51042760Y-51760000D01*
X51042760Y-51760000D02*
X51071331Y-51817142D01*
X51071331Y-51817142D02*
X51071331Y-51960000D01*
X51071331Y-51960000D02*
X51042760Y-52017142D01*
X51042760Y-52017142D02*
X51014188Y-52045714D01*
X51071331Y-55728571D02*
X50471331Y-55728571D01*
X50471331Y-55728571D02*
X50471331Y-55585714D01*
X50471331Y-55585714D02*
X50499902Y-55500000D01*
X50499902Y-55500000D02*
X50557045Y-55442857D01*
X50557045Y-55442857D02*
X50614188Y-55414286D01*
X50614188Y-55414286D02*
X50728474Y-55385714D01*
X50728474Y-55385714D02*
X50814188Y-55385714D01*
X50814188Y-55385714D02*
X50928474Y-55414286D01*
X50928474Y-55414286D02*
X50985617Y-55442857D01*
X50985617Y-55442857D02*
X51042760Y-55500000D01*
X51042760Y-55500000D02*
X51071331Y-55585714D01*
X51071331Y-55585714D02*
X51071331Y-55728571D01*
X50528474Y-55157143D02*
X50499902Y-55128571D01*
X50499902Y-55128571D02*
X50471331Y-55071429D01*
X50471331Y-55071429D02*
X50471331Y-54928571D01*
X50471331Y-54928571D02*
X50499902Y-54871429D01*
X50499902Y-54871429D02*
X50528474Y-54842857D01*
X50528474Y-54842857D02*
X50585617Y-54814286D01*
X50585617Y-54814286D02*
X50642760Y-54814286D01*
X50642760Y-54814286D02*
X50728474Y-54842857D01*
X50728474Y-54842857D02*
X51071331Y-55185714D01*
X51071331Y-55185714D02*
X51071331Y-54814286D01*
X50471331Y-54300000D02*
X50471331Y-54414285D01*
X50471331Y-54414285D02*
X50499902Y-54471428D01*
X50499902Y-54471428D02*
X50528474Y-54500000D01*
X50528474Y-54500000D02*
X50614188Y-54557142D01*
X50614188Y-54557142D02*
X50728474Y-54585714D01*
X50728474Y-54585714D02*
X50957045Y-54585714D01*
X50957045Y-54585714D02*
X51014188Y-54557142D01*
X51014188Y-54557142D02*
X51042760Y-54528571D01*
X51042760Y-54528571D02*
X51071331Y-54471428D01*
X51071331Y-54471428D02*
X51071331Y-54357142D01*
X51071331Y-54357142D02*
X51042760Y-54300000D01*
X51042760Y-54300000D02*
X51014188Y-54271428D01*
X51014188Y-54271428D02*
X50957045Y-54242857D01*
X50957045Y-54242857D02*
X50814188Y-54242857D01*
X50814188Y-54242857D02*
X50757045Y-54271428D01*
X50757045Y-54271428D02*
X50728474Y-54300000D01*
X50728474Y-54300000D02*
X50699902Y-54357142D01*
X50699902Y-54357142D02*
X50699902Y-54471428D01*
X50699902Y-54471428D02*
X50728474Y-54528571D01*
X50728474Y-54528571D02*
X50757045Y-54557142D01*
X50757045Y-54557142D02*
X50814188Y-54585714D01*
X51071331Y-58268571D02*
X50471331Y-58268571D01*
X50471331Y-58268571D02*
X50471331Y-58125714D01*
X50471331Y-58125714D02*
X50499902Y-58040000D01*
X50499902Y-58040000D02*
X50557045Y-57982857D01*
X50557045Y-57982857D02*
X50614188Y-57954286D01*
X50614188Y-57954286D02*
X50728474Y-57925714D01*
X50728474Y-57925714D02*
X50814188Y-57925714D01*
X50814188Y-57925714D02*
X50928474Y-57954286D01*
X50928474Y-57954286D02*
X50985617Y-57982857D01*
X50985617Y-57982857D02*
X51042760Y-58040000D01*
X51042760Y-58040000D02*
X51071331Y-58125714D01*
X51071331Y-58125714D02*
X51071331Y-58268571D01*
X50528474Y-57697143D02*
X50499902Y-57668571D01*
X50499902Y-57668571D02*
X50471331Y-57611429D01*
X50471331Y-57611429D02*
X50471331Y-57468571D01*
X50471331Y-57468571D02*
X50499902Y-57411429D01*
X50499902Y-57411429D02*
X50528474Y-57382857D01*
X50528474Y-57382857D02*
X50585617Y-57354286D01*
X50585617Y-57354286D02*
X50642760Y-57354286D01*
X50642760Y-57354286D02*
X50728474Y-57382857D01*
X50728474Y-57382857D02*
X51071331Y-57725714D01*
X51071331Y-57725714D02*
X51071331Y-57354286D01*
X50471331Y-57154285D02*
X50471331Y-56754285D01*
X50471331Y-56754285D02*
X51071331Y-57011428D01*
X51071331Y-60808571D02*
X50471331Y-60808571D01*
X50471331Y-60808571D02*
X50471331Y-60665714D01*
X50471331Y-60665714D02*
X50499902Y-60580000D01*
X50499902Y-60580000D02*
X50557045Y-60522857D01*
X50557045Y-60522857D02*
X50614188Y-60494286D01*
X50614188Y-60494286D02*
X50728474Y-60465714D01*
X50728474Y-60465714D02*
X50814188Y-60465714D01*
X50814188Y-60465714D02*
X50928474Y-60494286D01*
X50928474Y-60494286D02*
X50985617Y-60522857D01*
X50985617Y-60522857D02*
X51042760Y-60580000D01*
X51042760Y-60580000D02*
X51071331Y-60665714D01*
X51071331Y-60665714D02*
X51071331Y-60808571D01*
X51071331Y-59894286D02*
X51071331Y-60237143D01*
X51071331Y-60065714D02*
X50471331Y-60065714D01*
X50471331Y-60065714D02*
X50557045Y-60122857D01*
X50557045Y-60122857D02*
X50614188Y-60180000D01*
X50614188Y-60180000D02*
X50642760Y-60237143D01*
X50671331Y-59380000D02*
X51071331Y-59380000D01*
X50442760Y-59522857D02*
X50871331Y-59665714D01*
X50871331Y-59665714D02*
X50871331Y-59294285D01*
X51071331Y-63348571D02*
X50471331Y-63348571D01*
X50471331Y-63348571D02*
X50471331Y-63205714D01*
X50471331Y-63205714D02*
X50499902Y-63120000D01*
X50499902Y-63120000D02*
X50557045Y-63062857D01*
X50557045Y-63062857D02*
X50614188Y-63034286D01*
X50614188Y-63034286D02*
X50728474Y-63005714D01*
X50728474Y-63005714D02*
X50814188Y-63005714D01*
X50814188Y-63005714D02*
X50928474Y-63034286D01*
X50928474Y-63034286D02*
X50985617Y-63062857D01*
X50985617Y-63062857D02*
X51042760Y-63120000D01*
X51042760Y-63120000D02*
X51071331Y-63205714D01*
X51071331Y-63205714D02*
X51071331Y-63348571D01*
X51071331Y-62434286D02*
X51071331Y-62777143D01*
X51071331Y-62605714D02*
X50471331Y-62605714D01*
X50471331Y-62605714D02*
X50557045Y-62662857D01*
X50557045Y-62662857D02*
X50614188Y-62720000D01*
X50614188Y-62720000D02*
X50642760Y-62777143D01*
X50528474Y-62205714D02*
X50499902Y-62177142D01*
X50499902Y-62177142D02*
X50471331Y-62120000D01*
X50471331Y-62120000D02*
X50471331Y-61977142D01*
X50471331Y-61977142D02*
X50499902Y-61920000D01*
X50499902Y-61920000D02*
X50528474Y-61891428D01*
X50528474Y-61891428D02*
X50585617Y-61862857D01*
X50585617Y-61862857D02*
X50642760Y-61862857D01*
X50642760Y-61862857D02*
X50728474Y-61891428D01*
X50728474Y-61891428D02*
X51071331Y-62234285D01*
X51071331Y-62234285D02*
X51071331Y-61862857D01*
X50499902Y-65617142D02*
X50471331Y-65674285D01*
X50471331Y-65674285D02*
X50471331Y-65759999D01*
X50471331Y-65759999D02*
X50499902Y-65845713D01*
X50499902Y-65845713D02*
X50557045Y-65902856D01*
X50557045Y-65902856D02*
X50614188Y-65931427D01*
X50614188Y-65931427D02*
X50728474Y-65959999D01*
X50728474Y-65959999D02*
X50814188Y-65959999D01*
X50814188Y-65959999D02*
X50928474Y-65931427D01*
X50928474Y-65931427D02*
X50985617Y-65902856D01*
X50985617Y-65902856D02*
X51042760Y-65845713D01*
X51042760Y-65845713D02*
X51071331Y-65759999D01*
X51071331Y-65759999D02*
X51071331Y-65702856D01*
X51071331Y-65702856D02*
X51042760Y-65617142D01*
X51042760Y-65617142D02*
X51014188Y-65588570D01*
X51014188Y-65588570D02*
X50814188Y-65588570D01*
X50814188Y-65588570D02*
X50814188Y-65702856D01*
X51071331Y-65331427D02*
X50471331Y-65331427D01*
X50471331Y-65331427D02*
X51071331Y-64988570D01*
X51071331Y-64988570D02*
X50471331Y-64988570D01*
X51071331Y-64702856D02*
X50471331Y-64702856D01*
X50471331Y-64702856D02*
X50471331Y-64559999D01*
X50471331Y-64559999D02*
X50499902Y-64474285D01*
X50499902Y-64474285D02*
X50557045Y-64417142D01*
X50557045Y-64417142D02*
X50614188Y-64388571D01*
X50614188Y-64388571D02*
X50728474Y-64359999D01*
X50728474Y-64359999D02*
X50814188Y-64359999D01*
X50814188Y-64359999D02*
X50928474Y-64388571D01*
X50928474Y-64388571D02*
X50985617Y-64417142D01*
X50985617Y-64417142D02*
X51042760Y-64474285D01*
X51042760Y-64474285D02*
X51071331Y-64559999D01*
X51071331Y-64559999D02*
X51071331Y-64702856D01*
X51071331Y-68428571D02*
X50471331Y-68428571D01*
X50471331Y-68428571D02*
X50471331Y-68285714D01*
X50471331Y-68285714D02*
X50499902Y-68200000D01*
X50499902Y-68200000D02*
X50557045Y-68142857D01*
X50557045Y-68142857D02*
X50614188Y-68114286D01*
X50614188Y-68114286D02*
X50728474Y-68085714D01*
X50728474Y-68085714D02*
X50814188Y-68085714D01*
X50814188Y-68085714D02*
X50928474Y-68114286D01*
X50928474Y-68114286D02*
X50985617Y-68142857D01*
X50985617Y-68142857D02*
X51042760Y-68200000D01*
X51042760Y-68200000D02*
X51071331Y-68285714D01*
X51071331Y-68285714D02*
X51071331Y-68428571D01*
X51071331Y-67514286D02*
X51071331Y-67857143D01*
X51071331Y-67685714D02*
X50471331Y-67685714D01*
X50471331Y-67685714D02*
X50557045Y-67742857D01*
X50557045Y-67742857D02*
X50614188Y-67800000D01*
X50614188Y-67800000D02*
X50642760Y-67857143D01*
X50471331Y-67314285D02*
X50471331Y-66942857D01*
X50471331Y-66942857D02*
X50699902Y-67142857D01*
X50699902Y-67142857D02*
X50699902Y-67057142D01*
X50699902Y-67057142D02*
X50728474Y-67000000D01*
X50728474Y-67000000D02*
X50757045Y-66971428D01*
X50757045Y-66971428D02*
X50814188Y-66942857D01*
X50814188Y-66942857D02*
X50957045Y-66942857D01*
X50957045Y-66942857D02*
X51014188Y-66971428D01*
X51014188Y-66971428D02*
X51042760Y-67000000D01*
X51042760Y-67000000D02*
X51071331Y-67057142D01*
X51071331Y-67057142D02*
X51071331Y-67228571D01*
X51071331Y-67228571D02*
X51042760Y-67285714D01*
X51042760Y-67285714D02*
X51014188Y-67314285D01*
X51042760Y-70997143D02*
X51071331Y-70911429D01*
X51071331Y-70911429D02*
X51071331Y-70768571D01*
X51071331Y-70768571D02*
X51042760Y-70711429D01*
X51042760Y-70711429D02*
X51014188Y-70682857D01*
X51014188Y-70682857D02*
X50957045Y-70654286D01*
X50957045Y-70654286D02*
X50899902Y-70654286D01*
X50899902Y-70654286D02*
X50842760Y-70682857D01*
X50842760Y-70682857D02*
X50814188Y-70711429D01*
X50814188Y-70711429D02*
X50785617Y-70768571D01*
X50785617Y-70768571D02*
X50757045Y-70882857D01*
X50757045Y-70882857D02*
X50728474Y-70940000D01*
X50728474Y-70940000D02*
X50699902Y-70968571D01*
X50699902Y-70968571D02*
X50642760Y-70997143D01*
X50642760Y-70997143D02*
X50585617Y-70997143D01*
X50585617Y-70997143D02*
X50528474Y-70968571D01*
X50528474Y-70968571D02*
X50499902Y-70940000D01*
X50499902Y-70940000D02*
X50471331Y-70882857D01*
X50471331Y-70882857D02*
X50471331Y-70740000D01*
X50471331Y-70740000D02*
X50499902Y-70654286D01*
X51071331Y-70397142D02*
X50471331Y-70397142D01*
X50471331Y-70397142D02*
X50471331Y-70254285D01*
X50471331Y-70254285D02*
X50499902Y-70168571D01*
X50499902Y-70168571D02*
X50557045Y-70111428D01*
X50557045Y-70111428D02*
X50614188Y-70082857D01*
X50614188Y-70082857D02*
X50728474Y-70054285D01*
X50728474Y-70054285D02*
X50814188Y-70054285D01*
X50814188Y-70054285D02*
X50928474Y-70082857D01*
X50928474Y-70082857D02*
X50985617Y-70111428D01*
X50985617Y-70111428D02*
X51042760Y-70168571D01*
X51042760Y-70168571D02*
X51071331Y-70254285D01*
X51071331Y-70254285D02*
X51071331Y-70397142D01*
X50528474Y-69825714D02*
X50499902Y-69797142D01*
X50499902Y-69797142D02*
X50471331Y-69740000D01*
X50471331Y-69740000D02*
X50471331Y-69597142D01*
X50471331Y-69597142D02*
X50499902Y-69540000D01*
X50499902Y-69540000D02*
X50528474Y-69511428D01*
X50528474Y-69511428D02*
X50585617Y-69482857D01*
X50585617Y-69482857D02*
X50642760Y-69482857D01*
X50642760Y-69482857D02*
X50728474Y-69511428D01*
X50728474Y-69511428D02*
X51071331Y-69854285D01*
X51071331Y-69854285D02*
X51071331Y-69482857D01*
X51042760Y-73537143D02*
X51071331Y-73451429D01*
X51071331Y-73451429D02*
X51071331Y-73308571D01*
X51071331Y-73308571D02*
X51042760Y-73251429D01*
X51042760Y-73251429D02*
X51014188Y-73222857D01*
X51014188Y-73222857D02*
X50957045Y-73194286D01*
X50957045Y-73194286D02*
X50899902Y-73194286D01*
X50899902Y-73194286D02*
X50842760Y-73222857D01*
X50842760Y-73222857D02*
X50814188Y-73251429D01*
X50814188Y-73251429D02*
X50785617Y-73308571D01*
X50785617Y-73308571D02*
X50757045Y-73422857D01*
X50757045Y-73422857D02*
X50728474Y-73480000D01*
X50728474Y-73480000D02*
X50699902Y-73508571D01*
X50699902Y-73508571D02*
X50642760Y-73537143D01*
X50642760Y-73537143D02*
X50585617Y-73537143D01*
X50585617Y-73537143D02*
X50528474Y-73508571D01*
X50528474Y-73508571D02*
X50499902Y-73480000D01*
X50499902Y-73480000D02*
X50471331Y-73422857D01*
X50471331Y-73422857D02*
X50471331Y-73280000D01*
X50471331Y-73280000D02*
X50499902Y-73194286D01*
X51071331Y-72937142D02*
X50471331Y-72937142D01*
X50471331Y-72937142D02*
X50471331Y-72794285D01*
X50471331Y-72794285D02*
X50499902Y-72708571D01*
X50499902Y-72708571D02*
X50557045Y-72651428D01*
X50557045Y-72651428D02*
X50614188Y-72622857D01*
X50614188Y-72622857D02*
X50728474Y-72594285D01*
X50728474Y-72594285D02*
X50814188Y-72594285D01*
X50814188Y-72594285D02*
X50928474Y-72622857D01*
X50928474Y-72622857D02*
X50985617Y-72651428D01*
X50985617Y-72651428D02*
X51042760Y-72708571D01*
X51042760Y-72708571D02*
X51071331Y-72794285D01*
X51071331Y-72794285D02*
X51071331Y-72937142D01*
X50471331Y-72394285D02*
X50471331Y-72022857D01*
X50471331Y-72022857D02*
X50699902Y-72222857D01*
X50699902Y-72222857D02*
X50699902Y-72137142D01*
X50699902Y-72137142D02*
X50728474Y-72080000D01*
X50728474Y-72080000D02*
X50757045Y-72051428D01*
X50757045Y-72051428D02*
X50814188Y-72022857D01*
X50814188Y-72022857D02*
X50957045Y-72022857D01*
X50957045Y-72022857D02*
X51014188Y-72051428D01*
X51014188Y-72051428D02*
X51042760Y-72080000D01*
X51042760Y-72080000D02*
X51071331Y-72137142D01*
X51071331Y-72137142D02*
X51071331Y-72308571D01*
X51071331Y-72308571D02*
X51042760Y-72365714D01*
X51042760Y-72365714D02*
X51014188Y-72394285D01*
X51014188Y-75777142D02*
X51042760Y-75805714D01*
X51042760Y-75805714D02*
X51071331Y-75891428D01*
X51071331Y-75891428D02*
X51071331Y-75948571D01*
X51071331Y-75948571D02*
X51042760Y-76034285D01*
X51042760Y-76034285D02*
X50985617Y-76091428D01*
X50985617Y-76091428D02*
X50928474Y-76119999D01*
X50928474Y-76119999D02*
X50814188Y-76148571D01*
X50814188Y-76148571D02*
X50728474Y-76148571D01*
X50728474Y-76148571D02*
X50614188Y-76119999D01*
X50614188Y-76119999D02*
X50557045Y-76091428D01*
X50557045Y-76091428D02*
X50499902Y-76034285D01*
X50499902Y-76034285D02*
X50471331Y-75948571D01*
X50471331Y-75948571D02*
X50471331Y-75891428D01*
X50471331Y-75891428D02*
X50499902Y-75805714D01*
X50499902Y-75805714D02*
X50528474Y-75777142D01*
X51071331Y-75519999D02*
X50471331Y-75519999D01*
X50471331Y-75519999D02*
X50899902Y-75319999D01*
X50899902Y-75319999D02*
X50471331Y-75119999D01*
X50471331Y-75119999D02*
X51071331Y-75119999D01*
X51071331Y-74834285D02*
X50471331Y-74834285D01*
X50471331Y-74834285D02*
X50471331Y-74691428D01*
X50471331Y-74691428D02*
X50499902Y-74605714D01*
X50499902Y-74605714D02*
X50557045Y-74548571D01*
X50557045Y-74548571D02*
X50614188Y-74520000D01*
X50614188Y-74520000D02*
X50728474Y-74491428D01*
X50728474Y-74491428D02*
X50814188Y-74491428D01*
X50814188Y-74491428D02*
X50928474Y-74520000D01*
X50928474Y-74520000D02*
X50985617Y-74548571D01*
X50985617Y-74548571D02*
X51042760Y-74605714D01*
X51042760Y-74605714D02*
X51071331Y-74691428D01*
X51071331Y-74691428D02*
X51071331Y-74834285D01*
X50471331Y-78517142D02*
X51071331Y-78317142D01*
X51071331Y-78317142D02*
X50471331Y-78117142D01*
X51071331Y-77917141D02*
X50471331Y-77917141D01*
X51071331Y-77631427D02*
X50471331Y-77631427D01*
X50471331Y-77631427D02*
X51071331Y-77288570D01*
X51071331Y-77288570D02*
X50471331Y-77288570D01*
X80899902Y-32597142D02*
X80871331Y-32654285D01*
X80871331Y-32654285D02*
X80871331Y-32739999D01*
X80871331Y-32739999D02*
X80899902Y-32825713D01*
X80899902Y-32825713D02*
X80957045Y-32882856D01*
X80957045Y-32882856D02*
X81014188Y-32911427D01*
X81014188Y-32911427D02*
X81128474Y-32939999D01*
X81128474Y-32939999D02*
X81214188Y-32939999D01*
X81214188Y-32939999D02*
X81328474Y-32911427D01*
X81328474Y-32911427D02*
X81385617Y-32882856D01*
X81385617Y-32882856D02*
X81442760Y-32825713D01*
X81442760Y-32825713D02*
X81471331Y-32739999D01*
X81471331Y-32739999D02*
X81471331Y-32682856D01*
X81471331Y-32682856D02*
X81442760Y-32597142D01*
X81442760Y-32597142D02*
X81414188Y-32568570D01*
X81414188Y-32568570D02*
X81214188Y-32568570D01*
X81214188Y-32568570D02*
X81214188Y-32682856D01*
X81471331Y-32311427D02*
X80871331Y-32311427D01*
X80871331Y-32311427D02*
X81471331Y-31968570D01*
X81471331Y-31968570D02*
X80871331Y-31968570D01*
X81471331Y-31682856D02*
X80871331Y-31682856D01*
X80871331Y-31682856D02*
X80871331Y-31539999D01*
X80871331Y-31539999D02*
X80899902Y-31454285D01*
X80899902Y-31454285D02*
X80957045Y-31397142D01*
X80957045Y-31397142D02*
X81014188Y-31368571D01*
X81014188Y-31368571D02*
X81128474Y-31339999D01*
X81128474Y-31339999D02*
X81214188Y-31339999D01*
X81214188Y-31339999D02*
X81328474Y-31368571D01*
X81328474Y-31368571D02*
X81385617Y-31397142D01*
X81385617Y-31397142D02*
X81442760Y-31454285D01*
X81442760Y-31454285D02*
X81471331Y-31539999D01*
X81471331Y-31539999D02*
X81471331Y-31682856D01*
X81471331Y-35408571D02*
X80871331Y-35408571D01*
X80871331Y-35408571D02*
X80871331Y-35265714D01*
X80871331Y-35265714D02*
X80899902Y-35180000D01*
X80899902Y-35180000D02*
X80957045Y-35122857D01*
X80957045Y-35122857D02*
X81014188Y-35094286D01*
X81014188Y-35094286D02*
X81128474Y-35065714D01*
X81128474Y-35065714D02*
X81214188Y-35065714D01*
X81214188Y-35065714D02*
X81328474Y-35094286D01*
X81328474Y-35094286D02*
X81385617Y-35122857D01*
X81385617Y-35122857D02*
X81442760Y-35180000D01*
X81442760Y-35180000D02*
X81471331Y-35265714D01*
X81471331Y-35265714D02*
X81471331Y-35408571D01*
X80928474Y-34837143D02*
X80899902Y-34808571D01*
X80899902Y-34808571D02*
X80871331Y-34751429D01*
X80871331Y-34751429D02*
X80871331Y-34608571D01*
X80871331Y-34608571D02*
X80899902Y-34551429D01*
X80899902Y-34551429D02*
X80928474Y-34522857D01*
X80928474Y-34522857D02*
X80985617Y-34494286D01*
X80985617Y-34494286D02*
X81042760Y-34494286D01*
X81042760Y-34494286D02*
X81128474Y-34522857D01*
X81128474Y-34522857D02*
X81471331Y-34865714D01*
X81471331Y-34865714D02*
X81471331Y-34494286D01*
X80871331Y-34294285D02*
X80871331Y-33922857D01*
X80871331Y-33922857D02*
X81099902Y-34122857D01*
X81099902Y-34122857D02*
X81099902Y-34037142D01*
X81099902Y-34037142D02*
X81128474Y-33980000D01*
X81128474Y-33980000D02*
X81157045Y-33951428D01*
X81157045Y-33951428D02*
X81214188Y-33922857D01*
X81214188Y-33922857D02*
X81357045Y-33922857D01*
X81357045Y-33922857D02*
X81414188Y-33951428D01*
X81414188Y-33951428D02*
X81442760Y-33980000D01*
X81442760Y-33980000D02*
X81471331Y-34037142D01*
X81471331Y-34037142D02*
X81471331Y-34208571D01*
X81471331Y-34208571D02*
X81442760Y-34265714D01*
X81442760Y-34265714D02*
X81414188Y-34294285D01*
X81471331Y-37948571D02*
X80871331Y-37948571D01*
X80871331Y-37948571D02*
X80871331Y-37805714D01*
X80871331Y-37805714D02*
X80899902Y-37720000D01*
X80899902Y-37720000D02*
X80957045Y-37662857D01*
X80957045Y-37662857D02*
X81014188Y-37634286D01*
X81014188Y-37634286D02*
X81128474Y-37605714D01*
X81128474Y-37605714D02*
X81214188Y-37605714D01*
X81214188Y-37605714D02*
X81328474Y-37634286D01*
X81328474Y-37634286D02*
X81385617Y-37662857D01*
X81385617Y-37662857D02*
X81442760Y-37720000D01*
X81442760Y-37720000D02*
X81471331Y-37805714D01*
X81471331Y-37805714D02*
X81471331Y-37948571D01*
X80928474Y-37377143D02*
X80899902Y-37348571D01*
X80899902Y-37348571D02*
X80871331Y-37291429D01*
X80871331Y-37291429D02*
X80871331Y-37148571D01*
X80871331Y-37148571D02*
X80899902Y-37091429D01*
X80899902Y-37091429D02*
X80928474Y-37062857D01*
X80928474Y-37062857D02*
X80985617Y-37034286D01*
X80985617Y-37034286D02*
X81042760Y-37034286D01*
X81042760Y-37034286D02*
X81128474Y-37062857D01*
X81128474Y-37062857D02*
X81471331Y-37405714D01*
X81471331Y-37405714D02*
X81471331Y-37034286D01*
X80928474Y-36805714D02*
X80899902Y-36777142D01*
X80899902Y-36777142D02*
X80871331Y-36720000D01*
X80871331Y-36720000D02*
X80871331Y-36577142D01*
X80871331Y-36577142D02*
X80899902Y-36520000D01*
X80899902Y-36520000D02*
X80928474Y-36491428D01*
X80928474Y-36491428D02*
X80985617Y-36462857D01*
X80985617Y-36462857D02*
X81042760Y-36462857D01*
X81042760Y-36462857D02*
X81128474Y-36491428D01*
X81128474Y-36491428D02*
X81471331Y-36834285D01*
X81471331Y-36834285D02*
X81471331Y-36462857D01*
X80871331Y-40502857D02*
X80871331Y-40160000D01*
X81471331Y-40331428D02*
X80871331Y-40331428D01*
X80871331Y-40017142D02*
X81471331Y-39617142D01*
X80871331Y-39617142D02*
X81471331Y-40017142D01*
X80871331Y-39274285D02*
X80871331Y-39217142D01*
X80871331Y-39217142D02*
X80899902Y-39159999D01*
X80899902Y-39159999D02*
X80928474Y-39131428D01*
X80928474Y-39131428D02*
X80985617Y-39102856D01*
X80985617Y-39102856D02*
X81099902Y-39074285D01*
X81099902Y-39074285D02*
X81242760Y-39074285D01*
X81242760Y-39074285D02*
X81357045Y-39102856D01*
X81357045Y-39102856D02*
X81414188Y-39131428D01*
X81414188Y-39131428D02*
X81442760Y-39159999D01*
X81442760Y-39159999D02*
X81471331Y-39217142D01*
X81471331Y-39217142D02*
X81471331Y-39274285D01*
X81471331Y-39274285D02*
X81442760Y-39331428D01*
X81442760Y-39331428D02*
X81414188Y-39359999D01*
X81414188Y-39359999D02*
X81357045Y-39388570D01*
X81357045Y-39388570D02*
X81242760Y-39417142D01*
X81242760Y-39417142D02*
X81099902Y-39417142D01*
X81099902Y-39417142D02*
X80985617Y-39388570D01*
X80985617Y-39388570D02*
X80928474Y-39359999D01*
X80928474Y-39359999D02*
X80899902Y-39331428D01*
X80899902Y-39331428D02*
X80871331Y-39274285D01*
X81471331Y-42685714D02*
X81185617Y-42885714D01*
X81471331Y-43028571D02*
X80871331Y-43028571D01*
X80871331Y-43028571D02*
X80871331Y-42800000D01*
X80871331Y-42800000D02*
X80899902Y-42742857D01*
X80899902Y-42742857D02*
X80928474Y-42714286D01*
X80928474Y-42714286D02*
X80985617Y-42685714D01*
X80985617Y-42685714D02*
X81071331Y-42685714D01*
X81071331Y-42685714D02*
X81128474Y-42714286D01*
X81128474Y-42714286D02*
X81157045Y-42742857D01*
X81157045Y-42742857D02*
X81185617Y-42800000D01*
X81185617Y-42800000D02*
X81185617Y-43028571D01*
X80871331Y-42485714D02*
X81471331Y-42085714D01*
X80871331Y-42085714D02*
X81471331Y-42485714D01*
X80871331Y-41742857D02*
X80871331Y-41685714D01*
X80871331Y-41685714D02*
X80899902Y-41628571D01*
X80899902Y-41628571D02*
X80928474Y-41600000D01*
X80928474Y-41600000D02*
X80985617Y-41571428D01*
X80985617Y-41571428D02*
X81099902Y-41542857D01*
X81099902Y-41542857D02*
X81242760Y-41542857D01*
X81242760Y-41542857D02*
X81357045Y-41571428D01*
X81357045Y-41571428D02*
X81414188Y-41600000D01*
X81414188Y-41600000D02*
X81442760Y-41628571D01*
X81442760Y-41628571D02*
X81471331Y-41685714D01*
X81471331Y-41685714D02*
X81471331Y-41742857D01*
X81471331Y-41742857D02*
X81442760Y-41800000D01*
X81442760Y-41800000D02*
X81414188Y-41828571D01*
X81414188Y-41828571D02*
X81357045Y-41857142D01*
X81357045Y-41857142D02*
X81242760Y-41885714D01*
X81242760Y-41885714D02*
X81099902Y-41885714D01*
X81099902Y-41885714D02*
X80985617Y-41857142D01*
X80985617Y-41857142D02*
X80928474Y-41828571D01*
X80928474Y-41828571D02*
X80899902Y-41800000D01*
X80899902Y-41800000D02*
X80871331Y-41742857D01*
X81471331Y-45568571D02*
X80871331Y-45568571D01*
X80871331Y-45568571D02*
X80871331Y-45425714D01*
X80871331Y-45425714D02*
X80899902Y-45340000D01*
X80899902Y-45340000D02*
X80957045Y-45282857D01*
X80957045Y-45282857D02*
X81014188Y-45254286D01*
X81014188Y-45254286D02*
X81128474Y-45225714D01*
X81128474Y-45225714D02*
X81214188Y-45225714D01*
X81214188Y-45225714D02*
X81328474Y-45254286D01*
X81328474Y-45254286D02*
X81385617Y-45282857D01*
X81385617Y-45282857D02*
X81442760Y-45340000D01*
X81442760Y-45340000D02*
X81471331Y-45425714D01*
X81471331Y-45425714D02*
X81471331Y-45568571D01*
X80928474Y-44997143D02*
X80899902Y-44968571D01*
X80899902Y-44968571D02*
X80871331Y-44911429D01*
X80871331Y-44911429D02*
X80871331Y-44768571D01*
X80871331Y-44768571D02*
X80899902Y-44711429D01*
X80899902Y-44711429D02*
X80928474Y-44682857D01*
X80928474Y-44682857D02*
X80985617Y-44654286D01*
X80985617Y-44654286D02*
X81042760Y-44654286D01*
X81042760Y-44654286D02*
X81128474Y-44682857D01*
X81128474Y-44682857D02*
X81471331Y-45025714D01*
X81471331Y-45025714D02*
X81471331Y-44654286D01*
X81471331Y-44082857D02*
X81471331Y-44425714D01*
X81471331Y-44254285D02*
X80871331Y-44254285D01*
X80871331Y-44254285D02*
X80957045Y-44311428D01*
X80957045Y-44311428D02*
X81014188Y-44368571D01*
X81014188Y-44368571D02*
X81042760Y-44425714D01*
X80899902Y-47837142D02*
X80871331Y-47894285D01*
X80871331Y-47894285D02*
X80871331Y-47979999D01*
X80871331Y-47979999D02*
X80899902Y-48065713D01*
X80899902Y-48065713D02*
X80957045Y-48122856D01*
X80957045Y-48122856D02*
X81014188Y-48151427D01*
X81014188Y-48151427D02*
X81128474Y-48179999D01*
X81128474Y-48179999D02*
X81214188Y-48179999D01*
X81214188Y-48179999D02*
X81328474Y-48151427D01*
X81328474Y-48151427D02*
X81385617Y-48122856D01*
X81385617Y-48122856D02*
X81442760Y-48065713D01*
X81442760Y-48065713D02*
X81471331Y-47979999D01*
X81471331Y-47979999D02*
X81471331Y-47922856D01*
X81471331Y-47922856D02*
X81442760Y-47837142D01*
X81442760Y-47837142D02*
X81414188Y-47808570D01*
X81414188Y-47808570D02*
X81214188Y-47808570D01*
X81214188Y-47808570D02*
X81214188Y-47922856D01*
X81471331Y-47551427D02*
X80871331Y-47551427D01*
X80871331Y-47551427D02*
X81471331Y-47208570D01*
X81471331Y-47208570D02*
X80871331Y-47208570D01*
X81471331Y-46922856D02*
X80871331Y-46922856D01*
X80871331Y-46922856D02*
X80871331Y-46779999D01*
X80871331Y-46779999D02*
X80899902Y-46694285D01*
X80899902Y-46694285D02*
X80957045Y-46637142D01*
X80957045Y-46637142D02*
X81014188Y-46608571D01*
X81014188Y-46608571D02*
X81128474Y-46579999D01*
X81128474Y-46579999D02*
X81214188Y-46579999D01*
X81214188Y-46579999D02*
X81328474Y-46608571D01*
X81328474Y-46608571D02*
X81385617Y-46637142D01*
X81385617Y-46637142D02*
X81442760Y-46694285D01*
X81442760Y-46694285D02*
X81471331Y-46779999D01*
X81471331Y-46779999D02*
X81471331Y-46922856D01*
X81471331Y-50648571D02*
X80871331Y-50648571D01*
X80871331Y-50648571D02*
X80871331Y-50505714D01*
X80871331Y-50505714D02*
X80899902Y-50420000D01*
X80899902Y-50420000D02*
X80957045Y-50362857D01*
X80957045Y-50362857D02*
X81014188Y-50334286D01*
X81014188Y-50334286D02*
X81128474Y-50305714D01*
X81128474Y-50305714D02*
X81214188Y-50305714D01*
X81214188Y-50305714D02*
X81328474Y-50334286D01*
X81328474Y-50334286D02*
X81385617Y-50362857D01*
X81385617Y-50362857D02*
X81442760Y-50420000D01*
X81442760Y-50420000D02*
X81471331Y-50505714D01*
X81471331Y-50505714D02*
X81471331Y-50648571D01*
X81471331Y-49734286D02*
X81471331Y-50077143D01*
X81471331Y-49905714D02*
X80871331Y-49905714D01*
X80871331Y-49905714D02*
X80957045Y-49962857D01*
X80957045Y-49962857D02*
X81014188Y-50020000D01*
X81014188Y-50020000D02*
X81042760Y-50077143D01*
X81471331Y-49448571D02*
X81471331Y-49334285D01*
X81471331Y-49334285D02*
X81442760Y-49277142D01*
X81442760Y-49277142D02*
X81414188Y-49248571D01*
X81414188Y-49248571D02*
X81328474Y-49191428D01*
X81328474Y-49191428D02*
X81214188Y-49162857D01*
X81214188Y-49162857D02*
X80985617Y-49162857D01*
X80985617Y-49162857D02*
X80928474Y-49191428D01*
X80928474Y-49191428D02*
X80899902Y-49220000D01*
X80899902Y-49220000D02*
X80871331Y-49277142D01*
X80871331Y-49277142D02*
X80871331Y-49391428D01*
X80871331Y-49391428D02*
X80899902Y-49448571D01*
X80899902Y-49448571D02*
X80928474Y-49477142D01*
X80928474Y-49477142D02*
X80985617Y-49505714D01*
X80985617Y-49505714D02*
X81128474Y-49505714D01*
X81128474Y-49505714D02*
X81185617Y-49477142D01*
X81185617Y-49477142D02*
X81214188Y-49448571D01*
X81214188Y-49448571D02*
X81242760Y-49391428D01*
X81242760Y-49391428D02*
X81242760Y-49277142D01*
X81242760Y-49277142D02*
X81214188Y-49220000D01*
X81214188Y-49220000D02*
X81185617Y-49191428D01*
X81185617Y-49191428D02*
X81128474Y-49162857D01*
X81471331Y-53188571D02*
X80871331Y-53188571D01*
X80871331Y-53188571D02*
X80871331Y-53045714D01*
X80871331Y-53045714D02*
X80899902Y-52960000D01*
X80899902Y-52960000D02*
X80957045Y-52902857D01*
X80957045Y-52902857D02*
X81014188Y-52874286D01*
X81014188Y-52874286D02*
X81128474Y-52845714D01*
X81128474Y-52845714D02*
X81214188Y-52845714D01*
X81214188Y-52845714D02*
X81328474Y-52874286D01*
X81328474Y-52874286D02*
X81385617Y-52902857D01*
X81385617Y-52902857D02*
X81442760Y-52960000D01*
X81442760Y-52960000D02*
X81471331Y-53045714D01*
X81471331Y-53045714D02*
X81471331Y-53188571D01*
X81471331Y-52274286D02*
X81471331Y-52617143D01*
X81471331Y-52445714D02*
X80871331Y-52445714D01*
X80871331Y-52445714D02*
X80957045Y-52502857D01*
X80957045Y-52502857D02*
X81014188Y-52560000D01*
X81014188Y-52560000D02*
X81042760Y-52617143D01*
X81128474Y-51931428D02*
X81099902Y-51988571D01*
X81099902Y-51988571D02*
X81071331Y-52017142D01*
X81071331Y-52017142D02*
X81014188Y-52045714D01*
X81014188Y-52045714D02*
X80985617Y-52045714D01*
X80985617Y-52045714D02*
X80928474Y-52017142D01*
X80928474Y-52017142D02*
X80899902Y-51988571D01*
X80899902Y-51988571D02*
X80871331Y-51931428D01*
X80871331Y-51931428D02*
X80871331Y-51817142D01*
X80871331Y-51817142D02*
X80899902Y-51760000D01*
X80899902Y-51760000D02*
X80928474Y-51731428D01*
X80928474Y-51731428D02*
X80985617Y-51702857D01*
X80985617Y-51702857D02*
X81014188Y-51702857D01*
X81014188Y-51702857D02*
X81071331Y-51731428D01*
X81071331Y-51731428D02*
X81099902Y-51760000D01*
X81099902Y-51760000D02*
X81128474Y-51817142D01*
X81128474Y-51817142D02*
X81128474Y-51931428D01*
X81128474Y-51931428D02*
X81157045Y-51988571D01*
X81157045Y-51988571D02*
X81185617Y-52017142D01*
X81185617Y-52017142D02*
X81242760Y-52045714D01*
X81242760Y-52045714D02*
X81357045Y-52045714D01*
X81357045Y-52045714D02*
X81414188Y-52017142D01*
X81414188Y-52017142D02*
X81442760Y-51988571D01*
X81442760Y-51988571D02*
X81471331Y-51931428D01*
X81471331Y-51931428D02*
X81471331Y-51817142D01*
X81471331Y-51817142D02*
X81442760Y-51760000D01*
X81442760Y-51760000D02*
X81414188Y-51731428D01*
X81414188Y-51731428D02*
X81357045Y-51702857D01*
X81357045Y-51702857D02*
X81242760Y-51702857D01*
X81242760Y-51702857D02*
X81185617Y-51731428D01*
X81185617Y-51731428D02*
X81157045Y-51760000D01*
X81157045Y-51760000D02*
X81128474Y-51817142D01*
X81471331Y-55442856D02*
X80871331Y-55442856D01*
X80871331Y-55442856D02*
X80871331Y-55299999D01*
X80871331Y-55299999D02*
X80899902Y-55214285D01*
X80899902Y-55214285D02*
X80957045Y-55157142D01*
X80957045Y-55157142D02*
X81014188Y-55128571D01*
X81014188Y-55128571D02*
X81128474Y-55099999D01*
X81128474Y-55099999D02*
X81214188Y-55099999D01*
X81214188Y-55099999D02*
X81328474Y-55128571D01*
X81328474Y-55128571D02*
X81385617Y-55157142D01*
X81385617Y-55157142D02*
X81442760Y-55214285D01*
X81442760Y-55214285D02*
X81471331Y-55299999D01*
X81471331Y-55299999D02*
X81471331Y-55442856D01*
X80871331Y-54557142D02*
X80871331Y-54842856D01*
X80871331Y-54842856D02*
X81157045Y-54871428D01*
X81157045Y-54871428D02*
X81128474Y-54842856D01*
X81128474Y-54842856D02*
X81099902Y-54785714D01*
X81099902Y-54785714D02*
X81099902Y-54642856D01*
X81099902Y-54642856D02*
X81128474Y-54585714D01*
X81128474Y-54585714D02*
X81157045Y-54557142D01*
X81157045Y-54557142D02*
X81214188Y-54528571D01*
X81214188Y-54528571D02*
X81357045Y-54528571D01*
X81357045Y-54528571D02*
X81414188Y-54557142D01*
X81414188Y-54557142D02*
X81442760Y-54585714D01*
X81442760Y-54585714D02*
X81471331Y-54642856D01*
X81471331Y-54642856D02*
X81471331Y-54785714D01*
X81471331Y-54785714D02*
X81442760Y-54842856D01*
X81442760Y-54842856D02*
X81414188Y-54871428D01*
X81471331Y-58268571D02*
X80871331Y-58268571D01*
X80871331Y-58268571D02*
X80871331Y-58125714D01*
X80871331Y-58125714D02*
X80899902Y-58040000D01*
X80899902Y-58040000D02*
X80957045Y-57982857D01*
X80957045Y-57982857D02*
X81014188Y-57954286D01*
X81014188Y-57954286D02*
X81128474Y-57925714D01*
X81128474Y-57925714D02*
X81214188Y-57925714D01*
X81214188Y-57925714D02*
X81328474Y-57954286D01*
X81328474Y-57954286D02*
X81385617Y-57982857D01*
X81385617Y-57982857D02*
X81442760Y-58040000D01*
X81442760Y-58040000D02*
X81471331Y-58125714D01*
X81471331Y-58125714D02*
X81471331Y-58268571D01*
X81471331Y-57354286D02*
X81471331Y-57697143D01*
X81471331Y-57525714D02*
X80871331Y-57525714D01*
X80871331Y-57525714D02*
X80957045Y-57582857D01*
X80957045Y-57582857D02*
X81014188Y-57640000D01*
X81014188Y-57640000D02*
X81042760Y-57697143D01*
X80871331Y-57154285D02*
X80871331Y-56754285D01*
X80871331Y-56754285D02*
X81471331Y-57011428D01*
X81471331Y-60808571D02*
X80871331Y-60808571D01*
X80871331Y-60808571D02*
X80871331Y-60665714D01*
X80871331Y-60665714D02*
X80899902Y-60580000D01*
X80899902Y-60580000D02*
X80957045Y-60522857D01*
X80957045Y-60522857D02*
X81014188Y-60494286D01*
X81014188Y-60494286D02*
X81128474Y-60465714D01*
X81128474Y-60465714D02*
X81214188Y-60465714D01*
X81214188Y-60465714D02*
X81328474Y-60494286D01*
X81328474Y-60494286D02*
X81385617Y-60522857D01*
X81385617Y-60522857D02*
X81442760Y-60580000D01*
X81442760Y-60580000D02*
X81471331Y-60665714D01*
X81471331Y-60665714D02*
X81471331Y-60808571D01*
X81471331Y-59894286D02*
X81471331Y-60237143D01*
X81471331Y-60065714D02*
X80871331Y-60065714D01*
X80871331Y-60065714D02*
X80957045Y-60122857D01*
X80957045Y-60122857D02*
X81014188Y-60180000D01*
X81014188Y-60180000D02*
X81042760Y-60237143D01*
X80871331Y-59380000D02*
X80871331Y-59494285D01*
X80871331Y-59494285D02*
X80899902Y-59551428D01*
X80899902Y-59551428D02*
X80928474Y-59580000D01*
X80928474Y-59580000D02*
X81014188Y-59637142D01*
X81014188Y-59637142D02*
X81128474Y-59665714D01*
X81128474Y-59665714D02*
X81357045Y-59665714D01*
X81357045Y-59665714D02*
X81414188Y-59637142D01*
X81414188Y-59637142D02*
X81442760Y-59608571D01*
X81442760Y-59608571D02*
X81471331Y-59551428D01*
X81471331Y-59551428D02*
X81471331Y-59437142D01*
X81471331Y-59437142D02*
X81442760Y-59380000D01*
X81442760Y-59380000D02*
X81414188Y-59351428D01*
X81414188Y-59351428D02*
X81357045Y-59322857D01*
X81357045Y-59322857D02*
X81214188Y-59322857D01*
X81214188Y-59322857D02*
X81157045Y-59351428D01*
X81157045Y-59351428D02*
X81128474Y-59380000D01*
X81128474Y-59380000D02*
X81099902Y-59437142D01*
X81099902Y-59437142D02*
X81099902Y-59551428D01*
X81099902Y-59551428D02*
X81128474Y-59608571D01*
X81128474Y-59608571D02*
X81157045Y-59637142D01*
X81157045Y-59637142D02*
X81214188Y-59665714D01*
X81471331Y-63062856D02*
X80871331Y-63062856D01*
X80871331Y-63062856D02*
X80871331Y-62919999D01*
X80871331Y-62919999D02*
X80899902Y-62834285D01*
X80899902Y-62834285D02*
X80957045Y-62777142D01*
X80957045Y-62777142D02*
X81014188Y-62748571D01*
X81014188Y-62748571D02*
X81128474Y-62719999D01*
X81128474Y-62719999D02*
X81214188Y-62719999D01*
X81214188Y-62719999D02*
X81328474Y-62748571D01*
X81328474Y-62748571D02*
X81385617Y-62777142D01*
X81385617Y-62777142D02*
X81442760Y-62834285D01*
X81442760Y-62834285D02*
X81471331Y-62919999D01*
X81471331Y-62919999D02*
X81471331Y-63062856D01*
X81071331Y-62205714D02*
X81471331Y-62205714D01*
X80842760Y-62348571D02*
X81271331Y-62491428D01*
X81271331Y-62491428D02*
X81271331Y-62119999D01*
X81471331Y-65602856D02*
X80871331Y-65602856D01*
X80871331Y-65602856D02*
X80871331Y-65459999D01*
X80871331Y-65459999D02*
X80899902Y-65374285D01*
X80899902Y-65374285D02*
X80957045Y-65317142D01*
X80957045Y-65317142D02*
X81014188Y-65288571D01*
X81014188Y-65288571D02*
X81128474Y-65259999D01*
X81128474Y-65259999D02*
X81214188Y-65259999D01*
X81214188Y-65259999D02*
X81328474Y-65288571D01*
X81328474Y-65288571D02*
X81385617Y-65317142D01*
X81385617Y-65317142D02*
X81442760Y-65374285D01*
X81442760Y-65374285D02*
X81471331Y-65459999D01*
X81471331Y-65459999D02*
X81471331Y-65602856D01*
X80871331Y-64888571D02*
X80871331Y-64831428D01*
X80871331Y-64831428D02*
X80899902Y-64774285D01*
X80899902Y-64774285D02*
X80928474Y-64745714D01*
X80928474Y-64745714D02*
X80985617Y-64717142D01*
X80985617Y-64717142D02*
X81099902Y-64688571D01*
X81099902Y-64688571D02*
X81242760Y-64688571D01*
X81242760Y-64688571D02*
X81357045Y-64717142D01*
X81357045Y-64717142D02*
X81414188Y-64745714D01*
X81414188Y-64745714D02*
X81442760Y-64774285D01*
X81442760Y-64774285D02*
X81471331Y-64831428D01*
X81471331Y-64831428D02*
X81471331Y-64888571D01*
X81471331Y-64888571D02*
X81442760Y-64945714D01*
X81442760Y-64945714D02*
X81414188Y-64974285D01*
X81414188Y-64974285D02*
X81357045Y-65002856D01*
X81357045Y-65002856D02*
X81242760Y-65031428D01*
X81242760Y-65031428D02*
X81099902Y-65031428D01*
X81099902Y-65031428D02*
X80985617Y-65002856D01*
X80985617Y-65002856D02*
X80928474Y-64974285D01*
X80928474Y-64974285D02*
X80899902Y-64945714D01*
X80899902Y-64945714D02*
X80871331Y-64888571D01*
X81471331Y-68142856D02*
X80871331Y-68142856D01*
X80871331Y-68142856D02*
X80871331Y-67999999D01*
X80871331Y-67999999D02*
X80899902Y-67914285D01*
X80899902Y-67914285D02*
X80957045Y-67857142D01*
X80957045Y-67857142D02*
X81014188Y-67828571D01*
X81014188Y-67828571D02*
X81128474Y-67799999D01*
X81128474Y-67799999D02*
X81214188Y-67799999D01*
X81214188Y-67799999D02*
X81328474Y-67828571D01*
X81328474Y-67828571D02*
X81385617Y-67857142D01*
X81385617Y-67857142D02*
X81442760Y-67914285D01*
X81442760Y-67914285D02*
X81471331Y-67999999D01*
X81471331Y-67999999D02*
X81471331Y-68142856D01*
X80928474Y-67571428D02*
X80899902Y-67542856D01*
X80899902Y-67542856D02*
X80871331Y-67485714D01*
X80871331Y-67485714D02*
X80871331Y-67342856D01*
X80871331Y-67342856D02*
X80899902Y-67285714D01*
X80899902Y-67285714D02*
X80928474Y-67257142D01*
X80928474Y-67257142D02*
X80985617Y-67228571D01*
X80985617Y-67228571D02*
X81042760Y-67228571D01*
X81042760Y-67228571D02*
X81128474Y-67257142D01*
X81128474Y-67257142D02*
X81471331Y-67599999D01*
X81471331Y-67599999D02*
X81471331Y-67228571D01*
X81471331Y-70968571D02*
X80871331Y-70968571D01*
X80871331Y-70968571D02*
X80871331Y-70825714D01*
X80871331Y-70825714D02*
X80899902Y-70740000D01*
X80899902Y-70740000D02*
X80957045Y-70682857D01*
X80957045Y-70682857D02*
X81014188Y-70654286D01*
X81014188Y-70654286D02*
X81128474Y-70625714D01*
X81128474Y-70625714D02*
X81214188Y-70625714D01*
X81214188Y-70625714D02*
X81328474Y-70654286D01*
X81328474Y-70654286D02*
X81385617Y-70682857D01*
X81385617Y-70682857D02*
X81442760Y-70740000D01*
X81442760Y-70740000D02*
X81471331Y-70825714D01*
X81471331Y-70825714D02*
X81471331Y-70968571D01*
X81471331Y-70054286D02*
X81471331Y-70397143D01*
X81471331Y-70225714D02*
X80871331Y-70225714D01*
X80871331Y-70225714D02*
X80957045Y-70282857D01*
X80957045Y-70282857D02*
X81014188Y-70340000D01*
X81014188Y-70340000D02*
X81042760Y-70397143D01*
X80871331Y-69511428D02*
X80871331Y-69797142D01*
X80871331Y-69797142D02*
X81157045Y-69825714D01*
X81157045Y-69825714D02*
X81128474Y-69797142D01*
X81128474Y-69797142D02*
X81099902Y-69740000D01*
X81099902Y-69740000D02*
X81099902Y-69597142D01*
X81099902Y-69597142D02*
X81128474Y-69540000D01*
X81128474Y-69540000D02*
X81157045Y-69511428D01*
X81157045Y-69511428D02*
X81214188Y-69482857D01*
X81214188Y-69482857D02*
X81357045Y-69482857D01*
X81357045Y-69482857D02*
X81414188Y-69511428D01*
X81414188Y-69511428D02*
X81442760Y-69540000D01*
X81442760Y-69540000D02*
X81471331Y-69597142D01*
X81471331Y-69597142D02*
X81471331Y-69740000D01*
X81471331Y-69740000D02*
X81442760Y-69797142D01*
X81442760Y-69797142D02*
X81414188Y-69825714D01*
X81442760Y-73537143D02*
X81471331Y-73451429D01*
X81471331Y-73451429D02*
X81471331Y-73308571D01*
X81471331Y-73308571D02*
X81442760Y-73251429D01*
X81442760Y-73251429D02*
X81414188Y-73222857D01*
X81414188Y-73222857D02*
X81357045Y-73194286D01*
X81357045Y-73194286D02*
X81299902Y-73194286D01*
X81299902Y-73194286D02*
X81242760Y-73222857D01*
X81242760Y-73222857D02*
X81214188Y-73251429D01*
X81214188Y-73251429D02*
X81185617Y-73308571D01*
X81185617Y-73308571D02*
X81157045Y-73422857D01*
X81157045Y-73422857D02*
X81128474Y-73480000D01*
X81128474Y-73480000D02*
X81099902Y-73508571D01*
X81099902Y-73508571D02*
X81042760Y-73537143D01*
X81042760Y-73537143D02*
X80985617Y-73537143D01*
X80985617Y-73537143D02*
X80928474Y-73508571D01*
X80928474Y-73508571D02*
X80899902Y-73480000D01*
X80899902Y-73480000D02*
X80871331Y-73422857D01*
X80871331Y-73422857D02*
X80871331Y-73280000D01*
X80871331Y-73280000D02*
X80899902Y-73194286D01*
X81471331Y-72937142D02*
X80871331Y-72937142D01*
X80871331Y-72937142D02*
X80871331Y-72794285D01*
X80871331Y-72794285D02*
X80899902Y-72708571D01*
X80899902Y-72708571D02*
X80957045Y-72651428D01*
X80957045Y-72651428D02*
X81014188Y-72622857D01*
X81014188Y-72622857D02*
X81128474Y-72594285D01*
X81128474Y-72594285D02*
X81214188Y-72594285D01*
X81214188Y-72594285D02*
X81328474Y-72622857D01*
X81328474Y-72622857D02*
X81385617Y-72651428D01*
X81385617Y-72651428D02*
X81442760Y-72708571D01*
X81442760Y-72708571D02*
X81471331Y-72794285D01*
X81471331Y-72794285D02*
X81471331Y-72937142D01*
X81471331Y-72022857D02*
X81471331Y-72365714D01*
X81471331Y-72194285D02*
X80871331Y-72194285D01*
X80871331Y-72194285D02*
X80957045Y-72251428D01*
X80957045Y-72251428D02*
X81014188Y-72308571D01*
X81014188Y-72308571D02*
X81042760Y-72365714D01*
X81442760Y-76077143D02*
X81471331Y-75991429D01*
X81471331Y-75991429D02*
X81471331Y-75848571D01*
X81471331Y-75848571D02*
X81442760Y-75791429D01*
X81442760Y-75791429D02*
X81414188Y-75762857D01*
X81414188Y-75762857D02*
X81357045Y-75734286D01*
X81357045Y-75734286D02*
X81299902Y-75734286D01*
X81299902Y-75734286D02*
X81242760Y-75762857D01*
X81242760Y-75762857D02*
X81214188Y-75791429D01*
X81214188Y-75791429D02*
X81185617Y-75848571D01*
X81185617Y-75848571D02*
X81157045Y-75962857D01*
X81157045Y-75962857D02*
X81128474Y-76020000D01*
X81128474Y-76020000D02*
X81099902Y-76048571D01*
X81099902Y-76048571D02*
X81042760Y-76077143D01*
X81042760Y-76077143D02*
X80985617Y-76077143D01*
X80985617Y-76077143D02*
X80928474Y-76048571D01*
X80928474Y-76048571D02*
X80899902Y-76020000D01*
X80899902Y-76020000D02*
X80871331Y-75962857D01*
X80871331Y-75962857D02*
X80871331Y-75820000D01*
X80871331Y-75820000D02*
X80899902Y-75734286D01*
X81471331Y-75477142D02*
X80871331Y-75477142D01*
X80871331Y-75477142D02*
X80871331Y-75334285D01*
X80871331Y-75334285D02*
X80899902Y-75248571D01*
X80899902Y-75248571D02*
X80957045Y-75191428D01*
X80957045Y-75191428D02*
X81014188Y-75162857D01*
X81014188Y-75162857D02*
X81128474Y-75134285D01*
X81128474Y-75134285D02*
X81214188Y-75134285D01*
X81214188Y-75134285D02*
X81328474Y-75162857D01*
X81328474Y-75162857D02*
X81385617Y-75191428D01*
X81385617Y-75191428D02*
X81442760Y-75248571D01*
X81442760Y-75248571D02*
X81471331Y-75334285D01*
X81471331Y-75334285D02*
X81471331Y-75477142D01*
X80871331Y-74762857D02*
X80871331Y-74705714D01*
X80871331Y-74705714D02*
X80899902Y-74648571D01*
X80899902Y-74648571D02*
X80928474Y-74620000D01*
X80928474Y-74620000D02*
X80985617Y-74591428D01*
X80985617Y-74591428D02*
X81099902Y-74562857D01*
X81099902Y-74562857D02*
X81242760Y-74562857D01*
X81242760Y-74562857D02*
X81357045Y-74591428D01*
X81357045Y-74591428D02*
X81414188Y-74620000D01*
X81414188Y-74620000D02*
X81442760Y-74648571D01*
X81442760Y-74648571D02*
X81471331Y-74705714D01*
X81471331Y-74705714D02*
X81471331Y-74762857D01*
X81471331Y-74762857D02*
X81442760Y-74820000D01*
X81442760Y-74820000D02*
X81414188Y-74848571D01*
X81414188Y-74848571D02*
X81357045Y-74877142D01*
X81357045Y-74877142D02*
X81242760Y-74905714D01*
X81242760Y-74905714D02*
X81099902Y-74905714D01*
X81099902Y-74905714D02*
X80985617Y-74877142D01*
X80985617Y-74877142D02*
X80928474Y-74848571D01*
X80928474Y-74848571D02*
X80899902Y-74820000D01*
X80899902Y-74820000D02*
X80871331Y-74762857D01*
X81414188Y-78217142D02*
X81442760Y-78245714D01*
X81442760Y-78245714D02*
X81471331Y-78331428D01*
X81471331Y-78331428D02*
X81471331Y-78388571D01*
X81471331Y-78388571D02*
X81442760Y-78474285D01*
X81442760Y-78474285D02*
X81385617Y-78531428D01*
X81385617Y-78531428D02*
X81328474Y-78559999D01*
X81328474Y-78559999D02*
X81214188Y-78588571D01*
X81214188Y-78588571D02*
X81128474Y-78588571D01*
X81128474Y-78588571D02*
X81014188Y-78559999D01*
X81014188Y-78559999D02*
X80957045Y-78531428D01*
X80957045Y-78531428D02*
X80899902Y-78474285D01*
X80899902Y-78474285D02*
X80871331Y-78388571D01*
X80871331Y-78388571D02*
X80871331Y-78331428D01*
X80871331Y-78331428D02*
X80899902Y-78245714D01*
X80899902Y-78245714D02*
X80928474Y-78217142D01*
X81471331Y-77674285D02*
X81471331Y-77959999D01*
X81471331Y-77959999D02*
X80871331Y-77959999D01*
X81471331Y-77474285D02*
X80871331Y-77474285D01*
X81471331Y-77131428D02*
X81128474Y-77388571D01*
X80871331Y-77131428D02*
X81214188Y-77474285D01*
D12*
X122738095Y-43254819D02*
X122738095Y-44064342D01*
X122738095Y-44064342D02*
X122785714Y-44159580D01*
X122785714Y-44159580D02*
X122833333Y-44207200D01*
X122833333Y-44207200D02*
X122928571Y-44254819D01*
X122928571Y-44254819D02*
X123119047Y-44254819D01*
X123119047Y-44254819D02*
X123214285Y-44207200D01*
X123214285Y-44207200D02*
X123261904Y-44159580D01*
X123261904Y-44159580D02*
X123309523Y-44064342D01*
X123309523Y-44064342D02*
X123309523Y-43254819D01*
X123690476Y-43254819D02*
X124357142Y-43254819D01*
X124357142Y-43254819D02*
X123928571Y-44254819D01*
D13*
X117404762Y-6456379D02*
X117404762Y-5456379D01*
X118357142Y-6456379D02*
X117880952Y-6456379D01*
X117880952Y-6456379D02*
X117880952Y-5456379D01*
X118690476Y-6456379D02*
X118690476Y-5456379D01*
X119214285Y-6456379D02*
X119404761Y-6456379D01*
X119404761Y-6456379D02*
X119499999Y-6408760D01*
X119499999Y-6408760D02*
X119547618Y-6361140D01*
X119547618Y-6361140D02*
X119642856Y-6218283D01*
X119642856Y-6218283D02*
X119690475Y-6027807D01*
X119690475Y-6027807D02*
X119690475Y-5646855D01*
X119690475Y-5646855D02*
X119642856Y-5551617D01*
X119642856Y-5551617D02*
X119595237Y-5503998D01*
X119595237Y-5503998D02*
X119499999Y-5456379D01*
X119499999Y-5456379D02*
X119309523Y-5456379D01*
X119309523Y-5456379D02*
X119214285Y-5503998D01*
X119214285Y-5503998D02*
X119166666Y-5551617D01*
X119166666Y-5551617D02*
X119119047Y-5646855D01*
X119119047Y-5646855D02*
X119119047Y-5884950D01*
X119119047Y-5884950D02*
X119166666Y-5980188D01*
X119166666Y-5980188D02*
X119214285Y-6027807D01*
X119214285Y-6027807D02*
X119309523Y-6075426D01*
X119309523Y-6075426D02*
X119499999Y-6075426D01*
X119499999Y-6075426D02*
X119595237Y-6027807D01*
X119595237Y-6027807D02*
X119642856Y-5980188D01*
X119642856Y-5980188D02*
X119690475Y-5884950D01*
X120023809Y-5456379D02*
X120642856Y-5456379D01*
X120642856Y-5456379D02*
X120309523Y-5837331D01*
X120309523Y-5837331D02*
X120452380Y-5837331D01*
X120452380Y-5837331D02*
X120547618Y-5884950D01*
X120547618Y-5884950D02*
X120595237Y-5932569D01*
X120595237Y-5932569D02*
X120642856Y-6027807D01*
X120642856Y-6027807D02*
X120642856Y-6265902D01*
X120642856Y-6265902D02*
X120595237Y-6361140D01*
X120595237Y-6361140D02*
X120547618Y-6408760D01*
X120547618Y-6408760D02*
X120452380Y-6456379D01*
X120452380Y-6456379D02*
X120166666Y-6456379D01*
X120166666Y-6456379D02*
X120071428Y-6408760D01*
X120071428Y-6408760D02*
X120023809Y-6361140D01*
X121499999Y-5789712D02*
X121499999Y-6456379D01*
X121261904Y-5408760D02*
X121023809Y-6123045D01*
X121023809Y-6123045D02*
X121642856Y-6123045D01*
X122547618Y-6456379D02*
X121976190Y-6456379D01*
X122261904Y-6456379D02*
X122261904Y-5456379D01*
X122261904Y-5456379D02*
X122166666Y-5599236D01*
X122166666Y-5599236D02*
X122071428Y-5694474D01*
X122071428Y-5694474D02*
X121976190Y-5742093D01*
X123690476Y-5551617D02*
X123738095Y-5503998D01*
X123738095Y-5503998D02*
X123833333Y-5456379D01*
X123833333Y-5456379D02*
X124071428Y-5456379D01*
X124071428Y-5456379D02*
X124166666Y-5503998D01*
X124166666Y-5503998D02*
X124214285Y-5551617D01*
X124214285Y-5551617D02*
X124261904Y-5646855D01*
X124261904Y-5646855D02*
X124261904Y-5742093D01*
X124261904Y-5742093D02*
X124214285Y-5884950D01*
X124214285Y-5884950D02*
X123642857Y-6456379D01*
X123642857Y-6456379D02*
X124261904Y-6456379D01*
X124690476Y-6361140D02*
X124738095Y-6408760D01*
X124738095Y-6408760D02*
X124690476Y-6456379D01*
X124690476Y-6456379D02*
X124642857Y-6408760D01*
X124642857Y-6408760D02*
X124690476Y-6361140D01*
X124690476Y-6361140D02*
X124690476Y-6456379D01*
X125595237Y-5789712D02*
X125595237Y-6456379D01*
X125357142Y-5408760D02*
X125119047Y-6123045D01*
X125119047Y-6123045D02*
X125738094Y-6123045D01*
X126071428Y-5456379D02*
X126071428Y-5646855D01*
X126452380Y-5456379D02*
X126452380Y-5646855D01*
X127595238Y-6408760D02*
X127738095Y-6456379D01*
X127738095Y-6456379D02*
X127976190Y-6456379D01*
X127976190Y-6456379D02*
X128071428Y-6408760D01*
X128071428Y-6408760D02*
X128119047Y-6361140D01*
X128119047Y-6361140D02*
X128166666Y-6265902D01*
X128166666Y-6265902D02*
X128166666Y-6170664D01*
X128166666Y-6170664D02*
X128119047Y-6075426D01*
X128119047Y-6075426D02*
X128071428Y-6027807D01*
X128071428Y-6027807D02*
X127976190Y-5980188D01*
X127976190Y-5980188D02*
X127785714Y-5932569D01*
X127785714Y-5932569D02*
X127690476Y-5884950D01*
X127690476Y-5884950D02*
X127642857Y-5837331D01*
X127642857Y-5837331D02*
X127595238Y-5742093D01*
X127595238Y-5742093D02*
X127595238Y-5646855D01*
X127595238Y-5646855D02*
X127642857Y-5551617D01*
X127642857Y-5551617D02*
X127690476Y-5503998D01*
X127690476Y-5503998D02*
X127785714Y-5456379D01*
X127785714Y-5456379D02*
X128023809Y-5456379D01*
X128023809Y-5456379D02*
X128166666Y-5503998D01*
X128595238Y-6456379D02*
X128595238Y-5456379D01*
X128595238Y-5456379D02*
X128976190Y-5456379D01*
X128976190Y-5456379D02*
X129071428Y-5503998D01*
X129071428Y-5503998D02*
X129119047Y-5551617D01*
X129119047Y-5551617D02*
X129166666Y-5646855D01*
X129166666Y-5646855D02*
X129166666Y-5789712D01*
X129166666Y-5789712D02*
X129119047Y-5884950D01*
X129119047Y-5884950D02*
X129071428Y-5932569D01*
X129071428Y-5932569D02*
X128976190Y-5980188D01*
X128976190Y-5980188D02*
X128595238Y-5980188D01*
X129595238Y-6456379D02*
X129595238Y-5456379D01*
X106688200Y-48733333D02*
X107238200Y-48549999D01*
X107238200Y-48549999D02*
X106688200Y-48366666D01*
X107185819Y-47869046D02*
X107212010Y-47895237D01*
X107212010Y-47895237D02*
X107238200Y-47973808D01*
X107238200Y-47973808D02*
X107238200Y-48026189D01*
X107238200Y-48026189D02*
X107212010Y-48104761D01*
X107212010Y-48104761D02*
X107159629Y-48157142D01*
X107159629Y-48157142D02*
X107107248Y-48183332D01*
X107107248Y-48183332D02*
X107002486Y-48209523D01*
X107002486Y-48209523D02*
X106923914Y-48209523D01*
X106923914Y-48209523D02*
X106819152Y-48183332D01*
X106819152Y-48183332D02*
X106766771Y-48157142D01*
X106766771Y-48157142D02*
X106714390Y-48104761D01*
X106714390Y-48104761D02*
X106688200Y-48026189D01*
X106688200Y-48026189D02*
X106688200Y-47973808D01*
X106688200Y-47973808D02*
X106714390Y-47895237D01*
X106714390Y-47895237D02*
X106740581Y-47869046D01*
X107185819Y-47319046D02*
X107212010Y-47345237D01*
X107212010Y-47345237D02*
X107238200Y-47423808D01*
X107238200Y-47423808D02*
X107238200Y-47476189D01*
X107238200Y-47476189D02*
X107212010Y-47554761D01*
X107212010Y-47554761D02*
X107159629Y-47607142D01*
X107159629Y-47607142D02*
X107107248Y-47633332D01*
X107107248Y-47633332D02*
X107002486Y-47659523D01*
X107002486Y-47659523D02*
X106923914Y-47659523D01*
X106923914Y-47659523D02*
X106819152Y-47633332D01*
X106819152Y-47633332D02*
X106766771Y-47607142D01*
X106766771Y-47607142D02*
X106714390Y-47554761D01*
X106714390Y-47554761D02*
X106688200Y-47476189D01*
X106688200Y-47476189D02*
X106688200Y-47423808D01*
X106688200Y-47423808D02*
X106714390Y-47345237D01*
X106714390Y-47345237D02*
X106740581Y-47319046D01*
X109254390Y-48419047D02*
X109228200Y-48471428D01*
X109228200Y-48471428D02*
X109228200Y-48549999D01*
X109228200Y-48549999D02*
X109254390Y-48628571D01*
X109254390Y-48628571D02*
X109306771Y-48680952D01*
X109306771Y-48680952D02*
X109359152Y-48707142D01*
X109359152Y-48707142D02*
X109463914Y-48733333D01*
X109463914Y-48733333D02*
X109542486Y-48733333D01*
X109542486Y-48733333D02*
X109647248Y-48707142D01*
X109647248Y-48707142D02*
X109699629Y-48680952D01*
X109699629Y-48680952D02*
X109752010Y-48628571D01*
X109752010Y-48628571D02*
X109778200Y-48549999D01*
X109778200Y-48549999D02*
X109778200Y-48497618D01*
X109778200Y-48497618D02*
X109752010Y-48419047D01*
X109752010Y-48419047D02*
X109725819Y-48392856D01*
X109725819Y-48392856D02*
X109542486Y-48392856D01*
X109542486Y-48392856D02*
X109542486Y-48497618D01*
X109778200Y-48157142D02*
X109228200Y-48157142D01*
X109228200Y-48157142D02*
X109778200Y-47842856D01*
X109778200Y-47842856D02*
X109228200Y-47842856D01*
X109778200Y-47580952D02*
X109228200Y-47580952D01*
X109228200Y-47580952D02*
X109228200Y-47450000D01*
X109228200Y-47450000D02*
X109254390Y-47371428D01*
X109254390Y-47371428D02*
X109306771Y-47319047D01*
X109306771Y-47319047D02*
X109359152Y-47292857D01*
X109359152Y-47292857D02*
X109463914Y-47266666D01*
X109463914Y-47266666D02*
X109542486Y-47266666D01*
X109542486Y-47266666D02*
X109647248Y-47292857D01*
X109647248Y-47292857D02*
X109699629Y-47319047D01*
X109699629Y-47319047D02*
X109752010Y-47371428D01*
X109752010Y-47371428D02*
X109778200Y-47450000D01*
X109778200Y-47450000D02*
X109778200Y-47580952D01*
X112265819Y-48091666D02*
X112292010Y-48117857D01*
X112292010Y-48117857D02*
X112318200Y-48196428D01*
X112318200Y-48196428D02*
X112318200Y-48248809D01*
X112318200Y-48248809D02*
X112292010Y-48327381D01*
X112292010Y-48327381D02*
X112239629Y-48379762D01*
X112239629Y-48379762D02*
X112187248Y-48405952D01*
X112187248Y-48405952D02*
X112082486Y-48432143D01*
X112082486Y-48432143D02*
X112003914Y-48432143D01*
X112003914Y-48432143D02*
X111899152Y-48405952D01*
X111899152Y-48405952D02*
X111846771Y-48379762D01*
X111846771Y-48379762D02*
X111794390Y-48327381D01*
X111794390Y-48327381D02*
X111768200Y-48248809D01*
X111768200Y-48248809D02*
X111768200Y-48196428D01*
X111768200Y-48196428D02*
X111794390Y-48117857D01*
X111794390Y-48117857D02*
X111820581Y-48091666D01*
X112292010Y-47882143D02*
X112318200Y-47803571D01*
X112318200Y-47803571D02*
X112318200Y-47672619D01*
X112318200Y-47672619D02*
X112292010Y-47620238D01*
X112292010Y-47620238D02*
X112265819Y-47594047D01*
X112265819Y-47594047D02*
X112213438Y-47567857D01*
X112213438Y-47567857D02*
X112161057Y-47567857D01*
X112161057Y-47567857D02*
X112108676Y-47594047D01*
X112108676Y-47594047D02*
X112082486Y-47620238D01*
X112082486Y-47620238D02*
X112056295Y-47672619D01*
X112056295Y-47672619D02*
X112030105Y-47777381D01*
X112030105Y-47777381D02*
X112003914Y-47829762D01*
X112003914Y-47829762D02*
X111977724Y-47855952D01*
X111977724Y-47855952D02*
X111925343Y-47882143D01*
X111925343Y-47882143D02*
X111872962Y-47882143D01*
X111872962Y-47882143D02*
X111820581Y-47855952D01*
X111820581Y-47855952D02*
X111794390Y-47829762D01*
X111794390Y-47829762D02*
X111768200Y-47777381D01*
X111768200Y-47777381D02*
X111768200Y-47646428D01*
X111768200Y-47646428D02*
X111794390Y-47567857D01*
X114858200Y-48301190D02*
X114596295Y-48484524D01*
X114858200Y-48615476D02*
X114308200Y-48615476D01*
X114308200Y-48615476D02*
X114308200Y-48405952D01*
X114308200Y-48405952D02*
X114334390Y-48353571D01*
X114334390Y-48353571D02*
X114360581Y-48327381D01*
X114360581Y-48327381D02*
X114412962Y-48301190D01*
X114412962Y-48301190D02*
X114491533Y-48301190D01*
X114491533Y-48301190D02*
X114543914Y-48327381D01*
X114543914Y-48327381D02*
X114570105Y-48353571D01*
X114570105Y-48353571D02*
X114596295Y-48405952D01*
X114596295Y-48405952D02*
X114596295Y-48615476D01*
X114832010Y-48091667D02*
X114858200Y-48013095D01*
X114858200Y-48013095D02*
X114858200Y-47882143D01*
X114858200Y-47882143D02*
X114832010Y-47829762D01*
X114832010Y-47829762D02*
X114805819Y-47803571D01*
X114805819Y-47803571D02*
X114753438Y-47777381D01*
X114753438Y-47777381D02*
X114701057Y-47777381D01*
X114701057Y-47777381D02*
X114648676Y-47803571D01*
X114648676Y-47803571D02*
X114622486Y-47829762D01*
X114622486Y-47829762D02*
X114596295Y-47882143D01*
X114596295Y-47882143D02*
X114570105Y-47986905D01*
X114570105Y-47986905D02*
X114543914Y-48039286D01*
X114543914Y-48039286D02*
X114517724Y-48065476D01*
X114517724Y-48065476D02*
X114465343Y-48091667D01*
X114465343Y-48091667D02*
X114412962Y-48091667D01*
X114412962Y-48091667D02*
X114360581Y-48065476D01*
X114360581Y-48065476D02*
X114334390Y-48039286D01*
X114334390Y-48039286D02*
X114308200Y-47986905D01*
X114308200Y-47986905D02*
X114308200Y-47855952D01*
X114308200Y-47855952D02*
X114334390Y-47777381D01*
X114308200Y-47620238D02*
X114308200Y-47305952D01*
X114858200Y-47463095D02*
X114308200Y-47463095D01*
X117398200Y-48419047D02*
X116848200Y-48419047D01*
X116848200Y-48419047D02*
X116848200Y-48288095D01*
X116848200Y-48288095D02*
X116874390Y-48209523D01*
X116874390Y-48209523D02*
X116926771Y-48157142D01*
X116926771Y-48157142D02*
X116979152Y-48130952D01*
X116979152Y-48130952D02*
X117083914Y-48104761D01*
X117083914Y-48104761D02*
X117162486Y-48104761D01*
X117162486Y-48104761D02*
X117267248Y-48130952D01*
X117267248Y-48130952D02*
X117319629Y-48157142D01*
X117319629Y-48157142D02*
X117372010Y-48209523D01*
X117372010Y-48209523D02*
X117398200Y-48288095D01*
X117398200Y-48288095D02*
X117398200Y-48419047D01*
X117345819Y-47554761D02*
X117372010Y-47580952D01*
X117372010Y-47580952D02*
X117398200Y-47659523D01*
X117398200Y-47659523D02*
X117398200Y-47711904D01*
X117398200Y-47711904D02*
X117372010Y-47790476D01*
X117372010Y-47790476D02*
X117319629Y-47842857D01*
X117319629Y-47842857D02*
X117267248Y-47869047D01*
X117267248Y-47869047D02*
X117162486Y-47895238D01*
X117162486Y-47895238D02*
X117083914Y-47895238D01*
X117083914Y-47895238D02*
X116979152Y-47869047D01*
X116979152Y-47869047D02*
X116926771Y-47842857D01*
X116926771Y-47842857D02*
X116874390Y-47790476D01*
X116874390Y-47790476D02*
X116848200Y-47711904D01*
X116848200Y-47711904D02*
X116848200Y-47659523D01*
X116848200Y-47659523D02*
X116874390Y-47580952D01*
X116874390Y-47580952D02*
X116900581Y-47554761D01*
X119938200Y-48864285D02*
X119388200Y-48864285D01*
X119388200Y-48864285D02*
X119781057Y-48680952D01*
X119781057Y-48680952D02*
X119388200Y-48497618D01*
X119388200Y-48497618D02*
X119938200Y-48497618D01*
X119388200Y-48130952D02*
X119388200Y-48026190D01*
X119388200Y-48026190D02*
X119414390Y-47973809D01*
X119414390Y-47973809D02*
X119466771Y-47921428D01*
X119466771Y-47921428D02*
X119571533Y-47895238D01*
X119571533Y-47895238D02*
X119754867Y-47895238D01*
X119754867Y-47895238D02*
X119859629Y-47921428D01*
X119859629Y-47921428D02*
X119912010Y-47973809D01*
X119912010Y-47973809D02*
X119938200Y-48026190D01*
X119938200Y-48026190D02*
X119938200Y-48130952D01*
X119938200Y-48130952D02*
X119912010Y-48183333D01*
X119912010Y-48183333D02*
X119859629Y-48235714D01*
X119859629Y-48235714D02*
X119754867Y-48261905D01*
X119754867Y-48261905D02*
X119571533Y-48261905D01*
X119571533Y-48261905D02*
X119466771Y-48235714D01*
X119466771Y-48235714D02*
X119414390Y-48183333D01*
X119414390Y-48183333D02*
X119388200Y-48130952D01*
X119912010Y-47685715D02*
X119938200Y-47607143D01*
X119938200Y-47607143D02*
X119938200Y-47476191D01*
X119938200Y-47476191D02*
X119912010Y-47423810D01*
X119912010Y-47423810D02*
X119885819Y-47397619D01*
X119885819Y-47397619D02*
X119833438Y-47371429D01*
X119833438Y-47371429D02*
X119781057Y-47371429D01*
X119781057Y-47371429D02*
X119728676Y-47397619D01*
X119728676Y-47397619D02*
X119702486Y-47423810D01*
X119702486Y-47423810D02*
X119676295Y-47476191D01*
X119676295Y-47476191D02*
X119650105Y-47580953D01*
X119650105Y-47580953D02*
X119623914Y-47633334D01*
X119623914Y-47633334D02*
X119597724Y-47659524D01*
X119597724Y-47659524D02*
X119545343Y-47685715D01*
X119545343Y-47685715D02*
X119492962Y-47685715D01*
X119492962Y-47685715D02*
X119440581Y-47659524D01*
X119440581Y-47659524D02*
X119414390Y-47633334D01*
X119414390Y-47633334D02*
X119388200Y-47580953D01*
X119388200Y-47580953D02*
X119388200Y-47450000D01*
X119388200Y-47450000D02*
X119414390Y-47371429D01*
X119938200Y-47135714D02*
X119388200Y-47135714D01*
X122452010Y-48707143D02*
X122478200Y-48628571D01*
X122478200Y-48628571D02*
X122478200Y-48497619D01*
X122478200Y-48497619D02*
X122452010Y-48445238D01*
X122452010Y-48445238D02*
X122425819Y-48419047D01*
X122425819Y-48419047D02*
X122373438Y-48392857D01*
X122373438Y-48392857D02*
X122321057Y-48392857D01*
X122321057Y-48392857D02*
X122268676Y-48419047D01*
X122268676Y-48419047D02*
X122242486Y-48445238D01*
X122242486Y-48445238D02*
X122216295Y-48497619D01*
X122216295Y-48497619D02*
X122190105Y-48602381D01*
X122190105Y-48602381D02*
X122163914Y-48654762D01*
X122163914Y-48654762D02*
X122137724Y-48680952D01*
X122137724Y-48680952D02*
X122085343Y-48707143D01*
X122085343Y-48707143D02*
X122032962Y-48707143D01*
X122032962Y-48707143D02*
X121980581Y-48680952D01*
X121980581Y-48680952D02*
X121954390Y-48654762D01*
X121954390Y-48654762D02*
X121928200Y-48602381D01*
X121928200Y-48602381D02*
X121928200Y-48471428D01*
X121928200Y-48471428D02*
X121954390Y-48392857D01*
X122425819Y-47842856D02*
X122452010Y-47869047D01*
X122452010Y-47869047D02*
X122478200Y-47947618D01*
X122478200Y-47947618D02*
X122478200Y-47999999D01*
X122478200Y-47999999D02*
X122452010Y-48078571D01*
X122452010Y-48078571D02*
X122399629Y-48130952D01*
X122399629Y-48130952D02*
X122347248Y-48157142D01*
X122347248Y-48157142D02*
X122242486Y-48183333D01*
X122242486Y-48183333D02*
X122163914Y-48183333D01*
X122163914Y-48183333D02*
X122059152Y-48157142D01*
X122059152Y-48157142D02*
X122006771Y-48130952D01*
X122006771Y-48130952D02*
X121954390Y-48078571D01*
X121954390Y-48078571D02*
X121928200Y-47999999D01*
X121928200Y-47999999D02*
X121928200Y-47947618D01*
X121928200Y-47947618D02*
X121954390Y-47869047D01*
X121954390Y-47869047D02*
X121980581Y-47842856D01*
X122478200Y-47607142D02*
X121928200Y-47607142D01*
X122478200Y-47292856D02*
X122163914Y-47528571D01*
X121928200Y-47292856D02*
X122242486Y-47607142D01*
X125018200Y-48353570D02*
X125018200Y-48615475D01*
X125018200Y-48615475D02*
X124468200Y-48615475D01*
X124730105Y-48170237D02*
X124730105Y-47986904D01*
X125018200Y-47908332D02*
X125018200Y-48170237D01*
X125018200Y-48170237D02*
X124468200Y-48170237D01*
X124468200Y-48170237D02*
X124468200Y-47908332D01*
X125018200Y-47672618D02*
X124468200Y-47672618D01*
X124468200Y-47672618D02*
X124468200Y-47541666D01*
X124468200Y-47541666D02*
X124494390Y-47463094D01*
X124494390Y-47463094D02*
X124546771Y-47410713D01*
X124546771Y-47410713D02*
X124599152Y-47384523D01*
X124599152Y-47384523D02*
X124703914Y-47358332D01*
X124703914Y-47358332D02*
X124782486Y-47358332D01*
X124782486Y-47358332D02*
X124887248Y-47384523D01*
X124887248Y-47384523D02*
X124939629Y-47410713D01*
X124939629Y-47410713D02*
X124992010Y-47463094D01*
X124992010Y-47463094D02*
X125018200Y-47541666D01*
X125018200Y-47541666D02*
X125018200Y-47672618D01*
X127558200Y-48864285D02*
X127008200Y-48864285D01*
X127008200Y-48864285D02*
X127401057Y-48680952D01*
X127401057Y-48680952D02*
X127008200Y-48497618D01*
X127008200Y-48497618D02*
X127558200Y-48497618D01*
X127558200Y-48235714D02*
X127008200Y-48235714D01*
X127532010Y-48000000D02*
X127558200Y-47921428D01*
X127558200Y-47921428D02*
X127558200Y-47790476D01*
X127558200Y-47790476D02*
X127532010Y-47738095D01*
X127532010Y-47738095D02*
X127505819Y-47711904D01*
X127505819Y-47711904D02*
X127453438Y-47685714D01*
X127453438Y-47685714D02*
X127401057Y-47685714D01*
X127401057Y-47685714D02*
X127348676Y-47711904D01*
X127348676Y-47711904D02*
X127322486Y-47738095D01*
X127322486Y-47738095D02*
X127296295Y-47790476D01*
X127296295Y-47790476D02*
X127270105Y-47895238D01*
X127270105Y-47895238D02*
X127243914Y-47947619D01*
X127243914Y-47947619D02*
X127217724Y-47973809D01*
X127217724Y-47973809D02*
X127165343Y-48000000D01*
X127165343Y-48000000D02*
X127112962Y-48000000D01*
X127112962Y-48000000D02*
X127060581Y-47973809D01*
X127060581Y-47973809D02*
X127034390Y-47947619D01*
X127034390Y-47947619D02*
X127008200Y-47895238D01*
X127008200Y-47895238D02*
X127008200Y-47764285D01*
X127008200Y-47764285D02*
X127034390Y-47685714D01*
X127008200Y-47345237D02*
X127008200Y-47240475D01*
X127008200Y-47240475D02*
X127034390Y-47188094D01*
X127034390Y-47188094D02*
X127086771Y-47135713D01*
X127086771Y-47135713D02*
X127191533Y-47109523D01*
X127191533Y-47109523D02*
X127374867Y-47109523D01*
X127374867Y-47109523D02*
X127479629Y-47135713D01*
X127479629Y-47135713D02*
X127532010Y-47188094D01*
X127532010Y-47188094D02*
X127558200Y-47240475D01*
X127558200Y-47240475D02*
X127558200Y-47345237D01*
X127558200Y-47345237D02*
X127532010Y-47397618D01*
X127532010Y-47397618D02*
X127479629Y-47449999D01*
X127479629Y-47449999D02*
X127374867Y-47476190D01*
X127374867Y-47476190D02*
X127191533Y-47476190D01*
X127191533Y-47476190D02*
X127086771Y-47449999D01*
X127086771Y-47449999D02*
X127034390Y-47397618D01*
X127034390Y-47397618D02*
X127008200Y-47345237D01*
X129548200Y-49139286D02*
X129548200Y-48825000D01*
X130098200Y-48982143D02*
X129548200Y-48982143D01*
X130150581Y-48772619D02*
X130150581Y-48353571D01*
X130045819Y-47908332D02*
X130072010Y-47934523D01*
X130072010Y-47934523D02*
X130098200Y-48013094D01*
X130098200Y-48013094D02*
X130098200Y-48065475D01*
X130098200Y-48065475D02*
X130072010Y-48144047D01*
X130072010Y-48144047D02*
X130019629Y-48196428D01*
X130019629Y-48196428D02*
X129967248Y-48222618D01*
X129967248Y-48222618D02*
X129862486Y-48248809D01*
X129862486Y-48248809D02*
X129783914Y-48248809D01*
X129783914Y-48248809D02*
X129679152Y-48222618D01*
X129679152Y-48222618D02*
X129626771Y-48196428D01*
X129626771Y-48196428D02*
X129574390Y-48144047D01*
X129574390Y-48144047D02*
X129548200Y-48065475D01*
X129548200Y-48065475D02*
X129548200Y-48013094D01*
X129548200Y-48013094D02*
X129574390Y-47934523D01*
X129574390Y-47934523D02*
X129600581Y-47908332D01*
X130098200Y-47410713D02*
X130098200Y-47672618D01*
X130098200Y-47672618D02*
X129548200Y-47672618D01*
X130098200Y-47227380D02*
X129548200Y-47227380D01*
X130098200Y-46913094D02*
X129783914Y-47148809D01*
X129548200Y-46913094D02*
X129862486Y-47227380D01*
X132088200Y-48903572D02*
X132088200Y-48589286D01*
X132638200Y-48746429D02*
X132088200Y-48746429D01*
X132690581Y-48536905D02*
X132690581Y-48117857D01*
X132585819Y-47672618D02*
X132612010Y-47698809D01*
X132612010Y-47698809D02*
X132638200Y-47777380D01*
X132638200Y-47777380D02*
X132638200Y-47829761D01*
X132638200Y-47829761D02*
X132612010Y-47908333D01*
X132612010Y-47908333D02*
X132559629Y-47960714D01*
X132559629Y-47960714D02*
X132507248Y-47986904D01*
X132507248Y-47986904D02*
X132402486Y-48013095D01*
X132402486Y-48013095D02*
X132323914Y-48013095D01*
X132323914Y-48013095D02*
X132219152Y-47986904D01*
X132219152Y-47986904D02*
X132166771Y-47960714D01*
X132166771Y-47960714D02*
X132114390Y-47908333D01*
X132114390Y-47908333D02*
X132088200Y-47829761D01*
X132088200Y-47829761D02*
X132088200Y-47777380D01*
X132088200Y-47777380D02*
X132114390Y-47698809D01*
X132114390Y-47698809D02*
X132140581Y-47672618D01*
X132612010Y-47463095D02*
X132638200Y-47384523D01*
X132638200Y-47384523D02*
X132638200Y-47253571D01*
X132638200Y-47253571D02*
X132612010Y-47201190D01*
X132612010Y-47201190D02*
X132585819Y-47174999D01*
X132585819Y-47174999D02*
X132533438Y-47148809D01*
X132533438Y-47148809D02*
X132481057Y-47148809D01*
X132481057Y-47148809D02*
X132428676Y-47174999D01*
X132428676Y-47174999D02*
X132402486Y-47201190D01*
X132402486Y-47201190D02*
X132376295Y-47253571D01*
X132376295Y-47253571D02*
X132350105Y-47358333D01*
X132350105Y-47358333D02*
X132323914Y-47410714D01*
X132323914Y-47410714D02*
X132297724Y-47436904D01*
X132297724Y-47436904D02*
X132245343Y-47463095D01*
X132245343Y-47463095D02*
X132192962Y-47463095D01*
X132192962Y-47463095D02*
X132140581Y-47436904D01*
X132140581Y-47436904D02*
X132114390Y-47410714D01*
X132114390Y-47410714D02*
X132088200Y-47358333D01*
X132088200Y-47358333D02*
X132088200Y-47227380D01*
X132088200Y-47227380D02*
X132114390Y-47148809D01*
X134628200Y-49060714D02*
X134628200Y-48746428D01*
X135178200Y-48903571D02*
X134628200Y-48903571D01*
X135230581Y-48694047D02*
X135230581Y-48274999D01*
X135178200Y-48144046D02*
X134628200Y-48144046D01*
X134628200Y-48144046D02*
X134628200Y-48013094D01*
X134628200Y-48013094D02*
X134654390Y-47934522D01*
X134654390Y-47934522D02*
X134706771Y-47882141D01*
X134706771Y-47882141D02*
X134759152Y-47855951D01*
X134759152Y-47855951D02*
X134863914Y-47829760D01*
X134863914Y-47829760D02*
X134942486Y-47829760D01*
X134942486Y-47829760D02*
X135047248Y-47855951D01*
X135047248Y-47855951D02*
X135099629Y-47882141D01*
X135099629Y-47882141D02*
X135152010Y-47934522D01*
X135152010Y-47934522D02*
X135178200Y-48013094D01*
X135178200Y-48013094D02*
X135178200Y-48144046D01*
X135178200Y-47594046D02*
X134628200Y-47594046D01*
X135178200Y-47332141D02*
X134628200Y-47332141D01*
X134628200Y-47332141D02*
X135178200Y-47017855D01*
X135178200Y-47017855D02*
X134628200Y-47017855D01*
X137168200Y-48929762D02*
X137168200Y-48615476D01*
X137718200Y-48772619D02*
X137168200Y-48772619D01*
X137770581Y-48563095D02*
X137770581Y-48144047D01*
X137718200Y-48013094D02*
X137168200Y-48013094D01*
X137168200Y-48013094D02*
X137168200Y-47882142D01*
X137168200Y-47882142D02*
X137194390Y-47803570D01*
X137194390Y-47803570D02*
X137246771Y-47751189D01*
X137246771Y-47751189D02*
X137299152Y-47724999D01*
X137299152Y-47724999D02*
X137403914Y-47698808D01*
X137403914Y-47698808D02*
X137482486Y-47698808D01*
X137482486Y-47698808D02*
X137587248Y-47724999D01*
X137587248Y-47724999D02*
X137639629Y-47751189D01*
X137639629Y-47751189D02*
X137692010Y-47803570D01*
X137692010Y-47803570D02*
X137718200Y-47882142D01*
X137718200Y-47882142D02*
X137718200Y-48013094D01*
X137168200Y-47358332D02*
X137168200Y-47253570D01*
X137168200Y-47253570D02*
X137194390Y-47201189D01*
X137194390Y-47201189D02*
X137246771Y-47148808D01*
X137246771Y-47148808D02*
X137351533Y-47122618D01*
X137351533Y-47122618D02*
X137534867Y-47122618D01*
X137534867Y-47122618D02*
X137639629Y-47148808D01*
X137639629Y-47148808D02*
X137692010Y-47201189D01*
X137692010Y-47201189D02*
X137718200Y-47253570D01*
X137718200Y-47253570D02*
X137718200Y-47358332D01*
X137718200Y-47358332D02*
X137692010Y-47410713D01*
X137692010Y-47410713D02*
X137639629Y-47463094D01*
X137639629Y-47463094D02*
X137534867Y-47489285D01*
X137534867Y-47489285D02*
X137351533Y-47489285D01*
X137351533Y-47489285D02*
X137246771Y-47463094D01*
X137246771Y-47463094D02*
X137194390Y-47410713D01*
X137194390Y-47410713D02*
X137168200Y-47358332D01*
X139708200Y-49060714D02*
X139708200Y-48746428D01*
X140258200Y-48903571D02*
X139708200Y-48903571D01*
X140310581Y-48694047D02*
X140310581Y-48274999D01*
X140258200Y-48144046D02*
X139708200Y-48144046D01*
X140258200Y-47567855D02*
X139996295Y-47751189D01*
X140258200Y-47882141D02*
X139708200Y-47882141D01*
X139708200Y-47882141D02*
X139708200Y-47672617D01*
X139708200Y-47672617D02*
X139734390Y-47620236D01*
X139734390Y-47620236D02*
X139760581Y-47594046D01*
X139760581Y-47594046D02*
X139812962Y-47567855D01*
X139812962Y-47567855D02*
X139891533Y-47567855D01*
X139891533Y-47567855D02*
X139943914Y-47594046D01*
X139943914Y-47594046D02*
X139970105Y-47620236D01*
X139970105Y-47620236D02*
X139996295Y-47672617D01*
X139996295Y-47672617D02*
X139996295Y-47882141D01*
X140310581Y-46965474D02*
X140284390Y-47017855D01*
X140284390Y-47017855D02*
X140232010Y-47070236D01*
X140232010Y-47070236D02*
X140153438Y-47148808D01*
X140153438Y-47148808D02*
X140127248Y-47201189D01*
X140127248Y-47201189D02*
X140127248Y-47253570D01*
X140258200Y-47227379D02*
X140232010Y-47279760D01*
X140232010Y-47279760D02*
X140179629Y-47332141D01*
X140179629Y-47332141D02*
X140074867Y-47358332D01*
X140074867Y-47358332D02*
X139891533Y-47358332D01*
X139891533Y-47358332D02*
X139786771Y-47332141D01*
X139786771Y-47332141D02*
X139734390Y-47279760D01*
X139734390Y-47279760D02*
X139708200Y-47227379D01*
X139708200Y-47227379D02*
X139708200Y-47122617D01*
X139708200Y-47122617D02*
X139734390Y-47070236D01*
X139734390Y-47070236D02*
X139786771Y-47017855D01*
X139786771Y-47017855D02*
X139891533Y-46991665D01*
X139891533Y-46991665D02*
X140074867Y-46991665D01*
X140074867Y-46991665D02*
X140179629Y-47017855D01*
X140179629Y-47017855D02*
X140232010Y-47070236D01*
X140232010Y-47070236D02*
X140258200Y-47122617D01*
X140258200Y-47122617D02*
X140258200Y-47227379D01*
D12*
X119388095Y-97254819D02*
X119388095Y-98064342D01*
X119388095Y-98064342D02*
X119435714Y-98159580D01*
X119435714Y-98159580D02*
X119483333Y-98207200D01*
X119483333Y-98207200D02*
X119578571Y-98254819D01*
X119578571Y-98254819D02*
X119769047Y-98254819D01*
X119769047Y-98254819D02*
X119864285Y-98207200D01*
X119864285Y-98207200D02*
X119911904Y-98159580D01*
X119911904Y-98159580D02*
X119959523Y-98064342D01*
X119959523Y-98064342D02*
X119959523Y-97254819D01*
X120864285Y-97588152D02*
X120864285Y-98254819D01*
X120626190Y-97207200D02*
X120388095Y-97921485D01*
X120388095Y-97921485D02*
X121007142Y-97921485D01*
D13*
X116483333Y-54956379D02*
X116150000Y-54480188D01*
X115911905Y-54956379D02*
X115911905Y-53956379D01*
X115911905Y-53956379D02*
X116292857Y-53956379D01*
X116292857Y-53956379D02*
X116388095Y-54003998D01*
X116388095Y-54003998D02*
X116435714Y-54051617D01*
X116435714Y-54051617D02*
X116483333Y-54146855D01*
X116483333Y-54146855D02*
X116483333Y-54289712D01*
X116483333Y-54289712D02*
X116435714Y-54384950D01*
X116435714Y-54384950D02*
X116388095Y-54432569D01*
X116388095Y-54432569D02*
X116292857Y-54480188D01*
X116292857Y-54480188D02*
X115911905Y-54480188D01*
X117245238Y-54432569D02*
X116911905Y-54432569D01*
X116911905Y-54956379D02*
X116911905Y-53956379D01*
X116911905Y-53956379D02*
X117388095Y-53956379D01*
X117769048Y-54956379D02*
X117769048Y-53956379D01*
X118245238Y-54956379D02*
X118245238Y-53956379D01*
X118245238Y-53956379D02*
X118483333Y-53956379D01*
X118483333Y-53956379D02*
X118626190Y-54003998D01*
X118626190Y-54003998D02*
X118721428Y-54099236D01*
X118721428Y-54099236D02*
X118769047Y-54194474D01*
X118769047Y-54194474D02*
X118816666Y-54384950D01*
X118816666Y-54384950D02*
X118816666Y-54527807D01*
X118816666Y-54527807D02*
X118769047Y-54718283D01*
X118769047Y-54718283D02*
X118721428Y-54813521D01*
X118721428Y-54813521D02*
X118626190Y-54908760D01*
X118626190Y-54908760D02*
X118483333Y-54956379D01*
X118483333Y-54956379D02*
X118245238Y-54956379D01*
X120578571Y-54956379D02*
X120245238Y-54480188D01*
X120007143Y-54956379D02*
X120007143Y-53956379D01*
X120007143Y-53956379D02*
X120388095Y-53956379D01*
X120388095Y-53956379D02*
X120483333Y-54003998D01*
X120483333Y-54003998D02*
X120530952Y-54051617D01*
X120530952Y-54051617D02*
X120578571Y-54146855D01*
X120578571Y-54146855D02*
X120578571Y-54289712D01*
X120578571Y-54289712D02*
X120530952Y-54384950D01*
X120530952Y-54384950D02*
X120483333Y-54432569D01*
X120483333Y-54432569D02*
X120388095Y-54480188D01*
X120388095Y-54480188D02*
X120007143Y-54480188D01*
X121578571Y-54861140D02*
X121530952Y-54908760D01*
X121530952Y-54908760D02*
X121388095Y-54956379D01*
X121388095Y-54956379D02*
X121292857Y-54956379D01*
X121292857Y-54956379D02*
X121150000Y-54908760D01*
X121150000Y-54908760D02*
X121054762Y-54813521D01*
X121054762Y-54813521D02*
X121007143Y-54718283D01*
X121007143Y-54718283D02*
X120959524Y-54527807D01*
X120959524Y-54527807D02*
X120959524Y-54384950D01*
X120959524Y-54384950D02*
X121007143Y-54194474D01*
X121007143Y-54194474D02*
X121054762Y-54099236D01*
X121054762Y-54099236D02*
X121150000Y-54003998D01*
X121150000Y-54003998D02*
X121292857Y-53956379D01*
X121292857Y-53956379D02*
X121388095Y-53956379D01*
X121388095Y-53956379D02*
X121530952Y-54003998D01*
X121530952Y-54003998D02*
X121578571Y-54051617D01*
X122483333Y-53956379D02*
X122007143Y-53956379D01*
X122007143Y-53956379D02*
X121959524Y-54432569D01*
X121959524Y-54432569D02*
X122007143Y-54384950D01*
X122007143Y-54384950D02*
X122102381Y-54337331D01*
X122102381Y-54337331D02*
X122340476Y-54337331D01*
X122340476Y-54337331D02*
X122435714Y-54384950D01*
X122435714Y-54384950D02*
X122483333Y-54432569D01*
X122483333Y-54432569D02*
X122530952Y-54527807D01*
X122530952Y-54527807D02*
X122530952Y-54765902D01*
X122530952Y-54765902D02*
X122483333Y-54861140D01*
X122483333Y-54861140D02*
X122435714Y-54908760D01*
X122435714Y-54908760D02*
X122340476Y-54956379D01*
X122340476Y-54956379D02*
X122102381Y-54956379D01*
X122102381Y-54956379D02*
X122007143Y-54908760D01*
X122007143Y-54908760D02*
X121959524Y-54861140D01*
X122911905Y-54051617D02*
X122959524Y-54003998D01*
X122959524Y-54003998D02*
X123054762Y-53956379D01*
X123054762Y-53956379D02*
X123292857Y-53956379D01*
X123292857Y-53956379D02*
X123388095Y-54003998D01*
X123388095Y-54003998D02*
X123435714Y-54051617D01*
X123435714Y-54051617D02*
X123483333Y-54146855D01*
X123483333Y-54146855D02*
X123483333Y-54242093D01*
X123483333Y-54242093D02*
X123435714Y-54384950D01*
X123435714Y-54384950D02*
X122864286Y-54956379D01*
X122864286Y-54956379D02*
X123483333Y-54956379D01*
X123864286Y-54051617D02*
X123911905Y-54003998D01*
X123911905Y-54003998D02*
X124007143Y-53956379D01*
X124007143Y-53956379D02*
X124245238Y-53956379D01*
X124245238Y-53956379D02*
X124340476Y-54003998D01*
X124340476Y-54003998D02*
X124388095Y-54051617D01*
X124388095Y-54051617D02*
X124435714Y-54146855D01*
X124435714Y-54146855D02*
X124435714Y-54242093D01*
X124435714Y-54242093D02*
X124388095Y-54384950D01*
X124388095Y-54384950D02*
X123816667Y-54956379D01*
X123816667Y-54956379D02*
X124435714Y-54956379D01*
X111482010Y-102667857D02*
X111508200Y-102589285D01*
X111508200Y-102589285D02*
X111508200Y-102458333D01*
X111508200Y-102458333D02*
X111482010Y-102405952D01*
X111482010Y-102405952D02*
X111455819Y-102379761D01*
X111455819Y-102379761D02*
X111403438Y-102353571D01*
X111403438Y-102353571D02*
X111351057Y-102353571D01*
X111351057Y-102353571D02*
X111298676Y-102379761D01*
X111298676Y-102379761D02*
X111272486Y-102405952D01*
X111272486Y-102405952D02*
X111246295Y-102458333D01*
X111246295Y-102458333D02*
X111220105Y-102563095D01*
X111220105Y-102563095D02*
X111193914Y-102615476D01*
X111193914Y-102615476D02*
X111167724Y-102641666D01*
X111167724Y-102641666D02*
X111115343Y-102667857D01*
X111115343Y-102667857D02*
X111062962Y-102667857D01*
X111062962Y-102667857D02*
X111010581Y-102641666D01*
X111010581Y-102641666D02*
X110984390Y-102615476D01*
X110984390Y-102615476D02*
X110958200Y-102563095D01*
X110958200Y-102563095D02*
X110958200Y-102432142D01*
X110958200Y-102432142D02*
X110984390Y-102353571D01*
X111508200Y-102117856D02*
X110958200Y-102117856D01*
X110958200Y-102117856D02*
X110958200Y-101986904D01*
X110958200Y-101986904D02*
X110984390Y-101908332D01*
X110984390Y-101908332D02*
X111036771Y-101855951D01*
X111036771Y-101855951D02*
X111089152Y-101829761D01*
X111089152Y-101829761D02*
X111193914Y-101803570D01*
X111193914Y-101803570D02*
X111272486Y-101803570D01*
X111272486Y-101803570D02*
X111377248Y-101829761D01*
X111377248Y-101829761D02*
X111429629Y-101855951D01*
X111429629Y-101855951D02*
X111482010Y-101908332D01*
X111482010Y-101908332D02*
X111508200Y-101986904D01*
X111508200Y-101986904D02*
X111508200Y-102117856D01*
X111351057Y-101594047D02*
X111351057Y-101332142D01*
X111508200Y-101646428D02*
X110958200Y-101463094D01*
X110958200Y-101463094D02*
X111508200Y-101279761D01*
X114022010Y-102707143D02*
X114048200Y-102628571D01*
X114048200Y-102628571D02*
X114048200Y-102497619D01*
X114048200Y-102497619D02*
X114022010Y-102445238D01*
X114022010Y-102445238D02*
X113995819Y-102419047D01*
X113995819Y-102419047D02*
X113943438Y-102392857D01*
X113943438Y-102392857D02*
X113891057Y-102392857D01*
X113891057Y-102392857D02*
X113838676Y-102419047D01*
X113838676Y-102419047D02*
X113812486Y-102445238D01*
X113812486Y-102445238D02*
X113786295Y-102497619D01*
X113786295Y-102497619D02*
X113760105Y-102602381D01*
X113760105Y-102602381D02*
X113733914Y-102654762D01*
X113733914Y-102654762D02*
X113707724Y-102680952D01*
X113707724Y-102680952D02*
X113655343Y-102707143D01*
X113655343Y-102707143D02*
X113602962Y-102707143D01*
X113602962Y-102707143D02*
X113550581Y-102680952D01*
X113550581Y-102680952D02*
X113524390Y-102654762D01*
X113524390Y-102654762D02*
X113498200Y-102602381D01*
X113498200Y-102602381D02*
X113498200Y-102471428D01*
X113498200Y-102471428D02*
X113524390Y-102392857D01*
X113995819Y-101842856D02*
X114022010Y-101869047D01*
X114022010Y-101869047D02*
X114048200Y-101947618D01*
X114048200Y-101947618D02*
X114048200Y-101999999D01*
X114048200Y-101999999D02*
X114022010Y-102078571D01*
X114022010Y-102078571D02*
X113969629Y-102130952D01*
X113969629Y-102130952D02*
X113917248Y-102157142D01*
X113917248Y-102157142D02*
X113812486Y-102183333D01*
X113812486Y-102183333D02*
X113733914Y-102183333D01*
X113733914Y-102183333D02*
X113629152Y-102157142D01*
X113629152Y-102157142D02*
X113576771Y-102130952D01*
X113576771Y-102130952D02*
X113524390Y-102078571D01*
X113524390Y-102078571D02*
X113498200Y-101999999D01*
X113498200Y-101999999D02*
X113498200Y-101947618D01*
X113498200Y-101947618D02*
X113524390Y-101869047D01*
X113524390Y-101869047D02*
X113550581Y-101842856D01*
X114048200Y-101607142D02*
X113498200Y-101607142D01*
X114048200Y-101292856D02*
X113733914Y-101528571D01*
X113498200Y-101292856D02*
X113812486Y-101607142D01*
X116588200Y-102864285D02*
X116038200Y-102864285D01*
X116038200Y-102864285D02*
X116431057Y-102680952D01*
X116431057Y-102680952D02*
X116038200Y-102497618D01*
X116038200Y-102497618D02*
X116588200Y-102497618D01*
X116038200Y-102130952D02*
X116038200Y-102026190D01*
X116038200Y-102026190D02*
X116064390Y-101973809D01*
X116064390Y-101973809D02*
X116116771Y-101921428D01*
X116116771Y-101921428D02*
X116221533Y-101895238D01*
X116221533Y-101895238D02*
X116404867Y-101895238D01*
X116404867Y-101895238D02*
X116509629Y-101921428D01*
X116509629Y-101921428D02*
X116562010Y-101973809D01*
X116562010Y-101973809D02*
X116588200Y-102026190D01*
X116588200Y-102026190D02*
X116588200Y-102130952D01*
X116588200Y-102130952D02*
X116562010Y-102183333D01*
X116562010Y-102183333D02*
X116509629Y-102235714D01*
X116509629Y-102235714D02*
X116404867Y-102261905D01*
X116404867Y-102261905D02*
X116221533Y-102261905D01*
X116221533Y-102261905D02*
X116116771Y-102235714D01*
X116116771Y-102235714D02*
X116064390Y-102183333D01*
X116064390Y-102183333D02*
X116038200Y-102130952D01*
X116562010Y-101685715D02*
X116588200Y-101607143D01*
X116588200Y-101607143D02*
X116588200Y-101476191D01*
X116588200Y-101476191D02*
X116562010Y-101423810D01*
X116562010Y-101423810D02*
X116535819Y-101397619D01*
X116535819Y-101397619D02*
X116483438Y-101371429D01*
X116483438Y-101371429D02*
X116431057Y-101371429D01*
X116431057Y-101371429D02*
X116378676Y-101397619D01*
X116378676Y-101397619D02*
X116352486Y-101423810D01*
X116352486Y-101423810D02*
X116326295Y-101476191D01*
X116326295Y-101476191D02*
X116300105Y-101580953D01*
X116300105Y-101580953D02*
X116273914Y-101633334D01*
X116273914Y-101633334D02*
X116247724Y-101659524D01*
X116247724Y-101659524D02*
X116195343Y-101685715D01*
X116195343Y-101685715D02*
X116142962Y-101685715D01*
X116142962Y-101685715D02*
X116090581Y-101659524D01*
X116090581Y-101659524D02*
X116064390Y-101633334D01*
X116064390Y-101633334D02*
X116038200Y-101580953D01*
X116038200Y-101580953D02*
X116038200Y-101450000D01*
X116038200Y-101450000D02*
X116064390Y-101371429D01*
X116588200Y-101135714D02*
X116038200Y-101135714D01*
X119128200Y-102864285D02*
X118578200Y-102864285D01*
X118578200Y-102864285D02*
X118971057Y-102680952D01*
X118971057Y-102680952D02*
X118578200Y-102497618D01*
X118578200Y-102497618D02*
X119128200Y-102497618D01*
X119128200Y-102235714D02*
X118578200Y-102235714D01*
X119102010Y-102000000D02*
X119128200Y-101921428D01*
X119128200Y-101921428D02*
X119128200Y-101790476D01*
X119128200Y-101790476D02*
X119102010Y-101738095D01*
X119102010Y-101738095D02*
X119075819Y-101711904D01*
X119075819Y-101711904D02*
X119023438Y-101685714D01*
X119023438Y-101685714D02*
X118971057Y-101685714D01*
X118971057Y-101685714D02*
X118918676Y-101711904D01*
X118918676Y-101711904D02*
X118892486Y-101738095D01*
X118892486Y-101738095D02*
X118866295Y-101790476D01*
X118866295Y-101790476D02*
X118840105Y-101895238D01*
X118840105Y-101895238D02*
X118813914Y-101947619D01*
X118813914Y-101947619D02*
X118787724Y-101973809D01*
X118787724Y-101973809D02*
X118735343Y-102000000D01*
X118735343Y-102000000D02*
X118682962Y-102000000D01*
X118682962Y-102000000D02*
X118630581Y-101973809D01*
X118630581Y-101973809D02*
X118604390Y-101947619D01*
X118604390Y-101947619D02*
X118578200Y-101895238D01*
X118578200Y-101895238D02*
X118578200Y-101764285D01*
X118578200Y-101764285D02*
X118604390Y-101685714D01*
X118578200Y-101345237D02*
X118578200Y-101240475D01*
X118578200Y-101240475D02*
X118604390Y-101188094D01*
X118604390Y-101188094D02*
X118656771Y-101135713D01*
X118656771Y-101135713D02*
X118761533Y-101109523D01*
X118761533Y-101109523D02*
X118944867Y-101109523D01*
X118944867Y-101109523D02*
X119049629Y-101135713D01*
X119049629Y-101135713D02*
X119102010Y-101188094D01*
X119102010Y-101188094D02*
X119128200Y-101240475D01*
X119128200Y-101240475D02*
X119128200Y-101345237D01*
X119128200Y-101345237D02*
X119102010Y-101397618D01*
X119102010Y-101397618D02*
X119049629Y-101449999D01*
X119049629Y-101449999D02*
X118944867Y-101476190D01*
X118944867Y-101476190D02*
X118761533Y-101476190D01*
X118761533Y-101476190D02*
X118656771Y-101449999D01*
X118656771Y-101449999D02*
X118604390Y-101397618D01*
X118604390Y-101397618D02*
X118578200Y-101345237D01*
X121668200Y-102563094D02*
X121118200Y-102563094D01*
X121668200Y-101986903D02*
X121406295Y-102170237D01*
X121668200Y-102301189D02*
X121118200Y-102301189D01*
X121118200Y-102301189D02*
X121118200Y-102091665D01*
X121118200Y-102091665D02*
X121144390Y-102039284D01*
X121144390Y-102039284D02*
X121170581Y-102013094D01*
X121170581Y-102013094D02*
X121222962Y-101986903D01*
X121222962Y-101986903D02*
X121301533Y-101986903D01*
X121301533Y-101986903D02*
X121353914Y-102013094D01*
X121353914Y-102013094D02*
X121380105Y-102039284D01*
X121380105Y-102039284D02*
X121406295Y-102091665D01*
X121406295Y-102091665D02*
X121406295Y-102301189D01*
X121720581Y-101384522D02*
X121694390Y-101436903D01*
X121694390Y-101436903D02*
X121642010Y-101489284D01*
X121642010Y-101489284D02*
X121563438Y-101567856D01*
X121563438Y-101567856D02*
X121537248Y-101620237D01*
X121537248Y-101620237D02*
X121537248Y-101672618D01*
X121668200Y-101646427D02*
X121642010Y-101698808D01*
X121642010Y-101698808D02*
X121589629Y-101751189D01*
X121589629Y-101751189D02*
X121484867Y-101777380D01*
X121484867Y-101777380D02*
X121301533Y-101777380D01*
X121301533Y-101777380D02*
X121196771Y-101751189D01*
X121196771Y-101751189D02*
X121144390Y-101698808D01*
X121144390Y-101698808D02*
X121118200Y-101646427D01*
X121118200Y-101646427D02*
X121118200Y-101541665D01*
X121118200Y-101541665D02*
X121144390Y-101489284D01*
X121144390Y-101489284D02*
X121196771Y-101436903D01*
X121196771Y-101436903D02*
X121301533Y-101410713D01*
X121301533Y-101410713D02*
X121484867Y-101410713D01*
X121484867Y-101410713D02*
X121589629Y-101436903D01*
X121589629Y-101436903D02*
X121642010Y-101489284D01*
X121642010Y-101489284D02*
X121668200Y-101541665D01*
X121668200Y-101541665D02*
X121668200Y-101646427D01*
X123684390Y-102419047D02*
X123658200Y-102471428D01*
X123658200Y-102471428D02*
X123658200Y-102549999D01*
X123658200Y-102549999D02*
X123684390Y-102628571D01*
X123684390Y-102628571D02*
X123736771Y-102680952D01*
X123736771Y-102680952D02*
X123789152Y-102707142D01*
X123789152Y-102707142D02*
X123893914Y-102733333D01*
X123893914Y-102733333D02*
X123972486Y-102733333D01*
X123972486Y-102733333D02*
X124077248Y-102707142D01*
X124077248Y-102707142D02*
X124129629Y-102680952D01*
X124129629Y-102680952D02*
X124182010Y-102628571D01*
X124182010Y-102628571D02*
X124208200Y-102549999D01*
X124208200Y-102549999D02*
X124208200Y-102497618D01*
X124208200Y-102497618D02*
X124182010Y-102419047D01*
X124182010Y-102419047D02*
X124155819Y-102392856D01*
X124155819Y-102392856D02*
X123972486Y-102392856D01*
X123972486Y-102392856D02*
X123972486Y-102497618D01*
X124208200Y-102157142D02*
X123658200Y-102157142D01*
X123658200Y-102157142D02*
X124208200Y-101842856D01*
X124208200Y-101842856D02*
X123658200Y-101842856D01*
X124208200Y-101580952D02*
X123658200Y-101580952D01*
X123658200Y-101580952D02*
X123658200Y-101450000D01*
X123658200Y-101450000D02*
X123684390Y-101371428D01*
X123684390Y-101371428D02*
X123736771Y-101319047D01*
X123736771Y-101319047D02*
X123789152Y-101292857D01*
X123789152Y-101292857D02*
X123893914Y-101266666D01*
X123893914Y-101266666D02*
X123972486Y-101266666D01*
X123972486Y-101266666D02*
X124077248Y-101292857D01*
X124077248Y-101292857D02*
X124129629Y-101319047D01*
X124129629Y-101319047D02*
X124182010Y-101371428D01*
X124182010Y-101371428D02*
X124208200Y-101450000D01*
X124208200Y-101450000D02*
X124208200Y-101580952D01*
X126748200Y-102301190D02*
X126486295Y-102484524D01*
X126748200Y-102615476D02*
X126198200Y-102615476D01*
X126198200Y-102615476D02*
X126198200Y-102405952D01*
X126198200Y-102405952D02*
X126224390Y-102353571D01*
X126224390Y-102353571D02*
X126250581Y-102327381D01*
X126250581Y-102327381D02*
X126302962Y-102301190D01*
X126302962Y-102301190D02*
X126381533Y-102301190D01*
X126381533Y-102301190D02*
X126433914Y-102327381D01*
X126433914Y-102327381D02*
X126460105Y-102353571D01*
X126460105Y-102353571D02*
X126486295Y-102405952D01*
X126486295Y-102405952D02*
X126486295Y-102615476D01*
X126722010Y-102091667D02*
X126748200Y-102013095D01*
X126748200Y-102013095D02*
X126748200Y-101882143D01*
X126748200Y-101882143D02*
X126722010Y-101829762D01*
X126722010Y-101829762D02*
X126695819Y-101803571D01*
X126695819Y-101803571D02*
X126643438Y-101777381D01*
X126643438Y-101777381D02*
X126591057Y-101777381D01*
X126591057Y-101777381D02*
X126538676Y-101803571D01*
X126538676Y-101803571D02*
X126512486Y-101829762D01*
X126512486Y-101829762D02*
X126486295Y-101882143D01*
X126486295Y-101882143D02*
X126460105Y-101986905D01*
X126460105Y-101986905D02*
X126433914Y-102039286D01*
X126433914Y-102039286D02*
X126407724Y-102065476D01*
X126407724Y-102065476D02*
X126355343Y-102091667D01*
X126355343Y-102091667D02*
X126302962Y-102091667D01*
X126302962Y-102091667D02*
X126250581Y-102065476D01*
X126250581Y-102065476D02*
X126224390Y-102039286D01*
X126224390Y-102039286D02*
X126198200Y-101986905D01*
X126198200Y-101986905D02*
X126198200Y-101855952D01*
X126198200Y-101855952D02*
X126224390Y-101777381D01*
X126198200Y-101620238D02*
X126198200Y-101305952D01*
X126748200Y-101463095D02*
X126198200Y-101463095D01*
X128738200Y-102680952D02*
X128738200Y-102340476D01*
X128738200Y-102340476D02*
X128947724Y-102523809D01*
X128947724Y-102523809D02*
X128947724Y-102445238D01*
X128947724Y-102445238D02*
X128973914Y-102392857D01*
X128973914Y-102392857D02*
X129000105Y-102366666D01*
X129000105Y-102366666D02*
X129052486Y-102340476D01*
X129052486Y-102340476D02*
X129183438Y-102340476D01*
X129183438Y-102340476D02*
X129235819Y-102366666D01*
X129235819Y-102366666D02*
X129262010Y-102392857D01*
X129262010Y-102392857D02*
X129288200Y-102445238D01*
X129288200Y-102445238D02*
X129288200Y-102602381D01*
X129288200Y-102602381D02*
X129262010Y-102654762D01*
X129262010Y-102654762D02*
X129235819Y-102680952D01*
X128738200Y-102183333D02*
X129288200Y-101999999D01*
X129288200Y-101999999D02*
X128738200Y-101816666D01*
X128738200Y-101685713D02*
X128738200Y-101345237D01*
X128738200Y-101345237D02*
X128947724Y-101528570D01*
X128947724Y-101528570D02*
X128947724Y-101449999D01*
X128947724Y-101449999D02*
X128973914Y-101397618D01*
X128973914Y-101397618D02*
X129000105Y-101371427D01*
X129000105Y-101371427D02*
X129052486Y-101345237D01*
X129052486Y-101345237D02*
X129183438Y-101345237D01*
X129183438Y-101345237D02*
X129235819Y-101371427D01*
X129235819Y-101371427D02*
X129262010Y-101397618D01*
X129262010Y-101397618D02*
X129288200Y-101449999D01*
X129288200Y-101449999D02*
X129288200Y-101607142D01*
X129288200Y-101607142D02*
X129262010Y-101659523D01*
X129262010Y-101659523D02*
X129235819Y-101685713D01*
D12*
X19238095Y-79254819D02*
X19238095Y-80064342D01*
X19238095Y-80064342D02*
X19285714Y-80159580D01*
X19285714Y-80159580D02*
X19333333Y-80207200D01*
X19333333Y-80207200D02*
X19428571Y-80254819D01*
X19428571Y-80254819D02*
X19619047Y-80254819D01*
X19619047Y-80254819D02*
X19714285Y-80207200D01*
X19714285Y-80207200D02*
X19761904Y-80159580D01*
X19761904Y-80159580D02*
X19809523Y-80064342D01*
X19809523Y-80064342D02*
X19809523Y-79254819D01*
X20238095Y-79350057D02*
X20285714Y-79302438D01*
X20285714Y-79302438D02*
X20380952Y-79254819D01*
X20380952Y-79254819D02*
X20619047Y-79254819D01*
X20619047Y-79254819D02*
X20714285Y-79302438D01*
X20714285Y-79302438D02*
X20761904Y-79350057D01*
X20761904Y-79350057D02*
X20809523Y-79445295D01*
X20809523Y-79445295D02*
X20809523Y-79540533D01*
X20809523Y-79540533D02*
X20761904Y-79683390D01*
X20761904Y-79683390D02*
X20190476Y-80254819D01*
X20190476Y-80254819D02*
X20809523Y-80254819D01*
D13*
X17104761Y-69363855D02*
X17104761Y-68563855D01*
X17104761Y-68563855D02*
X17371427Y-69135283D01*
X17371427Y-69135283D02*
X17638094Y-68563855D01*
X17638094Y-68563855D02*
X17638094Y-69363855D01*
X17980951Y-69135283D02*
X18361904Y-69135283D01*
X17904761Y-69363855D02*
X18171428Y-68563855D01*
X18171428Y-68563855D02*
X18438094Y-69363855D01*
X18628570Y-68563855D02*
X19161904Y-69363855D01*
X19161904Y-68563855D02*
X18628570Y-69363855D01*
X19390475Y-68563855D02*
X19885713Y-68563855D01*
X19885713Y-68563855D02*
X19619047Y-68868617D01*
X19619047Y-68868617D02*
X19733332Y-68868617D01*
X19733332Y-68868617D02*
X19809523Y-68906712D01*
X19809523Y-68906712D02*
X19847618Y-68944807D01*
X19847618Y-68944807D02*
X19885713Y-69020998D01*
X19885713Y-69020998D02*
X19885713Y-69211474D01*
X19885713Y-69211474D02*
X19847618Y-69287664D01*
X19847618Y-69287664D02*
X19809523Y-69325760D01*
X19809523Y-69325760D02*
X19733332Y-69363855D01*
X19733332Y-69363855D02*
X19504761Y-69363855D01*
X19504761Y-69363855D02*
X19428570Y-69325760D01*
X19428570Y-69325760D02*
X19390475Y-69287664D01*
X20380952Y-68563855D02*
X20457142Y-68563855D01*
X20457142Y-68563855D02*
X20533333Y-68601950D01*
X20533333Y-68601950D02*
X20571428Y-68640045D01*
X20571428Y-68640045D02*
X20609523Y-68716236D01*
X20609523Y-68716236D02*
X20647618Y-68868617D01*
X20647618Y-68868617D02*
X20647618Y-69059093D01*
X20647618Y-69059093D02*
X20609523Y-69211474D01*
X20609523Y-69211474D02*
X20571428Y-69287664D01*
X20571428Y-69287664D02*
X20533333Y-69325760D01*
X20533333Y-69325760D02*
X20457142Y-69363855D01*
X20457142Y-69363855D02*
X20380952Y-69363855D01*
X20380952Y-69363855D02*
X20304761Y-69325760D01*
X20304761Y-69325760D02*
X20266666Y-69287664D01*
X20266666Y-69287664D02*
X20228571Y-69211474D01*
X20228571Y-69211474D02*
X20190475Y-69059093D01*
X20190475Y-69059093D02*
X20190475Y-68868617D01*
X20190475Y-68868617D02*
X20228571Y-68716236D01*
X20228571Y-68716236D02*
X20266666Y-68640045D01*
X20266666Y-68640045D02*
X20304761Y-68601950D01*
X20304761Y-68601950D02*
X20380952Y-68563855D01*
X21409523Y-69363855D02*
X20952380Y-69363855D01*
X21180952Y-69363855D02*
X21180952Y-68563855D01*
X21180952Y-68563855D02*
X21104761Y-68678140D01*
X21104761Y-68678140D02*
X21028571Y-68754331D01*
X21028571Y-68754331D02*
X20952380Y-68792426D01*
X21904762Y-68563855D02*
X21980952Y-68563855D01*
X21980952Y-68563855D02*
X22057143Y-68601950D01*
X22057143Y-68601950D02*
X22095238Y-68640045D01*
X22095238Y-68640045D02*
X22133333Y-68716236D01*
X22133333Y-68716236D02*
X22171428Y-68868617D01*
X22171428Y-68868617D02*
X22171428Y-69059093D01*
X22171428Y-69059093D02*
X22133333Y-69211474D01*
X22133333Y-69211474D02*
X22095238Y-69287664D01*
X22095238Y-69287664D02*
X22057143Y-69325760D01*
X22057143Y-69325760D02*
X21980952Y-69363855D01*
X21980952Y-69363855D02*
X21904762Y-69363855D01*
X21904762Y-69363855D02*
X21828571Y-69325760D01*
X21828571Y-69325760D02*
X21790476Y-69287664D01*
X21790476Y-69287664D02*
X21752381Y-69211474D01*
X21752381Y-69211474D02*
X21714285Y-69059093D01*
X21714285Y-69059093D02*
X21714285Y-68868617D01*
X21714285Y-68868617D02*
X21752381Y-68716236D01*
X21752381Y-68716236D02*
X21790476Y-68640045D01*
X21790476Y-68640045D02*
X21828571Y-68601950D01*
X21828571Y-68601950D02*
X21904762Y-68563855D01*
X22476190Y-68640045D02*
X22514286Y-68601950D01*
X22514286Y-68601950D02*
X22590476Y-68563855D01*
X22590476Y-68563855D02*
X22780952Y-68563855D01*
X22780952Y-68563855D02*
X22857143Y-68601950D01*
X22857143Y-68601950D02*
X22895238Y-68640045D01*
X22895238Y-68640045D02*
X22933333Y-68716236D01*
X22933333Y-68716236D02*
X22933333Y-68792426D01*
X22933333Y-68792426D02*
X22895238Y-68906712D01*
X22895238Y-68906712D02*
X22438095Y-69363855D01*
X22438095Y-69363855D02*
X22933333Y-69363855D01*
X10834390Y-84419047D02*
X10808200Y-84471428D01*
X10808200Y-84471428D02*
X10808200Y-84549999D01*
X10808200Y-84549999D02*
X10834390Y-84628571D01*
X10834390Y-84628571D02*
X10886771Y-84680952D01*
X10886771Y-84680952D02*
X10939152Y-84707142D01*
X10939152Y-84707142D02*
X11043914Y-84733333D01*
X11043914Y-84733333D02*
X11122486Y-84733333D01*
X11122486Y-84733333D02*
X11227248Y-84707142D01*
X11227248Y-84707142D02*
X11279629Y-84680952D01*
X11279629Y-84680952D02*
X11332010Y-84628571D01*
X11332010Y-84628571D02*
X11358200Y-84549999D01*
X11358200Y-84549999D02*
X11358200Y-84497618D01*
X11358200Y-84497618D02*
X11332010Y-84419047D01*
X11332010Y-84419047D02*
X11305819Y-84392856D01*
X11305819Y-84392856D02*
X11122486Y-84392856D01*
X11122486Y-84392856D02*
X11122486Y-84497618D01*
X11358200Y-84157142D02*
X10808200Y-84157142D01*
X10808200Y-84157142D02*
X11358200Y-83842856D01*
X11358200Y-83842856D02*
X10808200Y-83842856D01*
X11358200Y-83580952D02*
X10808200Y-83580952D01*
X10808200Y-83580952D02*
X10808200Y-83450000D01*
X10808200Y-83450000D02*
X10834390Y-83371428D01*
X10834390Y-83371428D02*
X10886771Y-83319047D01*
X10886771Y-83319047D02*
X10939152Y-83292857D01*
X10939152Y-83292857D02*
X11043914Y-83266666D01*
X11043914Y-83266666D02*
X11122486Y-83266666D01*
X11122486Y-83266666D02*
X11227248Y-83292857D01*
X11227248Y-83292857D02*
X11279629Y-83319047D01*
X11279629Y-83319047D02*
X11332010Y-83371428D01*
X11332010Y-83371428D02*
X11358200Y-83450000D01*
X11358200Y-83450000D02*
X11358200Y-83580952D01*
X13872010Y-84654762D02*
X13898200Y-84576190D01*
X13898200Y-84576190D02*
X13898200Y-84445238D01*
X13898200Y-84445238D02*
X13872010Y-84392857D01*
X13872010Y-84392857D02*
X13845819Y-84366666D01*
X13845819Y-84366666D02*
X13793438Y-84340476D01*
X13793438Y-84340476D02*
X13741057Y-84340476D01*
X13741057Y-84340476D02*
X13688676Y-84366666D01*
X13688676Y-84366666D02*
X13662486Y-84392857D01*
X13662486Y-84392857D02*
X13636295Y-84445238D01*
X13636295Y-84445238D02*
X13610105Y-84550000D01*
X13610105Y-84550000D02*
X13583914Y-84602381D01*
X13583914Y-84602381D02*
X13557724Y-84628571D01*
X13557724Y-84628571D02*
X13505343Y-84654762D01*
X13505343Y-84654762D02*
X13452962Y-84654762D01*
X13452962Y-84654762D02*
X13400581Y-84628571D01*
X13400581Y-84628571D02*
X13374390Y-84602381D01*
X13374390Y-84602381D02*
X13348200Y-84550000D01*
X13348200Y-84550000D02*
X13348200Y-84419047D01*
X13348200Y-84419047D02*
X13374390Y-84340476D01*
X13845819Y-83790475D02*
X13872010Y-83816666D01*
X13872010Y-83816666D02*
X13898200Y-83895237D01*
X13898200Y-83895237D02*
X13898200Y-83947618D01*
X13898200Y-83947618D02*
X13872010Y-84026190D01*
X13872010Y-84026190D02*
X13819629Y-84078571D01*
X13819629Y-84078571D02*
X13767248Y-84104761D01*
X13767248Y-84104761D02*
X13662486Y-84130952D01*
X13662486Y-84130952D02*
X13583914Y-84130952D01*
X13583914Y-84130952D02*
X13479152Y-84104761D01*
X13479152Y-84104761D02*
X13426771Y-84078571D01*
X13426771Y-84078571D02*
X13374390Y-84026190D01*
X13374390Y-84026190D02*
X13348200Y-83947618D01*
X13348200Y-83947618D02*
X13348200Y-83895237D01*
X13348200Y-83895237D02*
X13374390Y-83816666D01*
X13374390Y-83816666D02*
X13400581Y-83790475D01*
X13898200Y-83292856D02*
X13898200Y-83554761D01*
X13898200Y-83554761D02*
X13348200Y-83554761D01*
X16412010Y-84667857D02*
X16438200Y-84589285D01*
X16438200Y-84589285D02*
X16438200Y-84458333D01*
X16438200Y-84458333D02*
X16412010Y-84405952D01*
X16412010Y-84405952D02*
X16385819Y-84379761D01*
X16385819Y-84379761D02*
X16333438Y-84353571D01*
X16333438Y-84353571D02*
X16281057Y-84353571D01*
X16281057Y-84353571D02*
X16228676Y-84379761D01*
X16228676Y-84379761D02*
X16202486Y-84405952D01*
X16202486Y-84405952D02*
X16176295Y-84458333D01*
X16176295Y-84458333D02*
X16150105Y-84563095D01*
X16150105Y-84563095D02*
X16123914Y-84615476D01*
X16123914Y-84615476D02*
X16097724Y-84641666D01*
X16097724Y-84641666D02*
X16045343Y-84667857D01*
X16045343Y-84667857D02*
X15992962Y-84667857D01*
X15992962Y-84667857D02*
X15940581Y-84641666D01*
X15940581Y-84641666D02*
X15914390Y-84615476D01*
X15914390Y-84615476D02*
X15888200Y-84563095D01*
X15888200Y-84563095D02*
X15888200Y-84432142D01*
X15888200Y-84432142D02*
X15914390Y-84353571D01*
X16438200Y-84117856D02*
X15888200Y-84117856D01*
X15888200Y-84117856D02*
X15888200Y-83986904D01*
X15888200Y-83986904D02*
X15914390Y-83908332D01*
X15914390Y-83908332D02*
X15966771Y-83855951D01*
X15966771Y-83855951D02*
X16019152Y-83829761D01*
X16019152Y-83829761D02*
X16123914Y-83803570D01*
X16123914Y-83803570D02*
X16202486Y-83803570D01*
X16202486Y-83803570D02*
X16307248Y-83829761D01*
X16307248Y-83829761D02*
X16359629Y-83855951D01*
X16359629Y-83855951D02*
X16412010Y-83908332D01*
X16412010Y-83908332D02*
X16438200Y-83986904D01*
X16438200Y-83986904D02*
X16438200Y-84117856D01*
X16281057Y-83594047D02*
X16281057Y-83332142D01*
X16438200Y-83646428D02*
X15888200Y-83463094D01*
X15888200Y-83463094D02*
X16438200Y-83279761D01*
X18428200Y-84602381D02*
X18978200Y-84419047D01*
X18978200Y-84419047D02*
X18428200Y-84235714D01*
X18978200Y-84052380D02*
X18428200Y-84052380D01*
X18978200Y-83790475D02*
X18428200Y-83790475D01*
X18428200Y-83790475D02*
X18978200Y-83476189D01*
X18978200Y-83476189D02*
X18428200Y-83476189D01*
X21518200Y-84497618D02*
X20968200Y-84497618D01*
X21518200Y-84235713D02*
X20968200Y-84235713D01*
X20968200Y-84235713D02*
X21518200Y-83921427D01*
X21518200Y-83921427D02*
X20968200Y-83921427D01*
X20968200Y-83738095D02*
X20968200Y-83423809D01*
X21518200Y-83580952D02*
X20968200Y-83580952D01*
X24058200Y-84549999D02*
X23508200Y-84549999D01*
X24058200Y-83973808D02*
X23796295Y-84157142D01*
X24058200Y-84288094D02*
X23508200Y-84288094D01*
X23508200Y-84288094D02*
X23508200Y-84078570D01*
X23508200Y-84078570D02*
X23534390Y-84026189D01*
X23534390Y-84026189D02*
X23560581Y-83999999D01*
X23560581Y-83999999D02*
X23612962Y-83973808D01*
X23612962Y-83973808D02*
X23691533Y-83973808D01*
X23691533Y-83973808D02*
X23743914Y-83999999D01*
X23743914Y-83999999D02*
X23770105Y-84026189D01*
X23770105Y-84026189D02*
X23796295Y-84078570D01*
X23796295Y-84078570D02*
X23796295Y-84288094D01*
X24058200Y-83738094D02*
X23508200Y-83738094D01*
X23508200Y-83738094D02*
X23508200Y-83607142D01*
X23508200Y-83607142D02*
X23534390Y-83528570D01*
X23534390Y-83528570D02*
X23586771Y-83476189D01*
X23586771Y-83476189D02*
X23639152Y-83449999D01*
X23639152Y-83449999D02*
X23743914Y-83423808D01*
X23743914Y-83423808D02*
X23822486Y-83423808D01*
X23822486Y-83423808D02*
X23927248Y-83449999D01*
X23927248Y-83449999D02*
X23979629Y-83476189D01*
X23979629Y-83476189D02*
X24032010Y-83528570D01*
X24032010Y-83528570D02*
X24058200Y-83607142D01*
X24058200Y-83607142D02*
X24058200Y-83738094D01*
X26598200Y-84104761D02*
X26336295Y-84288095D01*
X26598200Y-84419047D02*
X26048200Y-84419047D01*
X26048200Y-84419047D02*
X26048200Y-84209523D01*
X26048200Y-84209523D02*
X26074390Y-84157142D01*
X26074390Y-84157142D02*
X26100581Y-84130952D01*
X26100581Y-84130952D02*
X26152962Y-84104761D01*
X26152962Y-84104761D02*
X26231533Y-84104761D01*
X26231533Y-84104761D02*
X26283914Y-84130952D01*
X26283914Y-84130952D02*
X26310105Y-84157142D01*
X26310105Y-84157142D02*
X26336295Y-84209523D01*
X26336295Y-84209523D02*
X26336295Y-84419047D01*
X26598200Y-83869047D02*
X26048200Y-83869047D01*
X26048200Y-83869047D02*
X26048200Y-83738095D01*
X26048200Y-83738095D02*
X26074390Y-83659523D01*
X26074390Y-83659523D02*
X26126771Y-83607142D01*
X26126771Y-83607142D02*
X26179152Y-83580952D01*
X26179152Y-83580952D02*
X26283914Y-83554761D01*
X26283914Y-83554761D02*
X26362486Y-83554761D01*
X26362486Y-83554761D02*
X26467248Y-83580952D01*
X26467248Y-83580952D02*
X26519629Y-83607142D01*
X26519629Y-83607142D02*
X26572010Y-83659523D01*
X26572010Y-83659523D02*
X26598200Y-83738095D01*
X26598200Y-83738095D02*
X26598200Y-83869047D01*
X28614390Y-84419047D02*
X28588200Y-84471428D01*
X28588200Y-84471428D02*
X28588200Y-84549999D01*
X28588200Y-84549999D02*
X28614390Y-84628571D01*
X28614390Y-84628571D02*
X28666771Y-84680952D01*
X28666771Y-84680952D02*
X28719152Y-84707142D01*
X28719152Y-84707142D02*
X28823914Y-84733333D01*
X28823914Y-84733333D02*
X28902486Y-84733333D01*
X28902486Y-84733333D02*
X29007248Y-84707142D01*
X29007248Y-84707142D02*
X29059629Y-84680952D01*
X29059629Y-84680952D02*
X29112010Y-84628571D01*
X29112010Y-84628571D02*
X29138200Y-84549999D01*
X29138200Y-84549999D02*
X29138200Y-84497618D01*
X29138200Y-84497618D02*
X29112010Y-84419047D01*
X29112010Y-84419047D02*
X29085819Y-84392856D01*
X29085819Y-84392856D02*
X28902486Y-84392856D01*
X28902486Y-84392856D02*
X28902486Y-84497618D01*
X29138200Y-84157142D02*
X28588200Y-84157142D01*
X28588200Y-84157142D02*
X29138200Y-83842856D01*
X29138200Y-83842856D02*
X28588200Y-83842856D01*
X29138200Y-83580952D02*
X28588200Y-83580952D01*
X28588200Y-83580952D02*
X28588200Y-83450000D01*
X28588200Y-83450000D02*
X28614390Y-83371428D01*
X28614390Y-83371428D02*
X28666771Y-83319047D01*
X28666771Y-83319047D02*
X28719152Y-83292857D01*
X28719152Y-83292857D02*
X28823914Y-83266666D01*
X28823914Y-83266666D02*
X28902486Y-83266666D01*
X28902486Y-83266666D02*
X29007248Y-83292857D01*
X29007248Y-83292857D02*
X29059629Y-83319047D01*
X29059629Y-83319047D02*
X29112010Y-83371428D01*
X29112010Y-83371428D02*
X29138200Y-83450000D01*
X29138200Y-83450000D02*
X29138200Y-83580952D01*
D12*
X39238095Y-81254819D02*
X39238095Y-82064342D01*
X39238095Y-82064342D02*
X39285714Y-82159580D01*
X39285714Y-82159580D02*
X39333333Y-82207200D01*
X39333333Y-82207200D02*
X39428571Y-82254819D01*
X39428571Y-82254819D02*
X39619047Y-82254819D01*
X39619047Y-82254819D02*
X39714285Y-82207200D01*
X39714285Y-82207200D02*
X39761904Y-82159580D01*
X39761904Y-82159580D02*
X39809523Y-82064342D01*
X39809523Y-82064342D02*
X39809523Y-81254819D01*
X40190476Y-81254819D02*
X40809523Y-81254819D01*
X40809523Y-81254819D02*
X40476190Y-81635771D01*
X40476190Y-81635771D02*
X40619047Y-81635771D01*
X40619047Y-81635771D02*
X40714285Y-81683390D01*
X40714285Y-81683390D02*
X40761904Y-81731009D01*
X40761904Y-81731009D02*
X40809523Y-81826247D01*
X40809523Y-81826247D02*
X40809523Y-82064342D01*
X40809523Y-82064342D02*
X40761904Y-82159580D01*
X40761904Y-82159580D02*
X40714285Y-82207200D01*
X40714285Y-82207200D02*
X40619047Y-82254819D01*
X40619047Y-82254819D02*
X40333333Y-82254819D01*
X40333333Y-82254819D02*
X40238095Y-82207200D01*
X40238095Y-82207200D02*
X40190476Y-82159580D01*
D13*
X37123809Y-99363855D02*
X37123809Y-98563855D01*
X37123809Y-98563855D02*
X37390475Y-99135283D01*
X37390475Y-99135283D02*
X37657142Y-98563855D01*
X37657142Y-98563855D02*
X37657142Y-99363855D01*
X38419047Y-99363855D02*
X38038095Y-99363855D01*
X38038095Y-99363855D02*
X38038095Y-98563855D01*
X38609523Y-98563855D02*
X39142857Y-99363855D01*
X39142857Y-98563855D02*
X38609523Y-99363855D01*
X39485714Y-99363855D02*
X39638095Y-99363855D01*
X39638095Y-99363855D02*
X39714285Y-99325760D01*
X39714285Y-99325760D02*
X39752381Y-99287664D01*
X39752381Y-99287664D02*
X39828571Y-99173379D01*
X39828571Y-99173379D02*
X39866666Y-99020998D01*
X39866666Y-99020998D02*
X39866666Y-98716236D01*
X39866666Y-98716236D02*
X39828571Y-98640045D01*
X39828571Y-98640045D02*
X39790476Y-98601950D01*
X39790476Y-98601950D02*
X39714285Y-98563855D01*
X39714285Y-98563855D02*
X39561904Y-98563855D01*
X39561904Y-98563855D02*
X39485714Y-98601950D01*
X39485714Y-98601950D02*
X39447619Y-98640045D01*
X39447619Y-98640045D02*
X39409523Y-98716236D01*
X39409523Y-98716236D02*
X39409523Y-98906712D01*
X39409523Y-98906712D02*
X39447619Y-98982902D01*
X39447619Y-98982902D02*
X39485714Y-99020998D01*
X39485714Y-99020998D02*
X39561904Y-99059093D01*
X39561904Y-99059093D02*
X39714285Y-99059093D01*
X39714285Y-99059093D02*
X39790476Y-99020998D01*
X39790476Y-99020998D02*
X39828571Y-98982902D01*
X39828571Y-98982902D02*
X39866666Y-98906712D01*
X40361905Y-98563855D02*
X40438095Y-98563855D01*
X40438095Y-98563855D02*
X40514286Y-98601950D01*
X40514286Y-98601950D02*
X40552381Y-98640045D01*
X40552381Y-98640045D02*
X40590476Y-98716236D01*
X40590476Y-98716236D02*
X40628571Y-98868617D01*
X40628571Y-98868617D02*
X40628571Y-99059093D01*
X40628571Y-99059093D02*
X40590476Y-99211474D01*
X40590476Y-99211474D02*
X40552381Y-99287664D01*
X40552381Y-99287664D02*
X40514286Y-99325760D01*
X40514286Y-99325760D02*
X40438095Y-99363855D01*
X40438095Y-99363855D02*
X40361905Y-99363855D01*
X40361905Y-99363855D02*
X40285714Y-99325760D01*
X40285714Y-99325760D02*
X40247619Y-99287664D01*
X40247619Y-99287664D02*
X40209524Y-99211474D01*
X40209524Y-99211474D02*
X40171428Y-99059093D01*
X40171428Y-99059093D02*
X40171428Y-98868617D01*
X40171428Y-98868617D02*
X40209524Y-98716236D01*
X40209524Y-98716236D02*
X40247619Y-98640045D01*
X40247619Y-98640045D02*
X40285714Y-98601950D01*
X40285714Y-98601950D02*
X40361905Y-98563855D01*
X41314286Y-98563855D02*
X41161905Y-98563855D01*
X41161905Y-98563855D02*
X41085714Y-98601950D01*
X41085714Y-98601950D02*
X41047619Y-98640045D01*
X41047619Y-98640045D02*
X40971429Y-98754331D01*
X40971429Y-98754331D02*
X40933333Y-98906712D01*
X40933333Y-98906712D02*
X40933333Y-99211474D01*
X40933333Y-99211474D02*
X40971429Y-99287664D01*
X40971429Y-99287664D02*
X41009524Y-99325760D01*
X41009524Y-99325760D02*
X41085714Y-99363855D01*
X41085714Y-99363855D02*
X41238095Y-99363855D01*
X41238095Y-99363855D02*
X41314286Y-99325760D01*
X41314286Y-99325760D02*
X41352381Y-99287664D01*
X41352381Y-99287664D02*
X41390476Y-99211474D01*
X41390476Y-99211474D02*
X41390476Y-99020998D01*
X41390476Y-99020998D02*
X41352381Y-98944807D01*
X41352381Y-98944807D02*
X41314286Y-98906712D01*
X41314286Y-98906712D02*
X41238095Y-98868617D01*
X41238095Y-98868617D02*
X41085714Y-98868617D01*
X41085714Y-98868617D02*
X41009524Y-98906712D01*
X41009524Y-98906712D02*
X40971429Y-98944807D01*
X40971429Y-98944807D02*
X40933333Y-99020998D01*
X42152381Y-99363855D02*
X41695238Y-99363855D01*
X41923810Y-99363855D02*
X41923810Y-98563855D01*
X41923810Y-98563855D02*
X41847619Y-98678140D01*
X41847619Y-98678140D02*
X41771429Y-98754331D01*
X41771429Y-98754331D02*
X41695238Y-98792426D01*
X42838096Y-98830521D02*
X42838096Y-99363855D01*
X42647620Y-98525760D02*
X42457143Y-99097188D01*
X42457143Y-99097188D02*
X42952382Y-99097188D01*
X35888200Y-82602381D02*
X36438200Y-82419047D01*
X36438200Y-82419047D02*
X35888200Y-82235714D01*
X36438200Y-82052380D02*
X35888200Y-82052380D01*
X36438200Y-81790475D02*
X35888200Y-81790475D01*
X35888200Y-81790475D02*
X36438200Y-81476189D01*
X36438200Y-81476189D02*
X35888200Y-81476189D01*
X38454390Y-82419047D02*
X38428200Y-82471428D01*
X38428200Y-82471428D02*
X38428200Y-82549999D01*
X38428200Y-82549999D02*
X38454390Y-82628571D01*
X38454390Y-82628571D02*
X38506771Y-82680952D01*
X38506771Y-82680952D02*
X38559152Y-82707142D01*
X38559152Y-82707142D02*
X38663914Y-82733333D01*
X38663914Y-82733333D02*
X38742486Y-82733333D01*
X38742486Y-82733333D02*
X38847248Y-82707142D01*
X38847248Y-82707142D02*
X38899629Y-82680952D01*
X38899629Y-82680952D02*
X38952010Y-82628571D01*
X38952010Y-82628571D02*
X38978200Y-82549999D01*
X38978200Y-82549999D02*
X38978200Y-82497618D01*
X38978200Y-82497618D02*
X38952010Y-82419047D01*
X38952010Y-82419047D02*
X38925819Y-82392856D01*
X38925819Y-82392856D02*
X38742486Y-82392856D01*
X38742486Y-82392856D02*
X38742486Y-82497618D01*
X38978200Y-82157142D02*
X38428200Y-82157142D01*
X38428200Y-82157142D02*
X38978200Y-81842856D01*
X38978200Y-81842856D02*
X38428200Y-81842856D01*
X38978200Y-81580952D02*
X38428200Y-81580952D01*
X38428200Y-81580952D02*
X38428200Y-81450000D01*
X38428200Y-81450000D02*
X38454390Y-81371428D01*
X38454390Y-81371428D02*
X38506771Y-81319047D01*
X38506771Y-81319047D02*
X38559152Y-81292857D01*
X38559152Y-81292857D02*
X38663914Y-81266666D01*
X38663914Y-81266666D02*
X38742486Y-81266666D01*
X38742486Y-81266666D02*
X38847248Y-81292857D01*
X38847248Y-81292857D02*
X38899629Y-81319047D01*
X38899629Y-81319047D02*
X38952010Y-81371428D01*
X38952010Y-81371428D02*
X38978200Y-81450000D01*
X38978200Y-81450000D02*
X38978200Y-81580952D01*
X41492010Y-82654762D02*
X41518200Y-82576190D01*
X41518200Y-82576190D02*
X41518200Y-82445238D01*
X41518200Y-82445238D02*
X41492010Y-82392857D01*
X41492010Y-82392857D02*
X41465819Y-82366666D01*
X41465819Y-82366666D02*
X41413438Y-82340476D01*
X41413438Y-82340476D02*
X41361057Y-82340476D01*
X41361057Y-82340476D02*
X41308676Y-82366666D01*
X41308676Y-82366666D02*
X41282486Y-82392857D01*
X41282486Y-82392857D02*
X41256295Y-82445238D01*
X41256295Y-82445238D02*
X41230105Y-82550000D01*
X41230105Y-82550000D02*
X41203914Y-82602381D01*
X41203914Y-82602381D02*
X41177724Y-82628571D01*
X41177724Y-82628571D02*
X41125343Y-82654762D01*
X41125343Y-82654762D02*
X41072962Y-82654762D01*
X41072962Y-82654762D02*
X41020581Y-82628571D01*
X41020581Y-82628571D02*
X40994390Y-82602381D01*
X40994390Y-82602381D02*
X40968200Y-82550000D01*
X40968200Y-82550000D02*
X40968200Y-82419047D01*
X40968200Y-82419047D02*
X40994390Y-82340476D01*
X41465819Y-81790475D02*
X41492010Y-81816666D01*
X41492010Y-81816666D02*
X41518200Y-81895237D01*
X41518200Y-81895237D02*
X41518200Y-81947618D01*
X41518200Y-81947618D02*
X41492010Y-82026190D01*
X41492010Y-82026190D02*
X41439629Y-82078571D01*
X41439629Y-82078571D02*
X41387248Y-82104761D01*
X41387248Y-82104761D02*
X41282486Y-82130952D01*
X41282486Y-82130952D02*
X41203914Y-82130952D01*
X41203914Y-82130952D02*
X41099152Y-82104761D01*
X41099152Y-82104761D02*
X41046771Y-82078571D01*
X41046771Y-82078571D02*
X40994390Y-82026190D01*
X40994390Y-82026190D02*
X40968200Y-81947618D01*
X40968200Y-81947618D02*
X40968200Y-81895237D01*
X40968200Y-81895237D02*
X40994390Y-81816666D01*
X40994390Y-81816666D02*
X41020581Y-81790475D01*
X41518200Y-81292856D02*
X41518200Y-81554761D01*
X41518200Y-81554761D02*
X40968200Y-81554761D01*
X44032010Y-82667857D02*
X44058200Y-82589285D01*
X44058200Y-82589285D02*
X44058200Y-82458333D01*
X44058200Y-82458333D02*
X44032010Y-82405952D01*
X44032010Y-82405952D02*
X44005819Y-82379761D01*
X44005819Y-82379761D02*
X43953438Y-82353571D01*
X43953438Y-82353571D02*
X43901057Y-82353571D01*
X43901057Y-82353571D02*
X43848676Y-82379761D01*
X43848676Y-82379761D02*
X43822486Y-82405952D01*
X43822486Y-82405952D02*
X43796295Y-82458333D01*
X43796295Y-82458333D02*
X43770105Y-82563095D01*
X43770105Y-82563095D02*
X43743914Y-82615476D01*
X43743914Y-82615476D02*
X43717724Y-82641666D01*
X43717724Y-82641666D02*
X43665343Y-82667857D01*
X43665343Y-82667857D02*
X43612962Y-82667857D01*
X43612962Y-82667857D02*
X43560581Y-82641666D01*
X43560581Y-82641666D02*
X43534390Y-82615476D01*
X43534390Y-82615476D02*
X43508200Y-82563095D01*
X43508200Y-82563095D02*
X43508200Y-82432142D01*
X43508200Y-82432142D02*
X43534390Y-82353571D01*
X44058200Y-82117856D02*
X43508200Y-82117856D01*
X43508200Y-82117856D02*
X43508200Y-81986904D01*
X43508200Y-81986904D02*
X43534390Y-81908332D01*
X43534390Y-81908332D02*
X43586771Y-81855951D01*
X43586771Y-81855951D02*
X43639152Y-81829761D01*
X43639152Y-81829761D02*
X43743914Y-81803570D01*
X43743914Y-81803570D02*
X43822486Y-81803570D01*
X43822486Y-81803570D02*
X43927248Y-81829761D01*
X43927248Y-81829761D02*
X43979629Y-81855951D01*
X43979629Y-81855951D02*
X44032010Y-81908332D01*
X44032010Y-81908332D02*
X44058200Y-81986904D01*
X44058200Y-81986904D02*
X44058200Y-82117856D01*
X43901057Y-81594047D02*
X43901057Y-81332142D01*
X44058200Y-81646428D02*
X43508200Y-81463094D01*
X43508200Y-81463094D02*
X44058200Y-81279761D01*
D12*
X23738095Y-14254819D02*
X23738095Y-15064342D01*
X23738095Y-15064342D02*
X23785714Y-15159580D01*
X23785714Y-15159580D02*
X23833333Y-15207200D01*
X23833333Y-15207200D02*
X23928571Y-15254819D01*
X23928571Y-15254819D02*
X24119047Y-15254819D01*
X24119047Y-15254819D02*
X24214285Y-15207200D01*
X24214285Y-15207200D02*
X24261904Y-15159580D01*
X24261904Y-15159580D02*
X24309523Y-15064342D01*
X24309523Y-15064342D02*
X24309523Y-14254819D01*
X25214285Y-14254819D02*
X25023809Y-14254819D01*
X25023809Y-14254819D02*
X24928571Y-14302438D01*
X24928571Y-14302438D02*
X24880952Y-14350057D01*
X24880952Y-14350057D02*
X24785714Y-14492914D01*
X24785714Y-14492914D02*
X24738095Y-14683390D01*
X24738095Y-14683390D02*
X24738095Y-15064342D01*
X24738095Y-15064342D02*
X24785714Y-15159580D01*
X24785714Y-15159580D02*
X24833333Y-15207200D01*
X24833333Y-15207200D02*
X24928571Y-15254819D01*
X24928571Y-15254819D02*
X25119047Y-15254819D01*
X25119047Y-15254819D02*
X25214285Y-15207200D01*
X25214285Y-15207200D02*
X25261904Y-15159580D01*
X25261904Y-15159580D02*
X25309523Y-15064342D01*
X25309523Y-15064342D02*
X25309523Y-14826247D01*
X25309523Y-14826247D02*
X25261904Y-14731009D01*
X25261904Y-14731009D02*
X25214285Y-14683390D01*
X25214285Y-14683390D02*
X25119047Y-14635771D01*
X25119047Y-14635771D02*
X24928571Y-14635771D01*
X24928571Y-14635771D02*
X24833333Y-14683390D01*
X24833333Y-14683390D02*
X24785714Y-14731009D01*
X24785714Y-14731009D02*
X24738095Y-14826247D01*
D13*
X22492857Y-9324402D02*
X22450000Y-9367260D01*
X22450000Y-9367260D02*
X22321428Y-9410117D01*
X22321428Y-9410117D02*
X22235714Y-9410117D01*
X22235714Y-9410117D02*
X22107143Y-9367260D01*
X22107143Y-9367260D02*
X22021428Y-9281545D01*
X22021428Y-9281545D02*
X21978571Y-9195831D01*
X21978571Y-9195831D02*
X21935714Y-9024402D01*
X21935714Y-9024402D02*
X21935714Y-8895831D01*
X21935714Y-8895831D02*
X21978571Y-8724402D01*
X21978571Y-8724402D02*
X22021428Y-8638688D01*
X22021428Y-8638688D02*
X22107143Y-8552974D01*
X22107143Y-8552974D02*
X22235714Y-8510117D01*
X22235714Y-8510117D02*
X22321428Y-8510117D01*
X22321428Y-8510117D02*
X22450000Y-8552974D01*
X22450000Y-8552974D02*
X22492857Y-8595831D01*
X22878571Y-9410117D02*
X22878571Y-8510117D01*
X22878571Y-8510117D02*
X23392857Y-9410117D01*
X23392857Y-9410117D02*
X23392857Y-8510117D01*
X23735714Y-8510117D02*
X24292857Y-8510117D01*
X24292857Y-8510117D02*
X23992857Y-8852974D01*
X23992857Y-8852974D02*
X24121428Y-8852974D01*
X24121428Y-8852974D02*
X24207143Y-8895831D01*
X24207143Y-8895831D02*
X24250000Y-8938688D01*
X24250000Y-8938688D02*
X24292857Y-9024402D01*
X24292857Y-9024402D02*
X24292857Y-9238688D01*
X24292857Y-9238688D02*
X24250000Y-9324402D01*
X24250000Y-9324402D02*
X24207143Y-9367260D01*
X24207143Y-9367260D02*
X24121428Y-9410117D01*
X24121428Y-9410117D02*
X23864285Y-9410117D01*
X23864285Y-9410117D02*
X23778571Y-9367260D01*
X23778571Y-9367260D02*
X23735714Y-9324402D01*
X24592857Y-8510117D02*
X25192857Y-8510117D01*
X25192857Y-8510117D02*
X24807143Y-9410117D01*
X25578571Y-9410117D02*
X25750000Y-9410117D01*
X25750000Y-9410117D02*
X25835714Y-9367260D01*
X25835714Y-9367260D02*
X25878571Y-9324402D01*
X25878571Y-9324402D02*
X25964286Y-9195831D01*
X25964286Y-9195831D02*
X26007143Y-9024402D01*
X26007143Y-9024402D02*
X26007143Y-8681545D01*
X26007143Y-8681545D02*
X25964286Y-8595831D01*
X25964286Y-8595831D02*
X25921429Y-8552974D01*
X25921429Y-8552974D02*
X25835714Y-8510117D01*
X25835714Y-8510117D02*
X25664286Y-8510117D01*
X25664286Y-8510117D02*
X25578571Y-8552974D01*
X25578571Y-8552974D02*
X25535714Y-8595831D01*
X25535714Y-8595831D02*
X25492857Y-8681545D01*
X25492857Y-8681545D02*
X25492857Y-8895831D01*
X25492857Y-8895831D02*
X25535714Y-8981545D01*
X25535714Y-8981545D02*
X25578571Y-9024402D01*
X25578571Y-9024402D02*
X25664286Y-9067260D01*
X25664286Y-9067260D02*
X25835714Y-9067260D01*
X25835714Y-9067260D02*
X25921429Y-9024402D01*
X25921429Y-9024402D02*
X25964286Y-8981545D01*
X25964286Y-8981545D02*
X26007143Y-8895831D01*
X26864286Y-9410117D02*
X26350000Y-9410117D01*
X26607143Y-9410117D02*
X26607143Y-8510117D01*
X26607143Y-8510117D02*
X26521429Y-8638688D01*
X26521429Y-8638688D02*
X26435714Y-8724402D01*
X26435714Y-8724402D02*
X26350000Y-8767260D01*
X27935714Y-9410117D02*
X27935714Y-8510117D01*
X27935714Y-8510117D02*
X28235714Y-9152974D01*
X28235714Y-9152974D02*
X28535714Y-8510117D01*
X28535714Y-8510117D02*
X28535714Y-9410117D01*
X28964285Y-9410117D02*
X28964285Y-8510117D01*
X28964285Y-8510117D02*
X29307142Y-8510117D01*
X29307142Y-8510117D02*
X29392857Y-8552974D01*
X29392857Y-8552974D02*
X29435714Y-8595831D01*
X29435714Y-8595831D02*
X29478571Y-8681545D01*
X29478571Y-8681545D02*
X29478571Y-8810117D01*
X29478571Y-8810117D02*
X29435714Y-8895831D01*
X29435714Y-8895831D02*
X29392857Y-8938688D01*
X29392857Y-8938688D02*
X29307142Y-8981545D01*
X29307142Y-8981545D02*
X28964285Y-8981545D01*
X29864285Y-9410117D02*
X29864285Y-8510117D01*
X29864285Y-8510117D02*
X30207142Y-8510117D01*
X30207142Y-8510117D02*
X30292857Y-8552974D01*
X30292857Y-8552974D02*
X30335714Y-8595831D01*
X30335714Y-8595831D02*
X30378571Y-8681545D01*
X30378571Y-8681545D02*
X30378571Y-8810117D01*
X30378571Y-8810117D02*
X30335714Y-8895831D01*
X30335714Y-8895831D02*
X30292857Y-8938688D01*
X30292857Y-8938688D02*
X30207142Y-8981545D01*
X30207142Y-8981545D02*
X29864285Y-8981545D01*
X30635714Y-8510117D02*
X31150000Y-8510117D01*
X30892857Y-9410117D02*
X30892857Y-8510117D01*
X9566666Y-11784260D02*
X9666666Y-11817593D01*
X9666666Y-11817593D02*
X9833333Y-11817593D01*
X9833333Y-11817593D02*
X9899999Y-11784260D01*
X9899999Y-11784260D02*
X9933333Y-11750926D01*
X9933333Y-11750926D02*
X9966666Y-11684260D01*
X9966666Y-11684260D02*
X9966666Y-11617593D01*
X9966666Y-11617593D02*
X9933333Y-11550926D01*
X9933333Y-11550926D02*
X9899999Y-11517593D01*
X9899999Y-11517593D02*
X9833333Y-11484260D01*
X9833333Y-11484260D02*
X9699999Y-11450926D01*
X9699999Y-11450926D02*
X9633333Y-11417593D01*
X9633333Y-11417593D02*
X9599999Y-11384260D01*
X9599999Y-11384260D02*
X9566666Y-11317593D01*
X9566666Y-11317593D02*
X9566666Y-11250926D01*
X9566666Y-11250926D02*
X9599999Y-11184260D01*
X9599999Y-11184260D02*
X9633333Y-11150926D01*
X9633333Y-11150926D02*
X9699999Y-11117593D01*
X9699999Y-11117593D02*
X9866666Y-11117593D01*
X9866666Y-11117593D02*
X9966666Y-11150926D01*
X10400000Y-11117593D02*
X10533333Y-11117593D01*
X10533333Y-11117593D02*
X10600000Y-11150926D01*
X10600000Y-11150926D02*
X10666666Y-11217593D01*
X10666666Y-11217593D02*
X10700000Y-11350926D01*
X10700000Y-11350926D02*
X10700000Y-11584260D01*
X10700000Y-11584260D02*
X10666666Y-11717593D01*
X10666666Y-11717593D02*
X10600000Y-11784260D01*
X10600000Y-11784260D02*
X10533333Y-11817593D01*
X10533333Y-11817593D02*
X10400000Y-11817593D01*
X10400000Y-11817593D02*
X10333333Y-11784260D01*
X10333333Y-11784260D02*
X10266666Y-11717593D01*
X10266666Y-11717593D02*
X10233333Y-11584260D01*
X10233333Y-11584260D02*
X10233333Y-11350926D01*
X10233333Y-11350926D02*
X10266666Y-11217593D01*
X10266666Y-11217593D02*
X10333333Y-11150926D01*
X10333333Y-11150926D02*
X10400000Y-11117593D01*
X11333333Y-11817593D02*
X10999999Y-11817593D01*
X10999999Y-11817593D02*
X10999999Y-11117593D01*
X11533333Y-11617593D02*
X11866666Y-11617593D01*
X11466666Y-11817593D02*
X11700000Y-11117593D01*
X11700000Y-11117593D02*
X11933333Y-11817593D01*
X12566666Y-11817593D02*
X12333333Y-11484260D01*
X12166666Y-11817593D02*
X12166666Y-11117593D01*
X12166666Y-11117593D02*
X12433333Y-11117593D01*
X12433333Y-11117593D02*
X12500000Y-11150926D01*
X12500000Y-11150926D02*
X12533333Y-11184260D01*
X12533333Y-11184260D02*
X12566666Y-11250926D01*
X12566666Y-11250926D02*
X12566666Y-11350926D01*
X12566666Y-11350926D02*
X12533333Y-11417593D01*
X12533333Y-11417593D02*
X12500000Y-11450926D01*
X12500000Y-11450926D02*
X12433333Y-11484260D01*
X12433333Y-11484260D02*
X12166666Y-11484260D01*
X12866666Y-11550926D02*
X13400000Y-11550926D01*
X13133333Y-11817593D02*
X13133333Y-11284260D01*
X9566666Y-22784260D02*
X9666666Y-22817593D01*
X9666666Y-22817593D02*
X9833333Y-22817593D01*
X9833333Y-22817593D02*
X9899999Y-22784260D01*
X9899999Y-22784260D02*
X9933333Y-22750926D01*
X9933333Y-22750926D02*
X9966666Y-22684260D01*
X9966666Y-22684260D02*
X9966666Y-22617593D01*
X9966666Y-22617593D02*
X9933333Y-22550926D01*
X9933333Y-22550926D02*
X9899999Y-22517593D01*
X9899999Y-22517593D02*
X9833333Y-22484260D01*
X9833333Y-22484260D02*
X9699999Y-22450926D01*
X9699999Y-22450926D02*
X9633333Y-22417593D01*
X9633333Y-22417593D02*
X9599999Y-22384260D01*
X9599999Y-22384260D02*
X9566666Y-22317593D01*
X9566666Y-22317593D02*
X9566666Y-22250926D01*
X9566666Y-22250926D02*
X9599999Y-22184260D01*
X9599999Y-22184260D02*
X9633333Y-22150926D01*
X9633333Y-22150926D02*
X9699999Y-22117593D01*
X9699999Y-22117593D02*
X9866666Y-22117593D01*
X9866666Y-22117593D02*
X9966666Y-22150926D01*
X10400000Y-22117593D02*
X10533333Y-22117593D01*
X10533333Y-22117593D02*
X10600000Y-22150926D01*
X10600000Y-22150926D02*
X10666666Y-22217593D01*
X10666666Y-22217593D02*
X10700000Y-22350926D01*
X10700000Y-22350926D02*
X10700000Y-22584260D01*
X10700000Y-22584260D02*
X10666666Y-22717593D01*
X10666666Y-22717593D02*
X10600000Y-22784260D01*
X10600000Y-22784260D02*
X10533333Y-22817593D01*
X10533333Y-22817593D02*
X10400000Y-22817593D01*
X10400000Y-22817593D02*
X10333333Y-22784260D01*
X10333333Y-22784260D02*
X10266666Y-22717593D01*
X10266666Y-22717593D02*
X10233333Y-22584260D01*
X10233333Y-22584260D02*
X10233333Y-22350926D01*
X10233333Y-22350926D02*
X10266666Y-22217593D01*
X10266666Y-22217593D02*
X10333333Y-22150926D01*
X10333333Y-22150926D02*
X10400000Y-22117593D01*
X11333333Y-22817593D02*
X10999999Y-22817593D01*
X10999999Y-22817593D02*
X10999999Y-22117593D01*
X11533333Y-22617593D02*
X11866666Y-22617593D01*
X11466666Y-22817593D02*
X11700000Y-22117593D01*
X11700000Y-22117593D02*
X11933333Y-22817593D01*
X12566666Y-22817593D02*
X12333333Y-22484260D01*
X12166666Y-22817593D02*
X12166666Y-22117593D01*
X12166666Y-22117593D02*
X12433333Y-22117593D01*
X12433333Y-22117593D02*
X12500000Y-22150926D01*
X12500000Y-22150926D02*
X12533333Y-22184260D01*
X12533333Y-22184260D02*
X12566666Y-22250926D01*
X12566666Y-22250926D02*
X12566666Y-22350926D01*
X12566666Y-22350926D02*
X12533333Y-22417593D01*
X12533333Y-22417593D02*
X12500000Y-22450926D01*
X12500000Y-22450926D02*
X12433333Y-22484260D01*
X12433333Y-22484260D02*
X12166666Y-22484260D01*
X12866666Y-22550926D02*
X13400000Y-22550926D01*
X13342857Y-23871331D02*
X13542857Y-24471331D01*
X13542857Y-24471331D02*
X13742857Y-23871331D01*
X13942858Y-24471331D02*
X13942858Y-23871331D01*
X14228572Y-24471331D02*
X14228572Y-23871331D01*
X14228572Y-23871331D02*
X14571429Y-24471331D01*
X14571429Y-24471331D02*
X14571429Y-23871331D01*
X18622857Y-23899902D02*
X18565715Y-23871331D01*
X18565715Y-23871331D02*
X18480000Y-23871331D01*
X18480000Y-23871331D02*
X18394286Y-23899902D01*
X18394286Y-23899902D02*
X18337143Y-23957045D01*
X18337143Y-23957045D02*
X18308572Y-24014188D01*
X18308572Y-24014188D02*
X18280000Y-24128474D01*
X18280000Y-24128474D02*
X18280000Y-24214188D01*
X18280000Y-24214188D02*
X18308572Y-24328474D01*
X18308572Y-24328474D02*
X18337143Y-24385617D01*
X18337143Y-24385617D02*
X18394286Y-24442760D01*
X18394286Y-24442760D02*
X18480000Y-24471331D01*
X18480000Y-24471331D02*
X18537143Y-24471331D01*
X18537143Y-24471331D02*
X18622857Y-24442760D01*
X18622857Y-24442760D02*
X18651429Y-24414188D01*
X18651429Y-24414188D02*
X18651429Y-24214188D01*
X18651429Y-24214188D02*
X18537143Y-24214188D01*
X18908572Y-24471331D02*
X18908572Y-23871331D01*
X18908572Y-23871331D02*
X19251429Y-24471331D01*
X19251429Y-24471331D02*
X19251429Y-23871331D01*
X19537143Y-24471331D02*
X19537143Y-23871331D01*
X19537143Y-23871331D02*
X19680000Y-23871331D01*
X19680000Y-23871331D02*
X19765714Y-23899902D01*
X19765714Y-23899902D02*
X19822857Y-23957045D01*
X19822857Y-23957045D02*
X19851428Y-24014188D01*
X19851428Y-24014188D02*
X19880000Y-24128474D01*
X19880000Y-24128474D02*
X19880000Y-24214188D01*
X19880000Y-24214188D02*
X19851428Y-24328474D01*
X19851428Y-24328474D02*
X19822857Y-24385617D01*
X19822857Y-24385617D02*
X19765714Y-24442760D01*
X19765714Y-24442760D02*
X19680000Y-24471331D01*
X19680000Y-24471331D02*
X19537143Y-24471331D01*
X23702857Y-23899902D02*
X23645715Y-23871331D01*
X23645715Y-23871331D02*
X23560000Y-23871331D01*
X23560000Y-23871331D02*
X23474286Y-23899902D01*
X23474286Y-23899902D02*
X23417143Y-23957045D01*
X23417143Y-23957045D02*
X23388572Y-24014188D01*
X23388572Y-24014188D02*
X23360000Y-24128474D01*
X23360000Y-24128474D02*
X23360000Y-24214188D01*
X23360000Y-24214188D02*
X23388572Y-24328474D01*
X23388572Y-24328474D02*
X23417143Y-24385617D01*
X23417143Y-24385617D02*
X23474286Y-24442760D01*
X23474286Y-24442760D02*
X23560000Y-24471331D01*
X23560000Y-24471331D02*
X23617143Y-24471331D01*
X23617143Y-24471331D02*
X23702857Y-24442760D01*
X23702857Y-24442760D02*
X23731429Y-24414188D01*
X23731429Y-24414188D02*
X23731429Y-24214188D01*
X23731429Y-24214188D02*
X23617143Y-24214188D01*
X23988572Y-24471331D02*
X23988572Y-23871331D01*
X23988572Y-23871331D02*
X24331429Y-24471331D01*
X24331429Y-24471331D02*
X24331429Y-23871331D01*
X24617143Y-24471331D02*
X24617143Y-23871331D01*
X24617143Y-23871331D02*
X24760000Y-23871331D01*
X24760000Y-23871331D02*
X24845714Y-23899902D01*
X24845714Y-23899902D02*
X24902857Y-23957045D01*
X24902857Y-23957045D02*
X24931428Y-24014188D01*
X24931428Y-24014188D02*
X24960000Y-24128474D01*
X24960000Y-24128474D02*
X24960000Y-24214188D01*
X24960000Y-24214188D02*
X24931428Y-24328474D01*
X24931428Y-24328474D02*
X24902857Y-24385617D01*
X24902857Y-24385617D02*
X24845714Y-24442760D01*
X24845714Y-24442760D02*
X24760000Y-24471331D01*
X24760000Y-24471331D02*
X24617143Y-24471331D01*
X28425714Y-24157045D02*
X28511428Y-24185617D01*
X28511428Y-24185617D02*
X28539999Y-24214188D01*
X28539999Y-24214188D02*
X28568571Y-24271331D01*
X28568571Y-24271331D02*
X28568571Y-24357045D01*
X28568571Y-24357045D02*
X28539999Y-24414188D01*
X28539999Y-24414188D02*
X28511428Y-24442760D01*
X28511428Y-24442760D02*
X28454285Y-24471331D01*
X28454285Y-24471331D02*
X28225714Y-24471331D01*
X28225714Y-24471331D02*
X28225714Y-23871331D01*
X28225714Y-23871331D02*
X28425714Y-23871331D01*
X28425714Y-23871331D02*
X28482857Y-23899902D01*
X28482857Y-23899902D02*
X28511428Y-23928474D01*
X28511428Y-23928474D02*
X28539999Y-23985617D01*
X28539999Y-23985617D02*
X28539999Y-24042760D01*
X28539999Y-24042760D02*
X28511428Y-24099902D01*
X28511428Y-24099902D02*
X28482857Y-24128474D01*
X28482857Y-24128474D02*
X28425714Y-24157045D01*
X28425714Y-24157045D02*
X28225714Y-24157045D01*
X28797142Y-24299902D02*
X29082857Y-24299902D01*
X28739999Y-24471331D02*
X28939999Y-23871331D01*
X28939999Y-23871331D02*
X29139999Y-24471331D01*
X29254285Y-23871331D02*
X29597143Y-23871331D01*
X29425714Y-24471331D02*
X29425714Y-23871331D01*
X29797143Y-24242760D02*
X30254286Y-24242760D01*
X30025714Y-24471331D02*
X30025714Y-24014188D01*
D12*
X23488095Y-39754819D02*
X23488095Y-40564342D01*
X23488095Y-40564342D02*
X23535714Y-40659580D01*
X23535714Y-40659580D02*
X23583333Y-40707200D01*
X23583333Y-40707200D02*
X23678571Y-40754819D01*
X23678571Y-40754819D02*
X23869047Y-40754819D01*
X23869047Y-40754819D02*
X23964285Y-40707200D01*
X23964285Y-40707200D02*
X24011904Y-40659580D01*
X24011904Y-40659580D02*
X24059523Y-40564342D01*
X24059523Y-40564342D02*
X24059523Y-39754819D01*
X24678571Y-40183390D02*
X24583333Y-40135771D01*
X24583333Y-40135771D02*
X24535714Y-40088152D01*
X24535714Y-40088152D02*
X24488095Y-39992914D01*
X24488095Y-39992914D02*
X24488095Y-39945295D01*
X24488095Y-39945295D02*
X24535714Y-39850057D01*
X24535714Y-39850057D02*
X24583333Y-39802438D01*
X24583333Y-39802438D02*
X24678571Y-39754819D01*
X24678571Y-39754819D02*
X24869047Y-39754819D01*
X24869047Y-39754819D02*
X24964285Y-39802438D01*
X24964285Y-39802438D02*
X25011904Y-39850057D01*
X25011904Y-39850057D02*
X25059523Y-39945295D01*
X25059523Y-39945295D02*
X25059523Y-39992914D01*
X25059523Y-39992914D02*
X25011904Y-40088152D01*
X25011904Y-40088152D02*
X24964285Y-40135771D01*
X24964285Y-40135771D02*
X24869047Y-40183390D01*
X24869047Y-40183390D02*
X24678571Y-40183390D01*
X24678571Y-40183390D02*
X24583333Y-40231009D01*
X24583333Y-40231009D02*
X24535714Y-40278628D01*
X24535714Y-40278628D02*
X24488095Y-40373866D01*
X24488095Y-40373866D02*
X24488095Y-40564342D01*
X24488095Y-40564342D02*
X24535714Y-40659580D01*
X24535714Y-40659580D02*
X24583333Y-40707200D01*
X24583333Y-40707200D02*
X24678571Y-40754819D01*
X24678571Y-40754819D02*
X24869047Y-40754819D01*
X24869047Y-40754819D02*
X24964285Y-40707200D01*
X24964285Y-40707200D02*
X25011904Y-40659580D01*
X25011904Y-40659580D02*
X25059523Y-40564342D01*
X25059523Y-40564342D02*
X25059523Y-40373866D01*
X25059523Y-40373866D02*
X25011904Y-40278628D01*
X25011904Y-40278628D02*
X24964285Y-40231009D01*
X24964285Y-40231009D02*
X24869047Y-40183390D01*
D13*
X19697618Y-47563855D02*
X20154761Y-47563855D01*
X19926189Y-48363855D02*
X19926189Y-47563855D01*
X20421428Y-48363855D02*
X20421428Y-47563855D01*
X20421428Y-47563855D02*
X20726190Y-47563855D01*
X20726190Y-47563855D02*
X20802380Y-47601950D01*
X20802380Y-47601950D02*
X20840475Y-47640045D01*
X20840475Y-47640045D02*
X20878571Y-47716236D01*
X20878571Y-47716236D02*
X20878571Y-47830521D01*
X20878571Y-47830521D02*
X20840475Y-47906712D01*
X20840475Y-47906712D02*
X20802380Y-47944807D01*
X20802380Y-47944807D02*
X20726190Y-47982902D01*
X20726190Y-47982902D02*
X20421428Y-47982902D01*
X21564285Y-47830521D02*
X21564285Y-48363855D01*
X21373809Y-47525760D02*
X21183332Y-48097188D01*
X21183332Y-48097188D02*
X21678571Y-48097188D01*
X22135714Y-47563855D02*
X22211904Y-47563855D01*
X22211904Y-47563855D02*
X22288095Y-47601950D01*
X22288095Y-47601950D02*
X22326190Y-47640045D01*
X22326190Y-47640045D02*
X22364285Y-47716236D01*
X22364285Y-47716236D02*
X22402380Y-47868617D01*
X22402380Y-47868617D02*
X22402380Y-48059093D01*
X22402380Y-48059093D02*
X22364285Y-48211474D01*
X22364285Y-48211474D02*
X22326190Y-48287664D01*
X22326190Y-48287664D02*
X22288095Y-48325760D01*
X22288095Y-48325760D02*
X22211904Y-48363855D01*
X22211904Y-48363855D02*
X22135714Y-48363855D01*
X22135714Y-48363855D02*
X22059523Y-48325760D01*
X22059523Y-48325760D02*
X22021428Y-48287664D01*
X22021428Y-48287664D02*
X21983333Y-48211474D01*
X21983333Y-48211474D02*
X21945237Y-48059093D01*
X21945237Y-48059093D02*
X21945237Y-47868617D01*
X21945237Y-47868617D02*
X21983333Y-47716236D01*
X21983333Y-47716236D02*
X22021428Y-47640045D01*
X22021428Y-47640045D02*
X22059523Y-47601950D01*
X22059523Y-47601950D02*
X22135714Y-47563855D01*
X23126190Y-47563855D02*
X22745238Y-47563855D01*
X22745238Y-47563855D02*
X22707142Y-47944807D01*
X22707142Y-47944807D02*
X22745238Y-47906712D01*
X22745238Y-47906712D02*
X22821428Y-47868617D01*
X22821428Y-47868617D02*
X23011904Y-47868617D01*
X23011904Y-47868617D02*
X23088095Y-47906712D01*
X23088095Y-47906712D02*
X23126190Y-47944807D01*
X23126190Y-47944807D02*
X23164285Y-48020998D01*
X23164285Y-48020998D02*
X23164285Y-48211474D01*
X23164285Y-48211474D02*
X23126190Y-48287664D01*
X23126190Y-48287664D02*
X23088095Y-48325760D01*
X23088095Y-48325760D02*
X23011904Y-48363855D01*
X23011904Y-48363855D02*
X22821428Y-48363855D01*
X22821428Y-48363855D02*
X22745238Y-48325760D01*
X22745238Y-48325760D02*
X22707142Y-48287664D01*
X23850000Y-47563855D02*
X23697619Y-47563855D01*
X23697619Y-47563855D02*
X23621428Y-47601950D01*
X23621428Y-47601950D02*
X23583333Y-47640045D01*
X23583333Y-47640045D02*
X23507143Y-47754331D01*
X23507143Y-47754331D02*
X23469047Y-47906712D01*
X23469047Y-47906712D02*
X23469047Y-48211474D01*
X23469047Y-48211474D02*
X23507143Y-48287664D01*
X23507143Y-48287664D02*
X23545238Y-48325760D01*
X23545238Y-48325760D02*
X23621428Y-48363855D01*
X23621428Y-48363855D02*
X23773809Y-48363855D01*
X23773809Y-48363855D02*
X23850000Y-48325760D01*
X23850000Y-48325760D02*
X23888095Y-48287664D01*
X23888095Y-48287664D02*
X23926190Y-48211474D01*
X23926190Y-48211474D02*
X23926190Y-48020998D01*
X23926190Y-48020998D02*
X23888095Y-47944807D01*
X23888095Y-47944807D02*
X23850000Y-47906712D01*
X23850000Y-47906712D02*
X23773809Y-47868617D01*
X23773809Y-47868617D02*
X23621428Y-47868617D01*
X23621428Y-47868617D02*
X23545238Y-47906712D01*
X23545238Y-47906712D02*
X23507143Y-47944807D01*
X23507143Y-47944807D02*
X23469047Y-48020998D01*
X24878572Y-47563855D02*
X24878572Y-48211474D01*
X24878572Y-48211474D02*
X24916667Y-48287664D01*
X24916667Y-48287664D02*
X24954762Y-48325760D01*
X24954762Y-48325760D02*
X25030953Y-48363855D01*
X25030953Y-48363855D02*
X25183334Y-48363855D01*
X25183334Y-48363855D02*
X25259524Y-48325760D01*
X25259524Y-48325760D02*
X25297619Y-48287664D01*
X25297619Y-48287664D02*
X25335715Y-48211474D01*
X25335715Y-48211474D02*
X25335715Y-47563855D01*
X25678571Y-48325760D02*
X25792857Y-48363855D01*
X25792857Y-48363855D02*
X25983333Y-48363855D01*
X25983333Y-48363855D02*
X26059524Y-48325760D01*
X26059524Y-48325760D02*
X26097619Y-48287664D01*
X26097619Y-48287664D02*
X26135714Y-48211474D01*
X26135714Y-48211474D02*
X26135714Y-48135283D01*
X26135714Y-48135283D02*
X26097619Y-48059093D01*
X26097619Y-48059093D02*
X26059524Y-48020998D01*
X26059524Y-48020998D02*
X25983333Y-47982902D01*
X25983333Y-47982902D02*
X25830952Y-47944807D01*
X25830952Y-47944807D02*
X25754762Y-47906712D01*
X25754762Y-47906712D02*
X25716667Y-47868617D01*
X25716667Y-47868617D02*
X25678571Y-47792426D01*
X25678571Y-47792426D02*
X25678571Y-47716236D01*
X25678571Y-47716236D02*
X25716667Y-47640045D01*
X25716667Y-47640045D02*
X25754762Y-47601950D01*
X25754762Y-47601950D02*
X25830952Y-47563855D01*
X25830952Y-47563855D02*
X26021429Y-47563855D01*
X26021429Y-47563855D02*
X26135714Y-47601950D01*
X26745238Y-47944807D02*
X26859524Y-47982902D01*
X26859524Y-47982902D02*
X26897619Y-48020998D01*
X26897619Y-48020998D02*
X26935715Y-48097188D01*
X26935715Y-48097188D02*
X26935715Y-48211474D01*
X26935715Y-48211474D02*
X26897619Y-48287664D01*
X26897619Y-48287664D02*
X26859524Y-48325760D01*
X26859524Y-48325760D02*
X26783334Y-48363855D01*
X26783334Y-48363855D02*
X26478572Y-48363855D01*
X26478572Y-48363855D02*
X26478572Y-47563855D01*
X26478572Y-47563855D02*
X26745238Y-47563855D01*
X26745238Y-47563855D02*
X26821429Y-47601950D01*
X26821429Y-47601950D02*
X26859524Y-47640045D01*
X26859524Y-47640045D02*
X26897619Y-47716236D01*
X26897619Y-47716236D02*
X26897619Y-47792426D01*
X26897619Y-47792426D02*
X26859524Y-47868617D01*
X26859524Y-47868617D02*
X26821429Y-47906712D01*
X26821429Y-47906712D02*
X26745238Y-47944807D01*
X26745238Y-47944807D02*
X26478572Y-47944807D01*
X27278572Y-48059093D02*
X27888096Y-48059093D01*
X28726191Y-48287664D02*
X28688095Y-48325760D01*
X28688095Y-48325760D02*
X28573810Y-48363855D01*
X28573810Y-48363855D02*
X28497619Y-48363855D01*
X28497619Y-48363855D02*
X28383333Y-48325760D01*
X28383333Y-48325760D02*
X28307143Y-48249569D01*
X28307143Y-48249569D02*
X28269048Y-48173379D01*
X28269048Y-48173379D02*
X28230952Y-48020998D01*
X28230952Y-48020998D02*
X28230952Y-47906712D01*
X28230952Y-47906712D02*
X28269048Y-47754331D01*
X28269048Y-47754331D02*
X28307143Y-47678140D01*
X28307143Y-47678140D02*
X28383333Y-47601950D01*
X28383333Y-47601950D02*
X28497619Y-47563855D01*
X28497619Y-47563855D02*
X28573810Y-47563855D01*
X28573810Y-47563855D02*
X28688095Y-47601950D01*
X28688095Y-47601950D02*
X28726191Y-47640045D01*
X10314286Y-37571331D02*
X10314286Y-36971331D01*
X10600000Y-37571331D02*
X10600000Y-36971331D01*
X10600000Y-36971331D02*
X10942857Y-37571331D01*
X10942857Y-37571331D02*
X10942857Y-36971331D01*
X11228571Y-37342760D02*
X11685714Y-37342760D01*
X11457142Y-37571331D02*
X11457142Y-37114188D01*
X10314286Y-47971331D02*
X10314286Y-47371331D01*
X10600000Y-47971331D02*
X10600000Y-47371331D01*
X10600000Y-47371331D02*
X10942857Y-47971331D01*
X10942857Y-47971331D02*
X10942857Y-47371331D01*
X11228571Y-47742760D02*
X11685714Y-47742760D01*
X36528571Y-36971331D02*
X36642857Y-36971331D01*
X36642857Y-36971331D02*
X36700000Y-36999902D01*
X36700000Y-36999902D02*
X36757143Y-37057045D01*
X36757143Y-37057045D02*
X36785714Y-37171331D01*
X36785714Y-37171331D02*
X36785714Y-37371331D01*
X36785714Y-37371331D02*
X36757143Y-37485617D01*
X36757143Y-37485617D02*
X36700000Y-37542760D01*
X36700000Y-37542760D02*
X36642857Y-37571331D01*
X36642857Y-37571331D02*
X36528571Y-37571331D01*
X36528571Y-37571331D02*
X36471429Y-37542760D01*
X36471429Y-37542760D02*
X36414286Y-37485617D01*
X36414286Y-37485617D02*
X36385714Y-37371331D01*
X36385714Y-37371331D02*
X36385714Y-37171331D01*
X36385714Y-37171331D02*
X36414286Y-37057045D01*
X36414286Y-37057045D02*
X36471429Y-36999902D01*
X36471429Y-36999902D02*
X36528571Y-36971331D01*
X37042857Y-36971331D02*
X37042857Y-37457045D01*
X37042857Y-37457045D02*
X37071428Y-37514188D01*
X37071428Y-37514188D02*
X37100000Y-37542760D01*
X37100000Y-37542760D02*
X37157142Y-37571331D01*
X37157142Y-37571331D02*
X37271428Y-37571331D01*
X37271428Y-37571331D02*
X37328571Y-37542760D01*
X37328571Y-37542760D02*
X37357142Y-37514188D01*
X37357142Y-37514188D02*
X37385714Y-37457045D01*
X37385714Y-37457045D02*
X37385714Y-36971331D01*
X37585713Y-36971331D02*
X37928571Y-36971331D01*
X37757142Y-37571331D02*
X37757142Y-36971331D01*
X38128571Y-37342760D02*
X38585714Y-37342760D01*
X38357142Y-37571331D02*
X38357142Y-37114188D01*
X36528571Y-47371331D02*
X36642857Y-47371331D01*
X36642857Y-47371331D02*
X36700000Y-47399902D01*
X36700000Y-47399902D02*
X36757143Y-47457045D01*
X36757143Y-47457045D02*
X36785714Y-47571331D01*
X36785714Y-47571331D02*
X36785714Y-47771331D01*
X36785714Y-47771331D02*
X36757143Y-47885617D01*
X36757143Y-47885617D02*
X36700000Y-47942760D01*
X36700000Y-47942760D02*
X36642857Y-47971331D01*
X36642857Y-47971331D02*
X36528571Y-47971331D01*
X36528571Y-47971331D02*
X36471429Y-47942760D01*
X36471429Y-47942760D02*
X36414286Y-47885617D01*
X36414286Y-47885617D02*
X36385714Y-47771331D01*
X36385714Y-47771331D02*
X36385714Y-47571331D01*
X36385714Y-47571331D02*
X36414286Y-47457045D01*
X36414286Y-47457045D02*
X36471429Y-47399902D01*
X36471429Y-47399902D02*
X36528571Y-47371331D01*
X37042857Y-47371331D02*
X37042857Y-47857045D01*
X37042857Y-47857045D02*
X37071428Y-47914188D01*
X37071428Y-47914188D02*
X37100000Y-47942760D01*
X37100000Y-47942760D02*
X37157142Y-47971331D01*
X37157142Y-47971331D02*
X37271428Y-47971331D01*
X37271428Y-47971331D02*
X37328571Y-47942760D01*
X37328571Y-47942760D02*
X37357142Y-47914188D01*
X37357142Y-47914188D02*
X37385714Y-47857045D01*
X37385714Y-47857045D02*
X37385714Y-47371331D01*
X37585713Y-47371331D02*
X37928571Y-47371331D01*
X37757142Y-47971331D02*
X37757142Y-47371331D01*
X38128571Y-47742760D02*
X38585714Y-47742760D01*
X18671429Y-36257045D02*
X18757143Y-36285617D01*
X18757143Y-36285617D02*
X18785714Y-36314188D01*
X18785714Y-36314188D02*
X18814286Y-36371331D01*
X18814286Y-36371331D02*
X18814286Y-36457045D01*
X18814286Y-36457045D02*
X18785714Y-36514188D01*
X18785714Y-36514188D02*
X18757143Y-36542760D01*
X18757143Y-36542760D02*
X18700000Y-36571331D01*
X18700000Y-36571331D02*
X18471429Y-36571331D01*
X18471429Y-36571331D02*
X18471429Y-35971331D01*
X18471429Y-35971331D02*
X18671429Y-35971331D01*
X18671429Y-35971331D02*
X18728572Y-35999902D01*
X18728572Y-35999902D02*
X18757143Y-36028474D01*
X18757143Y-36028474D02*
X18785714Y-36085617D01*
X18785714Y-36085617D02*
X18785714Y-36142760D01*
X18785714Y-36142760D02*
X18757143Y-36199902D01*
X18757143Y-36199902D02*
X18728572Y-36228474D01*
X18728572Y-36228474D02*
X18671429Y-36257045D01*
X18671429Y-36257045D02*
X18471429Y-36257045D01*
X19071429Y-36342760D02*
X19528572Y-36342760D01*
X19300000Y-36571331D02*
X19300000Y-36114188D01*
X29171429Y-36257045D02*
X29257143Y-36285617D01*
X29257143Y-36285617D02*
X29285714Y-36314188D01*
X29285714Y-36314188D02*
X29314286Y-36371331D01*
X29314286Y-36371331D02*
X29314286Y-36457045D01*
X29314286Y-36457045D02*
X29285714Y-36514188D01*
X29285714Y-36514188D02*
X29257143Y-36542760D01*
X29257143Y-36542760D02*
X29200000Y-36571331D01*
X29200000Y-36571331D02*
X28971429Y-36571331D01*
X28971429Y-36571331D02*
X28971429Y-35971331D01*
X28971429Y-35971331D02*
X29171429Y-35971331D01*
X29171429Y-35971331D02*
X29228572Y-35999902D01*
X29228572Y-35999902D02*
X29257143Y-36028474D01*
X29257143Y-36028474D02*
X29285714Y-36085617D01*
X29285714Y-36085617D02*
X29285714Y-36142760D01*
X29285714Y-36142760D02*
X29257143Y-36199902D01*
X29257143Y-36199902D02*
X29228572Y-36228474D01*
X29228572Y-36228474D02*
X29171429Y-36257045D01*
X29171429Y-36257045D02*
X28971429Y-36257045D01*
X29571429Y-36342760D02*
X30028572Y-36342760D01*
D12*
X9214285Y-59731009D02*
X9357142Y-59778628D01*
X9357142Y-59778628D02*
X9404761Y-59826247D01*
X9404761Y-59826247D02*
X9452380Y-59921485D01*
X9452380Y-59921485D02*
X9452380Y-60064342D01*
X9452380Y-60064342D02*
X9404761Y-60159580D01*
X9404761Y-60159580D02*
X9357142Y-60207200D01*
X9357142Y-60207200D02*
X9261904Y-60254819D01*
X9261904Y-60254819D02*
X8880952Y-60254819D01*
X8880952Y-60254819D02*
X8880952Y-59254819D01*
X8880952Y-59254819D02*
X9214285Y-59254819D01*
X9214285Y-59254819D02*
X9309523Y-59302438D01*
X9309523Y-59302438D02*
X9357142Y-59350057D01*
X9357142Y-59350057D02*
X9404761Y-59445295D01*
X9404761Y-59445295D02*
X9404761Y-59540533D01*
X9404761Y-59540533D02*
X9357142Y-59635771D01*
X9357142Y-59635771D02*
X9309523Y-59683390D01*
X9309523Y-59683390D02*
X9214285Y-59731009D01*
X9214285Y-59731009D02*
X8880952Y-59731009D01*
X9738095Y-59254819D02*
X10309523Y-59254819D01*
X10023809Y-60254819D02*
X10023809Y-59254819D01*
X11166666Y-60254819D02*
X10595238Y-60254819D01*
X10880952Y-60254819D02*
X10880952Y-59254819D01*
X10880952Y-59254819D02*
X10785714Y-59397676D01*
X10785714Y-59397676D02*
X10690476Y-59492914D01*
X10690476Y-59492914D02*
X10595238Y-59540533D01*
D13*
X6000000Y-55644807D02*
X6114286Y-55682902D01*
X6114286Y-55682902D02*
X6152381Y-55720998D01*
X6152381Y-55720998D02*
X6190477Y-55797188D01*
X6190477Y-55797188D02*
X6190477Y-55911474D01*
X6190477Y-55911474D02*
X6152381Y-55987664D01*
X6152381Y-55987664D02*
X6114286Y-56025760D01*
X6114286Y-56025760D02*
X6038096Y-56063855D01*
X6038096Y-56063855D02*
X5733334Y-56063855D01*
X5733334Y-56063855D02*
X5733334Y-55263855D01*
X5733334Y-55263855D02*
X6000000Y-55263855D01*
X6000000Y-55263855D02*
X6076191Y-55301950D01*
X6076191Y-55301950D02*
X6114286Y-55340045D01*
X6114286Y-55340045D02*
X6152381Y-55416236D01*
X6152381Y-55416236D02*
X6152381Y-55492426D01*
X6152381Y-55492426D02*
X6114286Y-55568617D01*
X6114286Y-55568617D02*
X6076191Y-55606712D01*
X6076191Y-55606712D02*
X6000000Y-55644807D01*
X6000000Y-55644807D02*
X5733334Y-55644807D01*
X6495238Y-55835283D02*
X6876191Y-55835283D01*
X6419048Y-56063855D02*
X6685715Y-55263855D01*
X6685715Y-55263855D02*
X6952381Y-56063855D01*
X7104762Y-55263855D02*
X7561905Y-55263855D01*
X7333333Y-56063855D02*
X7333333Y-55263855D01*
X8819048Y-56063855D02*
X8438096Y-56063855D01*
X8438096Y-56063855D02*
X8438096Y-55263855D01*
X9085715Y-56063855D02*
X9085715Y-55263855D01*
X9466667Y-55759093D02*
X10076191Y-55759093D01*
X10457143Y-56063855D02*
X10457143Y-55263855D01*
X10990476Y-55263855D02*
X11142857Y-55263855D01*
X11142857Y-55263855D02*
X11219047Y-55301950D01*
X11219047Y-55301950D02*
X11295238Y-55378140D01*
X11295238Y-55378140D02*
X11333333Y-55530521D01*
X11333333Y-55530521D02*
X11333333Y-55797188D01*
X11333333Y-55797188D02*
X11295238Y-55949569D01*
X11295238Y-55949569D02*
X11219047Y-56025760D01*
X11219047Y-56025760D02*
X11142857Y-56063855D01*
X11142857Y-56063855D02*
X10990476Y-56063855D01*
X10990476Y-56063855D02*
X10914285Y-56025760D01*
X10914285Y-56025760D02*
X10838095Y-55949569D01*
X10838095Y-55949569D02*
X10799999Y-55797188D01*
X10799999Y-55797188D02*
X10799999Y-55530521D01*
X10799999Y-55530521D02*
X10838095Y-55378140D01*
X10838095Y-55378140D02*
X10914285Y-55301950D01*
X10914285Y-55301950D02*
X10990476Y-55263855D01*
X11676190Y-56063855D02*
X11676190Y-55263855D01*
X11676190Y-55263855D02*
X12133333Y-56063855D01*
X12133333Y-56063855D02*
X12133333Y-55263855D01*
X13542856Y-56063855D02*
X13085713Y-56063855D01*
X13314285Y-56063855D02*
X13314285Y-55263855D01*
X13314285Y-55263855D02*
X13238094Y-55378140D01*
X13238094Y-55378140D02*
X13161904Y-55454331D01*
X13161904Y-55454331D02*
X13085713Y-55492426D01*
X13847618Y-56025760D02*
X13961904Y-56063855D01*
X13961904Y-56063855D02*
X14152380Y-56063855D01*
X14152380Y-56063855D02*
X14228571Y-56025760D01*
X14228571Y-56025760D02*
X14266666Y-55987664D01*
X14266666Y-55987664D02*
X14304761Y-55911474D01*
X14304761Y-55911474D02*
X14304761Y-55835283D01*
X14304761Y-55835283D02*
X14266666Y-55759093D01*
X14266666Y-55759093D02*
X14228571Y-55720998D01*
X14228571Y-55720998D02*
X14152380Y-55682902D01*
X14152380Y-55682902D02*
X13999999Y-55644807D01*
X13999999Y-55644807D02*
X13923809Y-55606712D01*
X13923809Y-55606712D02*
X13885714Y-55568617D01*
X13885714Y-55568617D02*
X13847618Y-55492426D01*
X13847618Y-55492426D02*
X13847618Y-55416236D01*
X13847618Y-55416236D02*
X13885714Y-55340045D01*
X13885714Y-55340045D02*
X13923809Y-55301950D01*
X13923809Y-55301950D02*
X13999999Y-55263855D01*
X13999999Y-55263855D02*
X14190476Y-55263855D01*
X14190476Y-55263855D02*
X14304761Y-55301950D01*
X7155238Y-59859093D02*
X7764762Y-59859093D01*
X7460000Y-60163855D02*
X7460000Y-59554331D01*
X12235238Y-59859093D02*
X12844762Y-59859093D01*
D12*
X42238095Y-59254819D02*
X42238095Y-60064342D01*
X42238095Y-60064342D02*
X42285714Y-60159580D01*
X42285714Y-60159580D02*
X42333333Y-60207200D01*
X42333333Y-60207200D02*
X42428571Y-60254819D01*
X42428571Y-60254819D02*
X42619047Y-60254819D01*
X42619047Y-60254819D02*
X42714285Y-60207200D01*
X42714285Y-60207200D02*
X42761904Y-60159580D01*
X42761904Y-60159580D02*
X42809523Y-60064342D01*
X42809523Y-60064342D02*
X42809523Y-59254819D01*
X43761904Y-59254819D02*
X43285714Y-59254819D01*
X43285714Y-59254819D02*
X43238095Y-59731009D01*
X43238095Y-59731009D02*
X43285714Y-59683390D01*
X43285714Y-59683390D02*
X43380952Y-59635771D01*
X43380952Y-59635771D02*
X43619047Y-59635771D01*
X43619047Y-59635771D02*
X43714285Y-59683390D01*
X43714285Y-59683390D02*
X43761904Y-59731009D01*
X43761904Y-59731009D02*
X43809523Y-59826247D01*
X43809523Y-59826247D02*
X43809523Y-60064342D01*
X43809523Y-60064342D02*
X43761904Y-60159580D01*
X43761904Y-60159580D02*
X43714285Y-60207200D01*
X43714285Y-60207200D02*
X43619047Y-60254819D01*
X43619047Y-60254819D02*
X43380952Y-60254819D01*
X43380952Y-60254819D02*
X43285714Y-60207200D01*
X43285714Y-60207200D02*
X43238095Y-60159580D01*
D13*
X40219047Y-51163855D02*
X39838095Y-51163855D01*
X39838095Y-51163855D02*
X39838095Y-50363855D01*
X40485714Y-51163855D02*
X40485714Y-50363855D01*
X40485714Y-50363855D02*
X40676190Y-50363855D01*
X40676190Y-50363855D02*
X40790476Y-50401950D01*
X40790476Y-50401950D02*
X40866666Y-50478140D01*
X40866666Y-50478140D02*
X40904761Y-50554331D01*
X40904761Y-50554331D02*
X40942857Y-50706712D01*
X40942857Y-50706712D02*
X40942857Y-50820998D01*
X40942857Y-50820998D02*
X40904761Y-50973379D01*
X40904761Y-50973379D02*
X40866666Y-51049569D01*
X40866666Y-51049569D02*
X40790476Y-51125760D01*
X40790476Y-51125760D02*
X40676190Y-51163855D01*
X40676190Y-51163855D02*
X40485714Y-51163855D01*
X41704761Y-51163855D02*
X41247618Y-51163855D01*
X41476190Y-51163855D02*
X41476190Y-50363855D01*
X41476190Y-50363855D02*
X41399999Y-50478140D01*
X41399999Y-50478140D02*
X41323809Y-50554331D01*
X41323809Y-50554331D02*
X41247618Y-50592426D01*
X42466666Y-51163855D02*
X42009523Y-51163855D01*
X42238095Y-51163855D02*
X42238095Y-50363855D01*
X42238095Y-50363855D02*
X42161904Y-50478140D01*
X42161904Y-50478140D02*
X42085714Y-50554331D01*
X42085714Y-50554331D02*
X42009523Y-50592426D01*
X43228571Y-51163855D02*
X42771428Y-51163855D01*
X43000000Y-51163855D02*
X43000000Y-50363855D01*
X43000000Y-50363855D02*
X42923809Y-50478140D01*
X42923809Y-50478140D02*
X42847619Y-50554331D01*
X42847619Y-50554331D02*
X42771428Y-50592426D01*
X43495238Y-50363855D02*
X44028572Y-50363855D01*
X44028572Y-50363855D02*
X43685714Y-51163855D01*
X44219048Y-50363855D02*
X44485715Y-51163855D01*
X44485715Y-51163855D02*
X44752381Y-50363855D01*
X44942857Y-50363855D02*
X45438095Y-50363855D01*
X45438095Y-50363855D02*
X45171429Y-50668617D01*
X45171429Y-50668617D02*
X45285714Y-50668617D01*
X45285714Y-50668617D02*
X45361905Y-50706712D01*
X45361905Y-50706712D02*
X45400000Y-50744807D01*
X45400000Y-50744807D02*
X45438095Y-50820998D01*
X45438095Y-50820998D02*
X45438095Y-51011474D01*
X45438095Y-51011474D02*
X45400000Y-51087664D01*
X45400000Y-51087664D02*
X45361905Y-51125760D01*
X45361905Y-51125760D02*
X45285714Y-51163855D01*
X45285714Y-51163855D02*
X45057143Y-51163855D01*
X45057143Y-51163855D02*
X44980952Y-51125760D01*
X44980952Y-51125760D02*
X44942857Y-51087664D01*
X45704762Y-50363855D02*
X46200000Y-50363855D01*
X46200000Y-50363855D02*
X45933334Y-50668617D01*
X45933334Y-50668617D02*
X46047619Y-50668617D01*
X46047619Y-50668617D02*
X46123810Y-50706712D01*
X46123810Y-50706712D02*
X46161905Y-50744807D01*
X46161905Y-50744807D02*
X46200000Y-50820998D01*
X46200000Y-50820998D02*
X46200000Y-51011474D01*
X46200000Y-51011474D02*
X46161905Y-51087664D01*
X46161905Y-51087664D02*
X46123810Y-51125760D01*
X46123810Y-51125760D02*
X46047619Y-51163855D01*
X46047619Y-51163855D02*
X45819048Y-51163855D01*
X45819048Y-51163855D02*
X45742857Y-51125760D01*
X45742857Y-51125760D02*
X45704762Y-51087664D01*
X40002857Y-66299902D02*
X39945715Y-66271331D01*
X39945715Y-66271331D02*
X39860000Y-66271331D01*
X39860000Y-66271331D02*
X39774286Y-66299902D01*
X39774286Y-66299902D02*
X39717143Y-66357045D01*
X39717143Y-66357045D02*
X39688572Y-66414188D01*
X39688572Y-66414188D02*
X39660000Y-66528474D01*
X39660000Y-66528474D02*
X39660000Y-66614188D01*
X39660000Y-66614188D02*
X39688572Y-66728474D01*
X39688572Y-66728474D02*
X39717143Y-66785617D01*
X39717143Y-66785617D02*
X39774286Y-66842760D01*
X39774286Y-66842760D02*
X39860000Y-66871331D01*
X39860000Y-66871331D02*
X39917143Y-66871331D01*
X39917143Y-66871331D02*
X40002857Y-66842760D01*
X40002857Y-66842760D02*
X40031429Y-66814188D01*
X40031429Y-66814188D02*
X40031429Y-66614188D01*
X40031429Y-66614188D02*
X39917143Y-66614188D01*
X40288572Y-66871331D02*
X40288572Y-66271331D01*
X40288572Y-66271331D02*
X40631429Y-66871331D01*
X40631429Y-66871331D02*
X40631429Y-66271331D01*
X40917143Y-66871331D02*
X40917143Y-66271331D01*
X40917143Y-66271331D02*
X41060000Y-66271331D01*
X41060000Y-66271331D02*
X41145714Y-66299902D01*
X41145714Y-66299902D02*
X41202857Y-66357045D01*
X41202857Y-66357045D02*
X41231428Y-66414188D01*
X41231428Y-66414188D02*
X41260000Y-66528474D01*
X41260000Y-66528474D02*
X41260000Y-66614188D01*
X41260000Y-66614188D02*
X41231428Y-66728474D01*
X41231428Y-66728474D02*
X41202857Y-66785617D01*
X41202857Y-66785617D02*
X41145714Y-66842760D01*
X41145714Y-66842760D02*
X41060000Y-66871331D01*
X41060000Y-66871331D02*
X40917143Y-66871331D01*
X42400000Y-66271331D02*
X42514286Y-66271331D01*
X42514286Y-66271331D02*
X42571429Y-66299902D01*
X42571429Y-66299902D02*
X42628572Y-66357045D01*
X42628572Y-66357045D02*
X42657143Y-66471331D01*
X42657143Y-66471331D02*
X42657143Y-66671331D01*
X42657143Y-66671331D02*
X42628572Y-66785617D01*
X42628572Y-66785617D02*
X42571429Y-66842760D01*
X42571429Y-66842760D02*
X42514286Y-66871331D01*
X42514286Y-66871331D02*
X42400000Y-66871331D01*
X42400000Y-66871331D02*
X42342858Y-66842760D01*
X42342858Y-66842760D02*
X42285715Y-66785617D01*
X42285715Y-66785617D02*
X42257143Y-66671331D01*
X42257143Y-66671331D02*
X42257143Y-66471331D01*
X42257143Y-66471331D02*
X42285715Y-66357045D01*
X42285715Y-66357045D02*
X42342858Y-66299902D01*
X42342858Y-66299902D02*
X42400000Y-66271331D01*
X42914286Y-66271331D02*
X42914286Y-66757045D01*
X42914286Y-66757045D02*
X42942857Y-66814188D01*
X42942857Y-66814188D02*
X42971429Y-66842760D01*
X42971429Y-66842760D02*
X43028571Y-66871331D01*
X43028571Y-66871331D02*
X43142857Y-66871331D01*
X43142857Y-66871331D02*
X43200000Y-66842760D01*
X43200000Y-66842760D02*
X43228571Y-66814188D01*
X43228571Y-66814188D02*
X43257143Y-66757045D01*
X43257143Y-66757045D02*
X43257143Y-66271331D01*
X43457142Y-66271331D02*
X43800000Y-66271331D01*
X43628571Y-66871331D02*
X43628571Y-66271331D01*
X45225715Y-66871331D02*
X45225715Y-66271331D01*
X45511429Y-66871331D02*
X45511429Y-66271331D01*
X45511429Y-66271331D02*
X45854286Y-66871331D01*
X45854286Y-66871331D02*
X45854286Y-66271331D01*
D12*
X39833333Y-72159580D02*
X39785714Y-72207200D01*
X39785714Y-72207200D02*
X39642857Y-72254819D01*
X39642857Y-72254819D02*
X39547619Y-72254819D01*
X39547619Y-72254819D02*
X39404762Y-72207200D01*
X39404762Y-72207200D02*
X39309524Y-72111961D01*
X39309524Y-72111961D02*
X39261905Y-72016723D01*
X39261905Y-72016723D02*
X39214286Y-71826247D01*
X39214286Y-71826247D02*
X39214286Y-71683390D01*
X39214286Y-71683390D02*
X39261905Y-71492914D01*
X39261905Y-71492914D02*
X39309524Y-71397676D01*
X39309524Y-71397676D02*
X39404762Y-71302438D01*
X39404762Y-71302438D02*
X39547619Y-71254819D01*
X39547619Y-71254819D02*
X39642857Y-71254819D01*
X39642857Y-71254819D02*
X39785714Y-71302438D01*
X39785714Y-71302438D02*
X39833333Y-71350057D01*
X40785714Y-72254819D02*
X40214286Y-72254819D01*
X40500000Y-72254819D02*
X40500000Y-71254819D01*
X40500000Y-71254819D02*
X40404762Y-71397676D01*
X40404762Y-71397676D02*
X40309524Y-71492914D01*
X40309524Y-71492914D02*
X40214286Y-71540533D01*
D13*
X37057142Y-71667260D02*
X37742857Y-71667260D01*
X37399999Y-72010117D02*
X37399999Y-71324402D01*
X39250000Y-78917593D02*
X38850000Y-78917593D01*
X39050000Y-78917593D02*
X39050000Y-78217593D01*
X39050000Y-78217593D02*
X38983333Y-78317593D01*
X38983333Y-78317593D02*
X38916667Y-78384260D01*
X38916667Y-78384260D02*
X38850000Y-78417593D01*
X39683334Y-78217593D02*
X39750000Y-78217593D01*
X39750000Y-78217593D02*
X39816667Y-78250926D01*
X39816667Y-78250926D02*
X39850000Y-78284260D01*
X39850000Y-78284260D02*
X39883334Y-78350926D01*
X39883334Y-78350926D02*
X39916667Y-78484260D01*
X39916667Y-78484260D02*
X39916667Y-78650926D01*
X39916667Y-78650926D02*
X39883334Y-78784260D01*
X39883334Y-78784260D02*
X39850000Y-78850926D01*
X39850000Y-78850926D02*
X39816667Y-78884260D01*
X39816667Y-78884260D02*
X39750000Y-78917593D01*
X39750000Y-78917593D02*
X39683334Y-78917593D01*
X39683334Y-78917593D02*
X39616667Y-78884260D01*
X39616667Y-78884260D02*
X39583334Y-78850926D01*
X39583334Y-78850926D02*
X39550000Y-78784260D01*
X39550000Y-78784260D02*
X39516667Y-78650926D01*
X39516667Y-78650926D02*
X39516667Y-78484260D01*
X39516667Y-78484260D02*
X39550000Y-78350926D01*
X39550000Y-78350926D02*
X39583334Y-78284260D01*
X39583334Y-78284260D02*
X39616667Y-78250926D01*
X39616667Y-78250926D02*
X39683334Y-78217593D01*
X40516667Y-78450926D02*
X40516667Y-78917593D01*
X40216667Y-78450926D02*
X40216667Y-78817593D01*
X40216667Y-78817593D02*
X40250001Y-78884260D01*
X40250001Y-78884260D02*
X40316667Y-78917593D01*
X40316667Y-78917593D02*
X40416667Y-78917593D01*
X40416667Y-78917593D02*
X40483334Y-78884260D01*
X40483334Y-78884260D02*
X40516667Y-78850926D01*
X41083334Y-78550926D02*
X40850000Y-78550926D01*
X40850000Y-78917593D02*
X40850000Y-78217593D01*
X40850000Y-78217593D02*
X41183334Y-78217593D01*
D12*
X46833333Y-72159580D02*
X46785714Y-72207200D01*
X46785714Y-72207200D02*
X46642857Y-72254819D01*
X46642857Y-72254819D02*
X46547619Y-72254819D01*
X46547619Y-72254819D02*
X46404762Y-72207200D01*
X46404762Y-72207200D02*
X46309524Y-72111961D01*
X46309524Y-72111961D02*
X46261905Y-72016723D01*
X46261905Y-72016723D02*
X46214286Y-71826247D01*
X46214286Y-71826247D02*
X46214286Y-71683390D01*
X46214286Y-71683390D02*
X46261905Y-71492914D01*
X46261905Y-71492914D02*
X46309524Y-71397676D01*
X46309524Y-71397676D02*
X46404762Y-71302438D01*
X46404762Y-71302438D02*
X46547619Y-71254819D01*
X46547619Y-71254819D02*
X46642857Y-71254819D01*
X46642857Y-71254819D02*
X46785714Y-71302438D01*
X46785714Y-71302438D02*
X46833333Y-71350057D01*
X47214286Y-71350057D02*
X47261905Y-71302438D01*
X47261905Y-71302438D02*
X47357143Y-71254819D01*
X47357143Y-71254819D02*
X47595238Y-71254819D01*
X47595238Y-71254819D02*
X47690476Y-71302438D01*
X47690476Y-71302438D02*
X47738095Y-71350057D01*
X47738095Y-71350057D02*
X47785714Y-71445295D01*
X47785714Y-71445295D02*
X47785714Y-71540533D01*
X47785714Y-71540533D02*
X47738095Y-71683390D01*
X47738095Y-71683390D02*
X47166667Y-72254819D01*
X47166667Y-72254819D02*
X47785714Y-72254819D01*
D13*
X44057142Y-71667260D02*
X44742857Y-71667260D01*
X44399999Y-72010117D02*
X44399999Y-71324402D01*
X46250000Y-78917593D02*
X45850000Y-78917593D01*
X46050000Y-78917593D02*
X46050000Y-78217593D01*
X46050000Y-78217593D02*
X45983333Y-78317593D01*
X45983333Y-78317593D02*
X45916667Y-78384260D01*
X45916667Y-78384260D02*
X45850000Y-78417593D01*
X46683334Y-78217593D02*
X46750000Y-78217593D01*
X46750000Y-78217593D02*
X46816667Y-78250926D01*
X46816667Y-78250926D02*
X46850000Y-78284260D01*
X46850000Y-78284260D02*
X46883334Y-78350926D01*
X46883334Y-78350926D02*
X46916667Y-78484260D01*
X46916667Y-78484260D02*
X46916667Y-78650926D01*
X46916667Y-78650926D02*
X46883334Y-78784260D01*
X46883334Y-78784260D02*
X46850000Y-78850926D01*
X46850000Y-78850926D02*
X46816667Y-78884260D01*
X46816667Y-78884260D02*
X46750000Y-78917593D01*
X46750000Y-78917593D02*
X46683334Y-78917593D01*
X46683334Y-78917593D02*
X46616667Y-78884260D01*
X46616667Y-78884260D02*
X46583334Y-78850926D01*
X46583334Y-78850926D02*
X46550000Y-78784260D01*
X46550000Y-78784260D02*
X46516667Y-78650926D01*
X46516667Y-78650926D02*
X46516667Y-78484260D01*
X46516667Y-78484260D02*
X46550000Y-78350926D01*
X46550000Y-78350926D02*
X46583334Y-78284260D01*
X46583334Y-78284260D02*
X46616667Y-78250926D01*
X46616667Y-78250926D02*
X46683334Y-78217593D01*
X47516667Y-78450926D02*
X47516667Y-78917593D01*
X47216667Y-78450926D02*
X47216667Y-78817593D01*
X47216667Y-78817593D02*
X47250001Y-78884260D01*
X47250001Y-78884260D02*
X47316667Y-78917593D01*
X47316667Y-78917593D02*
X47416667Y-78917593D01*
X47416667Y-78917593D02*
X47483334Y-78884260D01*
X47483334Y-78884260D02*
X47516667Y-78850926D01*
X48083334Y-78550926D02*
X47850000Y-78550926D01*
X47850000Y-78917593D02*
X47850000Y-78217593D01*
X47850000Y-78217593D02*
X48183334Y-78217593D01*
D12*
X59119047Y-90731009D02*
X59261904Y-90778628D01*
X59261904Y-90778628D02*
X59309523Y-90826247D01*
X59309523Y-90826247D02*
X59357142Y-90921485D01*
X59357142Y-90921485D02*
X59357142Y-91064342D01*
X59357142Y-91064342D02*
X59309523Y-91159580D01*
X59309523Y-91159580D02*
X59261904Y-91207200D01*
X59261904Y-91207200D02*
X59166666Y-91254819D01*
X59166666Y-91254819D02*
X58785714Y-91254819D01*
X58785714Y-91254819D02*
X58785714Y-90254819D01*
X58785714Y-90254819D02*
X59119047Y-90254819D01*
X59119047Y-90254819D02*
X59214285Y-90302438D01*
X59214285Y-90302438D02*
X59261904Y-90350057D01*
X59261904Y-90350057D02*
X59309523Y-90445295D01*
X59309523Y-90445295D02*
X59309523Y-90540533D01*
X59309523Y-90540533D02*
X59261904Y-90635771D01*
X59261904Y-90635771D02*
X59214285Y-90683390D01*
X59214285Y-90683390D02*
X59119047Y-90731009D01*
X59119047Y-90731009D02*
X58785714Y-90731009D01*
X59690476Y-90254819D02*
X60357142Y-90254819D01*
X60357142Y-90254819D02*
X59690476Y-91254819D01*
X59690476Y-91254819D02*
X60357142Y-91254819D01*
X61261904Y-91254819D02*
X60690476Y-91254819D01*
X60976190Y-91254819D02*
X60976190Y-90254819D01*
X60976190Y-90254819D02*
X60880952Y-90397676D01*
X60880952Y-90397676D02*
X60785714Y-90492914D01*
X60785714Y-90492914D02*
X60690476Y-90540533D01*
D13*
X58350000Y-85650926D02*
X58450000Y-85684260D01*
X58450000Y-85684260D02*
X58483333Y-85717593D01*
X58483333Y-85717593D02*
X58516666Y-85784260D01*
X58516666Y-85784260D02*
X58516666Y-85884260D01*
X58516666Y-85884260D02*
X58483333Y-85950926D01*
X58483333Y-85950926D02*
X58450000Y-85984260D01*
X58450000Y-85984260D02*
X58383333Y-86017593D01*
X58383333Y-86017593D02*
X58116666Y-86017593D01*
X58116666Y-86017593D02*
X58116666Y-85317593D01*
X58116666Y-85317593D02*
X58350000Y-85317593D01*
X58350000Y-85317593D02*
X58416666Y-85350926D01*
X58416666Y-85350926D02*
X58450000Y-85384260D01*
X58450000Y-85384260D02*
X58483333Y-85450926D01*
X58483333Y-85450926D02*
X58483333Y-85517593D01*
X58483333Y-85517593D02*
X58450000Y-85584260D01*
X58450000Y-85584260D02*
X58416666Y-85617593D01*
X58416666Y-85617593D02*
X58350000Y-85650926D01*
X58350000Y-85650926D02*
X58116666Y-85650926D01*
X58816666Y-85317593D02*
X58816666Y-85884260D01*
X58816666Y-85884260D02*
X58850000Y-85950926D01*
X58850000Y-85950926D02*
X58883333Y-85984260D01*
X58883333Y-85984260D02*
X58950000Y-86017593D01*
X58950000Y-86017593D02*
X59083333Y-86017593D01*
X59083333Y-86017593D02*
X59150000Y-85984260D01*
X59150000Y-85984260D02*
X59183333Y-85950926D01*
X59183333Y-85950926D02*
X59216666Y-85884260D01*
X59216666Y-85884260D02*
X59216666Y-85317593D01*
X59483333Y-85317593D02*
X59949999Y-85317593D01*
X59949999Y-85317593D02*
X59483333Y-86017593D01*
X59483333Y-86017593D02*
X59949999Y-86017593D01*
X60150000Y-85317593D02*
X60616666Y-85317593D01*
X60616666Y-85317593D02*
X60150000Y-86017593D01*
X60150000Y-86017593D02*
X60616666Y-86017593D01*
X60883333Y-85650926D02*
X61116667Y-85650926D01*
X61216667Y-86017593D02*
X60883333Y-86017593D01*
X60883333Y-86017593D02*
X60883333Y-85317593D01*
X60883333Y-85317593D02*
X61216667Y-85317593D01*
X61916666Y-86017593D02*
X61683333Y-85684260D01*
X61516666Y-86017593D02*
X61516666Y-85317593D01*
X61516666Y-85317593D02*
X61783333Y-85317593D01*
X61783333Y-85317593D02*
X61850000Y-85350926D01*
X61850000Y-85350926D02*
X61883333Y-85384260D01*
X61883333Y-85384260D02*
X61916666Y-85450926D01*
X61916666Y-85450926D02*
X61916666Y-85550926D01*
X61916666Y-85550926D02*
X61883333Y-85617593D01*
X61883333Y-85617593D02*
X61850000Y-85650926D01*
X61850000Y-85650926D02*
X61783333Y-85684260D01*
X61783333Y-85684260D02*
X61516666Y-85684260D01*
X55885238Y-90859093D02*
X56494762Y-90859093D01*
X56190000Y-91163855D02*
X56190000Y-90554331D01*
D12*
X2666667Y-2254819D02*
X2666667Y-1254819D01*
X2666667Y-1254819D02*
X3000000Y-1969104D01*
X3000000Y-1969104D02*
X3333333Y-1254819D01*
X3333333Y-1254819D02*
X3333333Y-2254819D01*
X3809524Y-2254819D02*
X3809524Y-1254819D01*
X3809524Y-1731009D02*
X4380952Y-1731009D01*
X4380952Y-2254819D02*
X4380952Y-1254819D01*
X5380952Y-2254819D02*
X4809524Y-2254819D01*
X5095238Y-2254819D02*
X5095238Y-1254819D01*
X5095238Y-1254819D02*
X5000000Y-1397676D01*
X5000000Y-1397676D02*
X4904762Y-1492914D01*
X4904762Y-1492914D02*
X4809524Y-1540533D01*
X154666667Y-50254819D02*
X154666667Y-49254819D01*
X154666667Y-49254819D02*
X155000000Y-49969104D01*
X155000000Y-49969104D02*
X155333333Y-49254819D01*
X155333333Y-49254819D02*
X155333333Y-50254819D01*
X155809524Y-50254819D02*
X155809524Y-49254819D01*
X155809524Y-49731009D02*
X156380952Y-49731009D01*
X156380952Y-50254819D02*
X156380952Y-49254819D01*
X156809524Y-49350057D02*
X156857143Y-49302438D01*
X156857143Y-49302438D02*
X156952381Y-49254819D01*
X156952381Y-49254819D02*
X157190476Y-49254819D01*
X157190476Y-49254819D02*
X157285714Y-49302438D01*
X157285714Y-49302438D02*
X157333333Y-49350057D01*
X157333333Y-49350057D02*
X157380952Y-49445295D01*
X157380952Y-49445295D02*
X157380952Y-49540533D01*
X157380952Y-49540533D02*
X157333333Y-49683390D01*
X157333333Y-49683390D02*
X156761905Y-50254819D01*
X156761905Y-50254819D02*
X157380952Y-50254819D01*
X2666667Y-98254819D02*
X2666667Y-97254819D01*
X2666667Y-97254819D02*
X3000000Y-97969104D01*
X3000000Y-97969104D02*
X3333333Y-97254819D01*
X3333333Y-97254819D02*
X3333333Y-98254819D01*
X3809524Y-98254819D02*
X3809524Y-97254819D01*
X3809524Y-97731009D02*
X4380952Y-97731009D01*
X4380952Y-98254819D02*
X4380952Y-97254819D01*
X4761905Y-97254819D02*
X5380952Y-97254819D01*
X5380952Y-97254819D02*
X5047619Y-97635771D01*
X5047619Y-97635771D02*
X5190476Y-97635771D01*
X5190476Y-97635771D02*
X5285714Y-97683390D01*
X5285714Y-97683390D02*
X5333333Y-97731009D01*
X5333333Y-97731009D02*
X5380952Y-97826247D01*
X5380952Y-97826247D02*
X5380952Y-98064342D01*
X5380952Y-98064342D02*
X5333333Y-98159580D01*
X5333333Y-98159580D02*
X5285714Y-98207200D01*
X5285714Y-98207200D02*
X5190476Y-98254819D01*
X5190476Y-98254819D02*
X4904762Y-98254819D01*
X4904762Y-98254819D02*
X4809524Y-98207200D01*
X4809524Y-98207200D02*
X4761905Y-98159580D01*
X154666667Y-98254819D02*
X154666667Y-97254819D01*
X154666667Y-97254819D02*
X155000000Y-97969104D01*
X155000000Y-97969104D02*
X155333333Y-97254819D01*
X155333333Y-97254819D02*
X155333333Y-98254819D01*
X155809524Y-98254819D02*
X155809524Y-97254819D01*
X155809524Y-97731009D02*
X156380952Y-97731009D01*
X156380952Y-98254819D02*
X156380952Y-97254819D01*
X157285714Y-97588152D02*
X157285714Y-98254819D01*
X157047619Y-97207200D02*
X156809524Y-97921485D01*
X156809524Y-97921485D02*
X157428571Y-97921485D01*
X2933333Y-1362295D02*
X2933333Y-562295D01*
X2933333Y-562295D02*
X3199999Y-1133723D01*
X3199999Y-1133723D02*
X3466666Y-562295D01*
X3466666Y-562295D02*
X3466666Y-1362295D01*
X3847619Y-1362295D02*
X3847619Y-562295D01*
X3847619Y-943247D02*
X4304762Y-943247D01*
X4304762Y-1362295D02*
X4304762Y-562295D01*
X5104761Y-1362295D02*
X4647618Y-1362295D01*
X4876190Y-1362295D02*
X4876190Y-562295D01*
X4876190Y-562295D02*
X4799999Y-676580D01*
X4799999Y-676580D02*
X4723809Y-752771D01*
X4723809Y-752771D02*
X4647618Y-790866D01*
X154933333Y-49362295D02*
X154933333Y-48562295D01*
X154933333Y-48562295D02*
X155199999Y-49133723D01*
X155199999Y-49133723D02*
X155466666Y-48562295D01*
X155466666Y-48562295D02*
X155466666Y-49362295D01*
X155847619Y-49362295D02*
X155847619Y-48562295D01*
X155847619Y-48943247D02*
X156304762Y-48943247D01*
X156304762Y-49362295D02*
X156304762Y-48562295D01*
X156647618Y-48638485D02*
X156685714Y-48600390D01*
X156685714Y-48600390D02*
X156761904Y-48562295D01*
X156761904Y-48562295D02*
X156952380Y-48562295D01*
X156952380Y-48562295D02*
X157028571Y-48600390D01*
X157028571Y-48600390D02*
X157066666Y-48638485D01*
X157066666Y-48638485D02*
X157104761Y-48714676D01*
X157104761Y-48714676D02*
X157104761Y-48790866D01*
X157104761Y-48790866D02*
X157066666Y-48905152D01*
X157066666Y-48905152D02*
X156609523Y-49362295D01*
X156609523Y-49362295D02*
X157104761Y-49362295D01*
X2933333Y-97362295D02*
X2933333Y-96562295D01*
X2933333Y-96562295D02*
X3199999Y-97133723D01*
X3199999Y-97133723D02*
X3466666Y-96562295D01*
X3466666Y-96562295D02*
X3466666Y-97362295D01*
X3847619Y-97362295D02*
X3847619Y-96562295D01*
X3847619Y-96943247D02*
X4304762Y-96943247D01*
X4304762Y-97362295D02*
X4304762Y-96562295D01*
X4609523Y-96562295D02*
X5104761Y-96562295D01*
X5104761Y-96562295D02*
X4838095Y-96867057D01*
X4838095Y-96867057D02*
X4952380Y-96867057D01*
X4952380Y-96867057D02*
X5028571Y-96905152D01*
X5028571Y-96905152D02*
X5066666Y-96943247D01*
X5066666Y-96943247D02*
X5104761Y-97019438D01*
X5104761Y-97019438D02*
X5104761Y-97209914D01*
X5104761Y-97209914D02*
X5066666Y-97286104D01*
X5066666Y-97286104D02*
X5028571Y-97324200D01*
X5028571Y-97324200D02*
X4952380Y-97362295D01*
X4952380Y-97362295D02*
X4723809Y-97362295D01*
X4723809Y-97362295D02*
X4647618Y-97324200D01*
X4647618Y-97324200D02*
X4609523Y-97286104D01*
X154933333Y-97362295D02*
X154933333Y-96562295D01*
X154933333Y-96562295D02*
X155199999Y-97133723D01*
X155199999Y-97133723D02*
X155466666Y-96562295D01*
X155466666Y-96562295D02*
X155466666Y-97362295D01*
X155847619Y-97362295D02*
X155847619Y-96562295D01*
X155847619Y-96943247D02*
X156304762Y-96943247D01*
X156304762Y-97362295D02*
X156304762Y-96562295D01*
X157028571Y-96828961D02*
X157028571Y-97362295D01*
X156838095Y-96524200D02*
X156647618Y-97095628D01*
X156647618Y-97095628D02*
X157142857Y-97095628D01*
%TO.C,U1*%
D13*
X52500000Y-28000000D02*
X79500000Y-28000000D01*
X79500000Y-78500000D01*
X52500000Y-78500000D01*
X52500000Y-28000000D01*
X60000000Y-78500000D02*
X72000000Y-78500000D01*
X72000000Y-83500000D01*
X60000000Y-83500000D01*
X60000000Y-78500000D01*
X56000000Y-18000000D02*
X76000000Y-18000000D01*
X76000000Y-28000000D01*
X56000000Y-28000000D01*
X56000000Y-18000000D01*
%TO.C,U7*%
X87750000Y-3000000D02*
X158750000Y-3000000D01*
X158750000Y-44000000D01*
X87750000Y-44000000D01*
X87750000Y-3000000D01*
X99000000Y-8000000D02*
X147500000Y-8000000D01*
X147500000Y-40000000D01*
X99000000Y-40000000D01*
X99000000Y-8000000D01*
%TO.C,U4*%
X90000000Y-60000000D02*
X150000000Y-60000000D01*
X150000000Y-100000000D01*
X90000000Y-100000000D01*
X90000000Y-60000000D01*
D12*
X96150000Y-66000000D02*
X144150000Y-66000000D01*
X144150000Y-94000000D01*
X96150000Y-94000000D01*
X96150000Y-66000000D01*
X100150000Y-70000000D02*
X140150000Y-70000000D01*
X140150000Y-90000000D01*
X100150000Y-90000000D01*
X100150000Y-70000000D01*
%TO.C,U2*%
D13*
X8500000Y-66000000D02*
X31500000Y-66000000D01*
X31500000Y-82000000D01*
X8500000Y-82000000D01*
X8500000Y-66000000D01*
%TO.C,U3*%
X27000000Y-85000000D02*
X53000000Y-85000000D01*
X53000000Y-103000000D01*
X27000000Y-103000000D01*
X27000000Y-85000000D01*
%TO.C,U6*%
X6000000Y-6000000D02*
X43000000Y-6000000D01*
X43000000Y-28000000D01*
X6000000Y-28000000D01*
X6000000Y-6000000D01*
%TO.C,U8*%
X11000000Y-34000000D02*
X37500000Y-34000000D01*
X37500000Y-51000000D01*
X11000000Y-51000000D01*
X11000000Y-34000000D01*
%TO.C,BT1*%
X4920000Y-57000000D02*
X15080000Y-57000000D01*
X15080000Y-67000000D01*
X4920000Y-67000000D01*
X4920000Y-57000000D01*
%TO.C,U5*%
X38250000Y-52500000D02*
X47750000Y-52500000D01*
X47750000Y-62500000D01*
X38250000Y-62500000D01*
X38250000Y-52500000D01*
%TO.C,C1*%
X43250000Y-74000000D02*
G75*
G02*
X36750000Y-74000000I-3250000J0D01*
G01*
X36750000Y-74000000D02*
G75*
G02*
X43250000Y-74000000I3250000J0D01*
G01*
%TO.C,C2*%
X50250000Y-74000000D02*
G75*
G02*
X43750000Y-74000000I-3250000J0D01*
G01*
X43750000Y-74000000D02*
G75*
G02*
X50250000Y-74000000I3250000J0D01*
G01*
%TO.C,BZ1*%
X66000000Y-93000000D02*
G75*
G02*
X54000000Y-93000000I-6000000J0D01*
G01*
X54000000Y-93000000D02*
G75*
G02*
X66000000Y-93000000I6000000J0D01*
G01*
%TD*%
M02*
