%TF.GenerationSoftware,KiCad,Pcbnew,10.0.5-10.0.5~ubuntu26.04.1*%
%TF.CreationDate,2026-08-21T16:15:36+01:00*%
%TF.ProjectId,PCB_MERA_2,5043425f-4d45-4524-915f-322e6b696361,2*%
%TF.SameCoordinates,Original*%
%TF.FileFunction,Drillmap*%
%TF.FilePolarity,Positive*%
%FSLAX45Y45*%
G04 Gerber Fmt 4.5, Leading zero omitted, Abs format (unit mm)*
G04 Created by KiCad (PCBNEW 10.0.5-10.0.5~ubuntu26.04.1) date 2026-08-21 16:15:36*
%MOMM*%
%LPD*%
G01*
G04 APERTURE LIST*
%ADD10C,0.050000*%
%ADD11C,0.200000*%
%ADD12C,0.100000*%
%ADD13C,0.120000*%
%ADD14C,0.130000*%
%ADD15C,0.140000*%
%ADD16C,0.170000*%
%ADD17C,0.320000*%
G04 APERTURE END LIST*
D10*
X0Y0D02*
X16000000Y0D01*
X16000000Y-10400000D01*
X0Y-10400000D01*
X0Y0D01*
D11*
D12*
X2637000Y-3462500D02*
X2697000Y-3522500D01*
X2697000Y-3462500D02*
X2637000Y-3522500D01*
X5558000Y-5494500D02*
X5618000Y-5554500D01*
X5618000Y-5494500D02*
X5558000Y-5554500D01*
X5558000Y-7717000D02*
X5618000Y-7777000D01*
X5618000Y-7717000D02*
X5558000Y-7777000D01*
X5685000Y-2446500D02*
X5745000Y-2506500D01*
X5745000Y-2446500D02*
X5685000Y-2506500D01*
X7336000Y-2764000D02*
X7396000Y-2824000D01*
X7396000Y-2764000D02*
X7336000Y-2824000D01*
X7336000Y-5494500D02*
X7396000Y-5554500D01*
X7396000Y-5494500D02*
X7336000Y-5554500D01*
X7336000Y-7717000D02*
X7396000Y-7777000D01*
X7396000Y-7717000D02*
X7336000Y-7777000D01*
X7526500Y-3272000D02*
X7586500Y-3332000D01*
X7586500Y-3272000D02*
X7526500Y-3332000D01*
X7653500Y-3018000D02*
X7713500Y-3078000D01*
X7713500Y-3018000D02*
X7653500Y-3078000D01*
X7780500Y-3462500D02*
X7840500Y-3522500D01*
X7840500Y-3462500D02*
X7780500Y-3522500D01*
X7780500Y-3716500D02*
X7840500Y-3776500D01*
X7840500Y-3716500D02*
X7780500Y-3776500D01*
X7780500Y-4478500D02*
X7840500Y-4538500D01*
X7840500Y-4478500D02*
X7780500Y-4538500D01*
X10511000Y-9304500D02*
X10571000Y-9364500D01*
X10571000Y-9304500D02*
X10511000Y-9364500D01*
X10638000Y-9558500D02*
X10698000Y-9618500D01*
X10698000Y-9558500D02*
X10638000Y-9618500D01*
X10892000Y-4161000D02*
X10952000Y-4221000D01*
X10952000Y-4161000D02*
X10892000Y-4221000D01*
X12416000Y-4288000D02*
X12476000Y-4348000D01*
X12476000Y-4288000D02*
X12416000Y-4348000D01*
X12670000Y-3716500D02*
X12730000Y-3776500D01*
X12730000Y-3716500D02*
X12670000Y-3776500D01*
X1161000Y-8200000D02*
G75*
G02*
X1061000Y-8200000I-50000J0D01*
G01*
X1061000Y-8200000D02*
G75*
G02*
X1161000Y-8200000I50000J0D01*
G01*
X1415000Y-8200000D02*
G75*
G02*
X1315000Y-8200000I-50000J0D01*
G01*
X1315000Y-8200000D02*
G75*
G02*
X1415000Y-8200000I50000J0D01*
G01*
X1669000Y-8200000D02*
G75*
G02*
X1569000Y-8200000I-50000J0D01*
G01*
X1569000Y-8200000D02*
G75*
G02*
X1669000Y-8200000I50000J0D01*
G01*
X1923000Y-8200000D02*
G75*
G02*
X1823000Y-8200000I-50000J0D01*
G01*
X1823000Y-8200000D02*
G75*
G02*
X1923000Y-8200000I50000J0D01*
G01*
X2177000Y-8200000D02*
G75*
G02*
X2077000Y-8200000I-50000J0D01*
G01*
X2077000Y-8200000D02*
G75*
G02*
X2177000Y-8200000I50000J0D01*
G01*
X2431000Y-8200000D02*
G75*
G02*
X2331000Y-8200000I-50000J0D01*
G01*
X2331000Y-8200000D02*
G75*
G02*
X2431000Y-8200000I50000J0D01*
G01*
X2685000Y-8200000D02*
G75*
G02*
X2585000Y-8200000I-50000J0D01*
G01*
X2585000Y-8200000D02*
G75*
G02*
X2685000Y-8200000I50000J0D01*
G01*
X2939000Y-8200000D02*
G75*
G02*
X2839000Y-8200000I-50000J0D01*
G01*
X2839000Y-8200000D02*
G75*
G02*
X2939000Y-8200000I50000J0D01*
G01*
X3669000Y-8400000D02*
G75*
G02*
X3569000Y-8400000I-50000J0D01*
G01*
X3569000Y-8400000D02*
G75*
G02*
X3669000Y-8400000I50000J0D01*
G01*
X3923000Y-7400000D02*
G75*
G02*
X3823000Y-7400000I-50000J0D01*
G01*
X3823000Y-7400000D02*
G75*
G02*
X3923000Y-7400000I50000J0D01*
G01*
X3923000Y-8400000D02*
G75*
G02*
X3823000Y-8400000I-50000J0D01*
G01*
X3823000Y-8400000D02*
G75*
G02*
X3923000Y-8400000I50000J0D01*
G01*
X4177000Y-7400000D02*
G75*
G02*
X4077000Y-7400000I-50000J0D01*
G01*
X4077000Y-7400000D02*
G75*
G02*
X4177000Y-7400000I50000J0D01*
G01*
X4177000Y-8400000D02*
G75*
G02*
X4077000Y-8400000I-50000J0D01*
G01*
X4077000Y-8400000D02*
G75*
G02*
X4177000Y-8400000I50000J0D01*
G01*
X4431000Y-8400000D02*
G75*
G02*
X4331000Y-8400000I-50000J0D01*
G01*
X4331000Y-8400000D02*
G75*
G02*
X4431000Y-8400000I50000J0D01*
G01*
X4623000Y-7400000D02*
G75*
G02*
X4523000Y-7400000I-50000J0D01*
G01*
X4523000Y-7400000D02*
G75*
G02*
X4623000Y-7400000I50000J0D01*
G01*
X4877000Y-7400000D02*
G75*
G02*
X4777000Y-7400000I-50000J0D01*
G01*
X4777000Y-7400000D02*
G75*
G02*
X4877000Y-7400000I50000J0D01*
G01*
X5380000Y-3214000D02*
G75*
G02*
X5280000Y-3214000I-50000J0D01*
G01*
X5280000Y-3214000D02*
G75*
G02*
X5380000Y-3214000I50000J0D01*
G01*
X5380000Y-3468000D02*
G75*
G02*
X5280000Y-3468000I-50000J0D01*
G01*
X5280000Y-3468000D02*
G75*
G02*
X5380000Y-3468000I50000J0D01*
G01*
X5380000Y-3722000D02*
G75*
G02*
X5280000Y-3722000I-50000J0D01*
G01*
X5280000Y-3722000D02*
G75*
G02*
X5380000Y-3722000I50000J0D01*
G01*
X5380000Y-3976000D02*
G75*
G02*
X5280000Y-3976000I-50000J0D01*
G01*
X5280000Y-3976000D02*
G75*
G02*
X5380000Y-3976000I50000J0D01*
G01*
X5380000Y-4230000D02*
G75*
G02*
X5280000Y-4230000I-50000J0D01*
G01*
X5280000Y-4230000D02*
G75*
G02*
X5380000Y-4230000I50000J0D01*
G01*
X5380000Y-4484000D02*
G75*
G02*
X5280000Y-4484000I-50000J0D01*
G01*
X5280000Y-4484000D02*
G75*
G02*
X5380000Y-4484000I50000J0D01*
G01*
X5380000Y-4738000D02*
G75*
G02*
X5280000Y-4738000I-50000J0D01*
G01*
X5280000Y-4738000D02*
G75*
G02*
X5380000Y-4738000I50000J0D01*
G01*
X5380000Y-4992000D02*
G75*
G02*
X5280000Y-4992000I-50000J0D01*
G01*
X5280000Y-4992000D02*
G75*
G02*
X5380000Y-4992000I50000J0D01*
G01*
X5380000Y-5246000D02*
G75*
G02*
X5280000Y-5246000I-50000J0D01*
G01*
X5280000Y-5246000D02*
G75*
G02*
X5380000Y-5246000I50000J0D01*
G01*
X5380000Y-5500000D02*
G75*
G02*
X5280000Y-5500000I-50000J0D01*
G01*
X5280000Y-5500000D02*
G75*
G02*
X5380000Y-5500000I50000J0D01*
G01*
X5380000Y-5754000D02*
G75*
G02*
X5280000Y-5754000I-50000J0D01*
G01*
X5280000Y-5754000D02*
G75*
G02*
X5380000Y-5754000I50000J0D01*
G01*
X5380000Y-6008000D02*
G75*
G02*
X5280000Y-6008000I-50000J0D01*
G01*
X5280000Y-6008000D02*
G75*
G02*
X5380000Y-6008000I50000J0D01*
G01*
X5380000Y-6262000D02*
G75*
G02*
X5280000Y-6262000I-50000J0D01*
G01*
X5280000Y-6262000D02*
G75*
G02*
X5380000Y-6262000I50000J0D01*
G01*
X5380000Y-6516000D02*
G75*
G02*
X5280000Y-6516000I-50000J0D01*
G01*
X5280000Y-6516000D02*
G75*
G02*
X5380000Y-6516000I50000J0D01*
G01*
X5380000Y-6770000D02*
G75*
G02*
X5280000Y-6770000I-50000J0D01*
G01*
X5280000Y-6770000D02*
G75*
G02*
X5380000Y-6770000I50000J0D01*
G01*
X5380000Y-7024000D02*
G75*
G02*
X5280000Y-7024000I-50000J0D01*
G01*
X5280000Y-7024000D02*
G75*
G02*
X5380000Y-7024000I50000J0D01*
G01*
X5380000Y-7278000D02*
G75*
G02*
X5280000Y-7278000I-50000J0D01*
G01*
X5280000Y-7278000D02*
G75*
G02*
X5380000Y-7278000I50000J0D01*
G01*
X5380000Y-7532000D02*
G75*
G02*
X5280000Y-7532000I-50000J0D01*
G01*
X5280000Y-7532000D02*
G75*
G02*
X5380000Y-7532000I50000J0D01*
G01*
X5380000Y-7786000D02*
G75*
G02*
X5280000Y-7786000I-50000J0D01*
G01*
X5280000Y-7786000D02*
G75*
G02*
X5380000Y-7786000I50000J0D01*
G01*
X5669000Y-9300000D02*
G75*
G02*
X5569000Y-9300000I-50000J0D01*
G01*
X5569000Y-9300000D02*
G75*
G02*
X5669000Y-9300000I50000J0D01*
G01*
X6431000Y-9300000D02*
G75*
G02*
X6331000Y-9300000I-50000J0D01*
G01*
X6331000Y-9300000D02*
G75*
G02*
X6431000Y-9300000I50000J0D01*
G01*
X7920000Y-3214000D02*
G75*
G02*
X7820000Y-3214000I-50000J0D01*
G01*
X7820000Y-3214000D02*
G75*
G02*
X7920000Y-3214000I50000J0D01*
G01*
X7920000Y-3468000D02*
G75*
G02*
X7820000Y-3468000I-50000J0D01*
G01*
X7820000Y-3468000D02*
G75*
G02*
X7920000Y-3468000I50000J0D01*
G01*
X7920000Y-3722000D02*
G75*
G02*
X7820000Y-3722000I-50000J0D01*
G01*
X7820000Y-3722000D02*
G75*
G02*
X7920000Y-3722000I50000J0D01*
G01*
X7920000Y-3976000D02*
G75*
G02*
X7820000Y-3976000I-50000J0D01*
G01*
X7820000Y-3976000D02*
G75*
G02*
X7920000Y-3976000I50000J0D01*
G01*
X7920000Y-4230000D02*
G75*
G02*
X7820000Y-4230000I-50000J0D01*
G01*
X7820000Y-4230000D02*
G75*
G02*
X7920000Y-4230000I50000J0D01*
G01*
X7920000Y-4484000D02*
G75*
G02*
X7820000Y-4484000I-50000J0D01*
G01*
X7820000Y-4484000D02*
G75*
G02*
X7920000Y-4484000I50000J0D01*
G01*
X7920000Y-4738000D02*
G75*
G02*
X7820000Y-4738000I-50000J0D01*
G01*
X7820000Y-4738000D02*
G75*
G02*
X7920000Y-4738000I50000J0D01*
G01*
X7920000Y-4992000D02*
G75*
G02*
X7820000Y-4992000I-50000J0D01*
G01*
X7820000Y-4992000D02*
G75*
G02*
X7920000Y-4992000I50000J0D01*
G01*
X7920000Y-5246000D02*
G75*
G02*
X7820000Y-5246000I-50000J0D01*
G01*
X7820000Y-5246000D02*
G75*
G02*
X7920000Y-5246000I50000J0D01*
G01*
X7920000Y-5500000D02*
G75*
G02*
X7820000Y-5500000I-50000J0D01*
G01*
X7820000Y-5500000D02*
G75*
G02*
X7920000Y-5500000I50000J0D01*
G01*
X7920000Y-5754000D02*
G75*
G02*
X7820000Y-5754000I-50000J0D01*
G01*
X7820000Y-5754000D02*
G75*
G02*
X7920000Y-5754000I50000J0D01*
G01*
X7920000Y-6008000D02*
G75*
G02*
X7820000Y-6008000I-50000J0D01*
G01*
X7820000Y-6008000D02*
G75*
G02*
X7920000Y-6008000I50000J0D01*
G01*
X7920000Y-6262000D02*
G75*
G02*
X7820000Y-6262000I-50000J0D01*
G01*
X7820000Y-6262000D02*
G75*
G02*
X7920000Y-6262000I50000J0D01*
G01*
X7920000Y-6516000D02*
G75*
G02*
X7820000Y-6516000I-50000J0D01*
G01*
X7820000Y-6516000D02*
G75*
G02*
X7920000Y-6516000I50000J0D01*
G01*
X7920000Y-6770000D02*
G75*
G02*
X7820000Y-6770000I-50000J0D01*
G01*
X7820000Y-6770000D02*
G75*
G02*
X7920000Y-6770000I50000J0D01*
G01*
X7920000Y-7024000D02*
G75*
G02*
X7820000Y-7024000I-50000J0D01*
G01*
X7820000Y-7024000D02*
G75*
G02*
X7920000Y-7024000I50000J0D01*
G01*
X7920000Y-7278000D02*
G75*
G02*
X7820000Y-7278000I-50000J0D01*
G01*
X7820000Y-7278000D02*
G75*
G02*
X7920000Y-7278000I50000J0D01*
G01*
X7920000Y-7532000D02*
G75*
G02*
X7820000Y-7532000I-50000J0D01*
G01*
X7820000Y-7532000D02*
G75*
G02*
X7920000Y-7532000I50000J0D01*
G01*
X7920000Y-7786000D02*
G75*
G02*
X7820000Y-7786000I-50000J0D01*
G01*
X7820000Y-7786000D02*
G75*
G02*
X7920000Y-7786000I50000J0D01*
G01*
X10749000Y-4600000D02*
G75*
G02*
X10649000Y-4600000I-50000J0D01*
G01*
X10649000Y-4600000D02*
G75*
G02*
X10749000Y-4600000I50000J0D01*
G01*
X11003000Y-4600000D02*
G75*
G02*
X10903000Y-4600000I-50000J0D01*
G01*
X10903000Y-4600000D02*
G75*
G02*
X11003000Y-4600000I50000J0D01*
G01*
X11176000Y-10000000D02*
G75*
G02*
X11076000Y-10000000I-50000J0D01*
G01*
X11076000Y-10000000D02*
G75*
G02*
X11176000Y-10000000I50000J0D01*
G01*
X11257000Y-4600000D02*
G75*
G02*
X11157000Y-4600000I-50000J0D01*
G01*
X11157000Y-4600000D02*
G75*
G02*
X11257000Y-4600000I50000J0D01*
G01*
X11430000Y-10000000D02*
G75*
G02*
X11330000Y-10000000I-50000J0D01*
G01*
X11330000Y-10000000D02*
G75*
G02*
X11430000Y-10000000I50000J0D01*
G01*
X11511000Y-4600000D02*
G75*
G02*
X11411000Y-4600000I-50000J0D01*
G01*
X11411000Y-4600000D02*
G75*
G02*
X11511000Y-4600000I50000J0D01*
G01*
X11684000Y-10000000D02*
G75*
G02*
X11584000Y-10000000I-50000J0D01*
G01*
X11584000Y-10000000D02*
G75*
G02*
X11684000Y-10000000I50000J0D01*
G01*
X11765000Y-4600000D02*
G75*
G02*
X11665000Y-4600000I-50000J0D01*
G01*
X11665000Y-4600000D02*
G75*
G02*
X11765000Y-4600000I50000J0D01*
G01*
X11938000Y-10000000D02*
G75*
G02*
X11838000Y-10000000I-50000J0D01*
G01*
X11838000Y-10000000D02*
G75*
G02*
X11938000Y-10000000I50000J0D01*
G01*
X12019000Y-4600000D02*
G75*
G02*
X11919000Y-4600000I-50000J0D01*
G01*
X11919000Y-4600000D02*
G75*
G02*
X12019000Y-4600000I50000J0D01*
G01*
X12192000Y-10000000D02*
G75*
G02*
X12092000Y-10000000I-50000J0D01*
G01*
X12092000Y-10000000D02*
G75*
G02*
X12192000Y-10000000I50000J0D01*
G01*
X12273000Y-4600000D02*
G75*
G02*
X12173000Y-4600000I-50000J0D01*
G01*
X12173000Y-4600000D02*
G75*
G02*
X12273000Y-4600000I50000J0D01*
G01*
X12446000Y-10000000D02*
G75*
G02*
X12346000Y-10000000I-50000J0D01*
G01*
X12346000Y-10000000D02*
G75*
G02*
X12446000Y-10000000I50000J0D01*
G01*
X12527000Y-4600000D02*
G75*
G02*
X12427000Y-4600000I-50000J0D01*
G01*
X12427000Y-4600000D02*
G75*
G02*
X12527000Y-4600000I50000J0D01*
G01*
X12700000Y-10000000D02*
G75*
G02*
X12600000Y-10000000I-50000J0D01*
G01*
X12600000Y-10000000D02*
G75*
G02*
X12700000Y-10000000I50000J0D01*
G01*
X12781000Y-4600000D02*
G75*
G02*
X12681000Y-4600000I-50000J0D01*
G01*
X12681000Y-4600000D02*
G75*
G02*
X12781000Y-4600000I50000J0D01*
G01*
X12954000Y-10000000D02*
G75*
G02*
X12854000Y-10000000I-50000J0D01*
G01*
X12854000Y-10000000D02*
G75*
G02*
X12954000Y-10000000I50000J0D01*
G01*
X13035000Y-4600000D02*
G75*
G02*
X12935000Y-4600000I-50000J0D01*
G01*
X12935000Y-4600000D02*
G75*
G02*
X13035000Y-4600000I50000J0D01*
G01*
X13289000Y-4600000D02*
G75*
G02*
X13189000Y-4600000I-50000J0D01*
G01*
X13189000Y-4600000D02*
G75*
G02*
X13289000Y-4600000I50000J0D01*
G01*
X13543000Y-4600000D02*
G75*
G02*
X13443000Y-4600000I-50000J0D01*
G01*
X13443000Y-4600000D02*
G75*
G02*
X13543000Y-4600000I50000J0D01*
G01*
X13797000Y-4600000D02*
G75*
G02*
X13697000Y-4600000I-50000J0D01*
G01*
X13697000Y-4600000D02*
G75*
G02*
X13797000Y-4600000I50000J0D01*
G01*
X14051000Y-4600000D02*
G75*
G02*
X13951000Y-4600000I-50000J0D01*
G01*
X13951000Y-4600000D02*
G75*
G02*
X14051000Y-4600000I50000J0D01*
G01*
D13*
X4046000Y-6394000D02*
X4046000Y-6514000D01*
X3986000Y-6454000D02*
X4106000Y-6454000D01*
X4300000Y-6394000D02*
X4300000Y-6514000D01*
X4240000Y-6454000D02*
X4360000Y-6454000D01*
X4554000Y-6394000D02*
X4554000Y-6514000D01*
X4494000Y-6454000D02*
X4614000Y-6454000D01*
D14*
X1145962Y-4045962D02*
X1145962Y-3954038D01*
X1054038Y-3954038D01*
X1054038Y-4045962D01*
X1145962Y-4045962D01*
X1145962Y-4545962D02*
X1145962Y-4454038D01*
X1054038Y-4454038D01*
X1054038Y-4545962D01*
X1145962Y-4545962D01*
X1945962Y-3945962D02*
X1945962Y-3854038D01*
X1854038Y-3854038D01*
X1854038Y-3945962D01*
X1945962Y-3945962D01*
X2995962Y-3945962D02*
X2995962Y-3854038D01*
X2904038Y-3854038D01*
X2904038Y-3945962D01*
X2995962Y-3945962D01*
X3795962Y-4045962D02*
X3795962Y-3954038D01*
X3704038Y-3954038D01*
X3704038Y-4045962D01*
X3795962Y-4045962D01*
X3795962Y-4545962D02*
X3795962Y-4454038D01*
X3704038Y-4454038D01*
X3704038Y-4545962D01*
X3795962Y-4545962D01*
D15*
X1400000Y-2770000D02*
X1470000Y-2700000D01*
X1400000Y-2630000D01*
X1330000Y-2700000D01*
X1400000Y-2770000D01*
X1908000Y-2770000D02*
X1978000Y-2700000D01*
X1908000Y-2630000D01*
X1838000Y-2700000D01*
X1908000Y-2770000D01*
X2416000Y-2770000D02*
X2486000Y-2700000D01*
X2416000Y-2630000D01*
X2346000Y-2700000D01*
X2416000Y-2770000D01*
X2924000Y-2770000D02*
X2994000Y-2700000D01*
X2924000Y-2630000D01*
X2854000Y-2700000D01*
X2924000Y-2770000D01*
D16*
X615000Y-1215000D02*
X785000Y-1385000D01*
X785000Y-1215000D02*
X615000Y-1385000D01*
X785000Y-1300000D02*
G75*
G02*
X615000Y-1300000I-85000J0D01*
G01*
X615000Y-1300000D02*
G75*
G02*
X785000Y-1300000I85000J0D01*
G01*
X615000Y-2015000D02*
X785000Y-2185000D01*
X785000Y-2015000D02*
X615000Y-2185000D01*
X785000Y-2100000D02*
G75*
G02*
X615000Y-2100000I-85000J0D01*
G01*
X615000Y-2100000D02*
G75*
G02*
X785000Y-2100000I85000J0D01*
G01*
X661000Y-6115000D02*
X831000Y-6285000D01*
X831000Y-6115000D02*
X661000Y-6285000D01*
X831000Y-6200000D02*
G75*
G02*
X661000Y-6200000I-85000J0D01*
G01*
X661000Y-6200000D02*
G75*
G02*
X831000Y-6200000I85000J0D01*
G01*
X1169000Y-6115000D02*
X1339000Y-6285000D01*
X1339000Y-6115000D02*
X1169000Y-6285000D01*
X1339000Y-6200000D02*
G75*
G02*
X1169000Y-6200000I-85000J0D01*
G01*
X1169000Y-6200000D02*
G75*
G02*
X1339000Y-6200000I85000J0D01*
G01*
D17*
X4140000Y-5540000D02*
X4460000Y-5860000D01*
X4460000Y-5540000D02*
X4140000Y-5860000D01*
X4300000Y-5540000D02*
X4300000Y-5860000D01*
X4140000Y-5700000D02*
X4460000Y-5700000D01*
X240000Y-240000D02*
X560000Y-560000D01*
X560000Y-240000D02*
X240000Y-560000D01*
X513138Y-513138D02*
X513138Y-286862D01*
X286862Y-286862D01*
X286862Y-513138D01*
X513138Y-513138D01*
X240000Y-9840000D02*
X560000Y-10160000D01*
X560000Y-9840000D02*
X240000Y-10160000D01*
X513138Y-10113138D02*
X513138Y-9886862D01*
X286862Y-9886862D01*
X286862Y-10113138D01*
X513138Y-10113138D01*
X15440000Y-5040000D02*
X15760000Y-5360000D01*
X15760000Y-5040000D02*
X15440000Y-5360000D01*
X15713138Y-5313138D02*
X15713138Y-5086862D01*
X15486862Y-5086862D01*
X15486862Y-5313138D01*
X15713138Y-5313138D01*
X15440000Y-9840000D02*
X15760000Y-10160000D01*
X15760000Y-9840000D02*
X15440000Y-10160000D01*
X15713138Y-10113138D02*
X15713138Y-9886862D01*
X15486862Y-9886862D01*
X15486862Y-10113138D01*
X15713138Y-10113138D01*
D11*
X258277Y-10713984D02*
X258277Y-10513984D01*
X258277Y-10513984D02*
X305896Y-10513984D01*
X305896Y-10513984D02*
X334467Y-10523508D01*
X334467Y-10523508D02*
X353515Y-10542555D01*
X353515Y-10542555D02*
X363039Y-10561603D01*
X363039Y-10561603D02*
X372562Y-10599698D01*
X372562Y-10599698D02*
X372562Y-10628270D01*
X372562Y-10628270D02*
X363039Y-10666365D01*
X363039Y-10666365D02*
X353515Y-10685412D01*
X353515Y-10685412D02*
X334467Y-10704460D01*
X334467Y-10704460D02*
X305896Y-10713984D01*
X305896Y-10713984D02*
X258277Y-10713984D01*
X458277Y-10713984D02*
X458277Y-10580650D01*
X458277Y-10618746D02*
X467801Y-10599698D01*
X467801Y-10599698D02*
X477324Y-10590174D01*
X477324Y-10590174D02*
X496372Y-10580650D01*
X496372Y-10580650D02*
X515420Y-10580650D01*
X582086Y-10713984D02*
X582086Y-10580650D01*
X582086Y-10513984D02*
X572563Y-10523508D01*
X572563Y-10523508D02*
X582086Y-10533031D01*
X582086Y-10533031D02*
X591610Y-10523508D01*
X591610Y-10523508D02*
X582086Y-10513984D01*
X582086Y-10513984D02*
X582086Y-10533031D01*
X705896Y-10713984D02*
X686848Y-10704460D01*
X686848Y-10704460D02*
X677324Y-10685412D01*
X677324Y-10685412D02*
X677324Y-10513984D01*
X810658Y-10713984D02*
X791610Y-10704460D01*
X791610Y-10704460D02*
X782086Y-10685412D01*
X782086Y-10685412D02*
X782086Y-10513984D01*
X1039229Y-10713984D02*
X1039229Y-10513984D01*
X1039229Y-10513984D02*
X1105896Y-10656841D01*
X1105896Y-10656841D02*
X1172563Y-10513984D01*
X1172563Y-10513984D02*
X1172563Y-10713984D01*
X1353515Y-10713984D02*
X1353515Y-10609222D01*
X1353515Y-10609222D02*
X1343991Y-10590174D01*
X1343991Y-10590174D02*
X1324944Y-10580650D01*
X1324944Y-10580650D02*
X1286848Y-10580650D01*
X1286848Y-10580650D02*
X1267801Y-10590174D01*
X1353515Y-10704460D02*
X1334467Y-10713984D01*
X1334467Y-10713984D02*
X1286848Y-10713984D01*
X1286848Y-10713984D02*
X1267801Y-10704460D01*
X1267801Y-10704460D02*
X1258277Y-10685412D01*
X1258277Y-10685412D02*
X1258277Y-10666365D01*
X1258277Y-10666365D02*
X1267801Y-10647317D01*
X1267801Y-10647317D02*
X1286848Y-10637793D01*
X1286848Y-10637793D02*
X1334467Y-10637793D01*
X1334467Y-10637793D02*
X1353515Y-10628270D01*
X1448753Y-10580650D02*
X1448753Y-10780650D01*
X1448753Y-10590174D02*
X1467801Y-10580650D01*
X1467801Y-10580650D02*
X1505896Y-10580650D01*
X1505896Y-10580650D02*
X1524943Y-10590174D01*
X1524943Y-10590174D02*
X1534467Y-10599698D01*
X1534467Y-10599698D02*
X1543991Y-10618746D01*
X1543991Y-10618746D02*
X1543991Y-10675889D01*
X1543991Y-10675889D02*
X1534467Y-10694936D01*
X1534467Y-10694936D02*
X1524943Y-10704460D01*
X1524943Y-10704460D02*
X1505896Y-10713984D01*
X1505896Y-10713984D02*
X1467801Y-10713984D01*
X1467801Y-10713984D02*
X1448753Y-10704460D01*
X1629705Y-10694936D02*
X1639229Y-10704460D01*
X1639229Y-10704460D02*
X1629705Y-10713984D01*
X1629705Y-10713984D02*
X1620182Y-10704460D01*
X1620182Y-10704460D02*
X1629705Y-10694936D01*
X1629705Y-10694936D02*
X1629705Y-10713984D01*
X1629705Y-10590174D02*
X1639229Y-10599698D01*
X1639229Y-10599698D02*
X1629705Y-10609222D01*
X1629705Y-10609222D02*
X1620182Y-10599698D01*
X1620182Y-10599698D02*
X1629705Y-10590174D01*
X1629705Y-10590174D02*
X1629705Y-10609222D01*
D12*
X-62500Y-11012500D02*
X-2500Y-11072500D01*
X-2500Y-11012500D02*
X-62500Y-11072500D01*
D11*
X296372Y-10933984D02*
X315420Y-10933984D01*
X315420Y-10933984D02*
X334467Y-10943508D01*
X334467Y-10943508D02*
X343991Y-10953031D01*
X343991Y-10953031D02*
X353515Y-10972079D01*
X353515Y-10972079D02*
X363039Y-11010174D01*
X363039Y-11010174D02*
X363039Y-11057793D01*
X363039Y-11057793D02*
X353515Y-11095889D01*
X353515Y-11095889D02*
X343991Y-11114936D01*
X343991Y-11114936D02*
X334467Y-11124460D01*
X334467Y-11124460D02*
X315420Y-11133984D01*
X315420Y-11133984D02*
X296372Y-11133984D01*
X296372Y-11133984D02*
X277324Y-11124460D01*
X277324Y-11124460D02*
X267801Y-11114936D01*
X267801Y-11114936D02*
X258277Y-11095889D01*
X258277Y-11095889D02*
X248753Y-11057793D01*
X248753Y-11057793D02*
X248753Y-11010174D01*
X248753Y-11010174D02*
X258277Y-10972079D01*
X258277Y-10972079D02*
X267801Y-10953031D01*
X267801Y-10953031D02*
X277324Y-10943508D01*
X277324Y-10943508D02*
X296372Y-10933984D01*
X458277Y-11124460D02*
X458277Y-11133984D01*
X458277Y-11133984D02*
X448753Y-11153031D01*
X448753Y-11153031D02*
X439229Y-11162555D01*
X629705Y-10933984D02*
X591610Y-10933984D01*
X591610Y-10933984D02*
X572563Y-10943508D01*
X572563Y-10943508D02*
X563039Y-10953031D01*
X563039Y-10953031D02*
X543991Y-10981603D01*
X543991Y-10981603D02*
X534467Y-11019698D01*
X534467Y-11019698D02*
X534467Y-11095889D01*
X534467Y-11095889D02*
X543991Y-11114936D01*
X543991Y-11114936D02*
X553515Y-11124460D01*
X553515Y-11124460D02*
X572563Y-11133984D01*
X572563Y-11133984D02*
X610658Y-11133984D01*
X610658Y-11133984D02*
X629705Y-11124460D01*
X629705Y-11124460D02*
X639229Y-11114936D01*
X639229Y-11114936D02*
X648753Y-11095889D01*
X648753Y-11095889D02*
X648753Y-11048270D01*
X648753Y-11048270D02*
X639229Y-11029222D01*
X639229Y-11029222D02*
X629705Y-11019698D01*
X629705Y-11019698D02*
X610658Y-11010174D01*
X610658Y-11010174D02*
X572563Y-11010174D01*
X572563Y-11010174D02*
X553515Y-11019698D01*
X553515Y-11019698D02*
X543991Y-11029222D01*
X543991Y-11029222D02*
X534467Y-11048270D01*
X772562Y-10933984D02*
X791610Y-10933984D01*
X791610Y-10933984D02*
X810658Y-10943508D01*
X810658Y-10943508D02*
X820182Y-10953031D01*
X820182Y-10953031D02*
X829705Y-10972079D01*
X829705Y-10972079D02*
X839229Y-11010174D01*
X839229Y-11010174D02*
X839229Y-11057793D01*
X839229Y-11057793D02*
X829705Y-11095889D01*
X829705Y-11095889D02*
X820182Y-11114936D01*
X820182Y-11114936D02*
X810658Y-11124460D01*
X810658Y-11124460D02*
X791610Y-11133984D01*
X791610Y-11133984D02*
X772562Y-11133984D01*
X772562Y-11133984D02*
X753515Y-11124460D01*
X753515Y-11124460D02*
X743991Y-11114936D01*
X743991Y-11114936D02*
X734467Y-11095889D01*
X734467Y-11095889D02*
X724943Y-11057793D01*
X724943Y-11057793D02*
X724943Y-11010174D01*
X724943Y-11010174D02*
X734467Y-10972079D01*
X734467Y-10972079D02*
X743991Y-10953031D01*
X743991Y-10953031D02*
X753515Y-10943508D01*
X753515Y-10943508D02*
X772562Y-10933984D01*
X963039Y-10933984D02*
X982086Y-10933984D01*
X982086Y-10933984D02*
X1001134Y-10943508D01*
X1001134Y-10943508D02*
X1010658Y-10953031D01*
X1010658Y-10953031D02*
X1020182Y-10972079D01*
X1020182Y-10972079D02*
X1029705Y-11010174D01*
X1029705Y-11010174D02*
X1029705Y-11057793D01*
X1029705Y-11057793D02*
X1020182Y-11095889D01*
X1020182Y-11095889D02*
X1010658Y-11114936D01*
X1010658Y-11114936D02*
X1001134Y-11124460D01*
X1001134Y-11124460D02*
X982086Y-11133984D01*
X982086Y-11133984D02*
X963039Y-11133984D01*
X963039Y-11133984D02*
X943991Y-11124460D01*
X943991Y-11124460D02*
X934467Y-11114936D01*
X934467Y-11114936D02*
X924943Y-11095889D01*
X924943Y-11095889D02*
X915420Y-11057793D01*
X915420Y-11057793D02*
X915420Y-11010174D01*
X915420Y-11010174D02*
X924943Y-10972079D01*
X924943Y-10972079D02*
X934467Y-10953031D01*
X934467Y-10953031D02*
X943991Y-10943508D01*
X943991Y-10943508D02*
X963039Y-10933984D01*
X1115420Y-11133984D02*
X1115420Y-11000650D01*
X1115420Y-11019698D02*
X1124944Y-11010174D01*
X1124944Y-11010174D02*
X1143991Y-11000650D01*
X1143991Y-11000650D02*
X1172563Y-11000650D01*
X1172563Y-11000650D02*
X1191610Y-11010174D01*
X1191610Y-11010174D02*
X1201134Y-11029222D01*
X1201134Y-11029222D02*
X1201134Y-11133984D01*
X1201134Y-11029222D02*
X1210658Y-11010174D01*
X1210658Y-11010174D02*
X1229705Y-11000650D01*
X1229705Y-11000650D02*
X1258277Y-11000650D01*
X1258277Y-11000650D02*
X1277325Y-11010174D01*
X1277325Y-11010174D02*
X1286848Y-11029222D01*
X1286848Y-11029222D02*
X1286848Y-11133984D01*
X1382086Y-11133984D02*
X1382086Y-11000650D01*
X1382086Y-11019698D02*
X1391610Y-11010174D01*
X1391610Y-11010174D02*
X1410658Y-11000650D01*
X1410658Y-11000650D02*
X1439229Y-11000650D01*
X1439229Y-11000650D02*
X1458277Y-11010174D01*
X1458277Y-11010174D02*
X1467801Y-11029222D01*
X1467801Y-11029222D02*
X1467801Y-11133984D01*
X1467801Y-11029222D02*
X1477324Y-11010174D01*
X1477324Y-11010174D02*
X1496372Y-11000650D01*
X1496372Y-11000650D02*
X1524943Y-11000650D01*
X1524943Y-11000650D02*
X1543991Y-11010174D01*
X1543991Y-11010174D02*
X1553515Y-11029222D01*
X1553515Y-11029222D02*
X1553515Y-11133984D01*
X1943991Y-10924460D02*
X1772563Y-11181603D01*
X2201134Y-10933984D02*
X2220182Y-10933984D01*
X2220182Y-10933984D02*
X2239229Y-10943508D01*
X2239229Y-10943508D02*
X2248753Y-10953031D01*
X2248753Y-10953031D02*
X2258277Y-10972079D01*
X2258277Y-10972079D02*
X2267801Y-11010174D01*
X2267801Y-11010174D02*
X2267801Y-11057793D01*
X2267801Y-11057793D02*
X2258277Y-11095889D01*
X2258277Y-11095889D02*
X2248753Y-11114936D01*
X2248753Y-11114936D02*
X2239229Y-11124460D01*
X2239229Y-11124460D02*
X2220182Y-11133984D01*
X2220182Y-11133984D02*
X2201134Y-11133984D01*
X2201134Y-11133984D02*
X2182087Y-11124460D01*
X2182087Y-11124460D02*
X2172563Y-11114936D01*
X2172563Y-11114936D02*
X2163039Y-11095889D01*
X2163039Y-11095889D02*
X2153515Y-11057793D01*
X2153515Y-11057793D02*
X2153515Y-11010174D01*
X2153515Y-11010174D02*
X2163039Y-10972079D01*
X2163039Y-10972079D02*
X2172563Y-10953031D01*
X2172563Y-10953031D02*
X2182087Y-10943508D01*
X2182087Y-10943508D02*
X2201134Y-10933984D01*
X2363039Y-11124460D02*
X2363039Y-11133984D01*
X2363039Y-11133984D02*
X2353515Y-11153031D01*
X2353515Y-11153031D02*
X2343991Y-11162555D01*
X2486848Y-10933984D02*
X2505896Y-10933984D01*
X2505896Y-10933984D02*
X2524944Y-10943508D01*
X2524944Y-10943508D02*
X2534468Y-10953031D01*
X2534468Y-10953031D02*
X2543991Y-10972079D01*
X2543991Y-10972079D02*
X2553515Y-11010174D01*
X2553515Y-11010174D02*
X2553515Y-11057793D01*
X2553515Y-11057793D02*
X2543991Y-11095889D01*
X2543991Y-11095889D02*
X2534468Y-11114936D01*
X2534468Y-11114936D02*
X2524944Y-11124460D01*
X2524944Y-11124460D02*
X2505896Y-11133984D01*
X2505896Y-11133984D02*
X2486848Y-11133984D01*
X2486848Y-11133984D02*
X2467801Y-11124460D01*
X2467801Y-11124460D02*
X2458277Y-11114936D01*
X2458277Y-11114936D02*
X2448753Y-11095889D01*
X2448753Y-11095889D02*
X2439229Y-11057793D01*
X2439229Y-11057793D02*
X2439229Y-11010174D01*
X2439229Y-11010174D02*
X2448753Y-10972079D01*
X2448753Y-10972079D02*
X2458277Y-10953031D01*
X2458277Y-10953031D02*
X2467801Y-10943508D01*
X2467801Y-10943508D02*
X2486848Y-10933984D01*
X2629706Y-10953031D02*
X2639229Y-10943508D01*
X2639229Y-10943508D02*
X2658277Y-10933984D01*
X2658277Y-10933984D02*
X2705896Y-10933984D01*
X2705896Y-10933984D02*
X2724944Y-10943508D01*
X2724944Y-10943508D02*
X2734468Y-10953031D01*
X2734468Y-10953031D02*
X2743991Y-10972079D01*
X2743991Y-10972079D02*
X2743991Y-10991127D01*
X2743991Y-10991127D02*
X2734468Y-11019698D01*
X2734468Y-11019698D02*
X2620182Y-11133984D01*
X2620182Y-11133984D02*
X2743991Y-11133984D01*
X2810658Y-10933984D02*
X2934467Y-10933984D01*
X2934467Y-10933984D02*
X2867801Y-11010174D01*
X2867801Y-11010174D02*
X2896372Y-11010174D01*
X2896372Y-11010174D02*
X2915420Y-11019698D01*
X2915420Y-11019698D02*
X2924944Y-11029222D01*
X2924944Y-11029222D02*
X2934467Y-11048270D01*
X2934467Y-11048270D02*
X2934467Y-11095889D01*
X2934467Y-11095889D02*
X2924944Y-11114936D01*
X2924944Y-11114936D02*
X2915420Y-11124460D01*
X2915420Y-11124460D02*
X2896372Y-11133984D01*
X2896372Y-11133984D02*
X2839229Y-11133984D01*
X2839229Y-11133984D02*
X2820182Y-11124460D01*
X2820182Y-11124460D02*
X2810658Y-11114936D01*
X3105896Y-10933984D02*
X3067801Y-10933984D01*
X3067801Y-10933984D02*
X3048753Y-10943508D01*
X3048753Y-10943508D02*
X3039229Y-10953031D01*
X3039229Y-10953031D02*
X3020182Y-10981603D01*
X3020182Y-10981603D02*
X3010658Y-11019698D01*
X3010658Y-11019698D02*
X3010658Y-11095889D01*
X3010658Y-11095889D02*
X3020182Y-11114936D01*
X3020182Y-11114936D02*
X3029706Y-11124460D01*
X3029706Y-11124460D02*
X3048753Y-11133984D01*
X3048753Y-11133984D02*
X3086848Y-11133984D01*
X3086848Y-11133984D02*
X3105896Y-11124460D01*
X3105896Y-11124460D02*
X3115420Y-11114936D01*
X3115420Y-11114936D02*
X3124944Y-11095889D01*
X3124944Y-11095889D02*
X3124944Y-11048270D01*
X3124944Y-11048270D02*
X3115420Y-11029222D01*
X3115420Y-11029222D02*
X3105896Y-11019698D01*
X3105896Y-11019698D02*
X3086848Y-11010174D01*
X3086848Y-11010174D02*
X3048753Y-11010174D01*
X3048753Y-11010174D02*
X3029706Y-11019698D01*
X3029706Y-11019698D02*
X3020182Y-11029222D01*
X3020182Y-11029222D02*
X3010658Y-11048270D01*
X3201134Y-10933984D02*
X3201134Y-10972079D01*
X3277325Y-10933984D02*
X3277325Y-10972079D01*
X3572563Y-11210174D02*
X3563039Y-11200650D01*
X3563039Y-11200650D02*
X3543991Y-11172079D01*
X3543991Y-11172079D02*
X3534468Y-11153031D01*
X3534468Y-11153031D02*
X3524944Y-11124460D01*
X3524944Y-11124460D02*
X3515420Y-11076841D01*
X3515420Y-11076841D02*
X3515420Y-11038746D01*
X3515420Y-11038746D02*
X3524944Y-10991127D01*
X3524944Y-10991127D02*
X3534468Y-10962555D01*
X3534468Y-10962555D02*
X3543991Y-10943508D01*
X3543991Y-10943508D02*
X3563039Y-10914936D01*
X3563039Y-10914936D02*
X3572563Y-10905412D01*
X3753515Y-11133984D02*
X3639229Y-11133984D01*
X3696372Y-11133984D02*
X3696372Y-10933984D01*
X3696372Y-10933984D02*
X3677325Y-10962555D01*
X3677325Y-10962555D02*
X3658277Y-10981603D01*
X3658277Y-10981603D02*
X3639229Y-10991127D01*
X3820182Y-10933984D02*
X3953515Y-10933984D01*
X3953515Y-10933984D02*
X3867801Y-11133984D01*
X4182087Y-11133984D02*
X4182087Y-10933984D01*
X4267801Y-11133984D02*
X4267801Y-11029222D01*
X4267801Y-11029222D02*
X4258277Y-11010174D01*
X4258277Y-11010174D02*
X4239230Y-11000650D01*
X4239230Y-11000650D02*
X4210658Y-11000650D01*
X4210658Y-11000650D02*
X4191610Y-11010174D01*
X4191610Y-11010174D02*
X4182087Y-11019698D01*
X4391611Y-11133984D02*
X4372563Y-11124460D01*
X4372563Y-11124460D02*
X4363039Y-11114936D01*
X4363039Y-11114936D02*
X4353515Y-11095889D01*
X4353515Y-11095889D02*
X4353515Y-11038746D01*
X4353515Y-11038746D02*
X4363039Y-11019698D01*
X4363039Y-11019698D02*
X4372563Y-11010174D01*
X4372563Y-11010174D02*
X4391611Y-11000650D01*
X4391611Y-11000650D02*
X4420182Y-11000650D01*
X4420182Y-11000650D02*
X4439230Y-11010174D01*
X4439230Y-11010174D02*
X4448753Y-11019698D01*
X4448753Y-11019698D02*
X4458277Y-11038746D01*
X4458277Y-11038746D02*
X4458277Y-11095889D01*
X4458277Y-11095889D02*
X4448753Y-11114936D01*
X4448753Y-11114936D02*
X4439230Y-11124460D01*
X4439230Y-11124460D02*
X4420182Y-11133984D01*
X4420182Y-11133984D02*
X4391611Y-11133984D01*
X4572563Y-11133984D02*
X4553515Y-11124460D01*
X4553515Y-11124460D02*
X4543992Y-11105412D01*
X4543992Y-11105412D02*
X4543992Y-10933984D01*
X4724944Y-11124460D02*
X4705896Y-11133984D01*
X4705896Y-11133984D02*
X4667801Y-11133984D01*
X4667801Y-11133984D02*
X4648753Y-11124460D01*
X4648753Y-11124460D02*
X4639230Y-11105412D01*
X4639230Y-11105412D02*
X4639230Y-11029222D01*
X4639230Y-11029222D02*
X4648753Y-11010174D01*
X4648753Y-11010174D02*
X4667801Y-11000650D01*
X4667801Y-11000650D02*
X4705896Y-11000650D01*
X4705896Y-11000650D02*
X4724944Y-11010174D01*
X4724944Y-11010174D02*
X4734468Y-11029222D01*
X4734468Y-11029222D02*
X4734468Y-11048270D01*
X4734468Y-11048270D02*
X4639230Y-11067317D01*
X4810658Y-11124460D02*
X4829706Y-11133984D01*
X4829706Y-11133984D02*
X4867801Y-11133984D01*
X4867801Y-11133984D02*
X4886849Y-11124460D01*
X4886849Y-11124460D02*
X4896373Y-11105412D01*
X4896373Y-11105412D02*
X4896373Y-11095889D01*
X4896373Y-11095889D02*
X4886849Y-11076841D01*
X4886849Y-11076841D02*
X4867801Y-11067317D01*
X4867801Y-11067317D02*
X4839230Y-11067317D01*
X4839230Y-11067317D02*
X4820182Y-11057793D01*
X4820182Y-11057793D02*
X4810658Y-11038746D01*
X4810658Y-11038746D02*
X4810658Y-11029222D01*
X4810658Y-11029222D02*
X4820182Y-11010174D01*
X4820182Y-11010174D02*
X4839230Y-11000650D01*
X4839230Y-11000650D02*
X4867801Y-11000650D01*
X4867801Y-11000650D02*
X4886849Y-11010174D01*
X4963039Y-11210174D02*
X4972563Y-11200650D01*
X4972563Y-11200650D02*
X4991611Y-11172079D01*
X4991611Y-11172079D02*
X5001134Y-11153031D01*
X5001134Y-11153031D02*
X5010658Y-11124460D01*
X5010658Y-11124460D02*
X5020182Y-11076841D01*
X5020182Y-11076841D02*
X5020182Y-11038746D01*
X5020182Y-11038746D02*
X5010658Y-10991127D01*
X5010658Y-10991127D02*
X5001134Y-10962555D01*
X5001134Y-10962555D02*
X4991611Y-10943508D01*
X4991611Y-10943508D02*
X4972563Y-10914936D01*
X4972563Y-10914936D02*
X4963039Y-10905412D01*
D12*
X-2500Y-11306500D02*
G75*
G02*
X-102500Y-11306500I-50000J0D01*
G01*
X-102500Y-11306500D02*
G75*
G02*
X-2500Y-11306500I50000J0D01*
G01*
D11*
X363039Y-11397984D02*
X248753Y-11397984D01*
X305896Y-11397984D02*
X305896Y-11197984D01*
X305896Y-11197984D02*
X286848Y-11226555D01*
X286848Y-11226555D02*
X267801Y-11245603D01*
X267801Y-11245603D02*
X248753Y-11255127D01*
X458277Y-11388460D02*
X458277Y-11397984D01*
X458277Y-11397984D02*
X448753Y-11417031D01*
X448753Y-11417031D02*
X439229Y-11426555D01*
X582086Y-11197984D02*
X601134Y-11197984D01*
X601134Y-11197984D02*
X620182Y-11207508D01*
X620182Y-11207508D02*
X629705Y-11217031D01*
X629705Y-11217031D02*
X639229Y-11236079D01*
X639229Y-11236079D02*
X648753Y-11274174D01*
X648753Y-11274174D02*
X648753Y-11321793D01*
X648753Y-11321793D02*
X639229Y-11359888D01*
X639229Y-11359888D02*
X629705Y-11378936D01*
X629705Y-11378936D02*
X620182Y-11388460D01*
X620182Y-11388460D02*
X601134Y-11397984D01*
X601134Y-11397984D02*
X582086Y-11397984D01*
X582086Y-11397984D02*
X563039Y-11388460D01*
X563039Y-11388460D02*
X553515Y-11378936D01*
X553515Y-11378936D02*
X543991Y-11359888D01*
X543991Y-11359888D02*
X534467Y-11321793D01*
X534467Y-11321793D02*
X534467Y-11274174D01*
X534467Y-11274174D02*
X543991Y-11236079D01*
X543991Y-11236079D02*
X553515Y-11217031D01*
X553515Y-11217031D02*
X563039Y-11207508D01*
X563039Y-11207508D02*
X582086Y-11197984D01*
X772562Y-11197984D02*
X791610Y-11197984D01*
X791610Y-11197984D02*
X810658Y-11207508D01*
X810658Y-11207508D02*
X820182Y-11217031D01*
X820182Y-11217031D02*
X829705Y-11236079D01*
X829705Y-11236079D02*
X839229Y-11274174D01*
X839229Y-11274174D02*
X839229Y-11321793D01*
X839229Y-11321793D02*
X829705Y-11359888D01*
X829705Y-11359888D02*
X820182Y-11378936D01*
X820182Y-11378936D02*
X810658Y-11388460D01*
X810658Y-11388460D02*
X791610Y-11397984D01*
X791610Y-11397984D02*
X772562Y-11397984D01*
X772562Y-11397984D02*
X753515Y-11388460D01*
X753515Y-11388460D02*
X743991Y-11378936D01*
X743991Y-11378936D02*
X734467Y-11359888D01*
X734467Y-11359888D02*
X724943Y-11321793D01*
X724943Y-11321793D02*
X724943Y-11274174D01*
X724943Y-11274174D02*
X734467Y-11236079D01*
X734467Y-11236079D02*
X743991Y-11217031D01*
X743991Y-11217031D02*
X753515Y-11207508D01*
X753515Y-11207508D02*
X772562Y-11197984D01*
X963039Y-11197984D02*
X982086Y-11197984D01*
X982086Y-11197984D02*
X1001134Y-11207508D01*
X1001134Y-11207508D02*
X1010658Y-11217031D01*
X1010658Y-11217031D02*
X1020182Y-11236079D01*
X1020182Y-11236079D02*
X1029705Y-11274174D01*
X1029705Y-11274174D02*
X1029705Y-11321793D01*
X1029705Y-11321793D02*
X1020182Y-11359888D01*
X1020182Y-11359888D02*
X1010658Y-11378936D01*
X1010658Y-11378936D02*
X1001134Y-11388460D01*
X1001134Y-11388460D02*
X982086Y-11397984D01*
X982086Y-11397984D02*
X963039Y-11397984D01*
X963039Y-11397984D02*
X943991Y-11388460D01*
X943991Y-11388460D02*
X934467Y-11378936D01*
X934467Y-11378936D02*
X924943Y-11359888D01*
X924943Y-11359888D02*
X915420Y-11321793D01*
X915420Y-11321793D02*
X915420Y-11274174D01*
X915420Y-11274174D02*
X924943Y-11236079D01*
X924943Y-11236079D02*
X934467Y-11217031D01*
X934467Y-11217031D02*
X943991Y-11207508D01*
X943991Y-11207508D02*
X963039Y-11197984D01*
X1115420Y-11397984D02*
X1115420Y-11264650D01*
X1115420Y-11283698D02*
X1124944Y-11274174D01*
X1124944Y-11274174D02*
X1143991Y-11264650D01*
X1143991Y-11264650D02*
X1172563Y-11264650D01*
X1172563Y-11264650D02*
X1191610Y-11274174D01*
X1191610Y-11274174D02*
X1201134Y-11293222D01*
X1201134Y-11293222D02*
X1201134Y-11397984D01*
X1201134Y-11293222D02*
X1210658Y-11274174D01*
X1210658Y-11274174D02*
X1229705Y-11264650D01*
X1229705Y-11264650D02*
X1258277Y-11264650D01*
X1258277Y-11264650D02*
X1277325Y-11274174D01*
X1277325Y-11274174D02*
X1286848Y-11293222D01*
X1286848Y-11293222D02*
X1286848Y-11397984D01*
X1382086Y-11397984D02*
X1382086Y-11264650D01*
X1382086Y-11283698D02*
X1391610Y-11274174D01*
X1391610Y-11274174D02*
X1410658Y-11264650D01*
X1410658Y-11264650D02*
X1439229Y-11264650D01*
X1439229Y-11264650D02*
X1458277Y-11274174D01*
X1458277Y-11274174D02*
X1467801Y-11293222D01*
X1467801Y-11293222D02*
X1467801Y-11397984D01*
X1467801Y-11293222D02*
X1477324Y-11274174D01*
X1477324Y-11274174D02*
X1496372Y-11264650D01*
X1496372Y-11264650D02*
X1524943Y-11264650D01*
X1524943Y-11264650D02*
X1543991Y-11274174D01*
X1543991Y-11274174D02*
X1553515Y-11293222D01*
X1553515Y-11293222D02*
X1553515Y-11397984D01*
X1943991Y-11188460D02*
X1772563Y-11445603D01*
X2201134Y-11197984D02*
X2220182Y-11197984D01*
X2220182Y-11197984D02*
X2239229Y-11207508D01*
X2239229Y-11207508D02*
X2248753Y-11217031D01*
X2248753Y-11217031D02*
X2258277Y-11236079D01*
X2258277Y-11236079D02*
X2267801Y-11274174D01*
X2267801Y-11274174D02*
X2267801Y-11321793D01*
X2267801Y-11321793D02*
X2258277Y-11359888D01*
X2258277Y-11359888D02*
X2248753Y-11378936D01*
X2248753Y-11378936D02*
X2239229Y-11388460D01*
X2239229Y-11388460D02*
X2220182Y-11397984D01*
X2220182Y-11397984D02*
X2201134Y-11397984D01*
X2201134Y-11397984D02*
X2182087Y-11388460D01*
X2182087Y-11388460D02*
X2172563Y-11378936D01*
X2172563Y-11378936D02*
X2163039Y-11359888D01*
X2163039Y-11359888D02*
X2153515Y-11321793D01*
X2153515Y-11321793D02*
X2153515Y-11274174D01*
X2153515Y-11274174D02*
X2163039Y-11236079D01*
X2163039Y-11236079D02*
X2172563Y-11217031D01*
X2172563Y-11217031D02*
X2182087Y-11207508D01*
X2182087Y-11207508D02*
X2201134Y-11197984D01*
X2363039Y-11388460D02*
X2363039Y-11397984D01*
X2363039Y-11397984D02*
X2353515Y-11417031D01*
X2353515Y-11417031D02*
X2343991Y-11426555D01*
X2486848Y-11197984D02*
X2505896Y-11197984D01*
X2505896Y-11197984D02*
X2524944Y-11207508D01*
X2524944Y-11207508D02*
X2534468Y-11217031D01*
X2534468Y-11217031D02*
X2543991Y-11236079D01*
X2543991Y-11236079D02*
X2553515Y-11274174D01*
X2553515Y-11274174D02*
X2553515Y-11321793D01*
X2553515Y-11321793D02*
X2543991Y-11359888D01*
X2543991Y-11359888D02*
X2534468Y-11378936D01*
X2534468Y-11378936D02*
X2524944Y-11388460D01*
X2524944Y-11388460D02*
X2505896Y-11397984D01*
X2505896Y-11397984D02*
X2486848Y-11397984D01*
X2486848Y-11397984D02*
X2467801Y-11388460D01*
X2467801Y-11388460D02*
X2458277Y-11378936D01*
X2458277Y-11378936D02*
X2448753Y-11359888D01*
X2448753Y-11359888D02*
X2439229Y-11321793D01*
X2439229Y-11321793D02*
X2439229Y-11274174D01*
X2439229Y-11274174D02*
X2448753Y-11236079D01*
X2448753Y-11236079D02*
X2458277Y-11217031D01*
X2458277Y-11217031D02*
X2467801Y-11207508D01*
X2467801Y-11207508D02*
X2486848Y-11197984D01*
X2620182Y-11197984D02*
X2743991Y-11197984D01*
X2743991Y-11197984D02*
X2677325Y-11274174D01*
X2677325Y-11274174D02*
X2705896Y-11274174D01*
X2705896Y-11274174D02*
X2724944Y-11283698D01*
X2724944Y-11283698D02*
X2734468Y-11293222D01*
X2734468Y-11293222D02*
X2743991Y-11312269D01*
X2743991Y-11312269D02*
X2743991Y-11359888D01*
X2743991Y-11359888D02*
X2734468Y-11378936D01*
X2734468Y-11378936D02*
X2724944Y-11388460D01*
X2724944Y-11388460D02*
X2705896Y-11397984D01*
X2705896Y-11397984D02*
X2648753Y-11397984D01*
X2648753Y-11397984D02*
X2629706Y-11388460D01*
X2629706Y-11388460D02*
X2620182Y-11378936D01*
X2839229Y-11397984D02*
X2877325Y-11397984D01*
X2877325Y-11397984D02*
X2896372Y-11388460D01*
X2896372Y-11388460D02*
X2905896Y-11378936D01*
X2905896Y-11378936D02*
X2924944Y-11350365D01*
X2924944Y-11350365D02*
X2934467Y-11312269D01*
X2934467Y-11312269D02*
X2934467Y-11236079D01*
X2934467Y-11236079D02*
X2924944Y-11217031D01*
X2924944Y-11217031D02*
X2915420Y-11207508D01*
X2915420Y-11207508D02*
X2896372Y-11197984D01*
X2896372Y-11197984D02*
X2858277Y-11197984D01*
X2858277Y-11197984D02*
X2839229Y-11207508D01*
X2839229Y-11207508D02*
X2829706Y-11217031D01*
X2829706Y-11217031D02*
X2820182Y-11236079D01*
X2820182Y-11236079D02*
X2820182Y-11283698D01*
X2820182Y-11283698D02*
X2829706Y-11302746D01*
X2829706Y-11302746D02*
X2839229Y-11312269D01*
X2839229Y-11312269D02*
X2858277Y-11321793D01*
X2858277Y-11321793D02*
X2896372Y-11321793D01*
X2896372Y-11321793D02*
X2915420Y-11312269D01*
X2915420Y-11312269D02*
X2924944Y-11302746D01*
X2924944Y-11302746D02*
X2934467Y-11283698D01*
X3105896Y-11264650D02*
X3105896Y-11397984D01*
X3058277Y-11188460D02*
X3010658Y-11331317D01*
X3010658Y-11331317D02*
X3134467Y-11331317D01*
X3201134Y-11197984D02*
X3201134Y-11236079D01*
X3277325Y-11197984D02*
X3277325Y-11236079D01*
X3572563Y-11474174D02*
X3563039Y-11464650D01*
X3563039Y-11464650D02*
X3543991Y-11436079D01*
X3543991Y-11436079D02*
X3534468Y-11417031D01*
X3534468Y-11417031D02*
X3524944Y-11388460D01*
X3524944Y-11388460D02*
X3515420Y-11340841D01*
X3515420Y-11340841D02*
X3515420Y-11302746D01*
X3515420Y-11302746D02*
X3524944Y-11255127D01*
X3524944Y-11255127D02*
X3534468Y-11226555D01*
X3534468Y-11226555D02*
X3543991Y-11207508D01*
X3543991Y-11207508D02*
X3563039Y-11178936D01*
X3563039Y-11178936D02*
X3572563Y-11169412D01*
X3629706Y-11197984D02*
X3763039Y-11197984D01*
X3763039Y-11197984D02*
X3677325Y-11397984D01*
X3867801Y-11283698D02*
X3848753Y-11274174D01*
X3848753Y-11274174D02*
X3839229Y-11264650D01*
X3839229Y-11264650D02*
X3829706Y-11245603D01*
X3829706Y-11245603D02*
X3829706Y-11236079D01*
X3829706Y-11236079D02*
X3839229Y-11217031D01*
X3839229Y-11217031D02*
X3848753Y-11207508D01*
X3848753Y-11207508D02*
X3867801Y-11197984D01*
X3867801Y-11197984D02*
X3905896Y-11197984D01*
X3905896Y-11197984D02*
X3924944Y-11207508D01*
X3924944Y-11207508D02*
X3934468Y-11217031D01*
X3934468Y-11217031D02*
X3943991Y-11236079D01*
X3943991Y-11236079D02*
X3943991Y-11245603D01*
X3943991Y-11245603D02*
X3934468Y-11264650D01*
X3934468Y-11264650D02*
X3924944Y-11274174D01*
X3924944Y-11274174D02*
X3905896Y-11283698D01*
X3905896Y-11283698D02*
X3867801Y-11283698D01*
X3867801Y-11283698D02*
X3848753Y-11293222D01*
X3848753Y-11293222D02*
X3839229Y-11302746D01*
X3839229Y-11302746D02*
X3829706Y-11321793D01*
X3829706Y-11321793D02*
X3829706Y-11359888D01*
X3829706Y-11359888D02*
X3839229Y-11378936D01*
X3839229Y-11378936D02*
X3848753Y-11388460D01*
X3848753Y-11388460D02*
X3867801Y-11397984D01*
X3867801Y-11397984D02*
X3905896Y-11397984D01*
X3905896Y-11397984D02*
X3924944Y-11388460D01*
X3924944Y-11388460D02*
X3934468Y-11378936D01*
X3934468Y-11378936D02*
X3943991Y-11359888D01*
X3943991Y-11359888D02*
X3943991Y-11321793D01*
X3943991Y-11321793D02*
X3934468Y-11302746D01*
X3934468Y-11302746D02*
X3924944Y-11293222D01*
X3924944Y-11293222D02*
X3905896Y-11283698D01*
X4182087Y-11397984D02*
X4182087Y-11197984D01*
X4267801Y-11397984D02*
X4267801Y-11293222D01*
X4267801Y-11293222D02*
X4258277Y-11274174D01*
X4258277Y-11274174D02*
X4239230Y-11264650D01*
X4239230Y-11264650D02*
X4210658Y-11264650D01*
X4210658Y-11264650D02*
X4191610Y-11274174D01*
X4191610Y-11274174D02*
X4182087Y-11283698D01*
X4391611Y-11397984D02*
X4372563Y-11388460D01*
X4372563Y-11388460D02*
X4363039Y-11378936D01*
X4363039Y-11378936D02*
X4353515Y-11359888D01*
X4353515Y-11359888D02*
X4353515Y-11302746D01*
X4353515Y-11302746D02*
X4363039Y-11283698D01*
X4363039Y-11283698D02*
X4372563Y-11274174D01*
X4372563Y-11274174D02*
X4391611Y-11264650D01*
X4391611Y-11264650D02*
X4420182Y-11264650D01*
X4420182Y-11264650D02*
X4439230Y-11274174D01*
X4439230Y-11274174D02*
X4448753Y-11283698D01*
X4448753Y-11283698D02*
X4458277Y-11302746D01*
X4458277Y-11302746D02*
X4458277Y-11359888D01*
X4458277Y-11359888D02*
X4448753Y-11378936D01*
X4448753Y-11378936D02*
X4439230Y-11388460D01*
X4439230Y-11388460D02*
X4420182Y-11397984D01*
X4420182Y-11397984D02*
X4391611Y-11397984D01*
X4572563Y-11397984D02*
X4553515Y-11388460D01*
X4553515Y-11388460D02*
X4543992Y-11369412D01*
X4543992Y-11369412D02*
X4543992Y-11197984D01*
X4724944Y-11388460D02*
X4705896Y-11397984D01*
X4705896Y-11397984D02*
X4667801Y-11397984D01*
X4667801Y-11397984D02*
X4648753Y-11388460D01*
X4648753Y-11388460D02*
X4639230Y-11369412D01*
X4639230Y-11369412D02*
X4639230Y-11293222D01*
X4639230Y-11293222D02*
X4648753Y-11274174D01*
X4648753Y-11274174D02*
X4667801Y-11264650D01*
X4667801Y-11264650D02*
X4705896Y-11264650D01*
X4705896Y-11264650D02*
X4724944Y-11274174D01*
X4724944Y-11274174D02*
X4734468Y-11293222D01*
X4734468Y-11293222D02*
X4734468Y-11312269D01*
X4734468Y-11312269D02*
X4639230Y-11331317D01*
X4810658Y-11388460D02*
X4829706Y-11397984D01*
X4829706Y-11397984D02*
X4867801Y-11397984D01*
X4867801Y-11397984D02*
X4886849Y-11388460D01*
X4886849Y-11388460D02*
X4896373Y-11369412D01*
X4896373Y-11369412D02*
X4896373Y-11359888D01*
X4896373Y-11359888D02*
X4886849Y-11340841D01*
X4886849Y-11340841D02*
X4867801Y-11331317D01*
X4867801Y-11331317D02*
X4839230Y-11331317D01*
X4839230Y-11331317D02*
X4820182Y-11321793D01*
X4820182Y-11321793D02*
X4810658Y-11302746D01*
X4810658Y-11302746D02*
X4810658Y-11293222D01*
X4810658Y-11293222D02*
X4820182Y-11274174D01*
X4820182Y-11274174D02*
X4839230Y-11264650D01*
X4839230Y-11264650D02*
X4867801Y-11264650D01*
X4867801Y-11264650D02*
X4886849Y-11274174D01*
X4963039Y-11474174D02*
X4972563Y-11464650D01*
X4972563Y-11464650D02*
X4991611Y-11436079D01*
X4991611Y-11436079D02*
X5001134Y-11417031D01*
X5001134Y-11417031D02*
X5010658Y-11388460D01*
X5010658Y-11388460D02*
X5020182Y-11340841D01*
X5020182Y-11340841D02*
X5020182Y-11302746D01*
X5020182Y-11302746D02*
X5010658Y-11255127D01*
X5010658Y-11255127D02*
X5001134Y-11226555D01*
X5001134Y-11226555D02*
X4991611Y-11207508D01*
X4991611Y-11207508D02*
X4972563Y-11178936D01*
X4972563Y-11178936D02*
X4963039Y-11169412D01*
D13*
X-62500Y-11510500D02*
X-62500Y-11630500D01*
X-122500Y-11570500D02*
X-2500Y-11570500D01*
D11*
X363039Y-11661984D02*
X248753Y-11661984D01*
X305896Y-11661984D02*
X305896Y-11461984D01*
X305896Y-11461984D02*
X286848Y-11490555D01*
X286848Y-11490555D02*
X267801Y-11509603D01*
X267801Y-11509603D02*
X248753Y-11519127D01*
X458277Y-11652460D02*
X458277Y-11661984D01*
X458277Y-11661984D02*
X448753Y-11681031D01*
X448753Y-11681031D02*
X439229Y-11690555D01*
X534467Y-11481031D02*
X543991Y-11471508D01*
X543991Y-11471508D02*
X563039Y-11461984D01*
X563039Y-11461984D02*
X610658Y-11461984D01*
X610658Y-11461984D02*
X629705Y-11471508D01*
X629705Y-11471508D02*
X639229Y-11481031D01*
X639229Y-11481031D02*
X648753Y-11500079D01*
X648753Y-11500079D02*
X648753Y-11519127D01*
X648753Y-11519127D02*
X639229Y-11547698D01*
X639229Y-11547698D02*
X524944Y-11661984D01*
X524944Y-11661984D02*
X648753Y-11661984D01*
X772562Y-11461984D02*
X791610Y-11461984D01*
X791610Y-11461984D02*
X810658Y-11471508D01*
X810658Y-11471508D02*
X820182Y-11481031D01*
X820182Y-11481031D02*
X829705Y-11500079D01*
X829705Y-11500079D02*
X839229Y-11538174D01*
X839229Y-11538174D02*
X839229Y-11585793D01*
X839229Y-11585793D02*
X829705Y-11623888D01*
X829705Y-11623888D02*
X820182Y-11642936D01*
X820182Y-11642936D02*
X810658Y-11652460D01*
X810658Y-11652460D02*
X791610Y-11661984D01*
X791610Y-11661984D02*
X772562Y-11661984D01*
X772562Y-11661984D02*
X753515Y-11652460D01*
X753515Y-11652460D02*
X743991Y-11642936D01*
X743991Y-11642936D02*
X734467Y-11623888D01*
X734467Y-11623888D02*
X724943Y-11585793D01*
X724943Y-11585793D02*
X724943Y-11538174D01*
X724943Y-11538174D02*
X734467Y-11500079D01*
X734467Y-11500079D02*
X743991Y-11481031D01*
X743991Y-11481031D02*
X753515Y-11471508D01*
X753515Y-11471508D02*
X772562Y-11461984D01*
X963039Y-11461984D02*
X982086Y-11461984D01*
X982086Y-11461984D02*
X1001134Y-11471508D01*
X1001134Y-11471508D02*
X1010658Y-11481031D01*
X1010658Y-11481031D02*
X1020182Y-11500079D01*
X1020182Y-11500079D02*
X1029705Y-11538174D01*
X1029705Y-11538174D02*
X1029705Y-11585793D01*
X1029705Y-11585793D02*
X1020182Y-11623888D01*
X1020182Y-11623888D02*
X1010658Y-11642936D01*
X1010658Y-11642936D02*
X1001134Y-11652460D01*
X1001134Y-11652460D02*
X982086Y-11661984D01*
X982086Y-11661984D02*
X963039Y-11661984D01*
X963039Y-11661984D02*
X943991Y-11652460D01*
X943991Y-11652460D02*
X934467Y-11642936D01*
X934467Y-11642936D02*
X924943Y-11623888D01*
X924943Y-11623888D02*
X915420Y-11585793D01*
X915420Y-11585793D02*
X915420Y-11538174D01*
X915420Y-11538174D02*
X924943Y-11500079D01*
X924943Y-11500079D02*
X934467Y-11481031D01*
X934467Y-11481031D02*
X943991Y-11471508D01*
X943991Y-11471508D02*
X963039Y-11461984D01*
X1115420Y-11661984D02*
X1115420Y-11528650D01*
X1115420Y-11547698D02*
X1124944Y-11538174D01*
X1124944Y-11538174D02*
X1143991Y-11528650D01*
X1143991Y-11528650D02*
X1172563Y-11528650D01*
X1172563Y-11528650D02*
X1191610Y-11538174D01*
X1191610Y-11538174D02*
X1201134Y-11557222D01*
X1201134Y-11557222D02*
X1201134Y-11661984D01*
X1201134Y-11557222D02*
X1210658Y-11538174D01*
X1210658Y-11538174D02*
X1229705Y-11528650D01*
X1229705Y-11528650D02*
X1258277Y-11528650D01*
X1258277Y-11528650D02*
X1277325Y-11538174D01*
X1277325Y-11538174D02*
X1286848Y-11557222D01*
X1286848Y-11557222D02*
X1286848Y-11661984D01*
X1382086Y-11661984D02*
X1382086Y-11528650D01*
X1382086Y-11547698D02*
X1391610Y-11538174D01*
X1391610Y-11538174D02*
X1410658Y-11528650D01*
X1410658Y-11528650D02*
X1439229Y-11528650D01*
X1439229Y-11528650D02*
X1458277Y-11538174D01*
X1458277Y-11538174D02*
X1467801Y-11557222D01*
X1467801Y-11557222D02*
X1467801Y-11661984D01*
X1467801Y-11557222D02*
X1477324Y-11538174D01*
X1477324Y-11538174D02*
X1496372Y-11528650D01*
X1496372Y-11528650D02*
X1524943Y-11528650D01*
X1524943Y-11528650D02*
X1543991Y-11538174D01*
X1543991Y-11538174D02*
X1553515Y-11557222D01*
X1553515Y-11557222D02*
X1553515Y-11661984D01*
X1943991Y-11452460D02*
X1772563Y-11709603D01*
X2201134Y-11461984D02*
X2220182Y-11461984D01*
X2220182Y-11461984D02*
X2239229Y-11471508D01*
X2239229Y-11471508D02*
X2248753Y-11481031D01*
X2248753Y-11481031D02*
X2258277Y-11500079D01*
X2258277Y-11500079D02*
X2267801Y-11538174D01*
X2267801Y-11538174D02*
X2267801Y-11585793D01*
X2267801Y-11585793D02*
X2258277Y-11623888D01*
X2258277Y-11623888D02*
X2248753Y-11642936D01*
X2248753Y-11642936D02*
X2239229Y-11652460D01*
X2239229Y-11652460D02*
X2220182Y-11661984D01*
X2220182Y-11661984D02*
X2201134Y-11661984D01*
X2201134Y-11661984D02*
X2182087Y-11652460D01*
X2182087Y-11652460D02*
X2172563Y-11642936D01*
X2172563Y-11642936D02*
X2163039Y-11623888D01*
X2163039Y-11623888D02*
X2153515Y-11585793D01*
X2153515Y-11585793D02*
X2153515Y-11538174D01*
X2153515Y-11538174D02*
X2163039Y-11500079D01*
X2163039Y-11500079D02*
X2172563Y-11481031D01*
X2172563Y-11481031D02*
X2182087Y-11471508D01*
X2182087Y-11471508D02*
X2201134Y-11461984D01*
X2363039Y-11652460D02*
X2363039Y-11661984D01*
X2363039Y-11661984D02*
X2353515Y-11681031D01*
X2353515Y-11681031D02*
X2343991Y-11690555D01*
X2486848Y-11461984D02*
X2505896Y-11461984D01*
X2505896Y-11461984D02*
X2524944Y-11471508D01*
X2524944Y-11471508D02*
X2534468Y-11481031D01*
X2534468Y-11481031D02*
X2543991Y-11500079D01*
X2543991Y-11500079D02*
X2553515Y-11538174D01*
X2553515Y-11538174D02*
X2553515Y-11585793D01*
X2553515Y-11585793D02*
X2543991Y-11623888D01*
X2543991Y-11623888D02*
X2534468Y-11642936D01*
X2534468Y-11642936D02*
X2524944Y-11652460D01*
X2524944Y-11652460D02*
X2505896Y-11661984D01*
X2505896Y-11661984D02*
X2486848Y-11661984D01*
X2486848Y-11661984D02*
X2467801Y-11652460D01*
X2467801Y-11652460D02*
X2458277Y-11642936D01*
X2458277Y-11642936D02*
X2448753Y-11623888D01*
X2448753Y-11623888D02*
X2439229Y-11585793D01*
X2439229Y-11585793D02*
X2439229Y-11538174D01*
X2439229Y-11538174D02*
X2448753Y-11500079D01*
X2448753Y-11500079D02*
X2458277Y-11481031D01*
X2458277Y-11481031D02*
X2467801Y-11471508D01*
X2467801Y-11471508D02*
X2486848Y-11461984D01*
X2724944Y-11528650D02*
X2724944Y-11661984D01*
X2677325Y-11452460D02*
X2629706Y-11595317D01*
X2629706Y-11595317D02*
X2753515Y-11595317D01*
X2810658Y-11461984D02*
X2943991Y-11461984D01*
X2943991Y-11461984D02*
X2858277Y-11661984D01*
X3010658Y-11481031D02*
X3020182Y-11471508D01*
X3020182Y-11471508D02*
X3039229Y-11461984D01*
X3039229Y-11461984D02*
X3086848Y-11461984D01*
X3086848Y-11461984D02*
X3105896Y-11471508D01*
X3105896Y-11471508D02*
X3115420Y-11481031D01*
X3115420Y-11481031D02*
X3124944Y-11500079D01*
X3124944Y-11500079D02*
X3124944Y-11519127D01*
X3124944Y-11519127D02*
X3115420Y-11547698D01*
X3115420Y-11547698D02*
X3001134Y-11661984D01*
X3001134Y-11661984D02*
X3124944Y-11661984D01*
X3201134Y-11461984D02*
X3201134Y-11500079D01*
X3277325Y-11461984D02*
X3277325Y-11500079D01*
X3572563Y-11738174D02*
X3563039Y-11728650D01*
X3563039Y-11728650D02*
X3543991Y-11700079D01*
X3543991Y-11700079D02*
X3534468Y-11681031D01*
X3534468Y-11681031D02*
X3524944Y-11652460D01*
X3524944Y-11652460D02*
X3515420Y-11604841D01*
X3515420Y-11604841D02*
X3515420Y-11566746D01*
X3515420Y-11566746D02*
X3524944Y-11519127D01*
X3524944Y-11519127D02*
X3534468Y-11490555D01*
X3534468Y-11490555D02*
X3543991Y-11471508D01*
X3543991Y-11471508D02*
X3563039Y-11442936D01*
X3563039Y-11442936D02*
X3572563Y-11433412D01*
X3629706Y-11461984D02*
X3753515Y-11461984D01*
X3753515Y-11461984D02*
X3686848Y-11538174D01*
X3686848Y-11538174D02*
X3715420Y-11538174D01*
X3715420Y-11538174D02*
X3734468Y-11547698D01*
X3734468Y-11547698D02*
X3743991Y-11557222D01*
X3743991Y-11557222D02*
X3753515Y-11576269D01*
X3753515Y-11576269D02*
X3753515Y-11623888D01*
X3753515Y-11623888D02*
X3743991Y-11642936D01*
X3743991Y-11642936D02*
X3734468Y-11652460D01*
X3734468Y-11652460D02*
X3715420Y-11661984D01*
X3715420Y-11661984D02*
X3658277Y-11661984D01*
X3658277Y-11661984D02*
X3639229Y-11652460D01*
X3639229Y-11652460D02*
X3629706Y-11642936D01*
X3991610Y-11661984D02*
X3991610Y-11461984D01*
X4077325Y-11661984D02*
X4077325Y-11557222D01*
X4077325Y-11557222D02*
X4067801Y-11538174D01*
X4067801Y-11538174D02*
X4048753Y-11528650D01*
X4048753Y-11528650D02*
X4020182Y-11528650D01*
X4020182Y-11528650D02*
X4001134Y-11538174D01*
X4001134Y-11538174D02*
X3991610Y-11547698D01*
X4201134Y-11661984D02*
X4182087Y-11652460D01*
X4182087Y-11652460D02*
X4172563Y-11642936D01*
X4172563Y-11642936D02*
X4163039Y-11623888D01*
X4163039Y-11623888D02*
X4163039Y-11566746D01*
X4163039Y-11566746D02*
X4172563Y-11547698D01*
X4172563Y-11547698D02*
X4182087Y-11538174D01*
X4182087Y-11538174D02*
X4201134Y-11528650D01*
X4201134Y-11528650D02*
X4229706Y-11528650D01*
X4229706Y-11528650D02*
X4248753Y-11538174D01*
X4248753Y-11538174D02*
X4258277Y-11547698D01*
X4258277Y-11547698D02*
X4267801Y-11566746D01*
X4267801Y-11566746D02*
X4267801Y-11623888D01*
X4267801Y-11623888D02*
X4258277Y-11642936D01*
X4258277Y-11642936D02*
X4248753Y-11652460D01*
X4248753Y-11652460D02*
X4229706Y-11661984D01*
X4229706Y-11661984D02*
X4201134Y-11661984D01*
X4382087Y-11661984D02*
X4363039Y-11652460D01*
X4363039Y-11652460D02*
X4353515Y-11633412D01*
X4353515Y-11633412D02*
X4353515Y-11461984D01*
X4534468Y-11652460D02*
X4515420Y-11661984D01*
X4515420Y-11661984D02*
X4477325Y-11661984D01*
X4477325Y-11661984D02*
X4458277Y-11652460D01*
X4458277Y-11652460D02*
X4448753Y-11633412D01*
X4448753Y-11633412D02*
X4448753Y-11557222D01*
X4448753Y-11557222D02*
X4458277Y-11538174D01*
X4458277Y-11538174D02*
X4477325Y-11528650D01*
X4477325Y-11528650D02*
X4515420Y-11528650D01*
X4515420Y-11528650D02*
X4534468Y-11538174D01*
X4534468Y-11538174D02*
X4543992Y-11557222D01*
X4543992Y-11557222D02*
X4543992Y-11576269D01*
X4543992Y-11576269D02*
X4448753Y-11595317D01*
X4620182Y-11652460D02*
X4639230Y-11661984D01*
X4639230Y-11661984D02*
X4677325Y-11661984D01*
X4677325Y-11661984D02*
X4696373Y-11652460D01*
X4696373Y-11652460D02*
X4705896Y-11633412D01*
X4705896Y-11633412D02*
X4705896Y-11623888D01*
X4705896Y-11623888D02*
X4696373Y-11604841D01*
X4696373Y-11604841D02*
X4677325Y-11595317D01*
X4677325Y-11595317D02*
X4648753Y-11595317D01*
X4648753Y-11595317D02*
X4629706Y-11585793D01*
X4629706Y-11585793D02*
X4620182Y-11566746D01*
X4620182Y-11566746D02*
X4620182Y-11557222D01*
X4620182Y-11557222D02*
X4629706Y-11538174D01*
X4629706Y-11538174D02*
X4648753Y-11528650D01*
X4648753Y-11528650D02*
X4677325Y-11528650D01*
X4677325Y-11528650D02*
X4696373Y-11538174D01*
X4772563Y-11738174D02*
X4782087Y-11728650D01*
X4782087Y-11728650D02*
X4801134Y-11700079D01*
X4801134Y-11700079D02*
X4810658Y-11681031D01*
X4810658Y-11681031D02*
X4820182Y-11652460D01*
X4820182Y-11652460D02*
X4829706Y-11604841D01*
X4829706Y-11604841D02*
X4829706Y-11566746D01*
X4829706Y-11566746D02*
X4820182Y-11519127D01*
X4820182Y-11519127D02*
X4810658Y-11490555D01*
X4810658Y-11490555D02*
X4801134Y-11471508D01*
X4801134Y-11471508D02*
X4782087Y-11442936D01*
X4782087Y-11442936D02*
X4772563Y-11433412D01*
D14*
X-21538Y-11880462D02*
X-21538Y-11788538D01*
X-113462Y-11788538D01*
X-113462Y-11880462D01*
X-21538Y-11880462D01*
D11*
X363039Y-11925984D02*
X248753Y-11925984D01*
X305896Y-11925984D02*
X305896Y-11725984D01*
X305896Y-11725984D02*
X286848Y-11754555D01*
X286848Y-11754555D02*
X267801Y-11773603D01*
X267801Y-11773603D02*
X248753Y-11783127D01*
X458277Y-11916460D02*
X458277Y-11925984D01*
X458277Y-11925984D02*
X448753Y-11945031D01*
X448753Y-11945031D02*
X439229Y-11954555D01*
X524944Y-11725984D02*
X648753Y-11725984D01*
X648753Y-11725984D02*
X582086Y-11802174D01*
X582086Y-11802174D02*
X610658Y-11802174D01*
X610658Y-11802174D02*
X629705Y-11811698D01*
X629705Y-11811698D02*
X639229Y-11821222D01*
X639229Y-11821222D02*
X648753Y-11840269D01*
X648753Y-11840269D02*
X648753Y-11887888D01*
X648753Y-11887888D02*
X639229Y-11906936D01*
X639229Y-11906936D02*
X629705Y-11916460D01*
X629705Y-11916460D02*
X610658Y-11925984D01*
X610658Y-11925984D02*
X553515Y-11925984D01*
X553515Y-11925984D02*
X534467Y-11916460D01*
X534467Y-11916460D02*
X524944Y-11906936D01*
X772562Y-11725984D02*
X791610Y-11725984D01*
X791610Y-11725984D02*
X810658Y-11735508D01*
X810658Y-11735508D02*
X820182Y-11745031D01*
X820182Y-11745031D02*
X829705Y-11764079D01*
X829705Y-11764079D02*
X839229Y-11802174D01*
X839229Y-11802174D02*
X839229Y-11849793D01*
X839229Y-11849793D02*
X829705Y-11887888D01*
X829705Y-11887888D02*
X820182Y-11906936D01*
X820182Y-11906936D02*
X810658Y-11916460D01*
X810658Y-11916460D02*
X791610Y-11925984D01*
X791610Y-11925984D02*
X772562Y-11925984D01*
X772562Y-11925984D02*
X753515Y-11916460D01*
X753515Y-11916460D02*
X743991Y-11906936D01*
X743991Y-11906936D02*
X734467Y-11887888D01*
X734467Y-11887888D02*
X724943Y-11849793D01*
X724943Y-11849793D02*
X724943Y-11802174D01*
X724943Y-11802174D02*
X734467Y-11764079D01*
X734467Y-11764079D02*
X743991Y-11745031D01*
X743991Y-11745031D02*
X753515Y-11735508D01*
X753515Y-11735508D02*
X772562Y-11725984D01*
X963039Y-11725984D02*
X982086Y-11725984D01*
X982086Y-11725984D02*
X1001134Y-11735508D01*
X1001134Y-11735508D02*
X1010658Y-11745031D01*
X1010658Y-11745031D02*
X1020182Y-11764079D01*
X1020182Y-11764079D02*
X1029705Y-11802174D01*
X1029705Y-11802174D02*
X1029705Y-11849793D01*
X1029705Y-11849793D02*
X1020182Y-11887888D01*
X1020182Y-11887888D02*
X1010658Y-11906936D01*
X1010658Y-11906936D02*
X1001134Y-11916460D01*
X1001134Y-11916460D02*
X982086Y-11925984D01*
X982086Y-11925984D02*
X963039Y-11925984D01*
X963039Y-11925984D02*
X943991Y-11916460D01*
X943991Y-11916460D02*
X934467Y-11906936D01*
X934467Y-11906936D02*
X924943Y-11887888D01*
X924943Y-11887888D02*
X915420Y-11849793D01*
X915420Y-11849793D02*
X915420Y-11802174D01*
X915420Y-11802174D02*
X924943Y-11764079D01*
X924943Y-11764079D02*
X934467Y-11745031D01*
X934467Y-11745031D02*
X943991Y-11735508D01*
X943991Y-11735508D02*
X963039Y-11725984D01*
X1115420Y-11925984D02*
X1115420Y-11792650D01*
X1115420Y-11811698D02*
X1124944Y-11802174D01*
X1124944Y-11802174D02*
X1143991Y-11792650D01*
X1143991Y-11792650D02*
X1172563Y-11792650D01*
X1172563Y-11792650D02*
X1191610Y-11802174D01*
X1191610Y-11802174D02*
X1201134Y-11821222D01*
X1201134Y-11821222D02*
X1201134Y-11925984D01*
X1201134Y-11821222D02*
X1210658Y-11802174D01*
X1210658Y-11802174D02*
X1229705Y-11792650D01*
X1229705Y-11792650D02*
X1258277Y-11792650D01*
X1258277Y-11792650D02*
X1277325Y-11802174D01*
X1277325Y-11802174D02*
X1286848Y-11821222D01*
X1286848Y-11821222D02*
X1286848Y-11925984D01*
X1382086Y-11925984D02*
X1382086Y-11792650D01*
X1382086Y-11811698D02*
X1391610Y-11802174D01*
X1391610Y-11802174D02*
X1410658Y-11792650D01*
X1410658Y-11792650D02*
X1439229Y-11792650D01*
X1439229Y-11792650D02*
X1458277Y-11802174D01*
X1458277Y-11802174D02*
X1467801Y-11821222D01*
X1467801Y-11821222D02*
X1467801Y-11925984D01*
X1467801Y-11821222D02*
X1477324Y-11802174D01*
X1477324Y-11802174D02*
X1496372Y-11792650D01*
X1496372Y-11792650D02*
X1524943Y-11792650D01*
X1524943Y-11792650D02*
X1543991Y-11802174D01*
X1543991Y-11802174D02*
X1553515Y-11821222D01*
X1553515Y-11821222D02*
X1553515Y-11925984D01*
X1943991Y-11716460D02*
X1772563Y-11973603D01*
X2201134Y-11725984D02*
X2220182Y-11725984D01*
X2220182Y-11725984D02*
X2239229Y-11735508D01*
X2239229Y-11735508D02*
X2248753Y-11745031D01*
X2248753Y-11745031D02*
X2258277Y-11764079D01*
X2258277Y-11764079D02*
X2267801Y-11802174D01*
X2267801Y-11802174D02*
X2267801Y-11849793D01*
X2267801Y-11849793D02*
X2258277Y-11887888D01*
X2258277Y-11887888D02*
X2248753Y-11906936D01*
X2248753Y-11906936D02*
X2239229Y-11916460D01*
X2239229Y-11916460D02*
X2220182Y-11925984D01*
X2220182Y-11925984D02*
X2201134Y-11925984D01*
X2201134Y-11925984D02*
X2182087Y-11916460D01*
X2182087Y-11916460D02*
X2172563Y-11906936D01*
X2172563Y-11906936D02*
X2163039Y-11887888D01*
X2163039Y-11887888D02*
X2153515Y-11849793D01*
X2153515Y-11849793D02*
X2153515Y-11802174D01*
X2153515Y-11802174D02*
X2163039Y-11764079D01*
X2163039Y-11764079D02*
X2172563Y-11745031D01*
X2172563Y-11745031D02*
X2182087Y-11735508D01*
X2182087Y-11735508D02*
X2201134Y-11725984D01*
X2363039Y-11916460D02*
X2363039Y-11925984D01*
X2363039Y-11925984D02*
X2353515Y-11945031D01*
X2353515Y-11945031D02*
X2343991Y-11954555D01*
X2486848Y-11725984D02*
X2505896Y-11725984D01*
X2505896Y-11725984D02*
X2524944Y-11735508D01*
X2524944Y-11735508D02*
X2534468Y-11745031D01*
X2534468Y-11745031D02*
X2543991Y-11764079D01*
X2543991Y-11764079D02*
X2553515Y-11802174D01*
X2553515Y-11802174D02*
X2553515Y-11849793D01*
X2553515Y-11849793D02*
X2543991Y-11887888D01*
X2543991Y-11887888D02*
X2534468Y-11906936D01*
X2534468Y-11906936D02*
X2524944Y-11916460D01*
X2524944Y-11916460D02*
X2505896Y-11925984D01*
X2505896Y-11925984D02*
X2486848Y-11925984D01*
X2486848Y-11925984D02*
X2467801Y-11916460D01*
X2467801Y-11916460D02*
X2458277Y-11906936D01*
X2458277Y-11906936D02*
X2448753Y-11887888D01*
X2448753Y-11887888D02*
X2439229Y-11849793D01*
X2439229Y-11849793D02*
X2439229Y-11802174D01*
X2439229Y-11802174D02*
X2448753Y-11764079D01*
X2448753Y-11764079D02*
X2458277Y-11745031D01*
X2458277Y-11745031D02*
X2467801Y-11735508D01*
X2467801Y-11735508D02*
X2486848Y-11725984D01*
X2734468Y-11725984D02*
X2639229Y-11725984D01*
X2639229Y-11725984D02*
X2629706Y-11821222D01*
X2629706Y-11821222D02*
X2639229Y-11811698D01*
X2639229Y-11811698D02*
X2658277Y-11802174D01*
X2658277Y-11802174D02*
X2705896Y-11802174D01*
X2705896Y-11802174D02*
X2724944Y-11811698D01*
X2724944Y-11811698D02*
X2734468Y-11821222D01*
X2734468Y-11821222D02*
X2743991Y-11840269D01*
X2743991Y-11840269D02*
X2743991Y-11887888D01*
X2743991Y-11887888D02*
X2734468Y-11906936D01*
X2734468Y-11906936D02*
X2724944Y-11916460D01*
X2724944Y-11916460D02*
X2705896Y-11925984D01*
X2705896Y-11925984D02*
X2658277Y-11925984D01*
X2658277Y-11925984D02*
X2639229Y-11916460D01*
X2639229Y-11916460D02*
X2629706Y-11906936D01*
X2934467Y-11925984D02*
X2820182Y-11925984D01*
X2877325Y-11925984D02*
X2877325Y-11725984D01*
X2877325Y-11725984D02*
X2858277Y-11754555D01*
X2858277Y-11754555D02*
X2839229Y-11773603D01*
X2839229Y-11773603D02*
X2820182Y-11783127D01*
X3010658Y-11745031D02*
X3020182Y-11735508D01*
X3020182Y-11735508D02*
X3039229Y-11725984D01*
X3039229Y-11725984D02*
X3086848Y-11725984D01*
X3086848Y-11725984D02*
X3105896Y-11735508D01*
X3105896Y-11735508D02*
X3115420Y-11745031D01*
X3115420Y-11745031D02*
X3124944Y-11764079D01*
X3124944Y-11764079D02*
X3124944Y-11783127D01*
X3124944Y-11783127D02*
X3115420Y-11811698D01*
X3115420Y-11811698D02*
X3001134Y-11925984D01*
X3001134Y-11925984D02*
X3124944Y-11925984D01*
X3201134Y-11725984D02*
X3201134Y-11764079D01*
X3277325Y-11725984D02*
X3277325Y-11764079D01*
X3572563Y-12002174D02*
X3563039Y-11992650D01*
X3563039Y-11992650D02*
X3543991Y-11964079D01*
X3543991Y-11964079D02*
X3534468Y-11945031D01*
X3534468Y-11945031D02*
X3524944Y-11916460D01*
X3524944Y-11916460D02*
X3515420Y-11868841D01*
X3515420Y-11868841D02*
X3515420Y-11830746D01*
X3515420Y-11830746D02*
X3524944Y-11783127D01*
X3524944Y-11783127D02*
X3534468Y-11754555D01*
X3534468Y-11754555D02*
X3543991Y-11735508D01*
X3543991Y-11735508D02*
X3563039Y-11706936D01*
X3563039Y-11706936D02*
X3572563Y-11697412D01*
X3734468Y-11725984D02*
X3696372Y-11725984D01*
X3696372Y-11725984D02*
X3677325Y-11735508D01*
X3677325Y-11735508D02*
X3667801Y-11745031D01*
X3667801Y-11745031D02*
X3648753Y-11773603D01*
X3648753Y-11773603D02*
X3639229Y-11811698D01*
X3639229Y-11811698D02*
X3639229Y-11887888D01*
X3639229Y-11887888D02*
X3648753Y-11906936D01*
X3648753Y-11906936D02*
X3658277Y-11916460D01*
X3658277Y-11916460D02*
X3677325Y-11925984D01*
X3677325Y-11925984D02*
X3715420Y-11925984D01*
X3715420Y-11925984D02*
X3734468Y-11916460D01*
X3734468Y-11916460D02*
X3743991Y-11906936D01*
X3743991Y-11906936D02*
X3753515Y-11887888D01*
X3753515Y-11887888D02*
X3753515Y-11840269D01*
X3753515Y-11840269D02*
X3743991Y-11821222D01*
X3743991Y-11821222D02*
X3734468Y-11811698D01*
X3734468Y-11811698D02*
X3715420Y-11802174D01*
X3715420Y-11802174D02*
X3677325Y-11802174D01*
X3677325Y-11802174D02*
X3658277Y-11811698D01*
X3658277Y-11811698D02*
X3648753Y-11821222D01*
X3648753Y-11821222D02*
X3639229Y-11840269D01*
X3991610Y-11925984D02*
X3991610Y-11725984D01*
X4077325Y-11925984D02*
X4077325Y-11821222D01*
X4077325Y-11821222D02*
X4067801Y-11802174D01*
X4067801Y-11802174D02*
X4048753Y-11792650D01*
X4048753Y-11792650D02*
X4020182Y-11792650D01*
X4020182Y-11792650D02*
X4001134Y-11802174D01*
X4001134Y-11802174D02*
X3991610Y-11811698D01*
X4201134Y-11925984D02*
X4182087Y-11916460D01*
X4182087Y-11916460D02*
X4172563Y-11906936D01*
X4172563Y-11906936D02*
X4163039Y-11887888D01*
X4163039Y-11887888D02*
X4163039Y-11830746D01*
X4163039Y-11830746D02*
X4172563Y-11811698D01*
X4172563Y-11811698D02*
X4182087Y-11802174D01*
X4182087Y-11802174D02*
X4201134Y-11792650D01*
X4201134Y-11792650D02*
X4229706Y-11792650D01*
X4229706Y-11792650D02*
X4248753Y-11802174D01*
X4248753Y-11802174D02*
X4258277Y-11811698D01*
X4258277Y-11811698D02*
X4267801Y-11830746D01*
X4267801Y-11830746D02*
X4267801Y-11887888D01*
X4267801Y-11887888D02*
X4258277Y-11906936D01*
X4258277Y-11906936D02*
X4248753Y-11916460D01*
X4248753Y-11916460D02*
X4229706Y-11925984D01*
X4229706Y-11925984D02*
X4201134Y-11925984D01*
X4382087Y-11925984D02*
X4363039Y-11916460D01*
X4363039Y-11916460D02*
X4353515Y-11897412D01*
X4353515Y-11897412D02*
X4353515Y-11725984D01*
X4534468Y-11916460D02*
X4515420Y-11925984D01*
X4515420Y-11925984D02*
X4477325Y-11925984D01*
X4477325Y-11925984D02*
X4458277Y-11916460D01*
X4458277Y-11916460D02*
X4448753Y-11897412D01*
X4448753Y-11897412D02*
X4448753Y-11821222D01*
X4448753Y-11821222D02*
X4458277Y-11802174D01*
X4458277Y-11802174D02*
X4477325Y-11792650D01*
X4477325Y-11792650D02*
X4515420Y-11792650D01*
X4515420Y-11792650D02*
X4534468Y-11802174D01*
X4534468Y-11802174D02*
X4543992Y-11821222D01*
X4543992Y-11821222D02*
X4543992Y-11840269D01*
X4543992Y-11840269D02*
X4448753Y-11859317D01*
X4620182Y-11916460D02*
X4639230Y-11925984D01*
X4639230Y-11925984D02*
X4677325Y-11925984D01*
X4677325Y-11925984D02*
X4696373Y-11916460D01*
X4696373Y-11916460D02*
X4705896Y-11897412D01*
X4705896Y-11897412D02*
X4705896Y-11887888D01*
X4705896Y-11887888D02*
X4696373Y-11868841D01*
X4696373Y-11868841D02*
X4677325Y-11859317D01*
X4677325Y-11859317D02*
X4648753Y-11859317D01*
X4648753Y-11859317D02*
X4629706Y-11849793D01*
X4629706Y-11849793D02*
X4620182Y-11830746D01*
X4620182Y-11830746D02*
X4620182Y-11821222D01*
X4620182Y-11821222D02*
X4629706Y-11802174D01*
X4629706Y-11802174D02*
X4648753Y-11792650D01*
X4648753Y-11792650D02*
X4677325Y-11792650D01*
X4677325Y-11792650D02*
X4696373Y-11802174D01*
X4772563Y-12002174D02*
X4782087Y-11992650D01*
X4782087Y-11992650D02*
X4801134Y-11964079D01*
X4801134Y-11964079D02*
X4810658Y-11945031D01*
X4810658Y-11945031D02*
X4820182Y-11916460D01*
X4820182Y-11916460D02*
X4829706Y-11868841D01*
X4829706Y-11868841D02*
X4829706Y-11830746D01*
X4829706Y-11830746D02*
X4820182Y-11783127D01*
X4820182Y-11783127D02*
X4810658Y-11754555D01*
X4810658Y-11754555D02*
X4801134Y-11735508D01*
X4801134Y-11735508D02*
X4782087Y-11706936D01*
X4782087Y-11706936D02*
X4772563Y-11697412D01*
D15*
X-72500Y-12168500D02*
X-2500Y-12098500D01*
X-72500Y-12028500D01*
X-142500Y-12098500D01*
X-72500Y-12168500D01*
D11*
X363039Y-12189984D02*
X248753Y-12189984D01*
X305896Y-12189984D02*
X305896Y-11989984D01*
X305896Y-11989984D02*
X286848Y-12018555D01*
X286848Y-12018555D02*
X267801Y-12037603D01*
X267801Y-12037603D02*
X248753Y-12047127D01*
X458277Y-12180460D02*
X458277Y-12189984D01*
X458277Y-12189984D02*
X448753Y-12209031D01*
X448753Y-12209031D02*
X439229Y-12218555D01*
X629705Y-12056650D02*
X629705Y-12189984D01*
X582086Y-11980460D02*
X534467Y-12123317D01*
X534467Y-12123317D02*
X658277Y-12123317D01*
X772562Y-11989984D02*
X791610Y-11989984D01*
X791610Y-11989984D02*
X810658Y-11999508D01*
X810658Y-11999508D02*
X820182Y-12009031D01*
X820182Y-12009031D02*
X829705Y-12028079D01*
X829705Y-12028079D02*
X839229Y-12066174D01*
X839229Y-12066174D02*
X839229Y-12113793D01*
X839229Y-12113793D02*
X829705Y-12151888D01*
X829705Y-12151888D02*
X820182Y-12170936D01*
X820182Y-12170936D02*
X810658Y-12180460D01*
X810658Y-12180460D02*
X791610Y-12189984D01*
X791610Y-12189984D02*
X772562Y-12189984D01*
X772562Y-12189984D02*
X753515Y-12180460D01*
X753515Y-12180460D02*
X743991Y-12170936D01*
X743991Y-12170936D02*
X734467Y-12151888D01*
X734467Y-12151888D02*
X724943Y-12113793D01*
X724943Y-12113793D02*
X724943Y-12066174D01*
X724943Y-12066174D02*
X734467Y-12028079D01*
X734467Y-12028079D02*
X743991Y-12009031D01*
X743991Y-12009031D02*
X753515Y-11999508D01*
X753515Y-11999508D02*
X772562Y-11989984D01*
X963039Y-11989984D02*
X982086Y-11989984D01*
X982086Y-11989984D02*
X1001134Y-11999508D01*
X1001134Y-11999508D02*
X1010658Y-12009031D01*
X1010658Y-12009031D02*
X1020182Y-12028079D01*
X1020182Y-12028079D02*
X1029705Y-12066174D01*
X1029705Y-12066174D02*
X1029705Y-12113793D01*
X1029705Y-12113793D02*
X1020182Y-12151888D01*
X1020182Y-12151888D02*
X1010658Y-12170936D01*
X1010658Y-12170936D02*
X1001134Y-12180460D01*
X1001134Y-12180460D02*
X982086Y-12189984D01*
X982086Y-12189984D02*
X963039Y-12189984D01*
X963039Y-12189984D02*
X943991Y-12180460D01*
X943991Y-12180460D02*
X934467Y-12170936D01*
X934467Y-12170936D02*
X924943Y-12151888D01*
X924943Y-12151888D02*
X915420Y-12113793D01*
X915420Y-12113793D02*
X915420Y-12066174D01*
X915420Y-12066174D02*
X924943Y-12028079D01*
X924943Y-12028079D02*
X934467Y-12009031D01*
X934467Y-12009031D02*
X943991Y-11999508D01*
X943991Y-11999508D02*
X963039Y-11989984D01*
X1115420Y-12189984D02*
X1115420Y-12056650D01*
X1115420Y-12075698D02*
X1124944Y-12066174D01*
X1124944Y-12066174D02*
X1143991Y-12056650D01*
X1143991Y-12056650D02*
X1172563Y-12056650D01*
X1172563Y-12056650D02*
X1191610Y-12066174D01*
X1191610Y-12066174D02*
X1201134Y-12085222D01*
X1201134Y-12085222D02*
X1201134Y-12189984D01*
X1201134Y-12085222D02*
X1210658Y-12066174D01*
X1210658Y-12066174D02*
X1229705Y-12056650D01*
X1229705Y-12056650D02*
X1258277Y-12056650D01*
X1258277Y-12056650D02*
X1277325Y-12066174D01*
X1277325Y-12066174D02*
X1286848Y-12085222D01*
X1286848Y-12085222D02*
X1286848Y-12189984D01*
X1382086Y-12189984D02*
X1382086Y-12056650D01*
X1382086Y-12075698D02*
X1391610Y-12066174D01*
X1391610Y-12066174D02*
X1410658Y-12056650D01*
X1410658Y-12056650D02*
X1439229Y-12056650D01*
X1439229Y-12056650D02*
X1458277Y-12066174D01*
X1458277Y-12066174D02*
X1467801Y-12085222D01*
X1467801Y-12085222D02*
X1467801Y-12189984D01*
X1467801Y-12085222D02*
X1477324Y-12066174D01*
X1477324Y-12066174D02*
X1496372Y-12056650D01*
X1496372Y-12056650D02*
X1524943Y-12056650D01*
X1524943Y-12056650D02*
X1543991Y-12066174D01*
X1543991Y-12066174D02*
X1553515Y-12085222D01*
X1553515Y-12085222D02*
X1553515Y-12189984D01*
X1943991Y-11980460D02*
X1772563Y-12237603D01*
X2201134Y-11989984D02*
X2220182Y-11989984D01*
X2220182Y-11989984D02*
X2239229Y-11999508D01*
X2239229Y-11999508D02*
X2248753Y-12009031D01*
X2248753Y-12009031D02*
X2258277Y-12028079D01*
X2258277Y-12028079D02*
X2267801Y-12066174D01*
X2267801Y-12066174D02*
X2267801Y-12113793D01*
X2267801Y-12113793D02*
X2258277Y-12151888D01*
X2258277Y-12151888D02*
X2248753Y-12170936D01*
X2248753Y-12170936D02*
X2239229Y-12180460D01*
X2239229Y-12180460D02*
X2220182Y-12189984D01*
X2220182Y-12189984D02*
X2201134Y-12189984D01*
X2201134Y-12189984D02*
X2182087Y-12180460D01*
X2182087Y-12180460D02*
X2172563Y-12170936D01*
X2172563Y-12170936D02*
X2163039Y-12151888D01*
X2163039Y-12151888D02*
X2153515Y-12113793D01*
X2153515Y-12113793D02*
X2153515Y-12066174D01*
X2153515Y-12066174D02*
X2163039Y-12028079D01*
X2163039Y-12028079D02*
X2172563Y-12009031D01*
X2172563Y-12009031D02*
X2182087Y-11999508D01*
X2182087Y-11999508D02*
X2201134Y-11989984D01*
X2363039Y-12180460D02*
X2363039Y-12189984D01*
X2363039Y-12189984D02*
X2353515Y-12209031D01*
X2353515Y-12209031D02*
X2343991Y-12218555D01*
X2486848Y-11989984D02*
X2505896Y-11989984D01*
X2505896Y-11989984D02*
X2524944Y-11999508D01*
X2524944Y-11999508D02*
X2534468Y-12009031D01*
X2534468Y-12009031D02*
X2543991Y-12028079D01*
X2543991Y-12028079D02*
X2553515Y-12066174D01*
X2553515Y-12066174D02*
X2553515Y-12113793D01*
X2553515Y-12113793D02*
X2543991Y-12151888D01*
X2543991Y-12151888D02*
X2534468Y-12170936D01*
X2534468Y-12170936D02*
X2524944Y-12180460D01*
X2524944Y-12180460D02*
X2505896Y-12189984D01*
X2505896Y-12189984D02*
X2486848Y-12189984D01*
X2486848Y-12189984D02*
X2467801Y-12180460D01*
X2467801Y-12180460D02*
X2458277Y-12170936D01*
X2458277Y-12170936D02*
X2448753Y-12151888D01*
X2448753Y-12151888D02*
X2439229Y-12113793D01*
X2439229Y-12113793D02*
X2439229Y-12066174D01*
X2439229Y-12066174D02*
X2448753Y-12028079D01*
X2448753Y-12028079D02*
X2458277Y-12009031D01*
X2458277Y-12009031D02*
X2467801Y-11999508D01*
X2467801Y-11999508D02*
X2486848Y-11989984D01*
X2734468Y-11989984D02*
X2639229Y-11989984D01*
X2639229Y-11989984D02*
X2629706Y-12085222D01*
X2629706Y-12085222D02*
X2639229Y-12075698D01*
X2639229Y-12075698D02*
X2658277Y-12066174D01*
X2658277Y-12066174D02*
X2705896Y-12066174D01*
X2705896Y-12066174D02*
X2724944Y-12075698D01*
X2724944Y-12075698D02*
X2734468Y-12085222D01*
X2734468Y-12085222D02*
X2743991Y-12104269D01*
X2743991Y-12104269D02*
X2743991Y-12151888D01*
X2743991Y-12151888D02*
X2734468Y-12170936D01*
X2734468Y-12170936D02*
X2724944Y-12180460D01*
X2724944Y-12180460D02*
X2705896Y-12189984D01*
X2705896Y-12189984D02*
X2658277Y-12189984D01*
X2658277Y-12189984D02*
X2639229Y-12180460D01*
X2639229Y-12180460D02*
X2629706Y-12170936D01*
X2924944Y-11989984D02*
X2829706Y-11989984D01*
X2829706Y-11989984D02*
X2820182Y-12085222D01*
X2820182Y-12085222D02*
X2829706Y-12075698D01*
X2829706Y-12075698D02*
X2848753Y-12066174D01*
X2848753Y-12066174D02*
X2896372Y-12066174D01*
X2896372Y-12066174D02*
X2915420Y-12075698D01*
X2915420Y-12075698D02*
X2924944Y-12085222D01*
X2924944Y-12085222D02*
X2934467Y-12104269D01*
X2934467Y-12104269D02*
X2934467Y-12151888D01*
X2934467Y-12151888D02*
X2924944Y-12170936D01*
X2924944Y-12170936D02*
X2915420Y-12180460D01*
X2915420Y-12180460D02*
X2896372Y-12189984D01*
X2896372Y-12189984D02*
X2848753Y-12189984D01*
X2848753Y-12189984D02*
X2829706Y-12180460D01*
X2829706Y-12180460D02*
X2820182Y-12170936D01*
X3124944Y-12189984D02*
X3010658Y-12189984D01*
X3067801Y-12189984D02*
X3067801Y-11989984D01*
X3067801Y-11989984D02*
X3048753Y-12018555D01*
X3048753Y-12018555D02*
X3029706Y-12037603D01*
X3029706Y-12037603D02*
X3010658Y-12047127D01*
X3201134Y-11989984D02*
X3201134Y-12028079D01*
X3277325Y-11989984D02*
X3277325Y-12028079D01*
X3572563Y-12266174D02*
X3563039Y-12256650D01*
X3563039Y-12256650D02*
X3543991Y-12228079D01*
X3543991Y-12228079D02*
X3534468Y-12209031D01*
X3534468Y-12209031D02*
X3524944Y-12180460D01*
X3524944Y-12180460D02*
X3515420Y-12132841D01*
X3515420Y-12132841D02*
X3515420Y-12094746D01*
X3515420Y-12094746D02*
X3524944Y-12047127D01*
X3524944Y-12047127D02*
X3534468Y-12018555D01*
X3534468Y-12018555D02*
X3543991Y-11999508D01*
X3543991Y-11999508D02*
X3563039Y-11970936D01*
X3563039Y-11970936D02*
X3572563Y-11961412D01*
X3734468Y-12056650D02*
X3734468Y-12189984D01*
X3686848Y-11980460D02*
X3639229Y-12123317D01*
X3639229Y-12123317D02*
X3763039Y-12123317D01*
X3991610Y-12189984D02*
X3991610Y-11989984D01*
X4077325Y-12189984D02*
X4077325Y-12085222D01*
X4077325Y-12085222D02*
X4067801Y-12066174D01*
X4067801Y-12066174D02*
X4048753Y-12056650D01*
X4048753Y-12056650D02*
X4020182Y-12056650D01*
X4020182Y-12056650D02*
X4001134Y-12066174D01*
X4001134Y-12066174D02*
X3991610Y-12075698D01*
X4201134Y-12189984D02*
X4182087Y-12180460D01*
X4182087Y-12180460D02*
X4172563Y-12170936D01*
X4172563Y-12170936D02*
X4163039Y-12151888D01*
X4163039Y-12151888D02*
X4163039Y-12094746D01*
X4163039Y-12094746D02*
X4172563Y-12075698D01*
X4172563Y-12075698D02*
X4182087Y-12066174D01*
X4182087Y-12066174D02*
X4201134Y-12056650D01*
X4201134Y-12056650D02*
X4229706Y-12056650D01*
X4229706Y-12056650D02*
X4248753Y-12066174D01*
X4248753Y-12066174D02*
X4258277Y-12075698D01*
X4258277Y-12075698D02*
X4267801Y-12094746D01*
X4267801Y-12094746D02*
X4267801Y-12151888D01*
X4267801Y-12151888D02*
X4258277Y-12170936D01*
X4258277Y-12170936D02*
X4248753Y-12180460D01*
X4248753Y-12180460D02*
X4229706Y-12189984D01*
X4229706Y-12189984D02*
X4201134Y-12189984D01*
X4382087Y-12189984D02*
X4363039Y-12180460D01*
X4363039Y-12180460D02*
X4353515Y-12161412D01*
X4353515Y-12161412D02*
X4353515Y-11989984D01*
X4534468Y-12180460D02*
X4515420Y-12189984D01*
X4515420Y-12189984D02*
X4477325Y-12189984D01*
X4477325Y-12189984D02*
X4458277Y-12180460D01*
X4458277Y-12180460D02*
X4448753Y-12161412D01*
X4448753Y-12161412D02*
X4448753Y-12085222D01*
X4448753Y-12085222D02*
X4458277Y-12066174D01*
X4458277Y-12066174D02*
X4477325Y-12056650D01*
X4477325Y-12056650D02*
X4515420Y-12056650D01*
X4515420Y-12056650D02*
X4534468Y-12066174D01*
X4534468Y-12066174D02*
X4543992Y-12085222D01*
X4543992Y-12085222D02*
X4543992Y-12104269D01*
X4543992Y-12104269D02*
X4448753Y-12123317D01*
X4620182Y-12180460D02*
X4639230Y-12189984D01*
X4639230Y-12189984D02*
X4677325Y-12189984D01*
X4677325Y-12189984D02*
X4696373Y-12180460D01*
X4696373Y-12180460D02*
X4705896Y-12161412D01*
X4705896Y-12161412D02*
X4705896Y-12151888D01*
X4705896Y-12151888D02*
X4696373Y-12132841D01*
X4696373Y-12132841D02*
X4677325Y-12123317D01*
X4677325Y-12123317D02*
X4648753Y-12123317D01*
X4648753Y-12123317D02*
X4629706Y-12113793D01*
X4629706Y-12113793D02*
X4620182Y-12094746D01*
X4620182Y-12094746D02*
X4620182Y-12085222D01*
X4620182Y-12085222D02*
X4629706Y-12066174D01*
X4629706Y-12066174D02*
X4648753Y-12056650D01*
X4648753Y-12056650D02*
X4677325Y-12056650D01*
X4677325Y-12056650D02*
X4696373Y-12066174D01*
X4772563Y-12266174D02*
X4782087Y-12256650D01*
X4782087Y-12256650D02*
X4801134Y-12228079D01*
X4801134Y-12228079D02*
X4810658Y-12209031D01*
X4810658Y-12209031D02*
X4820182Y-12180460D01*
X4820182Y-12180460D02*
X4829706Y-12132841D01*
X4829706Y-12132841D02*
X4829706Y-12094746D01*
X4829706Y-12094746D02*
X4820182Y-12047127D01*
X4820182Y-12047127D02*
X4810658Y-12018555D01*
X4810658Y-12018555D02*
X4801134Y-11999508D01*
X4801134Y-11999508D02*
X4782087Y-11970936D01*
X4782087Y-11970936D02*
X4772563Y-11961412D01*
D16*
X-172500Y-12277500D02*
X-2500Y-12447500D01*
X-2500Y-12277500D02*
X-172500Y-12447500D01*
X-2500Y-12362500D02*
G75*
G02*
X-172500Y-12362500I-85000J0D01*
G01*
X-172500Y-12362500D02*
G75*
G02*
X-2500Y-12362500I85000J0D01*
G01*
D11*
X363039Y-12453984D02*
X248753Y-12453984D01*
X305896Y-12453984D02*
X305896Y-12253984D01*
X305896Y-12253984D02*
X286848Y-12282555D01*
X286848Y-12282555D02*
X267801Y-12301603D01*
X267801Y-12301603D02*
X248753Y-12311127D01*
X458277Y-12444460D02*
X458277Y-12453984D01*
X458277Y-12453984D02*
X448753Y-12473031D01*
X448753Y-12473031D02*
X439229Y-12482555D01*
X524944Y-12253984D02*
X658277Y-12253984D01*
X658277Y-12253984D02*
X572563Y-12453984D01*
X772562Y-12253984D02*
X791610Y-12253984D01*
X791610Y-12253984D02*
X810658Y-12263508D01*
X810658Y-12263508D02*
X820182Y-12273031D01*
X820182Y-12273031D02*
X829705Y-12292079D01*
X829705Y-12292079D02*
X839229Y-12330174D01*
X839229Y-12330174D02*
X839229Y-12377793D01*
X839229Y-12377793D02*
X829705Y-12415888D01*
X829705Y-12415888D02*
X820182Y-12434936D01*
X820182Y-12434936D02*
X810658Y-12444460D01*
X810658Y-12444460D02*
X791610Y-12453984D01*
X791610Y-12453984D02*
X772562Y-12453984D01*
X772562Y-12453984D02*
X753515Y-12444460D01*
X753515Y-12444460D02*
X743991Y-12434936D01*
X743991Y-12434936D02*
X734467Y-12415888D01*
X734467Y-12415888D02*
X724943Y-12377793D01*
X724943Y-12377793D02*
X724943Y-12330174D01*
X724943Y-12330174D02*
X734467Y-12292079D01*
X734467Y-12292079D02*
X743991Y-12273031D01*
X743991Y-12273031D02*
X753515Y-12263508D01*
X753515Y-12263508D02*
X772562Y-12253984D01*
X963039Y-12253984D02*
X982086Y-12253984D01*
X982086Y-12253984D02*
X1001134Y-12263508D01*
X1001134Y-12263508D02*
X1010658Y-12273031D01*
X1010658Y-12273031D02*
X1020182Y-12292079D01*
X1020182Y-12292079D02*
X1029705Y-12330174D01*
X1029705Y-12330174D02*
X1029705Y-12377793D01*
X1029705Y-12377793D02*
X1020182Y-12415888D01*
X1020182Y-12415888D02*
X1010658Y-12434936D01*
X1010658Y-12434936D02*
X1001134Y-12444460D01*
X1001134Y-12444460D02*
X982086Y-12453984D01*
X982086Y-12453984D02*
X963039Y-12453984D01*
X963039Y-12453984D02*
X943991Y-12444460D01*
X943991Y-12444460D02*
X934467Y-12434936D01*
X934467Y-12434936D02*
X924943Y-12415888D01*
X924943Y-12415888D02*
X915420Y-12377793D01*
X915420Y-12377793D02*
X915420Y-12330174D01*
X915420Y-12330174D02*
X924943Y-12292079D01*
X924943Y-12292079D02*
X934467Y-12273031D01*
X934467Y-12273031D02*
X943991Y-12263508D01*
X943991Y-12263508D02*
X963039Y-12253984D01*
X1115420Y-12453984D02*
X1115420Y-12320650D01*
X1115420Y-12339698D02*
X1124944Y-12330174D01*
X1124944Y-12330174D02*
X1143991Y-12320650D01*
X1143991Y-12320650D02*
X1172563Y-12320650D01*
X1172563Y-12320650D02*
X1191610Y-12330174D01*
X1191610Y-12330174D02*
X1201134Y-12349222D01*
X1201134Y-12349222D02*
X1201134Y-12453984D01*
X1201134Y-12349222D02*
X1210658Y-12330174D01*
X1210658Y-12330174D02*
X1229705Y-12320650D01*
X1229705Y-12320650D02*
X1258277Y-12320650D01*
X1258277Y-12320650D02*
X1277325Y-12330174D01*
X1277325Y-12330174D02*
X1286848Y-12349222D01*
X1286848Y-12349222D02*
X1286848Y-12453984D01*
X1382086Y-12453984D02*
X1382086Y-12320650D01*
X1382086Y-12339698D02*
X1391610Y-12330174D01*
X1391610Y-12330174D02*
X1410658Y-12320650D01*
X1410658Y-12320650D02*
X1439229Y-12320650D01*
X1439229Y-12320650D02*
X1458277Y-12330174D01*
X1458277Y-12330174D02*
X1467801Y-12349222D01*
X1467801Y-12349222D02*
X1467801Y-12453984D01*
X1467801Y-12349222D02*
X1477324Y-12330174D01*
X1477324Y-12330174D02*
X1496372Y-12320650D01*
X1496372Y-12320650D02*
X1524943Y-12320650D01*
X1524943Y-12320650D02*
X1543991Y-12330174D01*
X1543991Y-12330174D02*
X1553515Y-12349222D01*
X1553515Y-12349222D02*
X1553515Y-12453984D01*
X1943991Y-12244460D02*
X1772563Y-12501603D01*
X2201134Y-12253984D02*
X2220182Y-12253984D01*
X2220182Y-12253984D02*
X2239229Y-12263508D01*
X2239229Y-12263508D02*
X2248753Y-12273031D01*
X2248753Y-12273031D02*
X2258277Y-12292079D01*
X2258277Y-12292079D02*
X2267801Y-12330174D01*
X2267801Y-12330174D02*
X2267801Y-12377793D01*
X2267801Y-12377793D02*
X2258277Y-12415888D01*
X2258277Y-12415888D02*
X2248753Y-12434936D01*
X2248753Y-12434936D02*
X2239229Y-12444460D01*
X2239229Y-12444460D02*
X2220182Y-12453984D01*
X2220182Y-12453984D02*
X2201134Y-12453984D01*
X2201134Y-12453984D02*
X2182087Y-12444460D01*
X2182087Y-12444460D02*
X2172563Y-12434936D01*
X2172563Y-12434936D02*
X2163039Y-12415888D01*
X2163039Y-12415888D02*
X2153515Y-12377793D01*
X2153515Y-12377793D02*
X2153515Y-12330174D01*
X2153515Y-12330174D02*
X2163039Y-12292079D01*
X2163039Y-12292079D02*
X2172563Y-12273031D01*
X2172563Y-12273031D02*
X2182087Y-12263508D01*
X2182087Y-12263508D02*
X2201134Y-12253984D01*
X2363039Y-12444460D02*
X2363039Y-12453984D01*
X2363039Y-12453984D02*
X2353515Y-12473031D01*
X2353515Y-12473031D02*
X2343991Y-12482555D01*
X2486848Y-12253984D02*
X2505896Y-12253984D01*
X2505896Y-12253984D02*
X2524944Y-12263508D01*
X2524944Y-12263508D02*
X2534468Y-12273031D01*
X2534468Y-12273031D02*
X2543991Y-12292079D01*
X2543991Y-12292079D02*
X2553515Y-12330174D01*
X2553515Y-12330174D02*
X2553515Y-12377793D01*
X2553515Y-12377793D02*
X2543991Y-12415888D01*
X2543991Y-12415888D02*
X2534468Y-12434936D01*
X2534468Y-12434936D02*
X2524944Y-12444460D01*
X2524944Y-12444460D02*
X2505896Y-12453984D01*
X2505896Y-12453984D02*
X2486848Y-12453984D01*
X2486848Y-12453984D02*
X2467801Y-12444460D01*
X2467801Y-12444460D02*
X2458277Y-12434936D01*
X2458277Y-12434936D02*
X2448753Y-12415888D01*
X2448753Y-12415888D02*
X2439229Y-12377793D01*
X2439229Y-12377793D02*
X2439229Y-12330174D01*
X2439229Y-12330174D02*
X2448753Y-12292079D01*
X2448753Y-12292079D02*
X2458277Y-12273031D01*
X2458277Y-12273031D02*
X2467801Y-12263508D01*
X2467801Y-12263508D02*
X2486848Y-12253984D01*
X2724944Y-12253984D02*
X2686848Y-12253984D01*
X2686848Y-12253984D02*
X2667801Y-12263508D01*
X2667801Y-12263508D02*
X2658277Y-12273031D01*
X2658277Y-12273031D02*
X2639229Y-12301603D01*
X2639229Y-12301603D02*
X2629706Y-12339698D01*
X2629706Y-12339698D02*
X2629706Y-12415888D01*
X2629706Y-12415888D02*
X2639229Y-12434936D01*
X2639229Y-12434936D02*
X2648753Y-12444460D01*
X2648753Y-12444460D02*
X2667801Y-12453984D01*
X2667801Y-12453984D02*
X2705896Y-12453984D01*
X2705896Y-12453984D02*
X2724944Y-12444460D01*
X2724944Y-12444460D02*
X2734468Y-12434936D01*
X2734468Y-12434936D02*
X2743991Y-12415888D01*
X2743991Y-12415888D02*
X2743991Y-12368269D01*
X2743991Y-12368269D02*
X2734468Y-12349222D01*
X2734468Y-12349222D02*
X2724944Y-12339698D01*
X2724944Y-12339698D02*
X2705896Y-12330174D01*
X2705896Y-12330174D02*
X2667801Y-12330174D01*
X2667801Y-12330174D02*
X2648753Y-12339698D01*
X2648753Y-12339698D02*
X2639229Y-12349222D01*
X2639229Y-12349222D02*
X2629706Y-12368269D01*
X2915420Y-12253984D02*
X2877325Y-12253984D01*
X2877325Y-12253984D02*
X2858277Y-12263508D01*
X2858277Y-12263508D02*
X2848753Y-12273031D01*
X2848753Y-12273031D02*
X2829706Y-12301603D01*
X2829706Y-12301603D02*
X2820182Y-12339698D01*
X2820182Y-12339698D02*
X2820182Y-12415888D01*
X2820182Y-12415888D02*
X2829706Y-12434936D01*
X2829706Y-12434936D02*
X2839229Y-12444460D01*
X2839229Y-12444460D02*
X2858277Y-12453984D01*
X2858277Y-12453984D02*
X2896372Y-12453984D01*
X2896372Y-12453984D02*
X2915420Y-12444460D01*
X2915420Y-12444460D02*
X2924944Y-12434936D01*
X2924944Y-12434936D02*
X2934467Y-12415888D01*
X2934467Y-12415888D02*
X2934467Y-12368269D01*
X2934467Y-12368269D02*
X2924944Y-12349222D01*
X2924944Y-12349222D02*
X2915420Y-12339698D01*
X2915420Y-12339698D02*
X2896372Y-12330174D01*
X2896372Y-12330174D02*
X2858277Y-12330174D01*
X2858277Y-12330174D02*
X2839229Y-12339698D01*
X2839229Y-12339698D02*
X2829706Y-12349222D01*
X2829706Y-12349222D02*
X2820182Y-12368269D01*
X3029706Y-12453984D02*
X3067801Y-12453984D01*
X3067801Y-12453984D02*
X3086848Y-12444460D01*
X3086848Y-12444460D02*
X3096372Y-12434936D01*
X3096372Y-12434936D02*
X3115420Y-12406365D01*
X3115420Y-12406365D02*
X3124944Y-12368269D01*
X3124944Y-12368269D02*
X3124944Y-12292079D01*
X3124944Y-12292079D02*
X3115420Y-12273031D01*
X3115420Y-12273031D02*
X3105896Y-12263508D01*
X3105896Y-12263508D02*
X3086848Y-12253984D01*
X3086848Y-12253984D02*
X3048753Y-12253984D01*
X3048753Y-12253984D02*
X3029706Y-12263508D01*
X3029706Y-12263508D02*
X3020182Y-12273031D01*
X3020182Y-12273031D02*
X3010658Y-12292079D01*
X3010658Y-12292079D02*
X3010658Y-12339698D01*
X3010658Y-12339698D02*
X3020182Y-12358746D01*
X3020182Y-12358746D02*
X3029706Y-12368269D01*
X3029706Y-12368269D02*
X3048753Y-12377793D01*
X3048753Y-12377793D02*
X3086848Y-12377793D01*
X3086848Y-12377793D02*
X3105896Y-12368269D01*
X3105896Y-12368269D02*
X3115420Y-12358746D01*
X3115420Y-12358746D02*
X3124944Y-12339698D01*
X3201134Y-12253984D02*
X3201134Y-12292079D01*
X3277325Y-12253984D02*
X3277325Y-12292079D01*
X3572563Y-12530174D02*
X3563039Y-12520650D01*
X3563039Y-12520650D02*
X3543991Y-12492079D01*
X3543991Y-12492079D02*
X3534468Y-12473031D01*
X3534468Y-12473031D02*
X3524944Y-12444460D01*
X3524944Y-12444460D02*
X3515420Y-12396841D01*
X3515420Y-12396841D02*
X3515420Y-12358746D01*
X3515420Y-12358746D02*
X3524944Y-12311127D01*
X3524944Y-12311127D02*
X3534468Y-12282555D01*
X3534468Y-12282555D02*
X3543991Y-12263508D01*
X3543991Y-12263508D02*
X3563039Y-12234936D01*
X3563039Y-12234936D02*
X3572563Y-12225412D01*
X3734468Y-12320650D02*
X3734468Y-12453984D01*
X3686848Y-12244460D02*
X3639229Y-12387317D01*
X3639229Y-12387317D02*
X3763039Y-12387317D01*
X3991610Y-12453984D02*
X3991610Y-12253984D01*
X4077325Y-12453984D02*
X4077325Y-12349222D01*
X4077325Y-12349222D02*
X4067801Y-12330174D01*
X4067801Y-12330174D02*
X4048753Y-12320650D01*
X4048753Y-12320650D02*
X4020182Y-12320650D01*
X4020182Y-12320650D02*
X4001134Y-12330174D01*
X4001134Y-12330174D02*
X3991610Y-12339698D01*
X4201134Y-12453984D02*
X4182087Y-12444460D01*
X4182087Y-12444460D02*
X4172563Y-12434936D01*
X4172563Y-12434936D02*
X4163039Y-12415888D01*
X4163039Y-12415888D02*
X4163039Y-12358746D01*
X4163039Y-12358746D02*
X4172563Y-12339698D01*
X4172563Y-12339698D02*
X4182087Y-12330174D01*
X4182087Y-12330174D02*
X4201134Y-12320650D01*
X4201134Y-12320650D02*
X4229706Y-12320650D01*
X4229706Y-12320650D02*
X4248753Y-12330174D01*
X4248753Y-12330174D02*
X4258277Y-12339698D01*
X4258277Y-12339698D02*
X4267801Y-12358746D01*
X4267801Y-12358746D02*
X4267801Y-12415888D01*
X4267801Y-12415888D02*
X4258277Y-12434936D01*
X4258277Y-12434936D02*
X4248753Y-12444460D01*
X4248753Y-12444460D02*
X4229706Y-12453984D01*
X4229706Y-12453984D02*
X4201134Y-12453984D01*
X4382087Y-12453984D02*
X4363039Y-12444460D01*
X4363039Y-12444460D02*
X4353515Y-12425412D01*
X4353515Y-12425412D02*
X4353515Y-12253984D01*
X4534468Y-12444460D02*
X4515420Y-12453984D01*
X4515420Y-12453984D02*
X4477325Y-12453984D01*
X4477325Y-12453984D02*
X4458277Y-12444460D01*
X4458277Y-12444460D02*
X4448753Y-12425412D01*
X4448753Y-12425412D02*
X4448753Y-12349222D01*
X4448753Y-12349222D02*
X4458277Y-12330174D01*
X4458277Y-12330174D02*
X4477325Y-12320650D01*
X4477325Y-12320650D02*
X4515420Y-12320650D01*
X4515420Y-12320650D02*
X4534468Y-12330174D01*
X4534468Y-12330174D02*
X4543992Y-12349222D01*
X4543992Y-12349222D02*
X4543992Y-12368269D01*
X4543992Y-12368269D02*
X4448753Y-12387317D01*
X4620182Y-12444460D02*
X4639230Y-12453984D01*
X4639230Y-12453984D02*
X4677325Y-12453984D01*
X4677325Y-12453984D02*
X4696373Y-12444460D01*
X4696373Y-12444460D02*
X4705896Y-12425412D01*
X4705896Y-12425412D02*
X4705896Y-12415888D01*
X4705896Y-12415888D02*
X4696373Y-12396841D01*
X4696373Y-12396841D02*
X4677325Y-12387317D01*
X4677325Y-12387317D02*
X4648753Y-12387317D01*
X4648753Y-12387317D02*
X4629706Y-12377793D01*
X4629706Y-12377793D02*
X4620182Y-12358746D01*
X4620182Y-12358746D02*
X4620182Y-12349222D01*
X4620182Y-12349222D02*
X4629706Y-12330174D01*
X4629706Y-12330174D02*
X4648753Y-12320650D01*
X4648753Y-12320650D02*
X4677325Y-12320650D01*
X4677325Y-12320650D02*
X4696373Y-12330174D01*
X4772563Y-12530174D02*
X4782087Y-12520650D01*
X4782087Y-12520650D02*
X4801134Y-12492079D01*
X4801134Y-12492079D02*
X4810658Y-12473031D01*
X4810658Y-12473031D02*
X4820182Y-12444460D01*
X4820182Y-12444460D02*
X4829706Y-12396841D01*
X4829706Y-12396841D02*
X4829706Y-12358746D01*
X4829706Y-12358746D02*
X4820182Y-12311127D01*
X4820182Y-12311127D02*
X4810658Y-12282555D01*
X4810658Y-12282555D02*
X4801134Y-12263508D01*
X4801134Y-12263508D02*
X4782087Y-12234936D01*
X4782087Y-12234936D02*
X4772563Y-12225412D01*
X-202500Y-12552500D02*
X-2500Y-12752500D01*
X-2500Y-12552500D02*
X-202500Y-12752500D01*
X-102500Y-12552500D02*
X-102500Y-12752500D01*
X-202500Y-12652500D02*
X-2500Y-12652500D01*
X239229Y-12543984D02*
X363039Y-12543984D01*
X363039Y-12543984D02*
X296372Y-12620174D01*
X296372Y-12620174D02*
X324944Y-12620174D01*
X324944Y-12620174D02*
X343991Y-12629698D01*
X343991Y-12629698D02*
X353515Y-12639222D01*
X353515Y-12639222D02*
X363039Y-12658269D01*
X363039Y-12658269D02*
X363039Y-12705888D01*
X363039Y-12705888D02*
X353515Y-12724936D01*
X353515Y-12724936D02*
X343991Y-12734460D01*
X343991Y-12734460D02*
X324944Y-12743984D01*
X324944Y-12743984D02*
X267801Y-12743984D01*
X267801Y-12743984D02*
X248753Y-12734460D01*
X248753Y-12734460D02*
X239229Y-12724936D01*
X458277Y-12734460D02*
X458277Y-12743984D01*
X458277Y-12743984D02*
X448753Y-12763031D01*
X448753Y-12763031D02*
X439229Y-12772555D01*
X534467Y-12563031D02*
X543991Y-12553508D01*
X543991Y-12553508D02*
X563039Y-12543984D01*
X563039Y-12543984D02*
X610658Y-12543984D01*
X610658Y-12543984D02*
X629705Y-12553508D01*
X629705Y-12553508D02*
X639229Y-12563031D01*
X639229Y-12563031D02*
X648753Y-12582079D01*
X648753Y-12582079D02*
X648753Y-12601127D01*
X648753Y-12601127D02*
X639229Y-12629698D01*
X639229Y-12629698D02*
X524944Y-12743984D01*
X524944Y-12743984D02*
X648753Y-12743984D01*
X772562Y-12543984D02*
X791610Y-12543984D01*
X791610Y-12543984D02*
X810658Y-12553508D01*
X810658Y-12553508D02*
X820182Y-12563031D01*
X820182Y-12563031D02*
X829705Y-12582079D01*
X829705Y-12582079D02*
X839229Y-12620174D01*
X839229Y-12620174D02*
X839229Y-12667793D01*
X839229Y-12667793D02*
X829705Y-12705888D01*
X829705Y-12705888D02*
X820182Y-12724936D01*
X820182Y-12724936D02*
X810658Y-12734460D01*
X810658Y-12734460D02*
X791610Y-12743984D01*
X791610Y-12743984D02*
X772562Y-12743984D01*
X772562Y-12743984D02*
X753515Y-12734460D01*
X753515Y-12734460D02*
X743991Y-12724936D01*
X743991Y-12724936D02*
X734467Y-12705888D01*
X734467Y-12705888D02*
X724943Y-12667793D01*
X724943Y-12667793D02*
X724943Y-12620174D01*
X724943Y-12620174D02*
X734467Y-12582079D01*
X734467Y-12582079D02*
X743991Y-12563031D01*
X743991Y-12563031D02*
X753515Y-12553508D01*
X753515Y-12553508D02*
X772562Y-12543984D01*
X963039Y-12543984D02*
X982086Y-12543984D01*
X982086Y-12543984D02*
X1001134Y-12553508D01*
X1001134Y-12553508D02*
X1010658Y-12563031D01*
X1010658Y-12563031D02*
X1020182Y-12582079D01*
X1020182Y-12582079D02*
X1029705Y-12620174D01*
X1029705Y-12620174D02*
X1029705Y-12667793D01*
X1029705Y-12667793D02*
X1020182Y-12705888D01*
X1020182Y-12705888D02*
X1010658Y-12724936D01*
X1010658Y-12724936D02*
X1001134Y-12734460D01*
X1001134Y-12734460D02*
X982086Y-12743984D01*
X982086Y-12743984D02*
X963039Y-12743984D01*
X963039Y-12743984D02*
X943991Y-12734460D01*
X943991Y-12734460D02*
X934467Y-12724936D01*
X934467Y-12724936D02*
X924943Y-12705888D01*
X924943Y-12705888D02*
X915420Y-12667793D01*
X915420Y-12667793D02*
X915420Y-12620174D01*
X915420Y-12620174D02*
X924943Y-12582079D01*
X924943Y-12582079D02*
X934467Y-12563031D01*
X934467Y-12563031D02*
X943991Y-12553508D01*
X943991Y-12553508D02*
X963039Y-12543984D01*
X1115420Y-12743984D02*
X1115420Y-12610650D01*
X1115420Y-12629698D02*
X1124944Y-12620174D01*
X1124944Y-12620174D02*
X1143991Y-12610650D01*
X1143991Y-12610650D02*
X1172563Y-12610650D01*
X1172563Y-12610650D02*
X1191610Y-12620174D01*
X1191610Y-12620174D02*
X1201134Y-12639222D01*
X1201134Y-12639222D02*
X1201134Y-12743984D01*
X1201134Y-12639222D02*
X1210658Y-12620174D01*
X1210658Y-12620174D02*
X1229705Y-12610650D01*
X1229705Y-12610650D02*
X1258277Y-12610650D01*
X1258277Y-12610650D02*
X1277325Y-12620174D01*
X1277325Y-12620174D02*
X1286848Y-12639222D01*
X1286848Y-12639222D02*
X1286848Y-12743984D01*
X1382086Y-12743984D02*
X1382086Y-12610650D01*
X1382086Y-12629698D02*
X1391610Y-12620174D01*
X1391610Y-12620174D02*
X1410658Y-12610650D01*
X1410658Y-12610650D02*
X1439229Y-12610650D01*
X1439229Y-12610650D02*
X1458277Y-12620174D01*
X1458277Y-12620174D02*
X1467801Y-12639222D01*
X1467801Y-12639222D02*
X1467801Y-12743984D01*
X1467801Y-12639222D02*
X1477324Y-12620174D01*
X1477324Y-12620174D02*
X1496372Y-12610650D01*
X1496372Y-12610650D02*
X1524943Y-12610650D01*
X1524943Y-12610650D02*
X1543991Y-12620174D01*
X1543991Y-12620174D02*
X1553515Y-12639222D01*
X1553515Y-12639222D02*
X1553515Y-12743984D01*
X1943991Y-12534460D02*
X1772563Y-12791603D01*
X2201134Y-12543984D02*
X2220182Y-12543984D01*
X2220182Y-12543984D02*
X2239229Y-12553508D01*
X2239229Y-12553508D02*
X2248753Y-12563031D01*
X2248753Y-12563031D02*
X2258277Y-12582079D01*
X2258277Y-12582079D02*
X2267801Y-12620174D01*
X2267801Y-12620174D02*
X2267801Y-12667793D01*
X2267801Y-12667793D02*
X2258277Y-12705888D01*
X2258277Y-12705888D02*
X2248753Y-12724936D01*
X2248753Y-12724936D02*
X2239229Y-12734460D01*
X2239229Y-12734460D02*
X2220182Y-12743984D01*
X2220182Y-12743984D02*
X2201134Y-12743984D01*
X2201134Y-12743984D02*
X2182087Y-12734460D01*
X2182087Y-12734460D02*
X2172563Y-12724936D01*
X2172563Y-12724936D02*
X2163039Y-12705888D01*
X2163039Y-12705888D02*
X2153515Y-12667793D01*
X2153515Y-12667793D02*
X2153515Y-12620174D01*
X2153515Y-12620174D02*
X2163039Y-12582079D01*
X2163039Y-12582079D02*
X2172563Y-12563031D01*
X2172563Y-12563031D02*
X2182087Y-12553508D01*
X2182087Y-12553508D02*
X2201134Y-12543984D01*
X2363039Y-12734460D02*
X2363039Y-12743984D01*
X2363039Y-12743984D02*
X2353515Y-12763031D01*
X2353515Y-12763031D02*
X2343991Y-12772555D01*
X2553515Y-12743984D02*
X2439229Y-12743984D01*
X2496372Y-12743984D02*
X2496372Y-12543984D01*
X2496372Y-12543984D02*
X2477325Y-12572555D01*
X2477325Y-12572555D02*
X2458277Y-12591603D01*
X2458277Y-12591603D02*
X2439229Y-12601127D01*
X2629706Y-12563031D02*
X2639229Y-12553508D01*
X2639229Y-12553508D02*
X2658277Y-12543984D01*
X2658277Y-12543984D02*
X2705896Y-12543984D01*
X2705896Y-12543984D02*
X2724944Y-12553508D01*
X2724944Y-12553508D02*
X2734468Y-12563031D01*
X2734468Y-12563031D02*
X2743991Y-12582079D01*
X2743991Y-12582079D02*
X2743991Y-12601127D01*
X2743991Y-12601127D02*
X2734468Y-12629698D01*
X2734468Y-12629698D02*
X2620182Y-12743984D01*
X2620182Y-12743984D02*
X2743991Y-12743984D01*
X2915420Y-12543984D02*
X2877325Y-12543984D01*
X2877325Y-12543984D02*
X2858277Y-12553508D01*
X2858277Y-12553508D02*
X2848753Y-12563031D01*
X2848753Y-12563031D02*
X2829706Y-12591603D01*
X2829706Y-12591603D02*
X2820182Y-12629698D01*
X2820182Y-12629698D02*
X2820182Y-12705888D01*
X2820182Y-12705888D02*
X2829706Y-12724936D01*
X2829706Y-12724936D02*
X2839229Y-12734460D01*
X2839229Y-12734460D02*
X2858277Y-12743984D01*
X2858277Y-12743984D02*
X2896372Y-12743984D01*
X2896372Y-12743984D02*
X2915420Y-12734460D01*
X2915420Y-12734460D02*
X2924944Y-12724936D01*
X2924944Y-12724936D02*
X2934467Y-12705888D01*
X2934467Y-12705888D02*
X2934467Y-12658269D01*
X2934467Y-12658269D02*
X2924944Y-12639222D01*
X2924944Y-12639222D02*
X2915420Y-12629698D01*
X2915420Y-12629698D02*
X2896372Y-12620174D01*
X2896372Y-12620174D02*
X2858277Y-12620174D01*
X2858277Y-12620174D02*
X2839229Y-12629698D01*
X2839229Y-12629698D02*
X2829706Y-12639222D01*
X2829706Y-12639222D02*
X2820182Y-12658269D01*
X3058277Y-12543984D02*
X3077325Y-12543984D01*
X3077325Y-12543984D02*
X3096372Y-12553508D01*
X3096372Y-12553508D02*
X3105896Y-12563031D01*
X3105896Y-12563031D02*
X3115420Y-12582079D01*
X3115420Y-12582079D02*
X3124944Y-12620174D01*
X3124944Y-12620174D02*
X3124944Y-12667793D01*
X3124944Y-12667793D02*
X3115420Y-12705888D01*
X3115420Y-12705888D02*
X3105896Y-12724936D01*
X3105896Y-12724936D02*
X3096372Y-12734460D01*
X3096372Y-12734460D02*
X3077325Y-12743984D01*
X3077325Y-12743984D02*
X3058277Y-12743984D01*
X3058277Y-12743984D02*
X3039229Y-12734460D01*
X3039229Y-12734460D02*
X3029706Y-12724936D01*
X3029706Y-12724936D02*
X3020182Y-12705888D01*
X3020182Y-12705888D02*
X3010658Y-12667793D01*
X3010658Y-12667793D02*
X3010658Y-12620174D01*
X3010658Y-12620174D02*
X3020182Y-12582079D01*
X3020182Y-12582079D02*
X3029706Y-12563031D01*
X3029706Y-12563031D02*
X3039229Y-12553508D01*
X3039229Y-12553508D02*
X3058277Y-12543984D01*
X3201134Y-12543984D02*
X3201134Y-12582079D01*
X3277325Y-12543984D02*
X3277325Y-12582079D01*
X3572563Y-12820174D02*
X3563039Y-12810650D01*
X3563039Y-12810650D02*
X3543991Y-12782079D01*
X3543991Y-12782079D02*
X3534468Y-12763031D01*
X3534468Y-12763031D02*
X3524944Y-12734460D01*
X3524944Y-12734460D02*
X3515420Y-12686841D01*
X3515420Y-12686841D02*
X3515420Y-12648746D01*
X3515420Y-12648746D02*
X3524944Y-12601127D01*
X3524944Y-12601127D02*
X3534468Y-12572555D01*
X3534468Y-12572555D02*
X3543991Y-12553508D01*
X3543991Y-12553508D02*
X3563039Y-12524936D01*
X3563039Y-12524936D02*
X3572563Y-12515412D01*
X3753515Y-12743984D02*
X3639229Y-12743984D01*
X3696372Y-12743984D02*
X3696372Y-12543984D01*
X3696372Y-12543984D02*
X3677325Y-12572555D01*
X3677325Y-12572555D02*
X3658277Y-12591603D01*
X3658277Y-12591603D02*
X3639229Y-12601127D01*
X3991610Y-12743984D02*
X3991610Y-12543984D01*
X4077325Y-12743984D02*
X4077325Y-12639222D01*
X4077325Y-12639222D02*
X4067801Y-12620174D01*
X4067801Y-12620174D02*
X4048753Y-12610650D01*
X4048753Y-12610650D02*
X4020182Y-12610650D01*
X4020182Y-12610650D02*
X4001134Y-12620174D01*
X4001134Y-12620174D02*
X3991610Y-12629698D01*
X4201134Y-12743984D02*
X4182087Y-12734460D01*
X4182087Y-12734460D02*
X4172563Y-12724936D01*
X4172563Y-12724936D02*
X4163039Y-12705888D01*
X4163039Y-12705888D02*
X4163039Y-12648746D01*
X4163039Y-12648746D02*
X4172563Y-12629698D01*
X4172563Y-12629698D02*
X4182087Y-12620174D01*
X4182087Y-12620174D02*
X4201134Y-12610650D01*
X4201134Y-12610650D02*
X4229706Y-12610650D01*
X4229706Y-12610650D02*
X4248753Y-12620174D01*
X4248753Y-12620174D02*
X4258277Y-12629698D01*
X4258277Y-12629698D02*
X4267801Y-12648746D01*
X4267801Y-12648746D02*
X4267801Y-12705888D01*
X4267801Y-12705888D02*
X4258277Y-12724936D01*
X4258277Y-12724936D02*
X4248753Y-12734460D01*
X4248753Y-12734460D02*
X4229706Y-12743984D01*
X4229706Y-12743984D02*
X4201134Y-12743984D01*
X4382087Y-12743984D02*
X4363039Y-12734460D01*
X4363039Y-12734460D02*
X4353515Y-12715412D01*
X4353515Y-12715412D02*
X4353515Y-12543984D01*
X4534468Y-12734460D02*
X4515420Y-12743984D01*
X4515420Y-12743984D02*
X4477325Y-12743984D01*
X4477325Y-12743984D02*
X4458277Y-12734460D01*
X4458277Y-12734460D02*
X4448753Y-12715412D01*
X4448753Y-12715412D02*
X4448753Y-12639222D01*
X4448753Y-12639222D02*
X4458277Y-12620174D01*
X4458277Y-12620174D02*
X4477325Y-12610650D01*
X4477325Y-12610650D02*
X4515420Y-12610650D01*
X4515420Y-12610650D02*
X4534468Y-12620174D01*
X4534468Y-12620174D02*
X4543992Y-12639222D01*
X4543992Y-12639222D02*
X4543992Y-12658269D01*
X4543992Y-12658269D02*
X4448753Y-12677317D01*
X4610658Y-12820174D02*
X4620182Y-12810650D01*
X4620182Y-12810650D02*
X4639230Y-12782079D01*
X4639230Y-12782079D02*
X4648753Y-12763031D01*
X4648753Y-12763031D02*
X4658277Y-12734460D01*
X4658277Y-12734460D02*
X4667801Y-12686841D01*
X4667801Y-12686841D02*
X4667801Y-12648746D01*
X4667801Y-12648746D02*
X4658277Y-12601127D01*
X4658277Y-12601127D02*
X4648753Y-12572555D01*
X4648753Y-12572555D02*
X4639230Y-12553508D01*
X4639230Y-12553508D02*
X4620182Y-12524936D01*
X4620182Y-12524936D02*
X4610658Y-12515412D01*
X-202500Y-12872500D02*
X-2500Y-13072500D01*
X-2500Y-12872500D02*
X-202500Y-13072500D01*
X-31789Y-13043211D02*
X-31789Y-12901789D01*
X-173211Y-12901789D01*
X-173211Y-13043211D01*
X-31789Y-13043211D01*
X239229Y-12863984D02*
X363039Y-12863984D01*
X363039Y-12863984D02*
X296372Y-12940174D01*
X296372Y-12940174D02*
X324944Y-12940174D01*
X324944Y-12940174D02*
X343991Y-12949698D01*
X343991Y-12949698D02*
X353515Y-12959222D01*
X353515Y-12959222D02*
X363039Y-12978269D01*
X363039Y-12978269D02*
X363039Y-13025888D01*
X363039Y-13025888D02*
X353515Y-13044936D01*
X353515Y-13044936D02*
X343991Y-13054460D01*
X343991Y-13054460D02*
X324944Y-13063984D01*
X324944Y-13063984D02*
X267801Y-13063984D01*
X267801Y-13063984D02*
X248753Y-13054460D01*
X248753Y-13054460D02*
X239229Y-13044936D01*
X458277Y-13054460D02*
X458277Y-13063984D01*
X458277Y-13063984D02*
X448753Y-13083031D01*
X448753Y-13083031D02*
X439229Y-13092555D01*
X534467Y-12883031D02*
X543991Y-12873508D01*
X543991Y-12873508D02*
X563039Y-12863984D01*
X563039Y-12863984D02*
X610658Y-12863984D01*
X610658Y-12863984D02*
X629705Y-12873508D01*
X629705Y-12873508D02*
X639229Y-12883031D01*
X639229Y-12883031D02*
X648753Y-12902079D01*
X648753Y-12902079D02*
X648753Y-12921127D01*
X648753Y-12921127D02*
X639229Y-12949698D01*
X639229Y-12949698D02*
X524944Y-13063984D01*
X524944Y-13063984D02*
X648753Y-13063984D01*
X772562Y-12863984D02*
X791610Y-12863984D01*
X791610Y-12863984D02*
X810658Y-12873508D01*
X810658Y-12873508D02*
X820182Y-12883031D01*
X820182Y-12883031D02*
X829705Y-12902079D01*
X829705Y-12902079D02*
X839229Y-12940174D01*
X839229Y-12940174D02*
X839229Y-12987793D01*
X839229Y-12987793D02*
X829705Y-13025888D01*
X829705Y-13025888D02*
X820182Y-13044936D01*
X820182Y-13044936D02*
X810658Y-13054460D01*
X810658Y-13054460D02*
X791610Y-13063984D01*
X791610Y-13063984D02*
X772562Y-13063984D01*
X772562Y-13063984D02*
X753515Y-13054460D01*
X753515Y-13054460D02*
X743991Y-13044936D01*
X743991Y-13044936D02*
X734467Y-13025888D01*
X734467Y-13025888D02*
X724943Y-12987793D01*
X724943Y-12987793D02*
X724943Y-12940174D01*
X724943Y-12940174D02*
X734467Y-12902079D01*
X734467Y-12902079D02*
X743991Y-12883031D01*
X743991Y-12883031D02*
X753515Y-12873508D01*
X753515Y-12873508D02*
X772562Y-12863984D01*
X963039Y-12863984D02*
X982086Y-12863984D01*
X982086Y-12863984D02*
X1001134Y-12873508D01*
X1001134Y-12873508D02*
X1010658Y-12883031D01*
X1010658Y-12883031D02*
X1020182Y-12902079D01*
X1020182Y-12902079D02*
X1029705Y-12940174D01*
X1029705Y-12940174D02*
X1029705Y-12987793D01*
X1029705Y-12987793D02*
X1020182Y-13025888D01*
X1020182Y-13025888D02*
X1010658Y-13044936D01*
X1010658Y-13044936D02*
X1001134Y-13054460D01*
X1001134Y-13054460D02*
X982086Y-13063984D01*
X982086Y-13063984D02*
X963039Y-13063984D01*
X963039Y-13063984D02*
X943991Y-13054460D01*
X943991Y-13054460D02*
X934467Y-13044936D01*
X934467Y-13044936D02*
X924943Y-13025888D01*
X924943Y-13025888D02*
X915420Y-12987793D01*
X915420Y-12987793D02*
X915420Y-12940174D01*
X915420Y-12940174D02*
X924943Y-12902079D01*
X924943Y-12902079D02*
X934467Y-12883031D01*
X934467Y-12883031D02*
X943991Y-12873508D01*
X943991Y-12873508D02*
X963039Y-12863984D01*
X1115420Y-13063984D02*
X1115420Y-12930650D01*
X1115420Y-12949698D02*
X1124944Y-12940174D01*
X1124944Y-12940174D02*
X1143991Y-12930650D01*
X1143991Y-12930650D02*
X1172563Y-12930650D01*
X1172563Y-12930650D02*
X1191610Y-12940174D01*
X1191610Y-12940174D02*
X1201134Y-12959222D01*
X1201134Y-12959222D02*
X1201134Y-13063984D01*
X1201134Y-12959222D02*
X1210658Y-12940174D01*
X1210658Y-12940174D02*
X1229705Y-12930650D01*
X1229705Y-12930650D02*
X1258277Y-12930650D01*
X1258277Y-12930650D02*
X1277325Y-12940174D01*
X1277325Y-12940174D02*
X1286848Y-12959222D01*
X1286848Y-12959222D02*
X1286848Y-13063984D01*
X1382086Y-13063984D02*
X1382086Y-12930650D01*
X1382086Y-12949698D02*
X1391610Y-12940174D01*
X1391610Y-12940174D02*
X1410658Y-12930650D01*
X1410658Y-12930650D02*
X1439229Y-12930650D01*
X1439229Y-12930650D02*
X1458277Y-12940174D01*
X1458277Y-12940174D02*
X1467801Y-12959222D01*
X1467801Y-12959222D02*
X1467801Y-13063984D01*
X1467801Y-12959222D02*
X1477324Y-12940174D01*
X1477324Y-12940174D02*
X1496372Y-12930650D01*
X1496372Y-12930650D02*
X1524943Y-12930650D01*
X1524943Y-12930650D02*
X1543991Y-12940174D01*
X1543991Y-12940174D02*
X1553515Y-12959222D01*
X1553515Y-12959222D02*
X1553515Y-13063984D01*
X1943991Y-12854460D02*
X1772563Y-13111603D01*
X2201134Y-12863984D02*
X2220182Y-12863984D01*
X2220182Y-12863984D02*
X2239229Y-12873508D01*
X2239229Y-12873508D02*
X2248753Y-12883031D01*
X2248753Y-12883031D02*
X2258277Y-12902079D01*
X2258277Y-12902079D02*
X2267801Y-12940174D01*
X2267801Y-12940174D02*
X2267801Y-12987793D01*
X2267801Y-12987793D02*
X2258277Y-13025888D01*
X2258277Y-13025888D02*
X2248753Y-13044936D01*
X2248753Y-13044936D02*
X2239229Y-13054460D01*
X2239229Y-13054460D02*
X2220182Y-13063984D01*
X2220182Y-13063984D02*
X2201134Y-13063984D01*
X2201134Y-13063984D02*
X2182087Y-13054460D01*
X2182087Y-13054460D02*
X2172563Y-13044936D01*
X2172563Y-13044936D02*
X2163039Y-13025888D01*
X2163039Y-13025888D02*
X2153515Y-12987793D01*
X2153515Y-12987793D02*
X2153515Y-12940174D01*
X2153515Y-12940174D02*
X2163039Y-12902079D01*
X2163039Y-12902079D02*
X2172563Y-12883031D01*
X2172563Y-12883031D02*
X2182087Y-12873508D01*
X2182087Y-12873508D02*
X2201134Y-12863984D01*
X2363039Y-13054460D02*
X2363039Y-13063984D01*
X2363039Y-13063984D02*
X2353515Y-13083031D01*
X2353515Y-13083031D02*
X2343991Y-13092555D01*
X2553515Y-13063984D02*
X2439229Y-13063984D01*
X2496372Y-13063984D02*
X2496372Y-12863984D01*
X2496372Y-12863984D02*
X2477325Y-12892555D01*
X2477325Y-12892555D02*
X2458277Y-12911603D01*
X2458277Y-12911603D02*
X2439229Y-12921127D01*
X2629706Y-12883031D02*
X2639229Y-12873508D01*
X2639229Y-12873508D02*
X2658277Y-12863984D01*
X2658277Y-12863984D02*
X2705896Y-12863984D01*
X2705896Y-12863984D02*
X2724944Y-12873508D01*
X2724944Y-12873508D02*
X2734468Y-12883031D01*
X2734468Y-12883031D02*
X2743991Y-12902079D01*
X2743991Y-12902079D02*
X2743991Y-12921127D01*
X2743991Y-12921127D02*
X2734468Y-12949698D01*
X2734468Y-12949698D02*
X2620182Y-13063984D01*
X2620182Y-13063984D02*
X2743991Y-13063984D01*
X2915420Y-12863984D02*
X2877325Y-12863984D01*
X2877325Y-12863984D02*
X2858277Y-12873508D01*
X2858277Y-12873508D02*
X2848753Y-12883031D01*
X2848753Y-12883031D02*
X2829706Y-12911603D01*
X2829706Y-12911603D02*
X2820182Y-12949698D01*
X2820182Y-12949698D02*
X2820182Y-13025888D01*
X2820182Y-13025888D02*
X2829706Y-13044936D01*
X2829706Y-13044936D02*
X2839229Y-13054460D01*
X2839229Y-13054460D02*
X2858277Y-13063984D01*
X2858277Y-13063984D02*
X2896372Y-13063984D01*
X2896372Y-13063984D02*
X2915420Y-13054460D01*
X2915420Y-13054460D02*
X2924944Y-13044936D01*
X2924944Y-13044936D02*
X2934467Y-13025888D01*
X2934467Y-13025888D02*
X2934467Y-12978269D01*
X2934467Y-12978269D02*
X2924944Y-12959222D01*
X2924944Y-12959222D02*
X2915420Y-12949698D01*
X2915420Y-12949698D02*
X2896372Y-12940174D01*
X2896372Y-12940174D02*
X2858277Y-12940174D01*
X2858277Y-12940174D02*
X2839229Y-12949698D01*
X2839229Y-12949698D02*
X2829706Y-12959222D01*
X2829706Y-12959222D02*
X2820182Y-12978269D01*
X3058277Y-12863984D02*
X3077325Y-12863984D01*
X3077325Y-12863984D02*
X3096372Y-12873508D01*
X3096372Y-12873508D02*
X3105896Y-12883031D01*
X3105896Y-12883031D02*
X3115420Y-12902079D01*
X3115420Y-12902079D02*
X3124944Y-12940174D01*
X3124944Y-12940174D02*
X3124944Y-12987793D01*
X3124944Y-12987793D02*
X3115420Y-13025888D01*
X3115420Y-13025888D02*
X3105896Y-13044936D01*
X3105896Y-13044936D02*
X3096372Y-13054460D01*
X3096372Y-13054460D02*
X3077325Y-13063984D01*
X3077325Y-13063984D02*
X3058277Y-13063984D01*
X3058277Y-13063984D02*
X3039229Y-13054460D01*
X3039229Y-13054460D02*
X3029706Y-13044936D01*
X3029706Y-13044936D02*
X3020182Y-13025888D01*
X3020182Y-13025888D02*
X3010658Y-12987793D01*
X3010658Y-12987793D02*
X3010658Y-12940174D01*
X3010658Y-12940174D02*
X3020182Y-12902079D01*
X3020182Y-12902079D02*
X3029706Y-12883031D01*
X3029706Y-12883031D02*
X3039229Y-12873508D01*
X3039229Y-12873508D02*
X3058277Y-12863984D01*
X3201134Y-12863984D02*
X3201134Y-12902079D01*
X3277325Y-12863984D02*
X3277325Y-12902079D01*
X3572563Y-13140174D02*
X3563039Y-13130650D01*
X3563039Y-13130650D02*
X3543991Y-13102079D01*
X3543991Y-13102079D02*
X3534468Y-13083031D01*
X3534468Y-13083031D02*
X3524944Y-13054460D01*
X3524944Y-13054460D02*
X3515420Y-13006841D01*
X3515420Y-13006841D02*
X3515420Y-12968746D01*
X3515420Y-12968746D02*
X3524944Y-12921127D01*
X3524944Y-12921127D02*
X3534468Y-12892555D01*
X3534468Y-12892555D02*
X3543991Y-12873508D01*
X3543991Y-12873508D02*
X3563039Y-12844936D01*
X3563039Y-12844936D02*
X3572563Y-12835412D01*
X3734468Y-12930650D02*
X3734468Y-13063984D01*
X3686848Y-12854460D02*
X3639229Y-12997317D01*
X3639229Y-12997317D02*
X3763039Y-12997317D01*
X3991610Y-13063984D02*
X3991610Y-12863984D01*
X4077325Y-13063984D02*
X4077325Y-12959222D01*
X4077325Y-12959222D02*
X4067801Y-12940174D01*
X4067801Y-12940174D02*
X4048753Y-12930650D01*
X4048753Y-12930650D02*
X4020182Y-12930650D01*
X4020182Y-12930650D02*
X4001134Y-12940174D01*
X4001134Y-12940174D02*
X3991610Y-12949698D01*
X4201134Y-13063984D02*
X4182087Y-13054460D01*
X4182087Y-13054460D02*
X4172563Y-13044936D01*
X4172563Y-13044936D02*
X4163039Y-13025888D01*
X4163039Y-13025888D02*
X4163039Y-12968746D01*
X4163039Y-12968746D02*
X4172563Y-12949698D01*
X4172563Y-12949698D02*
X4182087Y-12940174D01*
X4182087Y-12940174D02*
X4201134Y-12930650D01*
X4201134Y-12930650D02*
X4229706Y-12930650D01*
X4229706Y-12930650D02*
X4248753Y-12940174D01*
X4248753Y-12940174D02*
X4258277Y-12949698D01*
X4258277Y-12949698D02*
X4267801Y-12968746D01*
X4267801Y-12968746D02*
X4267801Y-13025888D01*
X4267801Y-13025888D02*
X4258277Y-13044936D01*
X4258277Y-13044936D02*
X4248753Y-13054460D01*
X4248753Y-13054460D02*
X4229706Y-13063984D01*
X4229706Y-13063984D02*
X4201134Y-13063984D01*
X4382087Y-13063984D02*
X4363039Y-13054460D01*
X4363039Y-13054460D02*
X4353515Y-13035412D01*
X4353515Y-13035412D02*
X4353515Y-12863984D01*
X4534468Y-13054460D02*
X4515420Y-13063984D01*
X4515420Y-13063984D02*
X4477325Y-13063984D01*
X4477325Y-13063984D02*
X4458277Y-13054460D01*
X4458277Y-13054460D02*
X4448753Y-13035412D01*
X4448753Y-13035412D02*
X4448753Y-12959222D01*
X4448753Y-12959222D02*
X4458277Y-12940174D01*
X4458277Y-12940174D02*
X4477325Y-12930650D01*
X4477325Y-12930650D02*
X4515420Y-12930650D01*
X4515420Y-12930650D02*
X4534468Y-12940174D01*
X4534468Y-12940174D02*
X4543992Y-12959222D01*
X4543992Y-12959222D02*
X4543992Y-12978269D01*
X4543992Y-12978269D02*
X4448753Y-12997317D01*
X4620182Y-13054460D02*
X4639230Y-13063984D01*
X4639230Y-13063984D02*
X4677325Y-13063984D01*
X4677325Y-13063984D02*
X4696373Y-13054460D01*
X4696373Y-13054460D02*
X4705896Y-13035412D01*
X4705896Y-13035412D02*
X4705896Y-13025888D01*
X4705896Y-13025888D02*
X4696373Y-13006841D01*
X4696373Y-13006841D02*
X4677325Y-12997317D01*
X4677325Y-12997317D02*
X4648753Y-12997317D01*
X4648753Y-12997317D02*
X4629706Y-12987793D01*
X4629706Y-12987793D02*
X4620182Y-12968746D01*
X4620182Y-12968746D02*
X4620182Y-12959222D01*
X4620182Y-12959222D02*
X4629706Y-12940174D01*
X4629706Y-12940174D02*
X4648753Y-12930650D01*
X4648753Y-12930650D02*
X4677325Y-12930650D01*
X4677325Y-12930650D02*
X4696373Y-12940174D01*
X4772563Y-13140174D02*
X4782087Y-13130650D01*
X4782087Y-13130650D02*
X4801134Y-13102079D01*
X4801134Y-13102079D02*
X4810658Y-13083031D01*
X4810658Y-13083031D02*
X4820182Y-13054460D01*
X4820182Y-13054460D02*
X4829706Y-13006841D01*
X4829706Y-13006841D02*
X4829706Y-12968746D01*
X4829706Y-12968746D02*
X4820182Y-12921127D01*
X4820182Y-12921127D02*
X4810658Y-12892555D01*
X4810658Y-12892555D02*
X4801134Y-12873508D01*
X4801134Y-12873508D02*
X4782087Y-12844936D01*
X4782087Y-12844936D02*
X4772563Y-12835412D01*
X5134468Y-13140174D02*
X5124944Y-13130650D01*
X5124944Y-13130650D02*
X5105896Y-13102079D01*
X5105896Y-13102079D02*
X5096373Y-13083031D01*
X5096373Y-13083031D02*
X5086849Y-13054460D01*
X5086849Y-13054460D02*
X5077325Y-13006841D01*
X5077325Y-13006841D02*
X5077325Y-12968746D01*
X5077325Y-12968746D02*
X5086849Y-12921127D01*
X5086849Y-12921127D02*
X5096373Y-12892555D01*
X5096373Y-12892555D02*
X5105896Y-12873508D01*
X5105896Y-12873508D02*
X5124944Y-12844936D01*
X5124944Y-12844936D02*
X5134468Y-12835412D01*
X5210658Y-12930650D02*
X5210658Y-13063984D01*
X5210658Y-12949698D02*
X5220182Y-12940174D01*
X5220182Y-12940174D02*
X5239230Y-12930650D01*
X5239230Y-12930650D02*
X5267801Y-12930650D01*
X5267801Y-12930650D02*
X5286849Y-12940174D01*
X5286849Y-12940174D02*
X5296373Y-12959222D01*
X5296373Y-12959222D02*
X5296373Y-13063984D01*
X5420182Y-13063984D02*
X5401134Y-13054460D01*
X5401134Y-13054460D02*
X5391611Y-13044936D01*
X5391611Y-13044936D02*
X5382087Y-13025888D01*
X5382087Y-13025888D02*
X5382087Y-12968746D01*
X5382087Y-12968746D02*
X5391611Y-12949698D01*
X5391611Y-12949698D02*
X5401134Y-12940174D01*
X5401134Y-12940174D02*
X5420182Y-12930650D01*
X5420182Y-12930650D02*
X5448754Y-12930650D01*
X5448754Y-12930650D02*
X5467801Y-12940174D01*
X5467801Y-12940174D02*
X5477325Y-12949698D01*
X5477325Y-12949698D02*
X5486849Y-12968746D01*
X5486849Y-12968746D02*
X5486849Y-13025888D01*
X5486849Y-13025888D02*
X5477325Y-13044936D01*
X5477325Y-13044936D02*
X5467801Y-13054460D01*
X5467801Y-13054460D02*
X5448754Y-13063984D01*
X5448754Y-13063984D02*
X5420182Y-13063984D01*
X5543992Y-12930650D02*
X5620182Y-12930650D01*
X5572563Y-12863984D02*
X5572563Y-13035412D01*
X5572563Y-13035412D02*
X5582087Y-13054460D01*
X5582087Y-13054460D02*
X5601134Y-13063984D01*
X5601134Y-13063984D02*
X5620182Y-13063984D01*
X5839230Y-12930650D02*
X5839230Y-13130650D01*
X5839230Y-12940174D02*
X5858277Y-12930650D01*
X5858277Y-12930650D02*
X5896373Y-12930650D01*
X5896373Y-12930650D02*
X5915420Y-12940174D01*
X5915420Y-12940174D02*
X5924944Y-12949698D01*
X5924944Y-12949698D02*
X5934468Y-12968746D01*
X5934468Y-12968746D02*
X5934468Y-13025888D01*
X5934468Y-13025888D02*
X5924944Y-13044936D01*
X5924944Y-13044936D02*
X5915420Y-13054460D01*
X5915420Y-13054460D02*
X5896373Y-13063984D01*
X5896373Y-13063984D02*
X5858277Y-13063984D01*
X5858277Y-13063984D02*
X5839230Y-13054460D01*
X6048753Y-13063984D02*
X6029706Y-13054460D01*
X6029706Y-13054460D02*
X6020182Y-13035412D01*
X6020182Y-13035412D02*
X6020182Y-12863984D01*
X6210658Y-13063984D02*
X6210658Y-12959222D01*
X6210658Y-12959222D02*
X6201134Y-12940174D01*
X6201134Y-12940174D02*
X6182087Y-12930650D01*
X6182087Y-12930650D02*
X6143992Y-12930650D01*
X6143992Y-12930650D02*
X6124944Y-12940174D01*
X6210658Y-13054460D02*
X6191611Y-13063984D01*
X6191611Y-13063984D02*
X6143992Y-13063984D01*
X6143992Y-13063984D02*
X6124944Y-13054460D01*
X6124944Y-13054460D02*
X6115420Y-13035412D01*
X6115420Y-13035412D02*
X6115420Y-13016365D01*
X6115420Y-13016365D02*
X6124944Y-12997317D01*
X6124944Y-12997317D02*
X6143992Y-12987793D01*
X6143992Y-12987793D02*
X6191611Y-12987793D01*
X6191611Y-12987793D02*
X6210658Y-12978269D01*
X6277325Y-12930650D02*
X6353515Y-12930650D01*
X6305896Y-12863984D02*
X6305896Y-13035412D01*
X6305896Y-13035412D02*
X6315420Y-13054460D01*
X6315420Y-13054460D02*
X6334468Y-13063984D01*
X6334468Y-13063984D02*
X6353515Y-13063984D01*
X6496373Y-13054460D02*
X6477325Y-13063984D01*
X6477325Y-13063984D02*
X6439230Y-13063984D01*
X6439230Y-13063984D02*
X6420182Y-13054460D01*
X6420182Y-13054460D02*
X6410658Y-13035412D01*
X6410658Y-13035412D02*
X6410658Y-12959222D01*
X6410658Y-12959222D02*
X6420182Y-12940174D01*
X6420182Y-12940174D02*
X6439230Y-12930650D01*
X6439230Y-12930650D02*
X6477325Y-12930650D01*
X6477325Y-12930650D02*
X6496373Y-12940174D01*
X6496373Y-12940174D02*
X6505896Y-12959222D01*
X6505896Y-12959222D02*
X6505896Y-12978269D01*
X6505896Y-12978269D02*
X6410658Y-12997317D01*
X6677325Y-13063984D02*
X6677325Y-12863984D01*
X6677325Y-13054460D02*
X6658277Y-13063984D01*
X6658277Y-13063984D02*
X6620182Y-13063984D01*
X6620182Y-13063984D02*
X6601134Y-13054460D01*
X6601134Y-13054460D02*
X6591611Y-13044936D01*
X6591611Y-13044936D02*
X6582087Y-13025888D01*
X6582087Y-13025888D02*
X6582087Y-12968746D01*
X6582087Y-12968746D02*
X6591611Y-12949698D01*
X6591611Y-12949698D02*
X6601134Y-12940174D01*
X6601134Y-12940174D02*
X6620182Y-12930650D01*
X6620182Y-12930650D02*
X6658277Y-12930650D01*
X6658277Y-12930650D02*
X6677325Y-12940174D01*
X6753515Y-13140174D02*
X6763039Y-13130650D01*
X6763039Y-13130650D02*
X6782087Y-13102079D01*
X6782087Y-13102079D02*
X6791611Y-13083031D01*
X6791611Y-13083031D02*
X6801134Y-13054460D01*
X6801134Y-13054460D02*
X6810658Y-13006841D01*
X6810658Y-13006841D02*
X6810658Y-12968746D01*
X6810658Y-12968746D02*
X6801134Y-12921127D01*
X6801134Y-12921127D02*
X6791611Y-12892555D01*
X6791611Y-12892555D02*
X6782087Y-12873508D01*
X6782087Y-12873508D02*
X6763039Y-12844936D01*
X6763039Y-12844936D02*
X6753515Y-12835412D01*
M02*
