%TF.GenerationSoftware,KiCad,Pcbnew,10.0.5-10.0.5~ubuntu26.04.1*%
%TF.CreationDate,2026-08-21T16:13:44+01:00*%
%TF.ProjectId,PCB_MERA_2,5043425f-4d45-4524-915f-322e6b696361,2*%
%TF.SameCoordinates,Original*%
%TF.FileFunction,Soldermask,Top*%
%TF.FilePolarity,Negative*%
%FSLAX46Y46*%
G04 Gerber Fmt 4.6, Leading zero omitted, Abs format (unit mm)*
G04 Created by KiCad (PCBNEW 10.0.5-10.0.5~ubuntu26.04.1) date 2026-08-21 16:13:44*
%MOMM*%
%LPD*%
G01*
G04 APERTURE LIST*
%ADD10C,1.500000*%
%ADD11O,3.400000X4.400000*%
%ADD12C,2.600000*%
%ADD13C,2.400000*%
%ADD14C,3.200000*%
%ADD15C,2.200000*%
%ADD16O,6.200000X4.800000*%
%ADD17C,1.800000*%
G04 APERTURE END LIST*
D10*
%TO.C,U1*%
X53300000Y-32140000D03*
X53300000Y-34680000D03*
X53300000Y-37220000D03*
X53300000Y-39760000D03*
X53300000Y-42300000D03*
X53300000Y-44840000D03*
X53300000Y-47380000D03*
X53300000Y-49920000D03*
X53300000Y-52460000D03*
X53300000Y-55000000D03*
X53300000Y-57540000D03*
X53300000Y-60080000D03*
X53300000Y-62620000D03*
X53300000Y-65160000D03*
X53300000Y-67700000D03*
X53300000Y-70240000D03*
X53300000Y-72780000D03*
X53300000Y-75320000D03*
X53300000Y-77860000D03*
X78700000Y-77860000D03*
X78700000Y-75320000D03*
X78700000Y-72780000D03*
X78700000Y-70240000D03*
X78700000Y-67700000D03*
X78700000Y-65160000D03*
X78700000Y-62620000D03*
X78700000Y-60080000D03*
X78700000Y-57540000D03*
X78700000Y-55000000D03*
X78700000Y-52460000D03*
X78700000Y-49920000D03*
X78700000Y-47380000D03*
X78700000Y-44840000D03*
X78700000Y-42300000D03*
X78700000Y-39760000D03*
X78700000Y-37220000D03*
X78700000Y-34680000D03*
X78700000Y-32140000D03*
%TD*%
%TO.C,U7*%
X106990000Y-46000000D03*
X109530000Y-46000000D03*
X112070000Y-46000000D03*
X114610000Y-46000000D03*
X117150000Y-46000000D03*
X119690000Y-46000000D03*
X122230000Y-46000000D03*
X124770000Y-46000000D03*
X127310000Y-46000000D03*
X129850000Y-46000000D03*
X132390000Y-46000000D03*
X134930000Y-46000000D03*
X137470000Y-46000000D03*
X140010000Y-46000000D03*
%TD*%
%TO.C,U4*%
X111260000Y-100000000D03*
X113800000Y-100000000D03*
X116340000Y-100000000D03*
X118880000Y-100000000D03*
X121420000Y-100000000D03*
X123960000Y-100000000D03*
X126500000Y-100000000D03*
X129040000Y-100000000D03*
%TD*%
%TO.C,U2*%
X11110000Y-82000000D03*
X13650000Y-82000000D03*
X16190000Y-82000000D03*
X18730000Y-82000000D03*
X21270000Y-82000000D03*
X23810000Y-82000000D03*
X26350000Y-82000000D03*
X28890000Y-82000000D03*
%TD*%
%TO.C,U3*%
X36190000Y-84000000D03*
X38730000Y-84000000D03*
X41270000Y-84000000D03*
X43810000Y-84000000D03*
%TD*%
D11*
%TO.C,U6*%
X7000000Y-13000000D03*
X7000000Y-21000000D03*
D12*
X14000000Y-27000000D03*
X19080000Y-27000000D03*
X24160000Y-27000000D03*
X29240000Y-27000000D03*
%TD*%
D13*
%TO.C,U8*%
X11000000Y-40000000D03*
X11000000Y-45000000D03*
X37500000Y-40000000D03*
X37500000Y-45000000D03*
X19000000Y-39000000D03*
X29500000Y-39000000D03*
%TD*%
D14*
%TO.C,BT1*%
X7460000Y-62000000D03*
X12540000Y-62000000D03*
%TD*%
D15*
%TO.C,U5*%
X40460000Y-64540000D03*
X43000000Y-64540000D03*
X45540000Y-64540000D03*
D16*
X43000000Y-57000000D03*
%TD*%
D17*
%TO.C,C1*%
X38730000Y-74000000D03*
X41270000Y-74000000D03*
%TD*%
%TO.C,C2*%
X45730000Y-74000000D03*
X48270000Y-74000000D03*
%TD*%
%TO.C,BZ1*%
X56190000Y-93000000D03*
X63810000Y-93000000D03*
%TD*%
D14*
%TO.C,MH1*%
X4000000Y-4000000D03*
%TD*%
%TO.C,MH2*%
X156000000Y-52000000D03*
%TD*%
%TO.C,MH3*%
X4000000Y-100000000D03*
%TD*%
%TO.C,MH4*%
X156000000Y-100000000D03*
%TD*%
M02*
