%TF.GenerationSoftware,KiCad,Pcbnew,10.0.5-10.0.5~ubuntu26.04.1*%
%TF.CreationDate,2026-08-21T16:13:44+01:00*%
%TF.ProjectId,PCB_MERA_2,5043425f-4d45-4524-915f-322e6b696361,2*%
%TF.SameCoordinates,Original*%
%TF.FileFunction,Copper,L2,Bot*%
%TF.FilePolarity,Positive*%
%FSLAX46Y46*%
G04 Gerber Fmt 4.6, Leading zero omitted, Abs format (unit mm)*
G04 Created by KiCad (PCBNEW 10.0.5-10.0.5~ubuntu26.04.1) date 2026-08-21 16:13:44*
%MOMM*%
%LPD*%
G01*
G04 APERTURE LIST*
%TA.AperFunction,ComponentPad*%
%ADD10C,1.500000*%
%TD*%
%TA.AperFunction,ComponentPad*%
%ADD11O,3.400000X4.400000*%
%TD*%
%TA.AperFunction,ComponentPad*%
%ADD12C,2.600000*%
%TD*%
%TA.AperFunction,ComponentPad*%
%ADD13C,2.400000*%
%TD*%
%TA.AperFunction,ComponentPad*%
%ADD14C,3.200000*%
%TD*%
%TA.AperFunction,ComponentPad*%
%ADD15C,2.200000*%
%TD*%
%TA.AperFunction,ComponentPad*%
%ADD16O,6.200000X4.800000*%
%TD*%
%TA.AperFunction,ComponentPad*%
%ADD17C,1.800000*%
%TD*%
%TA.AperFunction,ViaPad*%
%ADD18C,1.200000*%
%TD*%
%TA.AperFunction,Conductor*%
%ADD19C,0.500000*%
%TD*%
%TA.AperFunction,Conductor*%
%ADD20C,1.000000*%
%TD*%
G04 APERTURE END LIST*
D10*
%TO.P,U1,1,3V3*%
%TO.N,3V3*%
X53300000Y-32140000D03*
%TO.P,U1,2,EN*%
%TO.N,N/C*%
X53300000Y-34680000D03*
%TO.P,U1,3,VP*%
X53300000Y-37220000D03*
%TO.P,U1,4,VN*%
X53300000Y-39760000D03*
%TO.P,U1,5,D34*%
X53300000Y-42300000D03*
%TO.P,U1,6,D35*%
X53300000Y-44840000D03*
%TO.P,U1,7,D32*%
%TO.N,GPIO32*%
X53300000Y-47380000D03*
%TO.P,U1,8,D33*%
%TO.N,N/C*%
X53300000Y-49920000D03*
%TO.P,U1,9,D25*%
X53300000Y-52460000D03*
%TO.P,U1,10,D26*%
X53300000Y-55000000D03*
%TO.P,U1,11,D27*%
%TO.N,GPIO27*%
X53300000Y-57540000D03*
%TO.P,U1,12,D14*%
%TO.N,N/C*%
X53300000Y-60080000D03*
%TO.P,U1,13,D12*%
X53300000Y-62620000D03*
%TO.P,U1,14,GND*%
X53300000Y-65160000D03*
%TO.P,U1,15,D13*%
X53300000Y-67700000D03*
%TO.P,U1,16,SD2*%
X53300000Y-70240000D03*
%TO.P,U1,17,SD3*%
X53300000Y-72780000D03*
%TO.P,U1,18,CMD*%
X53300000Y-75320000D03*
%TO.P,U1,19,VIN*%
%TO.N,5V*%
X53300000Y-77860000D03*
%TO.P,U1,20,CLK*%
%TO.N,N/C*%
X78700000Y-77860000D03*
%TO.P,U1,21,SD0*%
X78700000Y-75320000D03*
%TO.P,U1,22,SD1*%
X78700000Y-72780000D03*
%TO.P,U1,23,D15*%
%TO.N,GPIO15*%
X78700000Y-70240000D03*
%TO.P,U1,24,D2*%
%TO.N,GPIO2*%
X78700000Y-67700000D03*
%TO.P,U1,25,D0*%
%TO.N,N/C*%
X78700000Y-65160000D03*
%TO.P,U1,26,D4*%
%TO.N,GPIO4*%
X78700000Y-62620000D03*
%TO.P,U1,27,D16*%
%TO.N,N/C*%
X78700000Y-60080000D03*
%TO.P,U1,28,D17*%
X78700000Y-57540000D03*
%TO.P,U1,29,D5*%
%TO.N,GPIO5*%
X78700000Y-55000000D03*
%TO.P,U1,30,D18*%
%TO.N,GPIO18*%
X78700000Y-52460000D03*
%TO.P,U1,31,D19*%
%TO.N,GPIO19*%
X78700000Y-49920000D03*
%TO.P,U1,32,GND*%
%TO.N,N/C*%
X78700000Y-47380000D03*
%TO.P,U1,33,D21*%
%TO.N,GPIO21*%
X78700000Y-44840000D03*
%TO.P,U1,34,RX0*%
%TO.N,N/C*%
X78700000Y-42300000D03*
%TO.P,U1,35,TX0*%
X78700000Y-39760000D03*
%TO.P,U1,36,D22*%
%TO.N,GPIO22*%
X78700000Y-37220000D03*
%TO.P,U1,37,D23*%
%TO.N,GPIO23*%
X78700000Y-34680000D03*
%TO.P,U1,38,GND*%
%TO.N,GND*%
X78700000Y-32140000D03*
%TD*%
%TO.P,U7,1,VCC*%
%TO.N,3V3*%
X106990000Y-46000000D03*
%TO.P,U7,2,GND*%
%TO.N,GND*%
X109530000Y-46000000D03*
%TO.P,U7,3,CS*%
%TO.N,GPIO15*%
X112070000Y-46000000D03*
%TO.P,U7,4,RST*%
%TO.N,GPIO4*%
X114610000Y-46000000D03*
%TO.P,U7,5,DC*%
%TO.N,GPIO2*%
X117150000Y-46000000D03*
%TO.P,U7,6,MOSI*%
%TO.N,GPIO23*%
X119690000Y-46000000D03*
%TO.P,U7,7,SCK*%
%TO.N,GPIO18*%
X122230000Y-46000000D03*
%TO.P,U7,8,LED*%
%TO.N,5V*%
X124770000Y-46000000D03*
%TO.P,U7,9,MISO*%
%TO.N,GPIO19*%
X127310000Y-46000000D03*
%TO.P,U7,10,T_CLK*%
%TO.N,N/C*%
X129850000Y-46000000D03*
%TO.P,U7,11,T_CS*%
X132390000Y-46000000D03*
%TO.P,U7,12,T_DIN*%
X134930000Y-46000000D03*
%TO.P,U7,13,T_DO*%
X137470000Y-46000000D03*
%TO.P,U7,14,T_IRQ*%
X140010000Y-46000000D03*
%TD*%
%TO.P,U4,1,SDA*%
%TO.N,GPIO5*%
X111260000Y-100000000D03*
%TO.P,U4,2,SCK*%
%TO.N,GPIO18*%
X113800000Y-100000000D03*
%TO.P,U4,3,MOSI*%
%TO.N,GPIO23*%
X116340000Y-100000000D03*
%TO.P,U4,4,MISO*%
%TO.N,GPIO19*%
X118880000Y-100000000D03*
%TO.P,U4,5,IRQ*%
%TO.N,N/C*%
X121420000Y-100000000D03*
%TO.P,U4,6,GND*%
%TO.N,GND*%
X123960000Y-100000000D03*
%TO.P,U4,7,RST*%
%TO.N,GPIO27*%
X126500000Y-100000000D03*
%TO.P,U4,8,3V3*%
%TO.N,3V3*%
X129040000Y-100000000D03*
%TD*%
%TO.P,U2,1,GND*%
%TO.N,GND*%
X11110000Y-82000000D03*
%TO.P,U2,2,SCL*%
%TO.N,GPIO22*%
X13650000Y-82000000D03*
%TO.P,U2,3,SDA*%
%TO.N,GPIO21*%
X16190000Y-82000000D03*
%TO.P,U2,4,VIN*%
%TO.N,3V3*%
X18730000Y-82000000D03*
%TO.P,U2,5,INT*%
%TO.N,N/C*%
X21270000Y-82000000D03*
%TO.P,U2,6,IRD*%
X23810000Y-82000000D03*
%TO.P,U2,7,RD*%
X26350000Y-82000000D03*
%TO.P,U2,8,GND*%
X28890000Y-82000000D03*
%TD*%
%TO.P,U3,1,VIN*%
%TO.N,3V3*%
X36190000Y-84000000D03*
%TO.P,U3,2,GND*%
%TO.N,GND*%
X38730000Y-84000000D03*
%TO.P,U3,3,SCL*%
%TO.N,GPIO22*%
X41270000Y-84000000D03*
%TO.P,U3,4,SDA*%
%TO.N,GPIO21*%
X43810000Y-84000000D03*
%TD*%
D11*
%TO.P,U6,1,SOLAR+*%
%TO.N,N/C*%
X7000000Y-13000000D03*
%TO.P,U6,2,SOLAR-*%
X7000000Y-21000000D03*
D12*
%TO.P,U6,3,VIN*%
X14000000Y-27000000D03*
%TO.P,U6,4,GND*%
X19080000Y-27000000D03*
%TO.P,U6,5,GND*%
%TO.N,GND*%
X24160000Y-27000000D03*
%TO.P,U6,6,BAT+*%
%TO.N,BAT+*%
X29240000Y-27000000D03*
%TD*%
D13*
%TO.P,U8,1,VIN+*%
%TO.N,N/C*%
X11000000Y-40000000D03*
%TO.P,U8,2,VIN-*%
X11000000Y-45000000D03*
%TO.P,U8,3,OUT+*%
%TO.N,Net-(U5-VIN)*%
X37500000Y-40000000D03*
%TO.P,U8,4,OUT-*%
%TO.N,GND*%
X37500000Y-45000000D03*
%TO.P,U8,5,B+*%
%TO.N,BAT+*%
X19000000Y-39000000D03*
%TO.P,U8,6,B-*%
%TO.N,BAT-*%
X29500000Y-39000000D03*
%TD*%
D14*
%TO.P,BT1,1,BAT+*%
%TO.N,BAT+*%
X7460000Y-62000000D03*
%TO.P,BT1,2,BAT-*%
%TO.N,BAT-*%
X12540000Y-62000000D03*
%TD*%
D15*
%TO.P,U5,1,GND*%
%TO.N,GND*%
X40460000Y-64540000D03*
%TO.P,U5,2,VO*%
%TO.N,5V*%
X43000000Y-64540000D03*
%TO.P,U5,3,VI*%
%TO.N,Net-(U5-VIN)*%
X45540000Y-64540000D03*
D16*
%TO.P,U5,Tab,tab*%
%TO.N,GND*%
X43000000Y-57000000D03*
%TD*%
D17*
%TO.P,C1,1,+*%
%TO.N,Net-(U5-VIN)*%
X38730000Y-74000000D03*
%TO.P,C1,2,-*%
%TO.N,GND*%
X41270000Y-74000000D03*
%TD*%
%TO.P,C2,1,+*%
%TO.N,5V*%
X45730000Y-74000000D03*
%TO.P,C2,2,-*%
%TO.N,GND*%
X48270000Y-74000000D03*
%TD*%
%TO.P,BZ1,1,+*%
%TO.N,GPIO32*%
X56190000Y-93000000D03*
%TO.P,BZ1,2,-*%
%TO.N,GND*%
X63810000Y-93000000D03*
%TD*%
D18*
%TO.N,GND*%
X109220000Y-41910000D03*
%TO.N,3V3*%
X76835000Y-30480000D03*
%TO.N,BAT-*%
X26670000Y-34925000D03*
%TO.N,GPIO18*%
X106680000Y-95885000D03*
%TO.N,GPIO19*%
X75565000Y-33020000D03*
X127000000Y-37465000D03*
%TO.N,GPIO23*%
X78105000Y-34925000D03*
X73660000Y-27940000D03*
X124460000Y-43180000D03*
X105410000Y-93345000D03*
%TO.N,GPIO21*%
X78105000Y-45085000D03*
%TO.N,GPIO22*%
X78105000Y-37465000D03*
X57150000Y-24765000D03*
%TO.N,GPIO5*%
X73660000Y-55245000D03*
X73660000Y-77470000D03*
%TO.N,GPIO32*%
X55880000Y-55245000D03*
X55880000Y-77470000D03*
%TD*%
%TO.N,GPIO15*%
D19*
X78740000Y-70485000D02*
X80010000Y-70485000D01*
X80010000Y-70485000D02*
X80645000Y-70485000D01*
X80645000Y-70485000D02*
X81915000Y-70485000D01*
X81915000Y-70485000D02*
X82550000Y-70485000D01*
X82550000Y-70485000D02*
X83820000Y-70485000D01*
X83820000Y-70485000D02*
X84455000Y-70485000D01*
X84455000Y-70485000D02*
X85090000Y-70485000D01*
X85090000Y-70485000D02*
X85725000Y-70485000D01*
X85725000Y-70485000D02*
X86995000Y-70485000D01*
X86995000Y-70485000D02*
X87630000Y-70485000D01*
X87630000Y-70485000D02*
X88900000Y-70485000D01*
X88900000Y-70485000D02*
X89535000Y-70485000D01*
X89535000Y-70485000D02*
X90805000Y-70485000D01*
X90805000Y-70485000D02*
X91440000Y-70485000D01*
X91440000Y-70485000D02*
X92710000Y-70485000D01*
X92710000Y-70485000D02*
X93345000Y-70485000D01*
X93345000Y-70485000D02*
X93980000Y-70485000D01*
X93980000Y-70485000D02*
X94615000Y-70485000D01*
X94615000Y-70485000D02*
X95885000Y-70485000D01*
X95885000Y-70485000D02*
X96520000Y-70485000D01*
X96520000Y-70485000D02*
X97790000Y-70485000D01*
X97790000Y-70485000D02*
X98425000Y-70485000D01*
X98425000Y-70485000D02*
X99695000Y-70485000D01*
X99695000Y-70485000D02*
X100330000Y-70485000D01*
X100330000Y-70485000D02*
X100965000Y-70485000D01*
X100965000Y-70485000D02*
X101600000Y-70485000D01*
X101600000Y-70485000D02*
X102870000Y-70485000D01*
X102870000Y-70485000D02*
X103505000Y-70485000D01*
X103505000Y-70485000D02*
X104775000Y-70485000D01*
X104775000Y-70485000D02*
X105410000Y-70485000D01*
X105410000Y-70485000D02*
X106680000Y-70485000D01*
X106680000Y-70485000D02*
X107315000Y-70485000D01*
X107315000Y-70485000D02*
X108585000Y-70485000D01*
X108585000Y-70485000D02*
X109220000Y-70485000D01*
X109220000Y-70485000D02*
X109855000Y-70485000D01*
X109855000Y-70485000D02*
X110490000Y-70485000D01*
X110490000Y-70485000D02*
X111760000Y-70485000D01*
X111760000Y-70485000D02*
X111760000Y-69850000D01*
X111760000Y-69850000D02*
X111760000Y-69215000D01*
X111760000Y-69215000D02*
X111760000Y-68580000D01*
X111760000Y-68580000D02*
X111760000Y-67945000D01*
X111760000Y-67945000D02*
X111760000Y-66675000D01*
X111760000Y-66675000D02*
X111760000Y-66040000D01*
X111760000Y-66040000D02*
X111760000Y-64770000D01*
X111760000Y-64770000D02*
X111760000Y-64135000D01*
X111760000Y-64135000D02*
X111760000Y-63500000D01*
X111760000Y-63500000D02*
X111760000Y-62230000D01*
X111760000Y-62230000D02*
X111760000Y-61595000D01*
X111760000Y-61595000D02*
X111760000Y-60325000D01*
X111760000Y-60325000D02*
X111760000Y-59690000D01*
X111760000Y-59690000D02*
X111760000Y-57785000D01*
X111760000Y-57785000D02*
X111760000Y-57150000D01*
X111760000Y-57150000D02*
X111760000Y-55880000D01*
X111760000Y-55880000D02*
X111760000Y-55245000D01*
X111760000Y-55245000D02*
X111760000Y-53340000D01*
X111760000Y-53340000D02*
X111760000Y-52705000D01*
X111760000Y-52705000D02*
X111760000Y-51435000D01*
X111760000Y-51435000D02*
X111760000Y-50800000D01*
X111760000Y-50800000D02*
X111760000Y-48895000D01*
X111760000Y-48895000D02*
X111760000Y-48260000D01*
X111760000Y-48260000D02*
X111760000Y-46355000D01*
X111760000Y-46355000D02*
X111760000Y-45720000D01*
%TO.N,GPIO2*%
X78740000Y-67945000D02*
X80010000Y-67945000D01*
X80010000Y-67945000D02*
X80645000Y-67945000D01*
X80645000Y-67945000D02*
X81915000Y-67945000D01*
X81915000Y-67945000D02*
X82550000Y-67945000D01*
X82550000Y-67945000D02*
X83820000Y-67945000D01*
X83820000Y-67945000D02*
X84455000Y-67945000D01*
X84455000Y-67945000D02*
X85090000Y-67945000D01*
X85090000Y-67945000D02*
X85725000Y-67945000D01*
X85725000Y-67945000D02*
X86995000Y-67945000D01*
X86995000Y-67945000D02*
X87630000Y-67945000D01*
X87630000Y-67945000D02*
X88900000Y-67945000D01*
X88900000Y-67945000D02*
X89535000Y-67945000D01*
X89535000Y-67945000D02*
X90805000Y-67945000D01*
X90805000Y-67945000D02*
X91440000Y-67945000D01*
X91440000Y-67945000D02*
X92710000Y-67945000D01*
X92710000Y-67945000D02*
X93345000Y-67945000D01*
X93345000Y-67945000D02*
X93980000Y-67945000D01*
X93980000Y-67945000D02*
X94615000Y-67945000D01*
X94615000Y-67945000D02*
X95885000Y-67945000D01*
X95885000Y-67945000D02*
X96520000Y-67945000D01*
X96520000Y-67945000D02*
X97790000Y-67945000D01*
X97790000Y-67945000D02*
X98425000Y-67945000D01*
X98425000Y-67945000D02*
X99695000Y-67945000D01*
X99695000Y-67945000D02*
X100330000Y-67945000D01*
X100330000Y-67945000D02*
X100965000Y-67945000D01*
X100965000Y-67945000D02*
X101600000Y-67945000D01*
X101600000Y-67945000D02*
X102870000Y-67945000D01*
X102870000Y-67945000D02*
X103505000Y-67945000D01*
X103505000Y-67945000D02*
X104775000Y-67945000D01*
X104775000Y-67945000D02*
X105410000Y-67945000D01*
X105410000Y-67945000D02*
X105410000Y-66675000D01*
X105410000Y-66675000D02*
X105410000Y-66040000D01*
X105410000Y-66040000D02*
X105410000Y-64770000D01*
X105410000Y-64770000D02*
X105410000Y-64135000D01*
X105410000Y-64135000D02*
X105410000Y-63500000D01*
X105410000Y-63500000D02*
X105410000Y-62230000D01*
X105410000Y-62230000D02*
X105410000Y-61595000D01*
X105410000Y-61595000D02*
X105410000Y-60325000D01*
X105410000Y-60325000D02*
X105410000Y-59690000D01*
X105410000Y-59690000D02*
X105410000Y-57785000D01*
X105410000Y-57785000D02*
X105410000Y-57150000D01*
X105410000Y-57150000D02*
X105410000Y-55880000D01*
X105410000Y-55880000D02*
X105410000Y-55245000D01*
X105410000Y-55245000D02*
X105410000Y-53340000D01*
X105410000Y-53340000D02*
X105410000Y-52705000D01*
X105410000Y-52705000D02*
X105410000Y-51435000D01*
X105410000Y-51435000D02*
X105410000Y-50800000D01*
X105410000Y-50800000D02*
X105410000Y-48895000D01*
X105410000Y-48895000D02*
X105410000Y-48260000D01*
X105410000Y-48260000D02*
X105410000Y-46355000D01*
X105410000Y-46355000D02*
X105410000Y-45720000D01*
X105410000Y-45720000D02*
X105410000Y-44450000D01*
X105410000Y-44450000D02*
X106680000Y-44450000D01*
X106680000Y-44450000D02*
X107315000Y-44450000D01*
X107315000Y-44450000D02*
X108585000Y-44450000D01*
X108585000Y-44450000D02*
X109220000Y-44450000D01*
X109220000Y-44450000D02*
X109855000Y-44450000D01*
X109855000Y-44450000D02*
X110490000Y-44450000D01*
X110490000Y-44450000D02*
X111760000Y-44450000D01*
X111760000Y-44450000D02*
X112395000Y-44450000D01*
X112395000Y-44450000D02*
X113665000Y-44450000D01*
X113665000Y-44450000D02*
X114300000Y-44450000D01*
X114300000Y-44450000D02*
X115570000Y-44450000D01*
X115570000Y-44450000D02*
X116205000Y-44450000D01*
X116205000Y-44450000D02*
X116840000Y-44450000D01*
X116840000Y-44450000D02*
X116840000Y-45720000D01*
%TO.N,GPIO4*%
X78740000Y-62865000D02*
X78105000Y-62865000D01*
X78105000Y-62865000D02*
X77470000Y-62865000D01*
X77470000Y-62865000D02*
X77470000Y-63500000D01*
X77470000Y-63500000D02*
X77470000Y-64135000D01*
X77470000Y-64135000D02*
X77470000Y-64770000D01*
X77470000Y-64770000D02*
X77470000Y-66040000D01*
X77470000Y-66040000D02*
X77470000Y-66675000D01*
X77470000Y-66675000D02*
X77470000Y-67945000D01*
X77470000Y-67945000D02*
X77470000Y-68580000D01*
X77470000Y-68580000D02*
X77470000Y-69215000D01*
X77470000Y-69215000D02*
X77470000Y-69850000D01*
X77470000Y-69850000D02*
X77470000Y-71120000D01*
X77470000Y-71120000D02*
X77470000Y-71755000D01*
X77470000Y-71755000D02*
X77470000Y-73025000D01*
X77470000Y-73025000D02*
X77470000Y-73660000D01*
X77470000Y-73660000D02*
X77470000Y-74930000D01*
X77470000Y-74930000D02*
X77470000Y-75565000D01*
X77470000Y-75565000D02*
X77470000Y-76835000D01*
X77470000Y-76835000D02*
X77470000Y-77470000D01*
X77470000Y-77470000D02*
X77470000Y-78105000D01*
X77470000Y-78105000D02*
X77470000Y-78740000D01*
X77470000Y-78740000D02*
X77470000Y-79375000D01*
X77470000Y-79375000D02*
X78105000Y-79375000D01*
X78105000Y-79375000D02*
X78740000Y-79375000D01*
X78740000Y-79375000D02*
X80010000Y-79375000D01*
X80010000Y-79375000D02*
X80645000Y-79375000D01*
X80645000Y-79375000D02*
X81915000Y-79375000D01*
X81915000Y-79375000D02*
X82550000Y-79375000D01*
X82550000Y-79375000D02*
X83820000Y-79375000D01*
X83820000Y-79375000D02*
X84455000Y-79375000D01*
X84455000Y-79375000D02*
X85090000Y-79375000D01*
X85090000Y-79375000D02*
X85725000Y-79375000D01*
X85725000Y-79375000D02*
X86995000Y-79375000D01*
X86995000Y-79375000D02*
X87630000Y-79375000D01*
X87630000Y-79375000D02*
X88900000Y-79375000D01*
X88900000Y-79375000D02*
X89535000Y-79375000D01*
X89535000Y-79375000D02*
X90805000Y-79375000D01*
X90805000Y-79375000D02*
X91440000Y-79375000D01*
X91440000Y-79375000D02*
X92710000Y-79375000D01*
X92710000Y-79375000D02*
X93345000Y-79375000D01*
X93345000Y-79375000D02*
X93980000Y-79375000D01*
X93980000Y-79375000D02*
X94615000Y-79375000D01*
X94615000Y-79375000D02*
X95885000Y-79375000D01*
X95885000Y-79375000D02*
X96520000Y-79375000D01*
X96520000Y-79375000D02*
X97790000Y-79375000D01*
X97790000Y-79375000D02*
X98425000Y-79375000D01*
X98425000Y-79375000D02*
X99695000Y-79375000D01*
X99695000Y-79375000D02*
X100330000Y-79375000D01*
X100330000Y-79375000D02*
X100965000Y-79375000D01*
X100965000Y-79375000D02*
X101600000Y-79375000D01*
X101600000Y-79375000D02*
X102870000Y-79375000D01*
X102870000Y-79375000D02*
X103505000Y-79375000D01*
X103505000Y-79375000D02*
X104775000Y-79375000D01*
X104775000Y-79375000D02*
X105410000Y-79375000D01*
X105410000Y-79375000D02*
X106680000Y-79375000D01*
X106680000Y-79375000D02*
X107315000Y-79375000D01*
X107315000Y-79375000D02*
X108585000Y-79375000D01*
X108585000Y-79375000D02*
X109220000Y-79375000D01*
X109220000Y-79375000D02*
X109855000Y-79375000D01*
X109855000Y-79375000D02*
X110490000Y-79375000D01*
X110490000Y-79375000D02*
X111760000Y-79375000D01*
X111760000Y-79375000D02*
X112395000Y-79375000D01*
X112395000Y-79375000D02*
X113665000Y-79375000D01*
X113665000Y-79375000D02*
X114300000Y-79375000D01*
X114300000Y-79375000D02*
X114300000Y-78740000D01*
X114300000Y-78740000D02*
X114300000Y-78105000D01*
X114300000Y-78105000D02*
X114300000Y-77470000D01*
X114300000Y-77470000D02*
X114300000Y-76835000D01*
X114300000Y-76835000D02*
X114300000Y-75565000D01*
X114300000Y-75565000D02*
X114300000Y-74930000D01*
X114300000Y-74930000D02*
X114300000Y-73660000D01*
X114300000Y-73660000D02*
X114300000Y-73025000D01*
X114300000Y-73025000D02*
X114300000Y-71755000D01*
X114300000Y-71755000D02*
X114300000Y-71120000D01*
X114300000Y-71120000D02*
X114300000Y-69850000D01*
X114300000Y-69850000D02*
X114300000Y-69215000D01*
X114300000Y-69215000D02*
X114300000Y-68580000D01*
X114300000Y-68580000D02*
X114300000Y-67945000D01*
X114300000Y-67945000D02*
X114300000Y-66675000D01*
X114300000Y-66675000D02*
X114300000Y-66040000D01*
X114300000Y-66040000D02*
X114300000Y-64770000D01*
X114300000Y-64770000D02*
X114300000Y-64135000D01*
X114300000Y-64135000D02*
X114300000Y-63500000D01*
X114300000Y-63500000D02*
X114300000Y-62230000D01*
X114300000Y-62230000D02*
X114300000Y-61595000D01*
X114300000Y-61595000D02*
X114300000Y-60325000D01*
X114300000Y-60325000D02*
X114300000Y-59690000D01*
X114300000Y-59690000D02*
X114300000Y-57785000D01*
X114300000Y-57785000D02*
X114300000Y-57150000D01*
X114300000Y-57150000D02*
X114300000Y-55880000D01*
X114300000Y-55880000D02*
X114300000Y-55245000D01*
X114300000Y-55245000D02*
X114300000Y-53340000D01*
X114300000Y-53340000D02*
X114300000Y-52705000D01*
X114300000Y-52705000D02*
X114300000Y-51435000D01*
X114300000Y-51435000D02*
X114300000Y-50800000D01*
X114300000Y-50800000D02*
X114300000Y-48895000D01*
X114300000Y-48895000D02*
X114300000Y-48260000D01*
X114300000Y-48260000D02*
X114300000Y-46355000D01*
X114300000Y-46355000D02*
X114300000Y-45720000D01*
%TO.N,GPIO27*%
X53340000Y-57785000D02*
X55245000Y-57785000D01*
X55245000Y-57785000D02*
X55880000Y-57785000D01*
X55880000Y-57785000D02*
X57150000Y-57785000D01*
X57150000Y-57785000D02*
X57785000Y-57785000D01*
X57785000Y-57785000D02*
X59690000Y-57785000D01*
X59690000Y-57785000D02*
X60325000Y-57785000D01*
X60325000Y-57785000D02*
X61595000Y-57785000D01*
X61595000Y-57785000D02*
X62230000Y-57785000D01*
X62230000Y-57785000D02*
X63500000Y-57785000D01*
X63500000Y-57785000D02*
X64135000Y-57785000D01*
X64135000Y-57785000D02*
X64770000Y-57785000D01*
X64770000Y-57785000D02*
X66040000Y-57785000D01*
X66040000Y-57785000D02*
X66675000Y-57785000D01*
X66675000Y-57785000D02*
X67945000Y-57785000D01*
X67945000Y-57785000D02*
X68580000Y-57785000D01*
X68580000Y-57785000D02*
X69215000Y-57785000D01*
X69215000Y-57785000D02*
X69850000Y-57785000D01*
X69850000Y-57785000D02*
X71120000Y-57785000D01*
X71120000Y-57785000D02*
X71755000Y-57785000D01*
X71755000Y-57785000D02*
X73025000Y-57785000D01*
X73025000Y-57785000D02*
X73660000Y-57785000D01*
X73660000Y-57785000D02*
X74930000Y-57785000D01*
X74930000Y-57785000D02*
X75565000Y-57785000D01*
X75565000Y-57785000D02*
X76200000Y-57785000D01*
X76200000Y-57785000D02*
X76200000Y-59690000D01*
X76200000Y-59690000D02*
X76200000Y-60325000D01*
X76200000Y-60325000D02*
X76200000Y-61595000D01*
X76200000Y-61595000D02*
X76200000Y-62230000D01*
X76200000Y-62230000D02*
X76200000Y-63500000D01*
X76200000Y-63500000D02*
X76200000Y-64135000D01*
X76200000Y-64135000D02*
X76200000Y-64770000D01*
X76200000Y-64770000D02*
X76200000Y-66040000D01*
X76200000Y-66040000D02*
X76200000Y-66675000D01*
X76200000Y-66675000D02*
X76200000Y-67945000D01*
X76200000Y-67945000D02*
X76200000Y-68580000D01*
X76200000Y-68580000D02*
X76200000Y-69215000D01*
X76200000Y-69215000D02*
X76200000Y-69850000D01*
X76200000Y-69850000D02*
X76200000Y-71120000D01*
X76200000Y-71120000D02*
X76200000Y-71755000D01*
X76200000Y-71755000D02*
X76200000Y-73025000D01*
X76200000Y-73025000D02*
X76200000Y-73660000D01*
X76200000Y-73660000D02*
X76200000Y-74930000D01*
X76200000Y-74930000D02*
X76200000Y-75565000D01*
X76200000Y-75565000D02*
X76200000Y-76835000D01*
X76200000Y-76835000D02*
X76200000Y-77470000D01*
X76200000Y-77470000D02*
X76200000Y-78105000D01*
X76200000Y-78105000D02*
X76200000Y-78740000D01*
X76200000Y-78740000D02*
X76200000Y-80010000D01*
X76200000Y-80010000D02*
X76200000Y-80645000D01*
X76200000Y-80645000D02*
X76200000Y-81915000D01*
X76200000Y-81915000D02*
X76200000Y-82550000D01*
X76200000Y-82550000D02*
X76200000Y-83820000D01*
X76200000Y-83820000D02*
X76200000Y-84455000D01*
X76200000Y-84455000D02*
X76200000Y-85090000D01*
X76200000Y-85090000D02*
X76200000Y-85725000D01*
X76200000Y-85725000D02*
X76200000Y-86995000D01*
X76200000Y-86995000D02*
X76200000Y-87630000D01*
X76200000Y-87630000D02*
X76200000Y-88900000D01*
X76200000Y-88900000D02*
X76200000Y-89535000D01*
X76200000Y-89535000D02*
X76200000Y-90805000D01*
X76200000Y-90805000D02*
X76200000Y-91440000D01*
X76200000Y-91440000D02*
X76200000Y-92710000D01*
X76200000Y-92710000D02*
X76200000Y-93345000D01*
X76200000Y-93345000D02*
X76200000Y-93980000D01*
X76200000Y-93980000D02*
X76200000Y-94615000D01*
X76200000Y-94615000D02*
X76200000Y-95885000D01*
X76200000Y-95885000D02*
X76200000Y-96520000D01*
X76200000Y-96520000D02*
X76200000Y-97790000D01*
X76200000Y-97790000D02*
X76200000Y-98425000D01*
X76200000Y-98425000D02*
X76835000Y-98425000D01*
X76835000Y-98425000D02*
X77470000Y-98425000D01*
X77470000Y-98425000D02*
X78105000Y-98425000D01*
X78105000Y-98425000D02*
X78740000Y-98425000D01*
X78740000Y-98425000D02*
X80010000Y-98425000D01*
X80010000Y-98425000D02*
X80645000Y-98425000D01*
X80645000Y-98425000D02*
X81915000Y-98425000D01*
X81915000Y-98425000D02*
X82550000Y-98425000D01*
X82550000Y-98425000D02*
X83820000Y-98425000D01*
X83820000Y-98425000D02*
X84455000Y-98425000D01*
X84455000Y-98425000D02*
X85090000Y-98425000D01*
X85090000Y-98425000D02*
X85725000Y-98425000D01*
X85725000Y-98425000D02*
X86995000Y-98425000D01*
X86995000Y-98425000D02*
X87630000Y-98425000D01*
X87630000Y-98425000D02*
X88900000Y-98425000D01*
X88900000Y-98425000D02*
X89535000Y-98425000D01*
X89535000Y-98425000D02*
X90805000Y-98425000D01*
X90805000Y-98425000D02*
X91440000Y-98425000D01*
X91440000Y-98425000D02*
X92710000Y-98425000D01*
X92710000Y-98425000D02*
X93345000Y-98425000D01*
X93345000Y-98425000D02*
X93980000Y-98425000D01*
X93980000Y-98425000D02*
X94615000Y-98425000D01*
X94615000Y-98425000D02*
X95885000Y-98425000D01*
X95885000Y-98425000D02*
X96520000Y-98425000D01*
X96520000Y-98425000D02*
X97790000Y-98425000D01*
X97790000Y-98425000D02*
X98425000Y-98425000D01*
X98425000Y-98425000D02*
X99695000Y-98425000D01*
X99695000Y-98425000D02*
X100330000Y-98425000D01*
X100330000Y-98425000D02*
X100965000Y-98425000D01*
X100965000Y-98425000D02*
X101600000Y-98425000D01*
X101600000Y-98425000D02*
X102870000Y-98425000D01*
X102870000Y-98425000D02*
X103505000Y-98425000D01*
X103505000Y-98425000D02*
X104775000Y-98425000D01*
X104775000Y-98425000D02*
X105410000Y-98425000D01*
X105410000Y-98425000D02*
X106680000Y-98425000D01*
X106680000Y-98425000D02*
X107315000Y-98425000D01*
X107315000Y-98425000D02*
X108585000Y-98425000D01*
X108585000Y-98425000D02*
X109220000Y-98425000D01*
X109220000Y-98425000D02*
X109855000Y-98425000D01*
X109855000Y-98425000D02*
X110490000Y-98425000D01*
X110490000Y-98425000D02*
X111760000Y-98425000D01*
X111760000Y-98425000D02*
X112395000Y-98425000D01*
X112395000Y-98425000D02*
X113665000Y-98425000D01*
X113665000Y-98425000D02*
X114300000Y-98425000D01*
X114300000Y-98425000D02*
X115570000Y-98425000D01*
X115570000Y-98425000D02*
X116205000Y-98425000D01*
X116205000Y-98425000D02*
X117475000Y-98425000D01*
X117475000Y-98425000D02*
X118110000Y-98425000D01*
X118110000Y-98425000D02*
X118745000Y-98425000D01*
X118745000Y-98425000D02*
X119380000Y-98425000D01*
X119380000Y-98425000D02*
X120650000Y-98425000D01*
X120650000Y-98425000D02*
X121285000Y-98425000D01*
X121285000Y-98425000D02*
X122555000Y-98425000D01*
X122555000Y-98425000D02*
X123190000Y-98425000D01*
X123190000Y-98425000D02*
X124460000Y-98425000D01*
X124460000Y-98425000D02*
X125095000Y-98425000D01*
X125095000Y-98425000D02*
X125730000Y-98425000D01*
X125730000Y-98425000D02*
X126365000Y-98425000D01*
X126365000Y-98425000D02*
X126365000Y-99695000D01*
%TO.N,GND*%
D20*
X78740000Y-32385000D02*
X80010000Y-32385000D01*
X80010000Y-32385000D02*
X80645000Y-32385000D01*
X80645000Y-32385000D02*
X81915000Y-32385000D01*
X81915000Y-32385000D02*
X82550000Y-32385000D01*
X82550000Y-32385000D02*
X83820000Y-32385000D01*
X83820000Y-32385000D02*
X84455000Y-32385000D01*
X84455000Y-32385000D02*
X85090000Y-32385000D01*
X85090000Y-32385000D02*
X85725000Y-32385000D01*
X85725000Y-32385000D02*
X86995000Y-32385000D01*
X86995000Y-32385000D02*
X87630000Y-32385000D01*
X87630000Y-32385000D02*
X88900000Y-32385000D01*
X88900000Y-32385000D02*
X89535000Y-32385000D01*
X89535000Y-32385000D02*
X90805000Y-32385000D01*
X90805000Y-32385000D02*
X91440000Y-32385000D01*
X91440000Y-32385000D02*
X92710000Y-32385000D01*
X92710000Y-32385000D02*
X93345000Y-32385000D01*
X93345000Y-32385000D02*
X93980000Y-32385000D01*
X93980000Y-32385000D02*
X94615000Y-32385000D01*
X94615000Y-32385000D02*
X95885000Y-32385000D01*
X95885000Y-32385000D02*
X96520000Y-32385000D01*
X96520000Y-32385000D02*
X97790000Y-32385000D01*
X97790000Y-32385000D02*
X98425000Y-32385000D01*
X98425000Y-32385000D02*
X99695000Y-32385000D01*
X99695000Y-32385000D02*
X100330000Y-32385000D01*
X100330000Y-32385000D02*
X100965000Y-32385000D01*
X100965000Y-32385000D02*
X101600000Y-32385000D01*
X101600000Y-32385000D02*
X102870000Y-32385000D01*
X102870000Y-32385000D02*
X103505000Y-32385000D01*
X103505000Y-32385000D02*
X104775000Y-32385000D01*
X104775000Y-32385000D02*
X105410000Y-32385000D01*
X105410000Y-32385000D02*
X106680000Y-32385000D01*
X106680000Y-32385000D02*
X107315000Y-32385000D01*
X107315000Y-32385000D02*
X108585000Y-32385000D01*
X108585000Y-32385000D02*
X109220000Y-32385000D01*
X109220000Y-32385000D02*
X109220000Y-33020000D01*
X109220000Y-33020000D02*
X109220000Y-34925000D01*
X109220000Y-34925000D02*
X109220000Y-35560000D01*
X109220000Y-35560000D02*
X109220000Y-36830000D01*
X109220000Y-36830000D02*
X109220000Y-37465000D01*
X109220000Y-37465000D02*
X109220000Y-39370000D01*
X109220000Y-39370000D02*
X109220000Y-40005000D01*
X109220000Y-40005000D02*
X109220000Y-41275000D01*
X109220000Y-41275000D02*
X109220000Y-41910000D01*
X40640000Y-64770000D02*
X40640000Y-64135000D01*
X40640000Y-64135000D02*
X40640000Y-63500000D01*
X40640000Y-63500000D02*
X40640000Y-62230000D01*
X40640000Y-62230000D02*
X40640000Y-61595000D01*
X40640000Y-61595000D02*
X40640000Y-60325000D01*
X40640000Y-60325000D02*
X40640000Y-59690000D01*
X40640000Y-59690000D02*
X40640000Y-57785000D01*
X40640000Y-57785000D02*
X40640000Y-57150000D01*
X40640000Y-57150000D02*
X41275000Y-57150000D01*
X41275000Y-57150000D02*
X41910000Y-57150000D01*
X41910000Y-57150000D02*
X43180000Y-57150000D01*
%TO.N,3V3*%
X53340000Y-32385000D02*
X53340000Y-31115000D01*
X53340000Y-31115000D02*
X53340000Y-30480000D01*
X53340000Y-30480000D02*
X55245000Y-30480000D01*
X55245000Y-30480000D02*
X55880000Y-30480000D01*
X55880000Y-30480000D02*
X57150000Y-30480000D01*
X57150000Y-30480000D02*
X57785000Y-30480000D01*
X57785000Y-30480000D02*
X59690000Y-30480000D01*
X59690000Y-30480000D02*
X60325000Y-30480000D01*
X60325000Y-30480000D02*
X61595000Y-30480000D01*
X61595000Y-30480000D02*
X62230000Y-30480000D01*
X62230000Y-30480000D02*
X63500000Y-30480000D01*
X63500000Y-30480000D02*
X64135000Y-30480000D01*
X64135000Y-30480000D02*
X64770000Y-30480000D01*
X64770000Y-30480000D02*
X66040000Y-30480000D01*
X66040000Y-30480000D02*
X66675000Y-30480000D01*
X66675000Y-30480000D02*
X67945000Y-30480000D01*
X67945000Y-30480000D02*
X68580000Y-30480000D01*
X68580000Y-30480000D02*
X69215000Y-30480000D01*
X69215000Y-30480000D02*
X69850000Y-30480000D01*
X69850000Y-30480000D02*
X71120000Y-30480000D01*
X71120000Y-30480000D02*
X71755000Y-30480000D01*
X71755000Y-30480000D02*
X73025000Y-30480000D01*
X73025000Y-30480000D02*
X73660000Y-30480000D01*
X73660000Y-30480000D02*
X74930000Y-30480000D01*
X74930000Y-30480000D02*
X75565000Y-30480000D01*
X75565000Y-30480000D02*
X76835000Y-30480000D01*
X53340000Y-32385000D02*
X52705000Y-32385000D01*
X52705000Y-32385000D02*
X51435000Y-32385000D01*
X51435000Y-32385000D02*
X50800000Y-32385000D01*
X50800000Y-32385000D02*
X48895000Y-32385000D01*
X48895000Y-32385000D02*
X48260000Y-32385000D01*
X48260000Y-32385000D02*
X46355000Y-32385000D01*
X46355000Y-32385000D02*
X45720000Y-32385000D01*
X45720000Y-32385000D02*
X44450000Y-32385000D01*
X44450000Y-32385000D02*
X43815000Y-32385000D01*
X43815000Y-32385000D02*
X41910000Y-32385000D01*
X41910000Y-32385000D02*
X41275000Y-32385000D01*
X41275000Y-32385000D02*
X40005000Y-32385000D01*
X40005000Y-32385000D02*
X39370000Y-32385000D01*
X39370000Y-32385000D02*
X37465000Y-32385000D01*
X37465000Y-32385000D02*
X36830000Y-32385000D01*
X36830000Y-32385000D02*
X35560000Y-32385000D01*
X35560000Y-32385000D02*
X34925000Y-32385000D01*
X34925000Y-32385000D02*
X33020000Y-32385000D01*
X33020000Y-32385000D02*
X32385000Y-32385000D01*
X32385000Y-32385000D02*
X31115000Y-32385000D01*
X31115000Y-32385000D02*
X29845000Y-32385000D01*
X29845000Y-32385000D02*
X29210000Y-32385000D01*
X29210000Y-32385000D02*
X28575000Y-32385000D01*
X28575000Y-32385000D02*
X27940000Y-32385000D01*
X27940000Y-32385000D02*
X27305000Y-32385000D01*
X27305000Y-32385000D02*
X26670000Y-32385000D01*
X26670000Y-32385000D02*
X25400000Y-32385000D01*
X25400000Y-32385000D02*
X24765000Y-32385000D01*
X24765000Y-32385000D02*
X24130000Y-32385000D01*
X24130000Y-32385000D02*
X23495000Y-32385000D01*
X23495000Y-32385000D02*
X22860000Y-32385000D01*
X22860000Y-32385000D02*
X22225000Y-32385000D01*
X22225000Y-32385000D02*
X21590000Y-32385000D01*
X21590000Y-32385000D02*
X21590000Y-33020000D01*
X21590000Y-33020000D02*
X21590000Y-34925000D01*
X21590000Y-34925000D02*
X21590000Y-35560000D01*
X21590000Y-35560000D02*
X21590000Y-36830000D01*
X21590000Y-36830000D02*
X21590000Y-37465000D01*
X21590000Y-37465000D02*
X21590000Y-39370000D01*
X21590000Y-39370000D02*
X21590000Y-40005000D01*
X21590000Y-40005000D02*
X21590000Y-41275000D01*
X21590000Y-41275000D02*
X21590000Y-41910000D01*
X21590000Y-41910000D02*
X21590000Y-43815000D01*
X21590000Y-43815000D02*
X21590000Y-44450000D01*
X21590000Y-44450000D02*
X21590000Y-45720000D01*
X21590000Y-45720000D02*
X21590000Y-46355000D01*
X21590000Y-46355000D02*
X21590000Y-48260000D01*
X21590000Y-48260000D02*
X21590000Y-48895000D01*
X21590000Y-48895000D02*
X21590000Y-50800000D01*
X21590000Y-50800000D02*
X21590000Y-51435000D01*
X21590000Y-51435000D02*
X21590000Y-52705000D01*
X21590000Y-52705000D02*
X21590000Y-53340000D01*
X21590000Y-53340000D02*
X21590000Y-55245000D01*
X21590000Y-55245000D02*
X21590000Y-55880000D01*
X21590000Y-55880000D02*
X21590000Y-57150000D01*
X21590000Y-57150000D02*
X21590000Y-57785000D01*
X21590000Y-57785000D02*
X21590000Y-59690000D01*
X21590000Y-59690000D02*
X21590000Y-60325000D01*
X21590000Y-60325000D02*
X21590000Y-61595000D01*
X21590000Y-61595000D02*
X21590000Y-62230000D01*
X21590000Y-62230000D02*
X21590000Y-63500000D01*
X21590000Y-63500000D02*
X21590000Y-64135000D01*
X21590000Y-64135000D02*
X21590000Y-64770000D01*
X21590000Y-64770000D02*
X21590000Y-66040000D01*
X21590000Y-66040000D02*
X21590000Y-66675000D01*
X21590000Y-66675000D02*
X21590000Y-67945000D01*
X21590000Y-67945000D02*
X21590000Y-68580000D01*
X21590000Y-68580000D02*
X21590000Y-69215000D01*
X21590000Y-69215000D02*
X21590000Y-69850000D01*
X21590000Y-69850000D02*
X21590000Y-71120000D01*
X21590000Y-71120000D02*
X21590000Y-71755000D01*
X21590000Y-71755000D02*
X21590000Y-73025000D01*
X21590000Y-73025000D02*
X21590000Y-73660000D01*
X21590000Y-73660000D02*
X21590000Y-74930000D01*
X21590000Y-74930000D02*
X21590000Y-75565000D01*
X21590000Y-75565000D02*
X21590000Y-76835000D01*
X21590000Y-76835000D02*
X21590000Y-77470000D01*
X21590000Y-77470000D02*
X21590000Y-78105000D01*
X21590000Y-78105000D02*
X21590000Y-78740000D01*
X21590000Y-78740000D02*
X21590000Y-80010000D01*
X21590000Y-80010000D02*
X20955000Y-80010000D01*
X20955000Y-80010000D02*
X19685000Y-80010000D01*
X19685000Y-80010000D02*
X19050000Y-80010000D01*
X19050000Y-80010000D02*
X18415000Y-80010000D01*
X18415000Y-80010000D02*
X18415000Y-80645000D01*
X18415000Y-80645000D02*
X18415000Y-81915000D01*
X21590000Y-80010000D02*
X22225000Y-80010000D01*
X22225000Y-80010000D02*
X22860000Y-80010000D01*
X22860000Y-80010000D02*
X23495000Y-80010000D01*
X23495000Y-80010000D02*
X24130000Y-80010000D01*
X24130000Y-80010000D02*
X24765000Y-80010000D01*
X24765000Y-80010000D02*
X25400000Y-80010000D01*
X25400000Y-80010000D02*
X26670000Y-80010000D01*
X26670000Y-80010000D02*
X27305000Y-80010000D01*
X27305000Y-80010000D02*
X27940000Y-80010000D01*
X27940000Y-80010000D02*
X28575000Y-80010000D01*
X28575000Y-80010000D02*
X29210000Y-80010000D01*
X29210000Y-80010000D02*
X29845000Y-80010000D01*
X29845000Y-80010000D02*
X31115000Y-80010000D01*
X31115000Y-80010000D02*
X32385000Y-80010000D01*
X32385000Y-80010000D02*
X33020000Y-80010000D01*
X33020000Y-80010000D02*
X34925000Y-80010000D01*
X34925000Y-80010000D02*
X35560000Y-80010000D01*
X35560000Y-80010000D02*
X36195000Y-80010000D01*
X36195000Y-80010000D02*
X36195000Y-80645000D01*
X36195000Y-80645000D02*
X36195000Y-81915000D01*
X36195000Y-81915000D02*
X36195000Y-82550000D01*
X36195000Y-82550000D02*
X36195000Y-83820000D01*
%TO.N,5V*%
X53340000Y-78105000D02*
X53340000Y-78740000D01*
X53340000Y-78740000D02*
X53340000Y-80010000D01*
X53340000Y-80010000D02*
X53340000Y-80645000D01*
X53340000Y-80645000D02*
X53340000Y-81915000D01*
X53340000Y-81915000D02*
X53340000Y-82550000D01*
X53340000Y-82550000D02*
X53340000Y-83820000D01*
X53340000Y-83820000D02*
X53340000Y-84455000D01*
X53340000Y-84455000D02*
X53340000Y-85090000D01*
X53340000Y-85090000D02*
X53340000Y-85725000D01*
X53340000Y-85725000D02*
X53340000Y-86995000D01*
X53340000Y-86995000D02*
X53340000Y-87630000D01*
X53340000Y-87630000D02*
X53340000Y-88900000D01*
X53340000Y-88900000D02*
X53340000Y-89535000D01*
X53340000Y-89535000D02*
X53340000Y-90805000D01*
X53340000Y-90805000D02*
X53340000Y-91440000D01*
X53340000Y-91440000D02*
X53340000Y-92710000D01*
X53340000Y-92710000D02*
X53340000Y-93345000D01*
X53340000Y-93345000D02*
X53340000Y-93980000D01*
X53340000Y-93980000D02*
X53340000Y-94615000D01*
X53340000Y-94615000D02*
X53340000Y-95885000D01*
X53340000Y-95885000D02*
X53340000Y-96520000D01*
X53340000Y-96520000D02*
X53340000Y-97790000D01*
X53340000Y-97790000D02*
X53340000Y-98425000D01*
X53340000Y-98425000D02*
X53340000Y-99695000D01*
X53340000Y-99695000D02*
X53340000Y-100330000D01*
X53340000Y-100330000D02*
X53340000Y-100965000D01*
X53340000Y-100965000D02*
X53340000Y-101600000D01*
X53340000Y-101600000D02*
X55245000Y-101600000D01*
X55245000Y-101600000D02*
X55880000Y-101600000D01*
X55880000Y-101600000D02*
X57150000Y-101600000D01*
X57150000Y-101600000D02*
X57785000Y-101600000D01*
X57785000Y-101600000D02*
X59690000Y-101600000D01*
X59690000Y-101600000D02*
X60325000Y-101600000D01*
X60325000Y-101600000D02*
X61595000Y-101600000D01*
X61595000Y-101600000D02*
X62230000Y-101600000D01*
X62230000Y-101600000D02*
X63500000Y-101600000D01*
X63500000Y-101600000D02*
X64135000Y-101600000D01*
X64135000Y-101600000D02*
X64770000Y-101600000D01*
X64770000Y-101600000D02*
X66040000Y-101600000D01*
X66040000Y-101600000D02*
X66675000Y-101600000D01*
X66675000Y-101600000D02*
X67945000Y-101600000D01*
X67945000Y-101600000D02*
X68580000Y-101600000D01*
X68580000Y-101600000D02*
X69215000Y-101600000D01*
X69215000Y-101600000D02*
X69850000Y-101600000D01*
X69850000Y-101600000D02*
X71120000Y-101600000D01*
X71120000Y-101600000D02*
X71755000Y-101600000D01*
X71755000Y-101600000D02*
X73025000Y-101600000D01*
X73025000Y-101600000D02*
X73660000Y-101600000D01*
X73660000Y-101600000D02*
X74930000Y-101600000D01*
X74930000Y-101600000D02*
X75565000Y-101600000D01*
X75565000Y-101600000D02*
X76835000Y-101600000D01*
X76835000Y-101600000D02*
X77470000Y-101600000D01*
X77470000Y-101600000D02*
X78105000Y-101600000D01*
X78105000Y-101600000D02*
X78740000Y-101600000D01*
X78740000Y-101600000D02*
X80010000Y-101600000D01*
X80010000Y-101600000D02*
X80645000Y-101600000D01*
X80645000Y-101600000D02*
X81915000Y-101600000D01*
X81915000Y-101600000D02*
X82550000Y-101600000D01*
X82550000Y-101600000D02*
X83820000Y-101600000D01*
X83820000Y-101600000D02*
X84455000Y-101600000D01*
X84455000Y-101600000D02*
X85090000Y-101600000D01*
X85090000Y-101600000D02*
X85725000Y-101600000D01*
X85725000Y-101600000D02*
X86995000Y-101600000D01*
X86995000Y-101600000D02*
X87630000Y-101600000D01*
X87630000Y-101600000D02*
X88900000Y-101600000D01*
X88900000Y-101600000D02*
X89535000Y-101600000D01*
X89535000Y-101600000D02*
X90805000Y-101600000D01*
X90805000Y-101600000D02*
X91440000Y-101600000D01*
X91440000Y-101600000D02*
X92710000Y-101600000D01*
X92710000Y-101600000D02*
X93345000Y-101600000D01*
X93345000Y-101600000D02*
X93980000Y-101600000D01*
X93980000Y-101600000D02*
X94615000Y-101600000D01*
X94615000Y-101600000D02*
X95885000Y-101600000D01*
X95885000Y-101600000D02*
X96520000Y-101600000D01*
X96520000Y-101600000D02*
X97790000Y-101600000D01*
X97790000Y-101600000D02*
X98425000Y-101600000D01*
X98425000Y-101600000D02*
X99695000Y-101600000D01*
X99695000Y-101600000D02*
X100330000Y-101600000D01*
X100330000Y-101600000D02*
X100965000Y-101600000D01*
X100965000Y-101600000D02*
X101600000Y-101600000D01*
X101600000Y-101600000D02*
X102870000Y-101600000D01*
X102870000Y-101600000D02*
X103505000Y-101600000D01*
X103505000Y-101600000D02*
X104775000Y-101600000D01*
X104775000Y-101600000D02*
X105410000Y-101600000D01*
X105410000Y-101600000D02*
X106680000Y-101600000D01*
X106680000Y-101600000D02*
X107315000Y-101600000D01*
X107315000Y-101600000D02*
X108585000Y-101600000D01*
X108585000Y-101600000D02*
X109220000Y-101600000D01*
X109220000Y-101600000D02*
X109855000Y-101600000D01*
X109855000Y-101600000D02*
X110490000Y-101600000D01*
X110490000Y-101600000D02*
X111760000Y-101600000D01*
X111760000Y-101600000D02*
X112395000Y-101600000D01*
X112395000Y-101600000D02*
X113665000Y-101600000D01*
X113665000Y-101600000D02*
X114300000Y-101600000D01*
X114300000Y-101600000D02*
X115570000Y-101600000D01*
X115570000Y-101600000D02*
X116205000Y-101600000D01*
X116205000Y-101600000D02*
X117475000Y-101600000D01*
X117475000Y-101600000D02*
X118110000Y-101600000D01*
X118110000Y-101600000D02*
X118745000Y-101600000D01*
X118745000Y-101600000D02*
X119380000Y-101600000D01*
X119380000Y-101600000D02*
X120650000Y-101600000D01*
X120650000Y-101600000D02*
X121285000Y-101600000D01*
X121285000Y-101600000D02*
X122555000Y-101600000D01*
X122555000Y-101600000D02*
X123190000Y-101600000D01*
X123190000Y-101600000D02*
X124460000Y-101600000D01*
X124460000Y-101600000D02*
X125095000Y-101600000D01*
X125095000Y-101600000D02*
X125730000Y-101600000D01*
X125730000Y-101600000D02*
X126365000Y-101600000D01*
X126365000Y-101600000D02*
X128270000Y-101600000D01*
X128270000Y-101600000D02*
X129540000Y-101600000D01*
X129540000Y-101600000D02*
X130175000Y-101600000D01*
X130175000Y-101600000D02*
X130810000Y-101600000D01*
X130810000Y-101600000D02*
X130810000Y-100965000D01*
X130810000Y-100965000D02*
X130810000Y-100330000D01*
X130810000Y-100330000D02*
X130810000Y-99695000D01*
X130810000Y-99695000D02*
X130810000Y-98425000D01*
X130810000Y-98425000D02*
X130810000Y-97790000D01*
X130810000Y-97790000D02*
X130810000Y-96520000D01*
X130810000Y-96520000D02*
X130810000Y-95885000D01*
X130810000Y-95885000D02*
X130810000Y-94615000D01*
X130810000Y-94615000D02*
X130810000Y-93980000D01*
X130810000Y-93980000D02*
X130810000Y-93345000D01*
X130810000Y-93345000D02*
X130810000Y-92710000D01*
X130810000Y-92710000D02*
X130810000Y-91440000D01*
X130810000Y-91440000D02*
X130810000Y-90805000D01*
X130810000Y-90805000D02*
X130810000Y-89535000D01*
X130810000Y-89535000D02*
X130810000Y-88900000D01*
X130810000Y-88900000D02*
X130810000Y-87630000D01*
X130810000Y-87630000D02*
X130810000Y-86995000D01*
X130810000Y-86995000D02*
X130810000Y-85725000D01*
X130810000Y-85725000D02*
X130810000Y-85090000D01*
X130810000Y-85090000D02*
X130810000Y-84455000D01*
X130810000Y-84455000D02*
X130810000Y-83820000D01*
X130810000Y-83820000D02*
X130810000Y-82550000D01*
X130810000Y-82550000D02*
X130810000Y-81915000D01*
X130810000Y-81915000D02*
X130810000Y-80645000D01*
X130810000Y-80645000D02*
X130810000Y-80010000D01*
X130810000Y-80010000D02*
X130810000Y-78740000D01*
X130810000Y-78740000D02*
X130810000Y-78105000D01*
X130810000Y-78105000D02*
X130810000Y-77470000D01*
X130810000Y-77470000D02*
X130810000Y-76835000D01*
X130810000Y-76835000D02*
X130810000Y-75565000D01*
X130810000Y-75565000D02*
X130810000Y-74930000D01*
X130810000Y-74930000D02*
X130810000Y-73660000D01*
X130810000Y-73660000D02*
X130810000Y-73025000D01*
X130810000Y-73025000D02*
X130810000Y-71755000D01*
X130810000Y-71755000D02*
X130810000Y-71120000D01*
X130810000Y-71120000D02*
X130810000Y-69850000D01*
X130810000Y-69850000D02*
X130810000Y-69215000D01*
X130810000Y-69215000D02*
X130810000Y-68580000D01*
X130810000Y-68580000D02*
X130810000Y-67945000D01*
X130810000Y-67945000D02*
X130810000Y-66675000D01*
X130810000Y-66675000D02*
X130810000Y-66040000D01*
X130810000Y-66040000D02*
X130810000Y-64770000D01*
X130810000Y-64770000D02*
X130810000Y-64135000D01*
X130810000Y-64135000D02*
X130810000Y-63500000D01*
X130810000Y-63500000D02*
X130810000Y-62230000D01*
X130810000Y-62230000D02*
X130810000Y-61595000D01*
X130810000Y-61595000D02*
X130810000Y-60325000D01*
X130810000Y-60325000D02*
X130810000Y-59690000D01*
X130810000Y-59690000D02*
X130810000Y-57785000D01*
X130810000Y-57785000D02*
X130810000Y-57150000D01*
X130810000Y-57150000D02*
X130810000Y-55880000D01*
X130810000Y-55880000D02*
X130810000Y-55245000D01*
X130810000Y-55245000D02*
X130810000Y-53340000D01*
X130810000Y-53340000D02*
X130810000Y-52705000D01*
X130810000Y-52705000D02*
X130810000Y-51435000D01*
X130810000Y-51435000D02*
X130810000Y-50800000D01*
X130810000Y-50800000D02*
X130810000Y-48895000D01*
X130810000Y-48895000D02*
X130810000Y-48260000D01*
X130810000Y-48260000D02*
X130810000Y-47625000D01*
X130810000Y-47625000D02*
X130175000Y-47625000D01*
X130175000Y-47625000D02*
X129540000Y-47625000D01*
X129540000Y-47625000D02*
X128270000Y-47625000D01*
X128270000Y-47625000D02*
X126365000Y-47625000D01*
X126365000Y-47625000D02*
X125730000Y-47625000D01*
X125730000Y-47625000D02*
X125095000Y-47625000D01*
X125095000Y-47625000D02*
X124460000Y-47625000D01*
X124460000Y-47625000D02*
X124460000Y-46355000D01*
X124460000Y-46355000D02*
X124460000Y-45720000D01*
X53340000Y-78105000D02*
X52705000Y-78105000D01*
X52705000Y-78105000D02*
X51435000Y-78105000D01*
X51435000Y-78105000D02*
X50800000Y-78105000D01*
X50800000Y-78105000D02*
X48895000Y-78105000D01*
X48895000Y-78105000D02*
X48260000Y-78105000D01*
X48260000Y-78105000D02*
X46355000Y-78105000D01*
X46355000Y-78105000D02*
X45720000Y-78105000D01*
X45720000Y-78105000D02*
X44450000Y-78105000D01*
X44450000Y-78105000D02*
X43815000Y-78105000D01*
X43815000Y-78105000D02*
X43180000Y-78105000D01*
X43180000Y-78105000D02*
X43180000Y-77470000D01*
X43180000Y-77470000D02*
X43180000Y-76835000D01*
X43180000Y-76835000D02*
X43180000Y-75565000D01*
X43180000Y-75565000D02*
X43180000Y-74930000D01*
X43180000Y-74930000D02*
X43180000Y-73660000D01*
X43180000Y-73660000D02*
X43180000Y-73025000D01*
X43180000Y-73025000D02*
X43180000Y-71755000D01*
X43180000Y-71755000D02*
X43180000Y-71120000D01*
X43180000Y-71120000D02*
X43180000Y-69850000D01*
X43180000Y-69850000D02*
X43180000Y-69215000D01*
X43180000Y-69215000D02*
X43180000Y-68580000D01*
X43180000Y-68580000D02*
X43180000Y-67945000D01*
X43180000Y-67945000D02*
X43180000Y-66675000D01*
X43180000Y-66675000D02*
X43180000Y-66040000D01*
X43180000Y-66040000D02*
X43180000Y-64770000D01*
X43180000Y-74295000D02*
X43815000Y-74295000D01*
X43815000Y-74295000D02*
X44450000Y-74295000D01*
X44450000Y-74295000D02*
X45720000Y-74295000D01*
%TO.N,BAT+*%
X29210000Y-27305000D02*
X29210000Y-27940000D01*
X29210000Y-27940000D02*
X29210000Y-28575000D01*
X29210000Y-28575000D02*
X29210000Y-29210000D01*
X29210000Y-29210000D02*
X29210000Y-29845000D01*
X29210000Y-29845000D02*
X29210000Y-31115000D01*
X29210000Y-31115000D02*
X28575000Y-31115000D01*
X28575000Y-31115000D02*
X27940000Y-31115000D01*
X27940000Y-31115000D02*
X27305000Y-31115000D01*
X27305000Y-31115000D02*
X26670000Y-31115000D01*
X26670000Y-31115000D02*
X25400000Y-31115000D01*
X25400000Y-31115000D02*
X24765000Y-31115000D01*
X24765000Y-31115000D02*
X24130000Y-31115000D01*
X24130000Y-31115000D02*
X23495000Y-31115000D01*
X23495000Y-31115000D02*
X22860000Y-31115000D01*
X22860000Y-31115000D02*
X22225000Y-31115000D01*
X22225000Y-31115000D02*
X21590000Y-31115000D01*
X21590000Y-31115000D02*
X20955000Y-31115000D01*
X20955000Y-31115000D02*
X19685000Y-31115000D01*
X19685000Y-31115000D02*
X19050000Y-31115000D01*
X19050000Y-31115000D02*
X19050000Y-32385000D01*
X19050000Y-32385000D02*
X19050000Y-33020000D01*
X19050000Y-33020000D02*
X19050000Y-34925000D01*
X19050000Y-34925000D02*
X19050000Y-35560000D01*
X19050000Y-35560000D02*
X19050000Y-36830000D01*
X19050000Y-36830000D02*
X19050000Y-37465000D01*
X19050000Y-37465000D02*
X19050000Y-38735000D01*
X19050000Y-38735000D02*
X19050000Y-39370000D01*
X19050000Y-39370000D02*
X19050000Y-40005000D01*
X19050000Y-40005000D02*
X19050000Y-41275000D01*
X19050000Y-41275000D02*
X19050000Y-41910000D01*
X19050000Y-41910000D02*
X19050000Y-43815000D01*
X19050000Y-43815000D02*
X19050000Y-44450000D01*
X19050000Y-44450000D02*
X19050000Y-45720000D01*
X19050000Y-45720000D02*
X19050000Y-46355000D01*
X19050000Y-46355000D02*
X19050000Y-48260000D01*
X19050000Y-48260000D02*
X19050000Y-48895000D01*
X19050000Y-48895000D02*
X19050000Y-50800000D01*
X19050000Y-50800000D02*
X19050000Y-51435000D01*
X19050000Y-51435000D02*
X19050000Y-52705000D01*
X19050000Y-52705000D02*
X19050000Y-53340000D01*
X19050000Y-53340000D02*
X19050000Y-55245000D01*
X19050000Y-55245000D02*
X19050000Y-55880000D01*
X19050000Y-55880000D02*
X19050000Y-57150000D01*
X19050000Y-57150000D02*
X19050000Y-57785000D01*
X19050000Y-57785000D02*
X19050000Y-59055000D01*
X19050000Y-59055000D02*
X18415000Y-59055000D01*
X18415000Y-59055000D02*
X17780000Y-59055000D01*
X17780000Y-59055000D02*
X17145000Y-59055000D01*
X17145000Y-59055000D02*
X16510000Y-59055000D01*
X16510000Y-59055000D02*
X15875000Y-59055000D01*
X15875000Y-59055000D02*
X13335000Y-59055000D01*
X13335000Y-59055000D02*
X12700000Y-59055000D01*
X12700000Y-59055000D02*
X8255000Y-59055000D01*
X8255000Y-59055000D02*
X7620000Y-59055000D01*
X7620000Y-59055000D02*
X7620000Y-59690000D01*
X7620000Y-59690000D02*
X7620000Y-60325000D01*
X7620000Y-60325000D02*
X7620000Y-61595000D01*
X7620000Y-61595000D02*
X7620000Y-62230000D01*
%TO.N,BAT-*%
X29210000Y-38735000D02*
X28575000Y-38735000D01*
X28575000Y-38735000D02*
X27940000Y-38735000D01*
X27940000Y-38735000D02*
X27305000Y-38735000D01*
X27305000Y-38735000D02*
X26670000Y-38735000D01*
X26670000Y-38735000D02*
X26670000Y-37465000D01*
X26670000Y-37465000D02*
X26670000Y-36830000D01*
X26670000Y-36830000D02*
X26670000Y-35560000D01*
X26670000Y-35560000D02*
X26670000Y-34925000D01*
%TO.N,Net-(U5-VIN)*%
X37465000Y-40005000D02*
X39370000Y-40005000D01*
X39370000Y-40005000D02*
X40005000Y-40005000D01*
X40005000Y-40005000D02*
X41275000Y-40005000D01*
X41275000Y-40005000D02*
X41910000Y-40005000D01*
X41910000Y-40005000D02*
X43815000Y-40005000D01*
X43815000Y-40005000D02*
X44450000Y-40005000D01*
X44450000Y-40005000D02*
X45720000Y-40005000D01*
X45720000Y-40005000D02*
X46355000Y-40005000D01*
X46355000Y-40005000D02*
X46990000Y-40005000D01*
X46990000Y-40005000D02*
X46990000Y-41275000D01*
X46990000Y-41275000D02*
X46990000Y-41910000D01*
X46990000Y-41910000D02*
X46990000Y-43815000D01*
X46990000Y-43815000D02*
X46990000Y-44450000D01*
X46990000Y-44450000D02*
X46990000Y-45720000D01*
X46990000Y-45720000D02*
X46990000Y-46355000D01*
X46990000Y-46355000D02*
X46990000Y-48260000D01*
X46990000Y-48260000D02*
X46990000Y-48895000D01*
X46990000Y-48895000D02*
X46990000Y-50800000D01*
X46990000Y-50800000D02*
X46990000Y-51435000D01*
X46990000Y-51435000D02*
X46990000Y-52705000D01*
X46990000Y-52705000D02*
X46990000Y-53340000D01*
X46990000Y-53340000D02*
X46990000Y-55245000D01*
X46990000Y-55245000D02*
X46990000Y-55880000D01*
X46990000Y-55880000D02*
X46990000Y-57150000D01*
X46990000Y-57150000D02*
X46990000Y-57785000D01*
X46990000Y-57785000D02*
X46990000Y-59690000D01*
X46990000Y-59690000D02*
X46990000Y-60325000D01*
X46990000Y-60325000D02*
X46990000Y-61595000D01*
X46990000Y-61595000D02*
X46990000Y-62230000D01*
X46990000Y-62230000D02*
X46990000Y-63500000D01*
X46990000Y-63500000D02*
X46990000Y-64135000D01*
X46990000Y-64135000D02*
X46990000Y-64770000D01*
X46990000Y-64770000D02*
X46355000Y-64770000D01*
X46355000Y-64770000D02*
X45720000Y-64770000D01*
X46990000Y-52705000D02*
X46355000Y-52705000D01*
X46355000Y-52705000D02*
X45720000Y-52705000D01*
X45720000Y-52705000D02*
X44450000Y-52705000D01*
X44450000Y-52705000D02*
X43815000Y-52705000D01*
X43815000Y-52705000D02*
X41910000Y-52705000D01*
X41910000Y-52705000D02*
X41275000Y-52705000D01*
X41275000Y-52705000D02*
X40005000Y-52705000D01*
X40005000Y-52705000D02*
X39370000Y-52705000D01*
X39370000Y-52705000D02*
X38100000Y-52705000D01*
X38100000Y-52705000D02*
X38100000Y-53340000D01*
X38100000Y-53340000D02*
X38100000Y-55245000D01*
X38100000Y-55245000D02*
X38100000Y-55880000D01*
X38100000Y-55880000D02*
X38100000Y-57150000D01*
X38100000Y-57150000D02*
X38100000Y-57785000D01*
X38100000Y-57785000D02*
X38100000Y-59690000D01*
X38100000Y-59690000D02*
X38100000Y-60325000D01*
X38100000Y-60325000D02*
X38100000Y-61595000D01*
X38100000Y-61595000D02*
X38100000Y-62230000D01*
X38100000Y-62230000D02*
X38100000Y-63500000D01*
X38100000Y-63500000D02*
X38100000Y-64135000D01*
X38100000Y-64135000D02*
X38100000Y-64770000D01*
X38100000Y-64770000D02*
X38100000Y-66040000D01*
X38100000Y-66040000D02*
X38100000Y-66675000D01*
X38100000Y-66675000D02*
X38100000Y-67945000D01*
X38100000Y-67945000D02*
X38100000Y-68580000D01*
X38100000Y-68580000D02*
X38100000Y-69215000D01*
X38100000Y-69215000D02*
X38100000Y-69850000D01*
X38100000Y-69850000D02*
X38100000Y-71120000D01*
X38100000Y-71120000D02*
X38100000Y-71755000D01*
X38100000Y-71755000D02*
X38100000Y-73025000D01*
X38100000Y-73025000D02*
X38100000Y-73660000D01*
X38100000Y-73660000D02*
X38100000Y-74295000D01*
X38100000Y-74295000D02*
X38735000Y-74295000D01*
%TO.N,GPIO18*%
D19*
X78740000Y-52705000D02*
X80010000Y-52705000D01*
X80010000Y-52705000D02*
X80645000Y-52705000D01*
X80645000Y-52705000D02*
X81915000Y-52705000D01*
X81915000Y-52705000D02*
X82550000Y-52705000D01*
X82550000Y-52705000D02*
X83820000Y-52705000D01*
X83820000Y-52705000D02*
X84455000Y-52705000D01*
X84455000Y-52705000D02*
X85090000Y-52705000D01*
X85090000Y-52705000D02*
X85725000Y-52705000D01*
X85725000Y-52705000D02*
X86995000Y-52705000D01*
X86995000Y-52705000D02*
X87630000Y-52705000D01*
X87630000Y-52705000D02*
X88900000Y-52705000D01*
X88900000Y-52705000D02*
X89535000Y-52705000D01*
X89535000Y-52705000D02*
X90805000Y-52705000D01*
X90805000Y-52705000D02*
X91440000Y-52705000D01*
X91440000Y-52705000D02*
X92710000Y-52705000D01*
X92710000Y-52705000D02*
X93345000Y-52705000D01*
X93345000Y-52705000D02*
X93980000Y-52705000D01*
X93980000Y-52705000D02*
X94615000Y-52705000D01*
X94615000Y-52705000D02*
X95885000Y-52705000D01*
X95885000Y-52705000D02*
X96520000Y-52705000D01*
X96520000Y-52705000D02*
X97790000Y-52705000D01*
X97790000Y-52705000D02*
X98425000Y-52705000D01*
X98425000Y-52705000D02*
X99695000Y-52705000D01*
X99695000Y-52705000D02*
X100330000Y-52705000D01*
X100330000Y-52705000D02*
X100965000Y-52705000D01*
X100965000Y-52705000D02*
X101600000Y-52705000D01*
X101600000Y-52705000D02*
X102870000Y-52705000D01*
X102870000Y-52705000D02*
X103505000Y-52705000D01*
X103505000Y-52705000D02*
X104140000Y-52705000D01*
X104140000Y-52705000D02*
X104140000Y-51435000D01*
X104140000Y-51435000D02*
X104140000Y-50800000D01*
X104140000Y-50800000D02*
X104140000Y-48895000D01*
X104140000Y-48895000D02*
X104140000Y-48260000D01*
X104140000Y-48260000D02*
X104140000Y-46355000D01*
X104140000Y-46355000D02*
X104140000Y-45720000D01*
X104140000Y-45720000D02*
X104140000Y-44450000D01*
X104140000Y-44450000D02*
X104140000Y-43815000D01*
X104140000Y-43815000D02*
X104140000Y-43180000D01*
X104140000Y-43180000D02*
X104775000Y-43180000D01*
X104775000Y-43180000D02*
X105410000Y-43180000D01*
X105410000Y-43180000D02*
X106680000Y-43180000D01*
X106680000Y-43180000D02*
X107315000Y-43180000D01*
X107315000Y-43180000D02*
X108585000Y-43180000D01*
X108585000Y-43180000D02*
X109220000Y-43180000D01*
X109220000Y-43180000D02*
X109855000Y-43180000D01*
X109855000Y-43180000D02*
X110490000Y-43180000D01*
X110490000Y-43180000D02*
X111760000Y-43180000D01*
X111760000Y-43180000D02*
X112395000Y-43180000D01*
X112395000Y-43180000D02*
X113665000Y-43180000D01*
X113665000Y-43180000D02*
X114300000Y-43180000D01*
X114300000Y-43180000D02*
X115570000Y-43180000D01*
X115570000Y-43180000D02*
X116205000Y-43180000D01*
X116205000Y-43180000D02*
X117475000Y-43180000D01*
X117475000Y-43180000D02*
X118110000Y-43180000D01*
X118110000Y-43180000D02*
X118745000Y-43180000D01*
X118745000Y-43180000D02*
X119380000Y-43180000D01*
X119380000Y-43180000D02*
X120650000Y-43180000D01*
X120650000Y-43180000D02*
X121285000Y-43180000D01*
X121285000Y-43180000D02*
X121920000Y-43180000D01*
X121920000Y-43180000D02*
X121920000Y-43815000D01*
X121920000Y-43815000D02*
X121920000Y-44450000D01*
X121920000Y-44450000D02*
X121920000Y-45720000D01*
X121920000Y-45720000D02*
X121920000Y-46355000D01*
X121920000Y-46355000D02*
X121920000Y-48260000D01*
X121920000Y-48260000D02*
X121920000Y-48895000D01*
X121920000Y-48895000D02*
X121920000Y-50800000D01*
X121920000Y-50800000D02*
X121920000Y-51435000D01*
X121920000Y-51435000D02*
X121920000Y-52705000D01*
X121920000Y-52705000D02*
X121920000Y-53340000D01*
X121920000Y-53340000D02*
X121920000Y-55245000D01*
X121920000Y-55245000D02*
X121920000Y-55880000D01*
X121920000Y-55880000D02*
X121920000Y-57150000D01*
X121920000Y-57150000D02*
X121920000Y-57785000D01*
X121920000Y-57785000D02*
X121920000Y-59690000D01*
X121920000Y-59690000D02*
X121920000Y-60325000D01*
X121920000Y-60325000D02*
X121920000Y-61595000D01*
X121920000Y-61595000D02*
X121920000Y-62230000D01*
X121920000Y-62230000D02*
X121920000Y-63500000D01*
X121920000Y-63500000D02*
X121920000Y-64135000D01*
X121920000Y-64135000D02*
X121920000Y-64770000D01*
X121920000Y-64770000D02*
X121920000Y-66040000D01*
X121920000Y-66040000D02*
X121920000Y-66675000D01*
X121920000Y-66675000D02*
X121920000Y-67945000D01*
X121920000Y-67945000D02*
X121920000Y-68580000D01*
X121920000Y-68580000D02*
X121920000Y-69215000D01*
X121920000Y-69215000D02*
X121920000Y-69850000D01*
X121920000Y-69850000D02*
X121920000Y-71120000D01*
X121920000Y-71120000D02*
X121920000Y-71755000D01*
X121920000Y-71755000D02*
X121920000Y-73025000D01*
X121920000Y-73025000D02*
X121920000Y-73660000D01*
X121920000Y-73660000D02*
X121920000Y-74930000D01*
X121920000Y-74930000D02*
X121920000Y-75565000D01*
X121920000Y-75565000D02*
X121920000Y-76835000D01*
X121920000Y-76835000D02*
X121920000Y-77470000D01*
X121920000Y-77470000D02*
X121920000Y-78105000D01*
X121920000Y-78105000D02*
X121920000Y-78740000D01*
X121920000Y-78740000D02*
X121920000Y-80010000D01*
X121920000Y-80010000D02*
X121920000Y-80645000D01*
X121920000Y-80645000D02*
X121920000Y-81915000D01*
X121920000Y-81915000D02*
X121920000Y-82550000D01*
X121920000Y-82550000D02*
X121920000Y-83820000D01*
X121920000Y-83820000D02*
X121920000Y-84455000D01*
X121920000Y-84455000D02*
X121920000Y-85090000D01*
X121920000Y-85090000D02*
X121920000Y-85725000D01*
X121920000Y-85725000D02*
X121920000Y-86995000D01*
X121920000Y-86995000D02*
X121920000Y-87630000D01*
X121920000Y-87630000D02*
X121920000Y-88900000D01*
X121920000Y-88900000D02*
X121920000Y-89535000D01*
X121920000Y-89535000D02*
X121920000Y-90805000D01*
X121920000Y-90805000D02*
X121920000Y-91440000D01*
X121920000Y-91440000D02*
X121920000Y-92710000D01*
X121920000Y-92710000D02*
X121920000Y-93345000D01*
X121920000Y-93345000D02*
X121920000Y-93980000D01*
X121920000Y-93980000D02*
X121920000Y-94615000D01*
X121920000Y-94615000D02*
X121920000Y-95885000D01*
X121920000Y-95885000D02*
X121285000Y-95885000D01*
X121285000Y-95885000D02*
X120650000Y-95885000D01*
X120650000Y-95885000D02*
X119380000Y-95885000D01*
X119380000Y-95885000D02*
X118745000Y-95885000D01*
X118745000Y-95885000D02*
X118110000Y-95885000D01*
X118110000Y-95885000D02*
X117475000Y-95885000D01*
X117475000Y-95885000D02*
X116205000Y-95885000D01*
X116205000Y-95885000D02*
X115570000Y-95885000D01*
X115570000Y-95885000D02*
X114300000Y-95885000D01*
X114300000Y-95885000D02*
X113665000Y-95885000D01*
X113665000Y-95885000D02*
X112395000Y-95885000D01*
X112395000Y-95885000D02*
X111760000Y-95885000D01*
X111760000Y-95885000D02*
X110490000Y-95885000D01*
X110490000Y-95885000D02*
X109855000Y-95885000D01*
X109855000Y-95885000D02*
X109220000Y-95885000D01*
X109220000Y-95885000D02*
X108585000Y-95885000D01*
X108585000Y-95885000D02*
X107315000Y-95885000D01*
X107315000Y-95885000D02*
X106680000Y-95885000D01*
%TO.N,GPIO19*%
X78740000Y-50165000D02*
X78105000Y-50165000D01*
X78105000Y-50165000D02*
X77470000Y-50165000D01*
X77470000Y-50165000D02*
X76835000Y-50165000D01*
X76835000Y-50165000D02*
X75565000Y-50165000D01*
X75565000Y-50165000D02*
X75565000Y-48895000D01*
X75565000Y-48895000D02*
X75565000Y-48260000D01*
X75565000Y-48260000D02*
X75565000Y-46355000D01*
X75565000Y-46355000D02*
X75565000Y-45720000D01*
X75565000Y-45720000D02*
X75565000Y-44450000D01*
X75565000Y-44450000D02*
X75565000Y-43815000D01*
X75565000Y-43815000D02*
X75565000Y-41910000D01*
X75565000Y-41910000D02*
X75565000Y-41275000D01*
X75565000Y-41275000D02*
X75565000Y-40005000D01*
X75565000Y-40005000D02*
X75565000Y-39370000D01*
X75565000Y-39370000D02*
X75565000Y-37465000D01*
X75565000Y-37465000D02*
X75565000Y-36830000D01*
X75565000Y-36830000D02*
X75565000Y-35560000D01*
X75565000Y-35560000D02*
X75565000Y-34925000D01*
X75565000Y-34925000D02*
X75565000Y-33020000D01*
X127000000Y-37465000D02*
X127000000Y-39370000D01*
X127000000Y-39370000D02*
X127000000Y-40005000D01*
X127000000Y-40005000D02*
X127000000Y-41275000D01*
X127000000Y-41275000D02*
X127000000Y-41910000D01*
X127000000Y-41910000D02*
X127000000Y-43815000D01*
X127000000Y-43815000D02*
X127000000Y-44450000D01*
X127000000Y-44450000D02*
X127000000Y-45720000D01*
%TO.N,GPIO23*%
X78740000Y-34925000D02*
X78105000Y-34925000D01*
X73660000Y-27940000D02*
X74930000Y-27940000D01*
X74930000Y-27940000D02*
X75565000Y-27940000D01*
X75565000Y-27940000D02*
X76835000Y-27940000D01*
X76835000Y-27940000D02*
X77470000Y-27940000D01*
X77470000Y-27940000D02*
X78105000Y-27940000D01*
X78105000Y-27940000D02*
X78740000Y-27940000D01*
X78740000Y-27940000D02*
X80010000Y-27940000D01*
X80010000Y-27940000D02*
X80645000Y-27940000D01*
X80645000Y-27940000D02*
X81915000Y-27940000D01*
X81915000Y-27940000D02*
X82550000Y-27940000D01*
X82550000Y-27940000D02*
X83820000Y-27940000D01*
X83820000Y-27940000D02*
X84455000Y-27940000D01*
X84455000Y-27940000D02*
X85090000Y-27940000D01*
X85090000Y-27940000D02*
X85725000Y-27940000D01*
X85725000Y-27940000D02*
X86995000Y-27940000D01*
X86995000Y-27940000D02*
X87630000Y-27940000D01*
X87630000Y-27940000D02*
X88900000Y-27940000D01*
X88900000Y-27940000D02*
X89535000Y-27940000D01*
X89535000Y-27940000D02*
X90805000Y-27940000D01*
X90805000Y-27940000D02*
X91440000Y-27940000D01*
X91440000Y-27940000D02*
X92710000Y-27940000D01*
X92710000Y-27940000D02*
X93345000Y-27940000D01*
X93345000Y-27940000D02*
X93980000Y-27940000D01*
X93980000Y-27940000D02*
X94615000Y-27940000D01*
X94615000Y-27940000D02*
X95885000Y-27940000D01*
X95885000Y-27940000D02*
X96520000Y-27940000D01*
X96520000Y-27940000D02*
X97790000Y-27940000D01*
X97790000Y-27940000D02*
X98425000Y-27940000D01*
X98425000Y-27940000D02*
X99695000Y-27940000D01*
X99695000Y-27940000D02*
X100330000Y-27940000D01*
X100330000Y-27940000D02*
X100965000Y-27940000D01*
X100965000Y-27940000D02*
X101600000Y-27940000D01*
X101600000Y-27940000D02*
X102870000Y-27940000D01*
X102870000Y-27940000D02*
X103505000Y-27940000D01*
X103505000Y-27940000D02*
X104775000Y-27940000D01*
X104775000Y-27940000D02*
X105410000Y-27940000D01*
X105410000Y-27940000D02*
X106680000Y-27940000D01*
X106680000Y-27940000D02*
X107315000Y-27940000D01*
X107315000Y-27940000D02*
X108585000Y-27940000D01*
X108585000Y-27940000D02*
X109220000Y-27940000D01*
X109220000Y-27940000D02*
X109855000Y-27940000D01*
X109855000Y-27940000D02*
X110490000Y-27940000D01*
X110490000Y-27940000D02*
X111760000Y-27940000D01*
X111760000Y-27940000D02*
X112395000Y-27940000D01*
X112395000Y-27940000D02*
X113665000Y-27940000D01*
X113665000Y-27940000D02*
X114300000Y-27940000D01*
X114300000Y-27940000D02*
X115570000Y-27940000D01*
X115570000Y-27940000D02*
X116205000Y-27940000D01*
X116205000Y-27940000D02*
X117475000Y-27940000D01*
X117475000Y-27940000D02*
X118110000Y-27940000D01*
X118110000Y-27940000D02*
X118745000Y-27940000D01*
X118745000Y-27940000D02*
X119380000Y-27940000D01*
X119380000Y-27940000D02*
X120650000Y-27940000D01*
X120650000Y-27940000D02*
X121285000Y-27940000D01*
X121285000Y-27940000D02*
X122555000Y-27940000D01*
X122555000Y-27940000D02*
X123190000Y-27940000D01*
X123190000Y-27940000D02*
X124460000Y-27940000D01*
X124460000Y-27940000D02*
X124460000Y-28575000D01*
X124460000Y-28575000D02*
X124460000Y-29210000D01*
X124460000Y-29210000D02*
X124460000Y-29845000D01*
X124460000Y-29845000D02*
X124460000Y-31115000D01*
X124460000Y-31115000D02*
X124460000Y-32385000D01*
X124460000Y-32385000D02*
X124460000Y-33020000D01*
X124460000Y-33020000D02*
X124460000Y-34925000D01*
X124460000Y-34925000D02*
X124460000Y-35560000D01*
X124460000Y-35560000D02*
X124460000Y-36830000D01*
X124460000Y-36830000D02*
X124460000Y-37465000D01*
X124460000Y-37465000D02*
X124460000Y-39370000D01*
X124460000Y-39370000D02*
X124460000Y-40005000D01*
X124460000Y-40005000D02*
X124460000Y-41275000D01*
X124460000Y-41275000D02*
X124460000Y-41910000D01*
X124460000Y-41910000D02*
X124460000Y-43180000D01*
X119380000Y-45720000D02*
X119380000Y-46355000D01*
X119380000Y-46355000D02*
X119380000Y-48260000D01*
X119380000Y-48260000D02*
X119380000Y-48895000D01*
X119380000Y-48895000D02*
X119380000Y-50800000D01*
X119380000Y-50800000D02*
X119380000Y-51435000D01*
X119380000Y-51435000D02*
X119380000Y-52705000D01*
X119380000Y-52705000D02*
X119380000Y-53340000D01*
X119380000Y-53340000D02*
X119380000Y-55245000D01*
X119380000Y-55245000D02*
X119380000Y-55880000D01*
X119380000Y-55880000D02*
X119380000Y-57150000D01*
X119380000Y-57150000D02*
X119380000Y-57785000D01*
X119380000Y-57785000D02*
X119380000Y-59690000D01*
X119380000Y-59690000D02*
X119380000Y-60325000D01*
X119380000Y-60325000D02*
X119380000Y-61595000D01*
X119380000Y-61595000D02*
X119380000Y-62230000D01*
X119380000Y-62230000D02*
X119380000Y-63500000D01*
X119380000Y-63500000D02*
X119380000Y-64135000D01*
X119380000Y-64135000D02*
X119380000Y-64770000D01*
X119380000Y-64770000D02*
X119380000Y-66040000D01*
X119380000Y-66040000D02*
X119380000Y-66675000D01*
X119380000Y-66675000D02*
X119380000Y-67945000D01*
X119380000Y-67945000D02*
X119380000Y-68580000D01*
X119380000Y-68580000D02*
X119380000Y-69215000D01*
X119380000Y-69215000D02*
X119380000Y-69850000D01*
X119380000Y-69850000D02*
X119380000Y-71120000D01*
X119380000Y-71120000D02*
X119380000Y-71755000D01*
X119380000Y-71755000D02*
X119380000Y-73025000D01*
X119380000Y-73025000D02*
X119380000Y-73660000D01*
X119380000Y-73660000D02*
X119380000Y-74930000D01*
X119380000Y-74930000D02*
X119380000Y-75565000D01*
X119380000Y-75565000D02*
X119380000Y-76835000D01*
X119380000Y-76835000D02*
X119380000Y-77470000D01*
X119380000Y-77470000D02*
X119380000Y-78105000D01*
X119380000Y-78105000D02*
X119380000Y-78740000D01*
X119380000Y-78740000D02*
X119380000Y-80010000D01*
X119380000Y-80010000D02*
X119380000Y-80645000D01*
X119380000Y-80645000D02*
X119380000Y-81915000D01*
X119380000Y-81915000D02*
X119380000Y-82550000D01*
X119380000Y-82550000D02*
X119380000Y-83820000D01*
X119380000Y-83820000D02*
X119380000Y-84455000D01*
X119380000Y-84455000D02*
X119380000Y-85090000D01*
X119380000Y-85090000D02*
X119380000Y-85725000D01*
X119380000Y-85725000D02*
X119380000Y-86995000D01*
X119380000Y-86995000D02*
X119380000Y-87630000D01*
X119380000Y-87630000D02*
X119380000Y-88900000D01*
X119380000Y-88900000D02*
X119380000Y-89535000D01*
X119380000Y-89535000D02*
X119380000Y-90805000D01*
X119380000Y-90805000D02*
X119380000Y-91440000D01*
X119380000Y-91440000D02*
X119380000Y-92710000D01*
X119380000Y-92710000D02*
X119380000Y-93345000D01*
X119380000Y-93345000D02*
X118745000Y-93345000D01*
X118745000Y-93345000D02*
X118110000Y-93345000D01*
X118110000Y-93345000D02*
X117475000Y-93345000D01*
X117475000Y-93345000D02*
X116205000Y-93345000D01*
X116205000Y-93345000D02*
X115570000Y-93345000D01*
X115570000Y-93345000D02*
X114300000Y-93345000D01*
X114300000Y-93345000D02*
X113665000Y-93345000D01*
X113665000Y-93345000D02*
X112395000Y-93345000D01*
X112395000Y-93345000D02*
X111760000Y-93345000D01*
X111760000Y-93345000D02*
X110490000Y-93345000D01*
X110490000Y-93345000D02*
X109855000Y-93345000D01*
X109855000Y-93345000D02*
X109220000Y-93345000D01*
X109220000Y-93345000D02*
X108585000Y-93345000D01*
X108585000Y-93345000D02*
X107315000Y-93345000D01*
X107315000Y-93345000D02*
X106680000Y-93345000D01*
X106680000Y-93345000D02*
X105410000Y-93345000D01*
%TO.N,GPIO21*%
X78740000Y-45085000D02*
X78105000Y-45085000D01*
%TO.N,GPIO22*%
X78740000Y-37465000D02*
X78105000Y-37465000D01*
X57150000Y-24765000D02*
X55880000Y-24765000D01*
X55880000Y-24765000D02*
X55245000Y-24765000D01*
X55245000Y-24765000D02*
X53340000Y-24765000D01*
X53340000Y-24765000D02*
X52705000Y-24765000D01*
X52705000Y-24765000D02*
X51435000Y-24765000D01*
X51435000Y-24765000D02*
X50800000Y-24765000D01*
X50800000Y-24765000D02*
X48895000Y-24765000D01*
X48895000Y-24765000D02*
X48260000Y-24765000D01*
X48260000Y-24765000D02*
X46355000Y-24765000D01*
X46355000Y-24765000D02*
X45720000Y-24765000D01*
X45720000Y-24765000D02*
X44450000Y-24765000D01*
X44450000Y-24765000D02*
X43815000Y-24765000D01*
X43815000Y-24765000D02*
X41910000Y-24765000D01*
X41910000Y-24765000D02*
X41275000Y-24765000D01*
X41275000Y-24765000D02*
X40005000Y-24765000D01*
X40005000Y-24765000D02*
X39370000Y-24765000D01*
X39370000Y-24765000D02*
X37465000Y-24765000D01*
X37465000Y-24765000D02*
X36830000Y-24765000D01*
X36830000Y-24765000D02*
X35560000Y-24765000D01*
X35560000Y-24765000D02*
X34925000Y-24765000D01*
X34925000Y-24765000D02*
X33020000Y-24765000D01*
X33020000Y-24765000D02*
X32385000Y-24765000D01*
X32385000Y-24765000D02*
X31115000Y-24765000D01*
X31115000Y-24765000D02*
X29845000Y-24765000D01*
X29845000Y-24765000D02*
X29210000Y-24765000D01*
X29210000Y-24765000D02*
X28575000Y-24765000D01*
X28575000Y-24765000D02*
X27940000Y-24765000D01*
X27940000Y-24765000D02*
X27305000Y-24765000D01*
X27305000Y-24765000D02*
X26670000Y-24765000D01*
X26670000Y-24765000D02*
X25400000Y-24765000D01*
X25400000Y-24765000D02*
X24765000Y-24765000D01*
X24765000Y-24765000D02*
X24130000Y-24765000D01*
X24130000Y-24765000D02*
X23495000Y-24765000D01*
X23495000Y-24765000D02*
X22860000Y-24765000D01*
X22860000Y-24765000D02*
X22225000Y-24765000D01*
X22225000Y-24765000D02*
X21590000Y-24765000D01*
X21590000Y-24765000D02*
X20955000Y-24765000D01*
X20955000Y-24765000D02*
X19685000Y-24765000D01*
X19685000Y-24765000D02*
X19050000Y-24765000D01*
X19050000Y-24765000D02*
X18415000Y-24765000D01*
X18415000Y-24765000D02*
X17780000Y-24765000D01*
X17780000Y-24765000D02*
X17145000Y-24765000D01*
X17145000Y-24765000D02*
X16510000Y-24765000D01*
X16510000Y-24765000D02*
X15875000Y-24765000D01*
X15875000Y-24765000D02*
X13335000Y-24765000D01*
X13335000Y-24765000D02*
X12700000Y-24765000D01*
X12700000Y-24765000D02*
X8255000Y-24765000D01*
X8255000Y-24765000D02*
X7620000Y-24765000D01*
X7620000Y-24765000D02*
X6985000Y-24765000D01*
X6985000Y-24765000D02*
X6350000Y-24765000D01*
X6350000Y-24765000D02*
X5080000Y-24765000D01*
X5080000Y-24765000D02*
X5080000Y-25400000D01*
X5080000Y-25400000D02*
X5080000Y-26670000D01*
X5080000Y-26670000D02*
X5080000Y-27305000D01*
X5080000Y-27305000D02*
X5080000Y-27940000D01*
X5080000Y-27940000D02*
X5080000Y-28575000D01*
X5080000Y-28575000D02*
X5080000Y-29210000D01*
X5080000Y-29210000D02*
X5080000Y-29845000D01*
X5080000Y-29845000D02*
X5080000Y-31115000D01*
X5080000Y-31115000D02*
X5080000Y-32385000D01*
X5080000Y-32385000D02*
X5080000Y-33020000D01*
X5080000Y-33020000D02*
X5080000Y-34925000D01*
X5080000Y-34925000D02*
X5080000Y-35560000D01*
X5080000Y-35560000D02*
X5080000Y-36830000D01*
X5080000Y-36830000D02*
X5080000Y-37465000D01*
X5080000Y-37465000D02*
X5080000Y-39370000D01*
X5080000Y-39370000D02*
X5080000Y-40005000D01*
X5080000Y-40005000D02*
X5080000Y-41275000D01*
X5080000Y-41275000D02*
X5080000Y-41910000D01*
X5080000Y-41910000D02*
X5080000Y-43815000D01*
X5080000Y-43815000D02*
X5080000Y-44450000D01*
X5080000Y-44450000D02*
X5080000Y-45720000D01*
X5080000Y-45720000D02*
X5080000Y-46355000D01*
X5080000Y-46355000D02*
X5080000Y-48260000D01*
X5080000Y-48260000D02*
X5080000Y-48895000D01*
X5080000Y-48895000D02*
X5080000Y-50800000D01*
X5080000Y-50800000D02*
X5080000Y-51435000D01*
X5080000Y-51435000D02*
X5080000Y-52705000D01*
X5080000Y-52705000D02*
X5080000Y-53340000D01*
X5080000Y-53340000D02*
X5080000Y-55245000D01*
X5080000Y-55245000D02*
X5080000Y-55880000D01*
X5080000Y-55880000D02*
X5080000Y-57150000D01*
X5080000Y-57150000D02*
X5080000Y-57785000D01*
X5080000Y-57785000D02*
X5080000Y-59690000D01*
X5080000Y-59690000D02*
X5080000Y-60325000D01*
X5080000Y-60325000D02*
X5080000Y-61595000D01*
X5080000Y-61595000D02*
X5080000Y-62230000D01*
X5080000Y-62230000D02*
X5080000Y-63500000D01*
X5080000Y-63500000D02*
X5080000Y-64135000D01*
X5080000Y-64135000D02*
X5080000Y-64770000D01*
X5080000Y-64770000D02*
X5080000Y-66040000D01*
X5080000Y-66040000D02*
X5080000Y-66675000D01*
X5080000Y-66675000D02*
X5080000Y-67945000D01*
X5080000Y-67945000D02*
X5080000Y-68580000D01*
X5080000Y-68580000D02*
X5080000Y-69215000D01*
X5080000Y-69215000D02*
X5080000Y-69850000D01*
X5080000Y-69850000D02*
X5080000Y-71120000D01*
X5080000Y-71120000D02*
X5080000Y-71755000D01*
X5080000Y-71755000D02*
X5080000Y-73025000D01*
X5080000Y-73025000D02*
X5080000Y-73660000D01*
X5080000Y-73660000D02*
X5080000Y-74930000D01*
X5080000Y-74930000D02*
X5080000Y-75565000D01*
X5080000Y-75565000D02*
X5080000Y-76835000D01*
X5080000Y-76835000D02*
X5080000Y-77470000D01*
X5080000Y-77470000D02*
X5080000Y-78105000D01*
X5080000Y-78105000D02*
X5080000Y-78740000D01*
X5080000Y-78740000D02*
X5080000Y-80010000D01*
X5080000Y-80010000D02*
X5080000Y-80645000D01*
X5080000Y-80645000D02*
X6350000Y-80645000D01*
X6350000Y-80645000D02*
X6985000Y-80645000D01*
X6985000Y-80645000D02*
X7620000Y-80645000D01*
X7620000Y-80645000D02*
X8255000Y-80645000D01*
X8255000Y-80645000D02*
X12700000Y-80645000D01*
X12700000Y-80645000D02*
X13335000Y-80645000D01*
X13335000Y-80645000D02*
X13335000Y-81915000D01*
X13335000Y-81915000D02*
X13335000Y-82550000D01*
X13335000Y-82550000D02*
X13335000Y-83820000D01*
X13335000Y-83820000D02*
X13335000Y-84455000D01*
X13335000Y-84455000D02*
X13335000Y-85090000D01*
X13335000Y-85090000D02*
X13335000Y-85725000D01*
X13335000Y-85725000D02*
X15875000Y-85725000D01*
X15875000Y-85725000D02*
X16510000Y-85725000D01*
X16510000Y-85725000D02*
X17145000Y-85725000D01*
X17145000Y-85725000D02*
X17780000Y-85725000D01*
X17780000Y-85725000D02*
X18415000Y-85725000D01*
X18415000Y-85725000D02*
X19050000Y-85725000D01*
X19050000Y-85725000D02*
X19685000Y-85725000D01*
X19685000Y-85725000D02*
X20955000Y-85725000D01*
X20955000Y-85725000D02*
X21590000Y-85725000D01*
X21590000Y-85725000D02*
X22225000Y-85725000D01*
X22225000Y-85725000D02*
X22860000Y-85725000D01*
X22860000Y-85725000D02*
X23495000Y-85725000D01*
X23495000Y-85725000D02*
X24130000Y-85725000D01*
X24130000Y-85725000D02*
X24765000Y-85725000D01*
X24765000Y-85725000D02*
X25400000Y-85725000D01*
X25400000Y-85725000D02*
X26670000Y-85725000D01*
X26670000Y-85725000D02*
X27305000Y-85725000D01*
X27305000Y-85725000D02*
X27940000Y-85725000D01*
X27940000Y-85725000D02*
X28575000Y-85725000D01*
X28575000Y-85725000D02*
X29210000Y-85725000D01*
X29210000Y-85725000D02*
X29845000Y-85725000D01*
X29845000Y-85725000D02*
X31115000Y-85725000D01*
X31115000Y-85725000D02*
X32385000Y-85725000D01*
X32385000Y-85725000D02*
X33020000Y-85725000D01*
X33020000Y-85725000D02*
X34925000Y-85725000D01*
X34925000Y-85725000D02*
X35560000Y-85725000D01*
X35560000Y-85725000D02*
X36830000Y-85725000D01*
X36830000Y-85725000D02*
X37465000Y-85725000D01*
X37465000Y-85725000D02*
X39370000Y-85725000D01*
X39370000Y-85725000D02*
X40005000Y-85725000D01*
X40005000Y-85725000D02*
X41275000Y-85725000D01*
X41275000Y-85725000D02*
X41275000Y-85090000D01*
X41275000Y-85090000D02*
X41275000Y-84455000D01*
X41275000Y-84455000D02*
X41275000Y-83820000D01*
%TO.N,GPIO5*%
X78740000Y-55245000D02*
X78105000Y-55245000D01*
X78105000Y-55245000D02*
X77470000Y-55245000D01*
X77470000Y-55245000D02*
X76835000Y-55245000D01*
X76835000Y-55245000D02*
X75565000Y-55245000D01*
X75565000Y-55245000D02*
X74930000Y-55245000D01*
X74930000Y-55245000D02*
X73660000Y-55245000D01*
X73660000Y-77470000D02*
X73660000Y-78105000D01*
X73660000Y-78105000D02*
X73660000Y-78740000D01*
X73660000Y-78740000D02*
X73660000Y-80010000D01*
X73660000Y-80010000D02*
X73660000Y-80645000D01*
X73660000Y-80645000D02*
X73660000Y-81915000D01*
X73660000Y-81915000D02*
X73660000Y-82550000D01*
X73660000Y-82550000D02*
X73660000Y-83820000D01*
X73660000Y-83820000D02*
X73660000Y-84455000D01*
X73660000Y-84455000D02*
X73660000Y-85090000D01*
X73660000Y-85090000D02*
X73660000Y-85725000D01*
X73660000Y-85725000D02*
X73660000Y-86995000D01*
X73660000Y-86995000D02*
X73660000Y-87630000D01*
X73660000Y-87630000D02*
X73660000Y-88900000D01*
X73660000Y-88900000D02*
X73660000Y-89535000D01*
X73660000Y-89535000D02*
X73660000Y-90805000D01*
X73660000Y-90805000D02*
X73660000Y-91440000D01*
X73660000Y-91440000D02*
X73660000Y-92710000D01*
X73660000Y-92710000D02*
X73660000Y-93345000D01*
X73660000Y-93345000D02*
X73660000Y-93980000D01*
X73660000Y-93980000D02*
X73660000Y-94615000D01*
X73660000Y-94615000D02*
X73660000Y-95885000D01*
X73660000Y-95885000D02*
X73660000Y-96520000D01*
X73660000Y-96520000D02*
X73660000Y-97790000D01*
X73660000Y-97790000D02*
X73660000Y-98425000D01*
X73660000Y-98425000D02*
X73660000Y-99695000D01*
X73660000Y-99695000D02*
X74930000Y-99695000D01*
X74930000Y-99695000D02*
X75565000Y-99695000D01*
X75565000Y-99695000D02*
X76835000Y-99695000D01*
X76835000Y-99695000D02*
X77470000Y-99695000D01*
X77470000Y-99695000D02*
X78105000Y-99695000D01*
X78105000Y-99695000D02*
X78740000Y-99695000D01*
X78740000Y-99695000D02*
X80010000Y-99695000D01*
X80010000Y-99695000D02*
X80645000Y-99695000D01*
X80645000Y-99695000D02*
X81915000Y-99695000D01*
X81915000Y-99695000D02*
X82550000Y-99695000D01*
X82550000Y-99695000D02*
X83820000Y-99695000D01*
X83820000Y-99695000D02*
X84455000Y-99695000D01*
X84455000Y-99695000D02*
X85090000Y-99695000D01*
X85090000Y-99695000D02*
X85725000Y-99695000D01*
X85725000Y-99695000D02*
X86995000Y-99695000D01*
X86995000Y-99695000D02*
X87630000Y-99695000D01*
X87630000Y-99695000D02*
X88900000Y-99695000D01*
X88900000Y-99695000D02*
X89535000Y-99695000D01*
X89535000Y-99695000D02*
X90805000Y-99695000D01*
X90805000Y-99695000D02*
X91440000Y-99695000D01*
X91440000Y-99695000D02*
X92710000Y-99695000D01*
X92710000Y-99695000D02*
X93345000Y-99695000D01*
X93345000Y-99695000D02*
X93980000Y-99695000D01*
X93980000Y-99695000D02*
X94615000Y-99695000D01*
X94615000Y-99695000D02*
X95885000Y-99695000D01*
X95885000Y-99695000D02*
X96520000Y-99695000D01*
X96520000Y-99695000D02*
X97790000Y-99695000D01*
X97790000Y-99695000D02*
X98425000Y-99695000D01*
X98425000Y-99695000D02*
X99695000Y-99695000D01*
X99695000Y-99695000D02*
X100330000Y-99695000D01*
X100330000Y-99695000D02*
X100965000Y-99695000D01*
X100965000Y-99695000D02*
X101600000Y-99695000D01*
X101600000Y-99695000D02*
X102870000Y-99695000D01*
X102870000Y-99695000D02*
X103505000Y-99695000D01*
X103505000Y-99695000D02*
X104775000Y-99695000D01*
X104775000Y-99695000D02*
X105410000Y-99695000D01*
X105410000Y-99695000D02*
X106680000Y-99695000D01*
X106680000Y-99695000D02*
X107315000Y-99695000D01*
X107315000Y-99695000D02*
X108585000Y-99695000D01*
X108585000Y-99695000D02*
X109220000Y-99695000D01*
X109220000Y-99695000D02*
X109855000Y-99695000D01*
X109855000Y-99695000D02*
X110490000Y-99695000D01*
X110490000Y-99695000D02*
X111125000Y-99695000D01*
%TO.N,GPIO32*%
X53340000Y-47625000D02*
X55245000Y-47625000D01*
X55245000Y-47625000D02*
X55880000Y-47625000D01*
X55880000Y-47625000D02*
X55880000Y-48260000D01*
X55880000Y-48260000D02*
X55880000Y-48895000D01*
X55880000Y-48895000D02*
X55880000Y-50800000D01*
X55880000Y-50800000D02*
X55880000Y-51435000D01*
X55880000Y-51435000D02*
X55880000Y-52705000D01*
X55880000Y-52705000D02*
X55880000Y-53340000D01*
X55880000Y-53340000D02*
X55880000Y-55245000D01*
X55880000Y-77470000D02*
X55880000Y-78105000D01*
X55880000Y-78105000D02*
X55880000Y-78740000D01*
X55880000Y-78740000D02*
X55880000Y-80010000D01*
X55880000Y-80010000D02*
X55880000Y-80645000D01*
X55880000Y-80645000D02*
X55880000Y-81915000D01*
X55880000Y-81915000D02*
X55880000Y-82550000D01*
X55880000Y-82550000D02*
X55880000Y-83820000D01*
X55880000Y-83820000D02*
X55880000Y-84455000D01*
X55880000Y-84455000D02*
X55880000Y-85090000D01*
X55880000Y-85090000D02*
X55880000Y-85725000D01*
X55880000Y-85725000D02*
X55880000Y-86995000D01*
X55880000Y-86995000D02*
X55880000Y-87630000D01*
X55880000Y-87630000D02*
X55880000Y-88900000D01*
X55880000Y-88900000D02*
X55880000Y-89535000D01*
X55880000Y-89535000D02*
X55880000Y-90805000D01*
X55880000Y-90805000D02*
X55880000Y-91440000D01*
X55880000Y-91440000D02*
X55880000Y-92710000D01*
%TD*%
M02*
